{"asset":{"version":"2.0","generator":"THREE.GLTFExporter"},"scenes":[{"name":"AuxScene","nodes":[17]}],"scene":0,"nodes":[{"matrix":[1,0,0,0,0,1,0,0,0,0,1,0,0,0.7,0,1],"mesh":0},{"matrix":[1,0,0,0,0,1,0,0,0,0,1,0,0,1.65,0,1],"mesh":1},{"matrix":[1,0,0,0,0,1,0,0,0,0,1,0,0,2,0,1],"mesh":2},{"matrix":[1,0,0,0,0,1,0,0,0,0,1,0,0,2.25,0,1],"mesh":3},{"matrix":[1,0,0,0,0,1,0,0,0,0,1,0,0,2.5,0,1],"mesh":4},{"matrix":[1,0,0,0,0,1,0,0,0,0,1,0,0,2.7,-0.08,1],"mesh":5},{"matrix":[0.8660254037844387,0.49999999999999994,0,0,-0.49999999999999994,0.8660254037844387,0,0,0,0,1,0,-0.35,1.7,0.15,1],"mesh":6},{"matrix":[0.9396926207859084,0.17101007166283438,0.2961981327260238,0,-0.3420201433256687,0.4698463103929543,0.8137976813493737,0,0,-0.8660254037844386,0.5000000000000002,0,-0.5,1.4,0.25,1],"mesh":7},{"matrix":[0.9063077870366499,-0.42261826174069944,0,0,0.42261826174069944,0.9063077870366499,0,0,0,0,1,0,0.35,1.7,0.1,1],"mesh":8},{"matrix":[0.8660254037844387,-0.17101007166283433,-0.4698463103929541,0,0.4999999999999999,0.2961981327260239,0.8137976813493737,0,-2.7755575615628914e-17,-0.9396926207859084,0.34202014332566877,0,0.45,1.35,0.2,1],"mesh":9},{"matrix":[1,0,0,0,0,1,0,0,0,0,1,0,0,1.3,0.35,1],"mesh":10},{"matrix":[1,0,0,0,0,1,0,0,0,0,1,0,0,1.2,0.35,1],"mesh":11},{"matrix":[1,0,0,0,0,1,0,0,0,0,1,0,-0.1,1.45,0.55,1],"mesh":12},{"matrix":[1,0,0,0,0,1,0,0,0,0,1,0,0.15,1.35,0.6,1],"mesh":13},{"matrix":[1,0,0,0,0,1,0,0,0,0,1,0,-0.25,1.9,0.1,1],"mesh":14},{"matrix":[1,0,0,0,0,1,0,0,0,0,1,0,0.05,1.5,0.58,1],"mesh":15},{"matrix":[1,0,0,0,0,1,0,0,0,0,1,0,0,-0.15,0,1],"mesh":16},{"children":[0,1,2,3,4,5,6,7,8,9,10,11,12,13,14,15,16]}],"bufferViews":[{"buffer":0,"byteOffset":0,"byteLength":408,"target":34962,"byteStride":12},{"buffer":0,"byteOffset":408,"byteLength":408,"target":34962,"byteStride":12},{"buffer":0,"byteOffset":816,"byteLength":272,"target":34962,"byteStride":8},{"buffer":0,"byteOffset":1088,"byteLength":192,"target":34963},{"buffer":0,"byteOffset":1280,"byteLength":1200,"target":34962,"byteStride":12},{"buffer":0,"byteOffset":2480,"byteLength":1200,"target":34962,"byteStride":12},{"buffer":0,"byteOffset":3680,"byteLength":800,"target":34962,"byteStride":8},{"buffer":0,"byteOffset":4480,"byteLength":384,"target":34963},{"buffer":0,"byteOffset":4864,"byteLength":1836,"target":34962,"byteStride":12},{"buffer":0,"byteOffset":6700,"byteLength":1836,"target":34962,"byteStride":12},{"buffer":0,"byteOffset":8536,"byteLength":1224,"target":34962,"byteStride":8},{"buffer":0,"byteOffset":9760,"byteLength":1440,"target":34963},{"buffer":0,"byteOffset":11200,"byteLength":912,"target":34962,"byteStride":12},{"buffer":0,"byteOffset":12112,"byteLength":912,"target":34962,"byteStride":12},{"buffer":0,"byteOffset":13024,"byteLength":608,"target":34962,"byteStride":8},{"buffer":0,"byteOffset":13632,"byteLength":288,"target":34963},{"buffer":0,"byteOffset":13920,"byteLength":2652,"target":34962,"byteStride":12},{"buffer":0,"byteOffset":16572,"byteLength":2652,"target":34962,"byteStride":12},{"buffer":0,"byteOffset":19224,"byteLength":1768,"target":34962,"byteStride":8},{"buffer":0,"byteOffset":20992,"byteLength":2112,"target":34963},{"buffer":0,"byteOffset":23104,"byteLength":1404,"target":34962,"byteStride":12},{"buffer":0,"byteOffset":24508,"byteLength":1404,"target":34962,"byteStride":12},{"buffer":0,"byteOffset":25912,"byteLength":936,"target":34962,"byteStride":8},{"buffer":0,"byteOffset":26848,"byteLength":1008,"target":34963},{"buffer":0,"byteOffset":27856,"byteLength":624,"target":34962,"byteStride":12},{"buffer":0,"byteOffset":28480,"byteLength":624,"target":34962,"byteStride":12},{"buffer":0,"byteOffset":29104,"byteLength":416,"target":34962,"byteStride":8},{"buffer":0,"byteOffset":29520,"byteLength":192,"target":34963},{"buffer":0,"byteOffset":29712,"byteLength":624,"target":34962,"byteStride":12},{"buffer":0,"byteOffset":30336,"byteLength":624,"target":34962,"byteStride":12},{"buffer":0,"byteOffset":30960,"byteLength":416,"target":34962,"byteStride":8},{"buffer":0,"byteOffset":31376,"byteLength":192,"target":34963},{"buffer":0,"byteOffset":31568,"byteLength":624,"target":34962,"byteStride":12},{"buffer":0,"byteOffset":32192,"byteLength":624,"target":34962,"byteStride":12},{"buffer":0,"byteOffset":32816,"byteLength":416,"target":34962,"byteStride":8},{"buffer":0,"byteOffset":33232,"byteLength":192,"target":34963},{"buffer":0,"byteOffset":33424,"byteLength":624,"target":34962,"byteStride":12},{"buffer":0,"byteOffset":34048,"byteLength":624,"target":34962,"byteStride":12},{"buffer":0,"byteOffset":34672,"byteLength":416,"target":34962,"byteStride":8},{"buffer":0,"byteOffset":35088,"byteLength":192,"target":34963},{"buffer":0,"byteOffset":35280,"byteLength":1836,"target":34962,"byteStride":12},{"buffer":0,"byteOffset":37116,"byteLength":1836,"target":34962,"byteStride":12},{"buffer":0,"byteOffset":38952,"byteLength":1224,"target":34962,"byteStride":8},{"buffer":0,"byteOffset":40176,"byteLength":1440,"target":34963},{"buffer":0,"byteOffset":41616,"byteLength":1200,"target":34962,"byteStride":12},{"buffer":0,"byteOffset":42816,"byteLength":1200,"target":34962,"byteStride":12},{"buffer":0,"byteOffset":44016,"byteLength":800,"target":34962,"byteStride":8},{"buffer":0,"byteOffset":44816,"byteLength":384,"target":34963},{"buffer":0,"byteOffset":45200,"byteLength":420,"target":34962,"byteStride":12},{"buffer":0,"byteOffset":45620,"byteLength":420,"target":34962,"byteStride":12},{"buffer":0,"byteOffset":46040,"byteLength":280,"target":34962,"byteStride":8},{"buffer":0,"byteOffset":46320,"byteLength":216,"target":34963},{"buffer":0,"byteOffset":46536,"byteLength":420,"target":34962,"byteStride":12},{"buffer":0,"byteOffset":46956,"byteLength":420,"target":34962,"byteStride":12},{"buffer":0,"byteOffset":47376,"byteLength":280,"target":34962,"byteStride":8},{"buffer":0,"byteOffset":47656,"byteLength":216,"target":34963},{"buffer":0,"byteOffset":47872,"byteLength":420,"target":34962,"byteStride":12},{"buffer":0,"byteOffset":48292,"byteLength":420,"target":34962,"byteStride":12},{"buffer":0,"byteOffset":48712,"byteLength":280,"target":34962,"byteStride":8},{"buffer":0,"byteOffset":48992,"byteLength":216,"target":34963},{"buffer":0,"byteOffset":49208,"byteLength":420,"target":34962,"byteStride":12},{"buffer":0,"byteOffset":49628,"byteLength":420,"target":34962,"byteStride":12},{"buffer":0,"byteOffset":50048,"byteLength":280,"target":34962,"byteStride":8},{"buffer":0,"byteOffset":50328,"byteLength":216,"target":34963},{"buffer":0,"byteOffset":50544,"byteLength":288,"target":34962,"byteStride":12},{"buffer":0,"byteOffset":50832,"byteLength":288,"target":34962,"byteStride":12},{"buffer":0,"byteOffset":51120,"byteLength":192,"target":34962,"byteStride":8},{"buffer":0,"byteOffset":51312,"byteLength":72,"target":34963}],"buffers":[{"byteLength":51384,"uri":"data:application/octet-stream;base64,"}],"accessors":[{"bufferView":0,"componentType":5126,"count":34,"max":[0.5,0.699999988079071,0.5],"min":[-0.5,-0.699999988079071,-0.5],"type":"VEC3"},{"bufferView":1,"componentType":5126,"count":34,"max":[0.9417418837547302,0.3363364040851593,0.9417418837547302],"min":[-0.9417418837547302,0.3363364040851593,-0.9417418837547302],"type":"VEC3"},{"bufferView":2,"componentType":5126,"count":34,"max":[1,1],"min":[0,0],"type":"VEC2"},{"bufferView":3,"componentType":5123,"count":96,"max":[33],"min":[0],"type":"SCALAR"},{"bufferView":4,"componentType":5126,"count":100,"max":[0.2800000011920929,0.3499999940395355,0.2800000011920929],"min":[-0.2800000011920929,-0.3499999940395355,-0.2800000011920929],"type":"VEC3"},{"bufferView":5,"componentType":5126,"count":100,"max":[1,1,1],"min":[-1,-1,-1],"type":"VEC3"},{"bufferView":6,"componentType":5126,"count":100,"max":[1,1],"min":[0,0],"type":"VEC2"},{"bufferView":7,"componentType":5123,"count":192,"max":[99],"min":[0],"type":"SCALAR"},{"bufferView":8,"componentType":5126,"count":153,"max":[0.30000001192092896,0.30000001192092896,0.30000001192092896],"min":[-0.30000001192092896,1.8369702788777518e-17,-0.30000001192092896],"type":"VEC3"},{"bufferView":9,"componentType":5126,"count":153,"max":[1,1,1],"min":[-1,6.123234262925839e-17,-1],"type":"VEC3"},{"bufferView":10,"componentType":5126,"count":153,"max":[1.03125,1],"min":[0,0],"type":"VEC2"},{"bufferView":11,"componentType":5123,"count":720,"max":[152],"min":[0],"type":"SCALAR"},{"bufferView":12,"componentType":5126,"count":76,"max":[0.10000000149011612,0.10000000149011612,0.10000000149011612],"min":[-0.10000000149011612,-0.10000000149011612,-0.10000000149011612],"type":"VEC3"},{"bufferView":13,"componentType":5126,"count":76,"max":[1,1,1],"min":[-1,-1,-1],"type":"VEC3"},{"bufferView":14,"componentType":5126,"count":76,"max":[1,1],"min":[0,0],"type":"VEC2"},{"bufferView":15,"componentType":5123,"count":144,"max":[75],"min":[0],"type":"SCALAR"},{"bufferView":16,"componentType":5126,"count":221,"max":[0.20000000298023224,0.20000000298023224,0.20000000298023224],"min":[-0.20000000298023224,-0.20000000298023224,-0.20000000298023224],"type":"VEC3"},{"bufferView":17,"componentType":5126,"count":221,"max":[1,1,1],"min":[-1,-1,-1],"type":"VEC3"},{"bufferView":18,"componentType":5126,"count":221,"max":[1.03125,1],"min":[-0.03125,0],"type":"VEC2"},{"bufferView":19,"componentType":5123,"count":1056,"max":[220],"min":[0],"type":"SCALAR"},{"bufferView":20,"componentType":5126,"count":117,"max":[0.11999999731779099,0.11999999731779099,0.11999999731779099],"min":[-0.11999999731779099,-0.11999999731779099,-0.11999999731779099],"type":"VEC3"},{"bufferView":21,"componentType":5126,"count":117,"max":[1,1,1],"min":[-1,-1,-1],"type":"VEC3"},{"bufferView":22,"componentType":5126,"count":117,"max":[1.0416666269302368,1],"min":[-0.0416666679084301,0],"type":"VEC2"},{"bufferView":23,"componentType":5123,"count":504,"max":[116],"min":[0],"type":"SCALAR"},{"bufferView":24,"componentType":5126,"count":52,"max":[0.07000000029802322,0.25,0.07000000029802322],"min":[-0.07000000029802322,-0.25,-0.07000000029802322],"type":"VEC3"},{"bufferView":25,"componentType":5126,"count":52,"max":[1,1,1],"min":[-1,-1,-1],"type":"VEC3"},{"bufferView":26,"componentType":5126,"count":52,"max":[1,1],"min":[0,0],"type":"VEC2"},{"bufferView":27,"componentType":5123,"count":96,"max":[51],"min":[0],"type":"SCALAR"},{"bufferView":28,"componentType":5126,"count":52,"max":[0.05999999865889549,0.20000000298023224,0.05999999865889549],"min":[-0.05999999865889549,-0.20000000298023224,-0.05999999865889549],"type":"VEC3"},{"bufferView":29,"componentType":5126,"count":52,"max":[1,1,1],"min":[-1,-1,-1],"type":"VEC3"},{"bufferView":30,"componentType":5126,"count":52,"max":[1,1],"min":[0,0],"type":"VEC2"},{"bufferView":31,"componentType":5123,"count":96,"max":[51],"min":[0],"type":"SCALAR"},{"bufferView":32,"componentType":5126,"count":52,"max":[0.07000000029802322,0.25,0.07000000029802322],"min":[-0.07000000029802322,-0.25,-0.07000000029802322],"type":"VEC3"},{"bufferView":33,"componentType":5126,"count":52,"max":[1,1,1],"min":[-1,-1,-1],"type":"VEC3"},{"bufferView":34,"componentType":5126,"count":52,"max":[1,1],"min":[0,0],"type":"VEC2"},{"bufferView":35,"componentType":5123,"count":96,"max":[51],"min":[0],"type":"SCALAR"},{"bufferView":36,"componentType":5126,"count":52,"max":[0.05999999865889549,0.20000000298023224,0.05999999865889549],"min":[-0.05999999865889549,-0.20000000298023224,-0.05999999865889549],"type":"VEC3"},{"bufferView":37,"componentType":5126,"count":52,"max":[1,1,1],"min":[-1,-1,-1],"type":"VEC3"},{"bufferView":38,"componentType":5126,"count":52,"max":[1,1],"min":[0,0],"type":"VEC2"},{"bufferView":39,"componentType":5123,"count":96,"max":[51],"min":[0],"type":"SCALAR"},{"bufferView":40,"componentType":5126,"count":153,"max":[0.2800000011920929,0.2800000011920929,0.2800000011920929],"min":[-0.2800000011920929,1.714505527444786e-17,-0.2800000011920929],"type":"VEC3"},{"bufferView":41,"componentType":5126,"count":153,"max":[1,1,1],"min":[-1,6.123234262925839e-17,-1],"type":"VEC3"},{"bufferView":42,"componentType":5126,"count":153,"max":[1.03125,1],"min":[0,0],"type":"VEC2"},{"bufferView":43,"componentType":5123,"count":720,"max":[152],"min":[0],"type":"SCALAR"},{"bufferView":44,"componentType":5126,"count":100,"max":[0.2800000011920929,0.10000000149011612,0.2800000011920929],"min":[-0.2800000011920929,-0.10000000149011612,-0.2800000011920929],"type":"VEC3"},{"bufferView":45,"componentType":5126,"count":100,"max":[1,1,1],"min":[-1,-1,-1],"type":"VEC3"},{"bufferView":46,"componentType":5126,"count":100,"max":[1,1],"min":[0,0],"type":"VEC2"},{"bufferView":47,"componentType":5123,"count":192,"max":[99],"min":[0],"type":"SCALAR"},{"bufferView":48,"componentType":5126,"count":35,"max":[0.029999999329447746,0.029999999329447746,0.025980761274695396],"min":[-0.029999999329447746,-0.029999999329447746,-0.025980761274695396],"type":"VEC3"},{"bufferView":49,"componentType":5126,"count":35,"max":[1,1,0.8660253882408142],"min":[-1,-1,-0.8660253882408142],"type":"VEC3"},{"bufferView":50,"componentType":5126,"count":35,"max":[1.0833333730697632,1],"min":[-0.0833333358168602,0],"type":"VEC2"},{"bufferView":51,"componentType":5123,"count":108,"max":[34],"min":[0],"type":"SCALAR"},{"bufferView":52,"componentType":5126,"count":35,"max":[0.02500000037252903,0.02500000037252903,0.021650634706020355],"min":[-0.02500000037252903,-0.02500000037252903,-0.021650634706020355],"type":"VEC3"},{"bufferView":53,"componentType":5126,"count":35,"max":[1,1,0.8660253882408142],"min":[-1,-1,-0.8660253882408142],"type":"VEC3"},{"bufferView":54,"componentType":5126,"count":35,"max":[1.0833333730697632,1],"min":[-0.0833333358168602,0],"type":"VEC2"},{"bufferView":55,"componentType":5123,"count":108,"max":[34],"min":[0],"type":"SCALAR"},{"bufferView":56,"componentType":5126,"count":35,"max":[0.02500000037252903,0.02500000037252903,0.021650634706020355],"min":[-0.02500000037252903,-0.02500000037252903,-0.021650634706020355],"type":"VEC3"},{"bufferView":57,"componentType":5126,"count":35,"max":[1,1,0.8660253882408142],"min":[-1,-1,-0.8660253882408142],"type":"VEC3"},{"bufferView":58,"componentType":5126,"count":35,"max":[1.0833333730697632,1],"min":[-0.0833333358168602,0],"type":"VEC2"},{"bufferView":59,"componentType":5123,"count":108,"max":[34],"min":[0],"type":"SCALAR"},{"bufferView":60,"componentType":5126,"count":35,"max":[0.019999999552965164,0.019999999552965164,0.017320508137345314],"min":[-0.019999999552965164,-0.019999999552965164,-0.017320508137345314],"type":"VEC3"},{"bufferView":61,"componentType":5126,"count":35,"max":[1,1,0.8660253882408142],"min":[-1,-1,-0.8660253882408142],"type":"VEC3"},{"bufferView":62,"componentType":5126,"count":35,"max":[1.0833333730697632,1],"min":[-0.0833333358168602,0],"type":"VEC2"},{"bufferView":63,"componentType":5123,"count":108,"max":[34],"min":[0],"type":"SCALAR"},{"bufferView":64,"componentType":5126,"count":24,"max":[0.6000000238418579,0.15000000596046448,0.6000000238418579],"min":[-0.6000000238418579,-0.15000000596046448,-0.6000000238418579],"type":"VEC3"},{"bufferView":65,"componentType":5126,"count":24,"max":[1,1,1],"min":[-1,-1,-1],"type":"VEC3"},{"bufferView":66,"componentType":5126,"count":24,"max":[1,1],"min":[0,0],"type":"VEC2"},{"bufferView":67,"componentType":5123,"count":36,"max":[23],"min":[0],"type":"SCALAR"}],"materials":[{"pbrMetallicRoughness":{"baseColorFactor":[0.8784313725490196,0.8627450980392157,0.8313725490196079,1],"metallicFactor":0.1,"roughnessFactor":0.4}},{"pbrMetallicRoughness":{"baseColorFactor":[0.8156862745098039,0.8,0.7686274509803922,1],"metallicFactor":0.1,"roughnessFactor":0.4}},{"pbrMetallicRoughness":{"baseColorFactor":[0.7843137254901961,0.7529411764705882,0.6588235294117647,1],"metallicFactor":0.1,"roughnessFactor":0.4}},{"pbrMetallicRoughness":{"baseColorFactor":[0.22745098039215686,0.18823529411764706,0.12549019607843137,1],"metallicFactor":0.1,"roughnessFactor":0.4}},{"pbrMetallicRoughness":{"baseColorFactor":[0.7843137254901961,0.7686274509803922,0.7372549019607844,1],"metallicFactor":0.1,"roughnessFactor":0.4}}],"meshes":[{"primitives":[{"mode":4,"attributes":{"POSITION":0,"NORMAL":1,"TEXCOORD_0":2},"indices":3,"material":0}]},{"primitives":[{"mode":4,"attributes":{"POSITION":4,"NORMAL":5,"TEXCOORD_0":6},"indices":7,"material":0}]},{"primitives":[{"mode":4,"attributes":{"POSITION":8,"NORMAL":9,"TEXCOORD_0":10},"indices":11,"material":0}]},{"primitives":[{"mode":4,"attributes":{"POSITION":12,"NORMAL":13,"TEXCOORD_0":14},"indices":15,"material":0}]},{"primitives":[{"mode":4,"attributes":{"POSITION":16,"NORMAL":17,"TEXCOORD_0":18},"indices":19,"material":0}]},{"primitives":[{"mode":4,"attributes":{"POSITION":20,"NORMAL":21,"TEXCOORD_0":22},"indices":23,"material":1}]},{"primitives":[{"mode":4,"attributes":{"POSITION":24,"NORMAL":25,"TEXCOORD_0":26},"indices":27,"material":0}]},{"primitives":[{"mode":4,"attributes":{"POSITION":28,"NORMAL":29,"TEXCOORD_0":30},"indices":31,"material":0}]},{"primitives":[{"mode":4,"attributes":{"POSITION":32,"NORMAL":33,"TEXCOORD_0":34},"indices":35,"material":0}]},{"primitives":[{"mode":4,"attributes":{"POSITION":36,"NORMAL":37,"TEXCOORD_0":38},"indices":39,"material":0}]},{"primitives":[{"mode":4,"attributes":{"POSITION":40,"NORMAL":41,"TEXCOORD_0":42},"indices":43,"material":2}]},{"primitives":[{"mode":4,"attributes":{"POSITION":44,"NORMAL":45,"TEXCOORD_0":46},"indices":47,"material":2}]},{"primitives":[{"mode":4,"attributes":{"POSITION":48,"NORMAL":49,"TEXCOORD_0":50},"indices":51,"material":3}]},{"primitives":[{"mode":4,"attributes":{"POSITION":52,"NORMAL":53,"TEXCOORD_0":54},"indices":55,"material":3}]},{"primitives":[{"mode":4,"attributes":{"POSITION":56,"NORMAL":57,"TEXCOORD_0":58},"indices":59,"material":3}]},{"primitives":[{"mode":4,"attributes":{"POSITION":60,"NORMAL":61,"TEXCOORD_0":62},"indices":63,"material":3}]},{"primitives":[{"mode":4,"attributes":{"POSITION":64,"NORMAL":65,"TEXCOORD_0":66},"indices":67,"material":4}]}]}