{"asset":{"version":"2.0","generator":"THREE.GLTFExporter"},"scenes":[{"nodes":[15]}],"scene":0,"nodes":[{"matrix":[1,0,0,0,0,1,0,0,0,0,1,0,0,0.35,0,1],"mesh":0},{"matrix":[1,0,0,0,0,1,0,0,0,0,1,0,-0.08,0.05,0,1],"mesh":1},{"matrix":[1,0,0,0,0,1,0,0,0,0,1,0,0.08,0.05,0,1],"mesh":2},{"matrix":[1,0,0,0,0,1.2,0,0,0,0,0.8,0,0,0.55,0,1],"mesh":3},{"matrix":[1,0,0,0,0,1,0,0,0,0,1,0,0,0.78,0,1],"mesh":4},{"matrix":[1,0,0,0,0,1,0,0,0,0,1,0,0,0.86,0.06,1],"mesh":5},{"matrix":[1,0,0,0,0,1,0,0,0,0,1,0,0.06928203230275509,0.86,0.030000000000000006,1],"mesh":6},{"matrix":[1,0,0,0,0,1,0,0,0,0,1,0,0.06928203230275509,0.86,-0.029999999999999985,1],"mesh":7},{"matrix":[1,0,0,0,0,1,0,0,0,0,1,0,9.797174393178826e-18,0.86,-0.06,1],"mesh":8},{"matrix":[1,0,0,0,0,1,0,0,0,0,1,0,-0.06928203230275508,0.86,-0.030000000000000027,1],"mesh":9},{"matrix":[1,0,0,0,0,1,0,0,0,0,1,0,-0.06928203230275509,0.86,0.030000000000000006,1],"mesh":10},{"matrix":[0.6967067093471654,0.7173560908995228,0,0,-0.7173560908995228,0.6967067093471654,0,0,0,0,1,0,-0.2,0.75,0,1],"mesh":11},{"matrix":[0.6967067093471654,-0.7173560908995228,0,0,0.7173560908995228,0.6967067093471654,0,0,0,0,1,0,0.2,0.75,0,1],"mesh":12},{"matrix":[0.955336489125606,0.29552020666133955,0,0,-0.29552020666133955,0.955336489125606,0,0,0,0,1,0,-0.32,0.92,0,1],"mesh":13},{"matrix":[0.955336489125606,-0.29552020666133955,0,0,0.29552020666133955,0.955336489125606,0,0,0,0,1,0,0.32,0.92,0,1],"mesh":14},{"children":[0,1,2,3,4,5,6,7,8,9,10,11,12,13,14]}],"bufferViews":[{"buffer":0,"byteOffset":0,"byteLength":912,"target":34962,"byteStride":12},{"buffer":0,"byteOffset":912,"byteLength":912,"target":34962,"byteStride":12},{"buffer":0,"byteOffset":1824,"byteLength":608,"target":34962,"byteStride":8},{"buffer":0,"byteOffset":2432,"byteLength":288,"target":34963},{"buffer":0,"byteOffset":2720,"byteLength":768,"target":34962,"byteStride":12},{"buffer":0,"byteOffset":3488,"byteLength":768,"target":34962,"byteStride":12},{"buffer":0,"byteOffset":4256,"byteLength":512,"target":34962,"byteStride":8},{"buffer":0,"byteOffset":4768,"byteLength":240,"target":34963},{"buffer":0,"byteOffset":5008,"byteLength":768,"target":34962,"byteStride":12},{"buffer":0,"byteOffset":5776,"byteLength":768,"target":34962,"byteStride":12},{"buffer":0,"byteOffset":6544,"byteLength":512,"target":34962,"byteStride":8},{"buffer":0,"byteOffset":7056,"byteLength":240,"target":34963},{"buffer":0,"byteOffset":7296,"byteLength":2028,"target":34962,"byteStride":12},{"buffer":0,"byteOffset":9324,"byteLength":2028,"target":34962,"byteStride":12},{"buffer":0,"byteOffset":11352,"byteLength":1352,"target":34962,"byteStride":8},{"buffer":0,"byteOffset":12704,"byteLength":1584,"target":34963},{"buffer":0,"byteOffset":14288,"byteLength":2028,"target":34962,"byteStride":12},{"buffer":0,"byteOffset":16316,"byteLength":2028,"target":34962,"byteStride":12},{"buffer":0,"byteOffset":18344,"byteLength":1352,"target":34962,"byteStride":8},{"buffer":0,"byteOffset":19696,"byteLength":1584,"target":34963},{"buffer":0,"byteOffset":21280,"byteLength":972,"target":34962,"byteStride":12},{"buffer":0,"byteOffset":22252,"byteLength":972,"target":34962,"byteStride":12},{"buffer":0,"byteOffset":23224,"byteLength":648,"target":34962,"byteStride":8},{"buffer":0,"byteOffset":23872,"byteLength":672,"target":34963},{"buffer":0,"byteOffset":24544,"byteLength":972,"target":34962,"byteStride":12},{"buffer":0,"byteOffset":25516,"byteLength":972,"target":34962,"byteStride":12},{"buffer":0,"byteOffset":26488,"byteLength":648,"target":34962,"byteStride":8},{"buffer":0,"byteOffset":27136,"byteLength":672,"target":34963},{"buffer":0,"byteOffset":27808,"byteLength":972,"target":34962,"byteStride":12},{"buffer":0,"byteOffset":28780,"byteLength":972,"target":34962,"byteStride":12},{"buffer":0,"byteOffset":29752,"byteLength":648,"target":34962,"byteStride":8},{"buffer":0,"byteOffset":30400,"byteLength":672,"target":34963},{"buffer":0,"byteOffset":31072,"byteLength":972,"target":34962,"byteStride":12},{"buffer":0,"byteOffset":32044,"byteLength":972,"target":34962,"byteStride":12},{"buffer":0,"byteOffset":33016,"byteLength":648,"target":34962,"byteStride":8},{"buffer":0,"byteOffset":33664,"byteLength":672,"target":34963},{"buffer":0,"byteOffset":34336,"byteLength":972,"target":34962,"byteStride":12},{"buffer":0,"byteOffset":35308,"byteLength":972,"target":34962,"byteStride":12},{"buffer":0,"byteOffset":36280,"byteLength":648,"target":34962,"byteStride":8},{"buffer":0,"byteOffset":36928,"byteLength":672,"target":34963},{"buffer":0,"byteOffset":37600,"byteLength":972,"target":34962,"byteStride":12},{"buffer":0,"byteOffset":38572,"byteLength":972,"target":34962,"byteStride":12},{"buffer":0,"byteOffset":39544,"byteLength":648,"target":34962,"byteStride":8},{"buffer":0,"byteOffset":40192,"byteLength":672,"target":34963},{"buffer":0,"byteOffset":40864,"byteLength":768,"target":34962,"byteStride":12},{"buffer":0,"byteOffset":41632,"byteLength":768,"target":34962,"byteStride":12},{"buffer":0,"byteOffset":42400,"byteLength":512,"target":34962,"byteStride":8},{"buffer":0,"byteOffset":42912,"byteLength":240,"target":34963},{"buffer":0,"byteOffset":43152,"byteLength":768,"target":34962,"byteStride":12},{"buffer":0,"byteOffset":43920,"byteLength":768,"target":34962,"byteStride":12},{"buffer":0,"byteOffset":44688,"byteLength":512,"target":34962,"byteStride":8},{"buffer":0,"byteOffset":45200,"byteLength":240,"target":34963},{"buffer":0,"byteOffset":45440,"byteLength":1200,"target":34962,"byteStride":12},{"buffer":0,"byteOffset":46640,"byteLength":1200,"target":34962,"byteStride":12},{"buffer":0,"byteOffset":47840,"byteLength":800,"target":34962,"byteStride":8},{"buffer":0,"byteOffset":48640,"byteLength":384,"target":34963},{"buffer":0,"byteOffset":49024,"byteLength":1200,"target":34962,"byteStride":12},{"buffer":0,"byteOffset":50224,"byteLength":1200,"target":34962,"byteStride":12},{"buffer":0,"byteOffset":51424,"byteLength":800,"target":34962,"byteStride":8},{"buffer":0,"byteOffset":52224,"byteLength":384,"target":34963}],"buffers":[{"byteLength":52608,"uri":"data:application/octet-stream;base64,"}],"accessors":[{"bufferView":0,"componentType":5126,"count":76,"max":[0.15000000596046448,0.25,0.15000000596046448],"min":[-0.15000000596046448,-0.25,-0.15000000596046448],"type":"VEC3"},{"bufferView":1,"componentType":5126,"count":76,"max":[0.9982048273086548,1,0.9982048273086548],"min":[-0.9982048273086548,-1,-0.9982048273086548],"type":"VEC3"},{"bufferView":2,"componentType":5126,"count":76,"max":[1,1],"min":[0,0],"type":"VEC2"},{"bufferView":3,"componentType":5123,"count":144,"max":[75],"min":[0],"type":"SCALAR"},{"bufferView":4,"componentType":5126,"count":64,"max":[0.05706338956952095,0.17499999701976776,0.05999999865889549],"min":[-0.05706338956952095,-0.17499999701976776,-0.05999999865889549],"type":"VEC3"},{"bufferView":5,"componentType":5126,"count":64,"max":[0.9506685733795166,1,0.9995920658111572],"min":[-0.9506685733795166,-1,-0.9995920658111572],"type":"VEC3"},{"bufferView":6,"componentType":5126,"count":64,"max":[1,1],"min":[0,0],"type":"VEC2"},{"bufferView":7,"componentType":5123,"count":120,"max":[63],"min":[0],"type":"SCALAR"},{"bufferView":8,"componentType":5126,"count":64,"max":[0.05706338956952095,0.17499999701976776,0.05999999865889549],"min":[-0.05706338956952095,-0.17499999701976776,-0.05999999865889549],"type":"VEC3"},{"bufferView":9,"componentType":5126,"count":64,"max":[0.9506685733795166,1,0.9995920658111572],"min":[-0.9506685733795166,-1,-0.9995920658111572],"type":"VEC3"},{"bufferView":10,"componentType":5126,"count":64,"max":[1,1],"min":[0,0],"type":"VEC2"},{"bufferView":11,"componentType":5123,"count":120,"max":[63],"min":[0],"type":"SCALAR"},{"bufferView":12,"componentType":5126,"count":169,"max":[0.14000000059604645,0.14000000059604645,0.14000000059604645],"min":[-0.14000000059604645,-0.14000000059604645,-0.14000000059604645],"type":"VEC3"},{"bufferView":13,"componentType":5126,"count":169,"max":[1,1,1],"min":[-1,-1,-1],"type":"VEC3"},{"bufferView":14,"componentType":5126,"count":169,"max":[1.0416666269302368,1],"min":[-0.0416666679084301,0],"type":"VEC2"},{"bufferView":15,"componentType":5123,"count":792,"max":[168],"min":[0],"type":"SCALAR"},{"bufferView":16,"componentType":5126,"count":169,"max":[0.10000000149011612,0.10000000149011612,0.10000000149011612],"min":[-0.10000000149011612,-0.10000000149011612,-0.10000000149011612],"type":"VEC3"},{"bufferView":17,"componentType":5126,"count":169,"max":[1,1,1],"min":[-1,-1,-1],"type":"VEC3"},{"bufferView":18,"componentType":5126,"count":169,"max":[1.0416666269302368,1],"min":[-0.0416666679084301,0],"type":"VEC2"},{"bufferView":19,"componentType":5123,"count":792,"max":[168],"min":[0],"type":"SCALAR"},{"bufferView":20,"componentType":5126,"count":81,"max":[0.029999999329447746,0.029999999329447746,0.029999999329447746],"min":[-0.029999999329447746,-0.029999999329447746,-0.029999999329447746],"type":"VEC3"},{"bufferView":21,"componentType":5126,"count":81,"max":[1,1,1],"min":[-1,-1,-1],"type":"VEC3"},{"bufferView":22,"componentType":5126,"count":81,"max":[1.0625,1],"min":[-0.0625,0],"type":"VEC2"},{"bufferView":23,"componentType":5123,"count":336,"max":[80],"min":[0],"type":"SCALAR"},{"bufferView":24,"componentType":5126,"count":81,"max":[0.029999999329447746,0.029999999329447746,0.029999999329447746],"min":[-0.029999999329447746,-0.029999999329447746,-0.029999999329447746],"type":"VEC3"},{"bufferView":25,"componentType":5126,"count":81,"max":[1,1,1],"min":[-1,-1,-1],"type":"VEC3"},{"bufferView":26,"componentType":5126,"count":81,"max":[1.0625,1],"min":[-0.0625,0],"type":"VEC2"},{"bufferView":27,"componentType":5123,"count":336,"max":[80],"min":[0],"type":"SCALAR"},{"bufferView":28,"componentType":5126,"count":81,"max":[0.029999999329447746,0.029999999329447746,0.029999999329447746],"min":[-0.029999999329447746,-0.029999999329447746,-0.029999999329447746],"type":"VEC3"},{"bufferView":29,"componentType":5126,"count":81,"max":[1,1,1],"min":[-1,-1,-1],"type":"VEC3"},{"bufferView":30,"componentType":5126,"count":81,"max":[1.0625,1],"min":[-0.0625,0],"type":"VEC2"},{"bufferView":31,"componentType":5123,"count":336,"max":[80],"min":[0],"type":"SCALAR"},{"bufferView":32,"componentType":5126,"count":81,"max":[0.029999999329447746,0.029999999329447746,0.029999999329447746],"min":[-0.029999999329447746,-0.029999999329447746,-0.029999999329447746],"type":"VEC3"},{"bufferView":33,"componentType":5126,"count":81,"max":[1,1,1],"min":[-1,-1,-1],"type":"VEC3"},{"bufferView":34,"componentType":5126,"count":81,"max":[1.0625,1],"min":[-0.0625,0],"type":"VEC2"},{"bufferView":35,"componentType":5123,"count":336,"max":[80],"min":[0],"type":"SCALAR"},{"bufferView":36,"componentType":5126,"count":81,"max":[0.029999999329447746,0.029999999329447746,0.029999999329447746],"min":[-0.029999999329447746,-0.029999999329447746,-0.029999999329447746],"type":"VEC3"},{"bufferView":37,"componentType":5126,"count":81,"max":[1,1,1],"min":[-1,-1,-1],"type":"VEC3"},{"bufferView":38,"componentType":5126,"count":81,"max":[1.0625,1],"min":[-0.0625,0],"type":"VEC2"},{"bufferView":39,"componentType":5123,"count":336,"max":[80],"min":[0],"type":"SCALAR"},{"bufferView":40,"componentType":5126,"count":81,"max":[0.029999999329447746,0.029999999329447746,0.029999999329447746],"min":[-0.029999999329447746,-0.029999999329447746,-0.029999999329447746],"type":"VEC3"},{"bufferView":41,"componentType":5126,"count":81,"max":[1,1,1],"min":[-1,-1,-1],"type":"VEC3"},{"bufferView":42,"componentType":5126,"count":81,"max":[1.0625,1],"min":[-0.0625,0],"type":"VEC2"},{"bufferView":43,"componentType":5123,"count":336,"max":[80],"min":[0],"type":"SCALAR"},{"bufferView":44,"componentType":5126,"count":64,"max":[0.03804226219654083,0.15000000596046448,0.03999999910593033],"min":[-0.03804226219654083,-0.15000000596046448,-0.03999999910593033],"type":"VEC3"},{"bufferView":45,"componentType":5126,"count":64,"max":[0.9509244561195374,1,0.9998611211776733],"min":[-0.9509244561195374,-1,-0.9998611211776733],"type":"VEC3"},{"bufferView":46,"componentType":5126,"count":64,"max":[1,1],"min":[0,0],"type":"VEC2"},{"bufferView":47,"componentType":5123,"count":120,"max":[63],"min":[0],"type":"SCALAR"},{"bufferView":48,"componentType":5126,"count":64,"max":[0.03804226219654083,0.15000000596046448,0.03999999910593033],"min":[-0.03804226219654083,-0.15000000596046448,-0.03999999910593033],"type":"VEC3"},{"bufferView":49,"componentType":5126,"count":64,"max":[0.9509244561195374,1,0.9998611211776733],"min":[-0.9509244561195374,-1,-0.9998611211776733],"type":"VEC3"},{"bufferView":50,"componentType":5126,"count":64,"max":[1,1],"min":[0,0],"type":"VEC2"},{"bufferView":51,"componentType":5123,"count":120,"max":[63],"min":[0],"type":"SCALAR"},{"bufferView":52,"componentType":5126,"count":100,"max":[0.11999999731779099,0.009999999776482582,0.11999999731779099],"min":[-0.11999999731779099,-0.009999999776482582,-0.11999999731779099],"type":"VEC3"},{"bufferView":53,"componentType":5126,"count":100,"max":[1,1,1],"min":[-1,-1,-1],"type":"VEC3"},{"bufferView":54,"componentType":5126,"count":100,"max":[1,1],"min":[0,0],"type":"VEC2"},{"bufferView":55,"componentType":5123,"count":192,"max":[99],"min":[0],"type":"SCALAR"},{"bufferView":56,"componentType":5126,"count":100,"max":[0.11999999731779099,0.009999999776482582,0.11999999731779099],"min":[-0.11999999731779099,-0.009999999776482582,-0.11999999731779099],"type":"VEC3"},{"bufferView":57,"componentType":5126,"count":100,"max":[1,1,1],"min":[-1,-1,-1],"type":"VEC3"},{"bufferView":58,"componentType":5126,"count":100,"max":[1,1],"min":[0,0],"type":"VEC2"},{"bufferView":59,"componentType":5123,"count":192,"max":[99],"min":[0],"type":"SCALAR"}],"materials":[{"pbrMetallicRoughness":{"baseColorFactor":[0.8156862745098039,0.8,0.7686274509803922,1],"metallicFactor":0,"roughnessFactor":0.75}},{"pbrMetallicRoughness":{"baseColorFactor":[0.8470588235294118,0.8313725490196079,0.8,1],"metallicFactor":0,"roughnessFactor":0.7}}],"meshes":[{"primitives":[{"mode":4,"attributes":{"POSITION":0,"NORMAL":1,"TEXCOORD_0":2},"indices":3,"material":0}]},{"primitives":[{"mode":4,"attributes":{"POSITION":4,"NORMAL":5,"TEXCOORD_0":6},"indices":7,"material":0}]},{"primitives":[{"mode":4,"attributes":{"POSITION":8,"NORMAL":9,"TEXCOORD_0":10},"indices":11,"material":0}]},{"primitives":[{"mode":4,"attributes":{"POSITION":12,"NORMAL":13,"TEXCOORD_0":14},"indices":15,"material":0}]},{"primitives":[{"mode":4,"attributes":{"POSITION":16,"NORMAL":17,"TEXCOORD_0":18},"indices":19,"material":0}]},{"primitives":[{"mode":4,"attributes":{"POSITION":20,"NORMAL":21,"TEXCOORD_0":22},"indices":23,"material":0}]},{"primitives":[{"mode":4,"attributes":{"POSITION":24,"NORMAL":25,"TEXCOORD_0":26},"indices":27,"material":0}]},{"primitives":[{"mode":4,"attributes":{"POSITION":28,"NORMAL":29,"TEXCOORD_0":30},"indices":31,"material":0}]},{"primitives":[{"mode":4,"attributes":{"POSITION":32,"NORMAL":33,"TEXCOORD_0":34},"indices":35,"material":0}]},{"primitives":[{"mode":4,"attributes":{"POSITION":36,"NORMAL":37,"TEXCOORD_0":38},"indices":39,"material":0}]},{"primitives":[{"mode":4,"attributes":{"POSITION":40,"NORMAL":41,"TEXCOORD_0":42},"indices":43,"material":0}]},{"primitives":[{"mode":4,"attributes":{"POSITION":44,"NORMAL":45,"TEXCOORD_0":46},"indices":47,"material":0}]},{"primitives":[{"mode":4,"attributes":{"POSITION":48,"NORMAL":49,"TEXCOORD_0":50},"indices":51,"material":0}]},{"primitives":[{"mode":4,"attributes":{"POSITION":52,"NORMAL":53,"TEXCOORD_0":54},"indices":55,"material":1}]},{"primitives":[{"mode":4,"attributes":{"POSITION":56,"NORMAL":57,"TEXCOORD_0":58},"indices":59,"material":1}]}]}