{"asset":{"version":"2.0","generator":"THREE.GLTFExporter"},"scenes":[{"nodes":[12]}],"scene":0,"nodes":[{"matrix":[0.9968017063026194,0.07991469396917268,0,0,-0.07991469396917268,0.9968017063026194,0,0,0,0,1,0,0,0.18,0,1],"mesh":0},{"matrix":[1,0,0,0,0,0.7,0,0,0,0,0.9,0,0.01,0.38,0,1],"mesh":1},{"matrix":[0.9987502603949663,0.04997916927067833,0,0,-0.04997916927067833,0.9987502603949663,0,0,0,0,1,0,0.02,0.54,0,1],"mesh":2},{"matrix":[1,0,0,0,0,0.7,0,0,0,0,0.9,0,0.03,0.7,0,1],"mesh":3},{"matrix":[0.9995500337489875,0.029995500202495657,0,0,-0.029995500202495657,0.9995500337489875,0,0,0,0,1,0,0.04,0.82,0,1],"mesh":4},{"matrix":[1,0,0,0,0,1.2,0,0,0,0,0.85,0,0.045,0.94,0,1],"mesh":5},{"matrix":[0.8,0,0,0,0,2.220446049250313e-16,1,0,0,-1.4,3.108624468950438e-16,0,0.048,0.95,0.04,1],"mesh":6},{"matrix":[0.8600893382050472,0.3286518292849542,-0.39017214843406905,0,-0.1743487402881757,0.9081459058602519,0.38062255638517895,0,0.47942553860420295,-0.2593433800522308,0.8383866435942036,0,-0.04,0.03,0.02,1],"mesh":7},{"matrix":[0.6932260777775763,-0.043961269862399115,-0.7193782119589133,0,-0.0695546111948962,0.9893982517516999,-0.12748825629134108,0,0.717356090899523,0.13841425570643062,0.6828189603889089,0,0.05,0.02,-0.03,1],"mesh":8},{"matrix":[0.8799231762812572,0.2112508854224872,0.42556816992265617,0,-0.37202555194225945,0.8634798319072253,0.3405870939884936,0,-0.29552020666133944,-0.4580127108472919,0.8383866435942036,0,0,0.01,0.06,1],"mesh":9},{"matrix":[1,0,0,0,0,1,0,0,0,0,1,0,0.015,0.4,0.08,1],"mesh":10},{"matrix":[1,0,0,0,0,1,0,0,0,0,1,0,0.035,0.72,0.07,1],"mesh":11},{"children":[0,1,2,3,4,5,6,7,8,9,10,11]}],"bufferViews":[{"buffer":0,"byteOffset":0,"byteLength":912,"target":34962,"byteStride":12},{"buffer":0,"byteOffset":912,"byteLength":912,"target":34962,"byteStride":12},{"buffer":0,"byteOffset":1824,"byteLength":608,"target":34962,"byteStride":8},{"buffer":0,"byteOffset":2432,"byteLength":288,"target":34963},{"buffer":0,"byteOffset":2720,"byteLength":2028,"target":34962,"byteStride":12},{"buffer":0,"byteOffset":4748,"byteLength":2028,"target":34962,"byteStride":12},{"buffer":0,"byteOffset":6776,"byteLength":1352,"target":34962,"byteStride":8},{"buffer":0,"byteOffset":8128,"byteLength":1584,"target":34963},{"buffer":0,"byteOffset":9712,"byteLength":912,"target":34962,"byteStride":12},{"buffer":0,"byteOffset":10624,"byteLength":912,"target":34962,"byteStride":12},{"buffer":0,"byteOffset":11536,"byteLength":608,"target":34962,"byteStride":8},{"buffer":0,"byteOffset":12144,"byteLength":288,"target":34963},{"buffer":0,"byteOffset":12432,"byteLength":2028,"target":34962,"byteStride":12},{"buffer":0,"byteOffset":14460,"byteLength":2028,"target":34962,"byteStride":12},{"buffer":0,"byteOffset":16488,"byteLength":1352,"target":34962,"byteStride":8},{"buffer":0,"byteOffset":17840,"byteLength":1584,"target":34963},{"buffer":0,"byteOffset":19424,"byteLength":912,"target":34962,"byteStride":12},{"buffer":0,"byteOffset":20336,"byteLength":912,"target":34962,"byteStride":12},{"buffer":0,"byteOffset":21248,"byteLength":608,"target":34962,"byteStride":8},{"buffer":0,"byteOffset":21856,"byteLength":288,"target":34963},{"buffer":0,"byteOffset":22144,"byteLength":2028,"target":34962,"byteStride":12},{"buffer":0,"byteOffset":24172,"byteLength":2028,"target":34962,"byteStride":12},{"buffer":0,"byteOffset":26200,"byteLength":1352,"target":34962,"byteStride":8},{"buffer":0,"byteOffset":27552,"byteLength":1584,"target":34963},{"buffer":0,"byteOffset":29136,"byteLength":624,"target":34962,"byteStride":12},{"buffer":0,"byteOffset":29760,"byteLength":624,"target":34962,"byteStride":12},{"buffer":0,"byteOffset":30384,"byteLength":416,"target":34962,"byteStride":8},{"buffer":0,"byteOffset":30800,"byteLength":192,"target":34963},{"buffer":0,"byteOffset":30992,"byteLength":144,"target":34962,"byteStride":12},{"buffer":0,"byteOffset":31136,"byteLength":144,"target":34962,"byteStride":12},{"buffer":0,"byteOffset":31280,"byteLength":96,"target":34962,"byteStride":8},{"buffer":0,"byteOffset":31376,"byteLength":144,"target":34962,"byteStride":12},{"buffer":0,"byteOffset":31520,"byteLength":144,"target":34962,"byteStride":12},{"buffer":0,"byteOffset":31664,"byteLength":96,"target":34962,"byteStride":8},{"buffer":0,"byteOffset":31760,"byteLength":144,"target":34962,"byteStride":12},{"buffer":0,"byteOffset":31904,"byteLength":144,"target":34962,"byteStride":12},{"buffer":0,"byteOffset":32048,"byteLength":96,"target":34962,"byteStride":8},{"buffer":0,"byteOffset":32144,"byteLength":288,"target":34962,"byteStride":12},{"buffer":0,"byteOffset":32432,"byteLength":288,"target":34962,"byteStride":12},{"buffer":0,"byteOffset":32720,"byteLength":192,"target":34962,"byteStride":8},{"buffer":0,"byteOffset":32912,"byteLength":72,"target":34963},{"buffer":0,"byteOffset":32984,"byteLength":288,"target":34962,"byteStride":12},{"buffer":0,"byteOffset":33272,"byteLength":288,"target":34962,"byteStride":12},{"buffer":0,"byteOffset":33560,"byteLength":192,"target":34962,"byteStride":8},{"buffer":0,"byteOffset":33752,"byteLength":72,"target":34963}],"buffers":[{"byteLength":33824,"uri":"data:application/octet-stream;base64,"}],"accessors":[{"bufferView":0,"componentType":5126,"count":76,"max":[0.14000000059604645,0.17499999701976776,0.14000000059604645],"min":[-0.14000000059604645,-0.17499999701976776,-0.14000000059604645],"type":"VEC3"},{"bufferView":1,"componentType":5126,"count":76,"max":[0.993532657623291,1,0.993532657623291],"min":[-0.993532657623291,-1,-0.993532657623291],"type":"VEC3"},{"bufferView":2,"componentType":5126,"count":76,"max":[1,1],"min":[0,0],"type":"VEC2"},{"bufferView":3,"componentType":5123,"count":144,"max":[75],"min":[0],"type":"SCALAR"},{"bufferView":4,"componentType":5126,"count":169,"max":[0.10999999940395355,0.10999999940395355,0.10999999940395355],"min":[-0.10999999940395355,-0.10999999940395355,-0.10999999940395355],"type":"VEC3"},{"bufferView":5,"componentType":5126,"count":169,"max":[1,1,1],"min":[-1,-1,-1],"type":"VEC3"},{"bufferView":6,"componentType":5126,"count":169,"max":[1.0416666269302368,1],"min":[-0.0416666679084301,0],"type":"VEC2"},{"bufferView":7,"componentType":5123,"count":792,"max":[168],"min":[0],"type":"SCALAR"},{"bufferView":8,"componentType":5126,"count":76,"max":[0.10000000149011612,0.14000000059604645,0.10000000149011612],"min":[-0.10000000149011612,-0.14000000059604645,-0.10000000149011612],"type":"VEC3"},{"bufferView":9,"componentType":5126,"count":76,"max":[0.9985681176185608,1,0.9985681176185608],"min":[-0.9985681176185608,-1,-0.9985681176185608],"type":"VEC3"},{"bufferView":10,"componentType":5126,"count":76,"max":[1,1],"min":[0,0],"type":"VEC2"},{"bufferView":11,"componentType":5123,"count":144,"max":[75],"min":[0],"type":"SCALAR"},{"bufferView":12,"componentType":5126,"count":169,"max":[0.09000000357627869,0.09000000357627869,0.09000000357627869],"min":[-0.09000000357627869,-0.09000000357627869,-0.09000000357627869],"type":"VEC3"},{"bufferView":13,"componentType":5126,"count":169,"max":[1,1,1],"min":[-1,-1,-1],"type":"VEC3"},{"bufferView":14,"componentType":5126,"count":169,"max":[1.0416666269302368,1],"min":[-0.0416666679084301,0],"type":"VEC2"},{"bufferView":15,"componentType":5123,"count":792,"max":[168],"min":[0],"type":"SCALAR"},{"bufferView":16,"componentType":5126,"count":76,"max":[0.08500000089406967,0.10999999940395355,0.08500000089406967],"min":[-0.08500000089406967,-0.10999999940395355,-0.08500000089406967],"type":"VEC3"},{"bufferView":17,"componentType":5126,"count":76,"max":[0.9936052560806274,1,0.9936052560806274],"min":[-0.9936052560806274,-1,-0.9936052560806274],"type":"VEC3"},{"bufferView":18,"componentType":5126,"count":76,"max":[1,1],"min":[0,0],"type":"VEC2"},{"bufferView":19,"componentType":5123,"count":144,"max":[75],"min":[0],"type":"SCALAR"},{"bufferView":20,"componentType":5126,"count":169,"max":[0.06499999761581421,0.06499999761581421,0.06499999761581421],"min":[-0.06499999761581421,-0.06499999761581421,-0.06499999761581421],"type":"VEC3"},{"bufferView":21,"componentType":5126,"count":169,"max":[1,1,1],"min":[-1,-1,-1],"type":"VEC3"},{"bufferView":22,"componentType":5126,"count":169,"max":[1.0416666269302368,1],"min":[-0.0416666679084301,0],"type":"VEC2"},{"bufferView":23,"componentType":5123,"count":792,"max":[168],"min":[0],"type":"SCALAR"},{"bufferView":24,"componentType":5126,"count":52,"max":[0.05000000074505806,0.004999999888241291,0.05000000074505806],"min":[-0.05000000074505806,-0.004999999888241291,-0.05000000074505806],"type":"VEC3"},{"bufferView":25,"componentType":5126,"count":52,"max":[0.7071067690849304,1,0.7071067690849304],"min":[-0.7071067690849304,-1,-0.7071067690849304],"type":"VEC3"},{"bufferView":26,"componentType":5126,"count":52,"max":[1,1],"min":[0,0],"type":"VEC2"},{"bufferView":27,"componentType":5123,"count":96,"max":[51],"min":[0],"type":"SCALAR"},{"bufferView":28,"componentType":5126,"count":12,"max":[0.06928203254938126,0.06928203254938126,0.06928203254938126],"min":[-0.06928203254938126,-0.06928203254938126,-0.06928203254938126],"type":"VEC3"},{"bufferView":29,"componentType":5126,"count":12,"max":[0.5773502588272095,0.5773502588272095,0.5773502588272095],"min":[-0.5773502588272095,-0.5773502588272095,-0.5773502588272095],"type":"VEC3"},{"bufferView":30,"componentType":5126,"count":12,"max":[0.875,0.6959132552146912],"min":[0.125,0.30408671498298645],"type":"VEC2"},{"bufferView":31,"componentType":5126,"count":12,"max":[0.05773502588272095,0.05773502588272095,0.05773502588272095],"min":[-0.05773502588272095,-0.05773502588272095,-0.05773502588272095],"type":"VEC3"},{"bufferView":32,"componentType":5126,"count":12,"max":[0.5773502588272095,0.5773502588272095,0.5773502588272095],"min":[-0.5773502588272095,-0.5773502588272095,-0.5773502588272095],"type":"VEC3"},{"bufferView":33,"componentType":5126,"count":12,"max":[0.875,0.6959132552146912],"min":[0.125,0.30408671498298645],"type":"VEC2"},{"bufferView":34,"componentType":5126,"count":12,"max":[0.04618802294135094,0.04618802294135094,0.04618802294135094],"min":[-0.04618802294135094,-0.04618802294135094,-0.04618802294135094],"type":"VEC3"},{"bufferView":35,"componentType":5126,"count":12,"max":[0.5773502588272095,0.5773502588272095,0.5773502588272095],"min":[-0.5773502588272095,-0.5773502588272095,-0.5773502588272095],"type":"VEC3"},{"bufferView":36,"componentType":5126,"count":12,"max":[0.875,0.6959132552146912],"min":[0.125,0.30408671498298645],"type":"VEC2"},{"bufferView":37,"componentType":5126,"count":24,"max":[0.07500000298023224,0.004000000189989805,0.019999999552965164],"min":[-0.07500000298023224,-0.004000000189989805,-0.019999999552965164],"type":"VEC3"},{"bufferView":38,"componentType":5126,"count":24,"max":[1,1,1],"min":[-1,-1,-1],"type":"VEC3"},{"bufferView":39,"componentType":5126,"count":24,"max":[1,1],"min":[0,0],"type":"VEC2"},{"bufferView":40,"componentType":5123,"count":36,"max":[23],"min":[0],"type":"SCALAR"},{"bufferView":41,"componentType":5126,"count":24,"max":[0.05999999865889549,0.004000000189989805,0.017500000074505806],"min":[-0.05999999865889549,-0.004000000189989805,-0.017500000074505806],"type":"VEC3"},{"bufferView":42,"componentType":5126,"count":24,"max":[1,1,1],"min":[-1,-1,-1],"type":"VEC3"},{"bufferView":43,"componentType":5126,"count":24,"max":[1,1],"min":[0,0],"type":"VEC2"},{"bufferView":44,"componentType":5123,"count":36,"max":[23],"min":[0],"type":"SCALAR"}],"materials":[{"pbrMetallicRoughness":{"baseColorFactor":[0.8156862745098039,0.8,0.7686274509803922,1],"metallicFactor":0,"roughnessFactor":0.75}},{"pbrMetallicRoughness":{"baseColorFactor":[0.8470588235294118,0.8313725490196079,0.8,1],"metallicFactor":0,"roughnessFactor":0.7}},{"pbrMetallicRoughness":{"baseColorFactor":[0.7843137254901961,0.7686274509803922,0.7372549019607844,1],"metallicFactor":0,"roughnessFactor":0.8}}],"meshes":[{"primitives":[{"mode":4,"attributes":{"POSITION":0,"NORMAL":1,"TEXCOORD_0":2},"indices":3,"material":0}]},{"primitives":[{"mode":4,"attributes":{"POSITION":4,"NORMAL":5,"TEXCOORD_0":6},"indices":7,"material":0}]},{"primitives":[{"mode":4,"attributes":{"POSITION":8,"NORMAL":9,"TEXCOORD_0":10},"indices":11,"material":0}]},{"primitives":[{"mode":4,"attributes":{"POSITION":12,"NORMAL":13,"TEXCOORD_0":14},"indices":15,"material":0}]},{"primitives":[{"mode":4,"attributes":{"POSITION":16,"NORMAL":17,"TEXCOORD_0":18},"indices":19,"material":0}]},{"primitives":[{"mode":4,"attributes":{"POSITION":20,"NORMAL":21,"TEXCOORD_0":22},"indices":23,"material":0}]},{"primitives":[{"mode":4,"attributes":{"POSITION":24,"NORMAL":25,"TEXCOORD_0":26},"indices":27,"material":1}]},{"primitives":[{"mode":4,"attributes":{"POSITION":28,"NORMAL":29,"TEXCOORD_0":30},"material":2}]},{"primitives":[{"mode":4,"attributes":{"POSITION":31,"NORMAL":32,"TEXCOORD_0":33},"material":2}]},{"primitives":[{"mode":4,"attributes":{"POSITION":34,"NORMAL":35,"TEXCOORD_0":36},"material":0}]},{"primitives":[{"mode":4,"attributes":{"POSITION":37,"NORMAL":38,"TEXCOORD_0":39},"indices":40,"material":2}]},{"primitives":[{"mode":4,"attributes":{"POSITION":41,"NORMAL":42,"TEXCOORD_0":43},"indices":44,"material":2}]}]}