{"asset":{"version":"2.0","generator":"THREE.GLTFExporter"},"scenes":[{"nodes":[18]}],"scene":0,"nodes":[{"matrix":[1,0,0,0,0,1,0,0,0,0,1,0,0,0.025,0,1],"mesh":0},{"matrix":[1,0,0,0,0,1,0,0,0,0,1,0,-0.4,0.5,-0.3,1],"mesh":1},{"matrix":[1,0,0,0,0,1,0,0,0,0,1,0,0.4,0.5,-0.3,1],"mesh":2},{"matrix":[1,0,0,0,0,1,0,0,0,0,1,0,-0.25,0.25,0.1,1],"mesh":3},{"matrix":[1,0,0,0,0,1,0,0,0,0,1,0,-0.25,0.47,0.1,1],"mesh":4},{"matrix":[1,0,0,0,0,1,0,0,0,0,1,0,-0.1,0.25,0.15,1],"mesh":5},{"matrix":[1,0,0,0,0,1,0,0,0,0,1,0,-0.1,0.47,0.15,1],"mesh":6},{"matrix":[1,0,0,0,0,1,0,0,0,0,1,0,0.05,0.25,0.08,1],"mesh":7},{"matrix":[1,0,0,0,0,1,0,0,0,0,1,0,0.05,0.47,0.08,1],"mesh":8},{"matrix":[1,0,0,0,0,1,0,0,0,0,1,0,0.2,0.25,0.12,1],"mesh":9},{"matrix":[1,0,0,0,0,1,0,0,0,0,1,0,0.2,0.47,0.12,1],"mesh":10},{"matrix":[1,0,0,0,0,1,0,0,0,0,1,0,-0.15,0.25,-0.1,1],"mesh":11},{"matrix":[1,0,0,0,0,1,0,0,0,0,1,0,-0.15,0.47,-0.1,1],"mesh":12},{"matrix":[1,0,0,0,0,1,0,0,0,0,1,0,0.1,0.25,-0.08,1],"mesh":13},{"matrix":[1,0,0,0,0,1,0,0,0,0,1,0,0.1,0.47,-0.08,1],"mesh":14},{"matrix":[1,0,0,0,0,1,0,0,0,0,1,0,-0.45,0.35,0.2,1],"mesh":15},{"matrix":[1,0,0,0,0,1,0,0,0,0,1,0,-0.42,0.7,0.22,1],"mesh":16},{"matrix":[1,0,0,0,0,1,0,0,0,0,1,0,-0.32,0.9,0.23,1],"mesh":17},{"children":[0,1,2,3,4,5,6,7,8,9,10,11,12,13,14,15,16,17]}],"bufferViews":[{"buffer":0,"byteOffset":0,"byteLength":288,"target":34962,"byteStride":12},{"buffer":0,"byteOffset":288,"byteLength":288,"target":34962,"byteStride":12},{"buffer":0,"byteOffset":576,"byteLength":192,"target":34962,"byteStride":8},{"buffer":0,"byteOffset":768,"byteLength":72,"target":34963},{"buffer":0,"byteOffset":840,"byteLength":912,"target":34962,"byteStride":12},{"buffer":0,"byteOffset":1752,"byteLength":912,"target":34962,"byteStride":12},{"buffer":0,"byteOffset":2664,"byteLength":608,"target":34962,"byteStride":8},{"buffer":0,"byteOffset":3272,"byteLength":288,"target":34963},{"buffer":0,"byteOffset":3560,"byteLength":912,"target":34962,"byteStride":12},{"buffer":0,"byteOffset":4472,"byteLength":912,"target":34962,"byteStride":12},{"buffer":0,"byteOffset":5384,"byteLength":608,"target":34962,"byteStride":8},{"buffer":0,"byteOffset":5992,"byteLength":288,"target":34963},{"buffer":0,"byteOffset":6280,"byteLength":420,"target":34962,"byteStride":12},{"buffer":0,"byteOffset":6700,"byteLength":420,"target":34962,"byteStride":12},{"buffer":0,"byteOffset":7120,"byteLength":280,"target":34962,"byteStride":8},{"buffer":0,"byteOffset":7400,"byteLength":144,"target":34963},{"buffer":0,"byteOffset":7544,"byteLength":972,"target":34962,"byteStride":12},{"buffer":0,"byteOffset":8516,"byteLength":972,"target":34962,"byteStride":12},{"buffer":0,"byteOffset":9488,"byteLength":648,"target":34962,"byteStride":8},{"buffer":0,"byteOffset":10136,"byteLength":672,"target":34963},{"buffer":0,"byteOffset":10808,"byteLength":420,"target":34962,"byteStride":12},{"buffer":0,"byteOffset":11228,"byteLength":420,"target":34962,"byteStride":12},{"buffer":0,"byteOffset":11648,"byteLength":280,"target":34962,"byteStride":8},{"buffer":0,"byteOffset":11928,"byteLength":144,"target":34963},{"buffer":0,"byteOffset":12072,"byteLength":972,"target":34962,"byteStride":12},{"buffer":0,"byteOffset":13044,"byteLength":972,"target":34962,"byteStride":12},{"buffer":0,"byteOffset":14016,"byteLength":648,"target":34962,"byteStride":8},{"buffer":0,"byteOffset":14664,"byteLength":672,"target":34963},{"buffer":0,"byteOffset":15336,"byteLength":420,"target":34962,"byteStride":12},{"buffer":0,"byteOffset":15756,"byteLength":420,"target":34962,"byteStride":12},{"buffer":0,"byteOffset":16176,"byteLength":280,"target":34962,"byteStride":8},{"buffer":0,"byteOffset":16456,"byteLength":144,"target":34963},{"buffer":0,"byteOffset":16600,"byteLength":972,"target":34962,"byteStride":12},{"buffer":0,"byteOffset":17572,"byteLength":972,"target":34962,"byteStride":12},{"buffer":0,"byteOffset":18544,"byteLength":648,"target":34962,"byteStride":8},{"buffer":0,"byteOffset":19192,"byteLength":672,"target":34963},{"buffer":0,"byteOffset":19864,"byteLength":420,"target":34962,"byteStride":12},{"buffer":0,"byteOffset":20284,"byteLength":420,"target":34962,"byteStride":12},{"buffer":0,"byteOffset":20704,"byteLength":280,"target":34962,"byteStride":8},{"buffer":0,"byteOffset":20984,"byteLength":144,"target":34963},{"buffer":0,"byteOffset":21128,"byteLength":972,"target":34962,"byteStride":12},{"buffer":0,"byteOffset":22100,"byteLength":972,"target":34962,"byteStride":12},{"buffer":0,"byteOffset":23072,"byteLength":648,"target":34962,"byteStride":8},{"buffer":0,"byteOffset":23720,"byteLength":672,"target":34963},{"buffer":0,"byteOffset":24392,"byteLength":420,"target":34962,"byteStride":12},{"buffer":0,"byteOffset":24812,"byteLength":420,"target":34962,"byteStride":12},{"buffer":0,"byteOffset":25232,"byteLength":280,"target":34962,"byteStride":8},{"buffer":0,"byteOffset":25512,"byteLength":144,"target":34963},{"buffer":0,"byteOffset":25656,"byteLength":972,"target":34962,"byteStride":12},{"buffer":0,"byteOffset":26628,"byteLength":972,"target":34962,"byteStride":12},{"buffer":0,"byteOffset":27600,"byteLength":648,"target":34962,"byteStride":8},{"buffer":0,"byteOffset":28248,"byteLength":672,"target":34963},{"buffer":0,"byteOffset":28920,"byteLength":420,"target":34962,"byteStride":12},{"buffer":0,"byteOffset":29340,"byteLength":420,"target":34962,"byteStride":12},{"buffer":0,"byteOffset":29760,"byteLength":280,"target":34962,"byteStride":8},{"buffer":0,"byteOffset":30040,"byteLength":144,"target":34963},{"buffer":0,"byteOffset":30184,"byteLength":972,"target":34962,"byteStride":12},{"buffer":0,"byteOffset":31156,"byteLength":972,"target":34962,"byteStride":12},{"buffer":0,"byteOffset":32128,"byteLength":648,"target":34962,"byteStride":8},{"buffer":0,"byteOffset":32776,"byteLength":672,"target":34963},{"buffer":0,"byteOffset":33448,"byteLength":768,"target":34962,"byteStride":12},{"buffer":0,"byteOffset":34216,"byteLength":768,"target":34962,"byteStride":12},{"buffer":0,"byteOffset":34984,"byteLength":512,"target":34962,"byteStride":8},{"buffer":0,"byteOffset":35496,"byteLength":240,"target":34963},{"buffer":0,"byteOffset":35736,"byteLength":480,"target":34962,"byteStride":12},{"buffer":0,"byteOffset":36216,"byteLength":480,"target":34962,"byteStride":12},{"buffer":0,"byteOffset":36696,"byteLength":320,"target":34962,"byteStride":8},{"buffer":0,"byteOffset":37016,"byteLength":144,"target":34963},{"buffer":0,"byteOffset":37160,"byteLength":288,"target":34962,"byteStride":12},{"buffer":0,"byteOffset":37448,"byteLength":288,"target":34962,"byteStride":12},{"buffer":0,"byteOffset":37736,"byteLength":192,"target":34962,"byteStride":8},{"buffer":0,"byteOffset":37928,"byteLength":72,"target":34963}],"buffers":[{"byteLength":38000,"uri":"data:application/octet-stream;base64,"}],"accessors":[{"bufferView":0,"componentType":5126,"count":24,"max":[0.6000000238418579,0.02500000037252903,0.4000000059604645],"min":[-0.6000000238418579,-0.02500000037252903,-0.4000000059604645],"type":"VEC3"},{"bufferView":1,"componentType":5126,"count":24,"max":[1,1,1],"min":[-1,-1,-1],"type":"VEC3"},{"bufferView":2,"componentType":5126,"count":24,"max":[1,1],"min":[0,0],"type":"VEC2"},{"bufferView":3,"componentType":5123,"count":36,"max":[23],"min":[0],"type":"SCALAR"},{"bufferView":4,"componentType":5126,"count":76,"max":[0.07000000029802322,0.5,0.07000000029802322],"min":[-0.07000000029802322,-0.5,-0.07000000029802322],"type":"VEC3"},{"bufferView":5,"componentType":5126,"count":76,"max":[0.9999499917030334,1,0.9999499917030334],"min":[-0.9999499917030334,-1,-0.9999499917030334],"type":"VEC3"},{"bufferView":6,"componentType":5126,"count":76,"max":[1,1],"min":[0,0],"type":"VEC2"},{"bufferView":7,"componentType":5123,"count":144,"max":[75],"min":[0],"type":"SCALAR"},{"bufferView":8,"componentType":5126,"count":76,"max":[0.07000000029802322,0.5,0.07000000029802322],"min":[-0.07000000029802322,-0.5,-0.07000000029802322],"type":"VEC3"},{"bufferView":9,"componentType":5126,"count":76,"max":[0.9999499917030334,1,0.9999499917030334],"min":[-0.9999499917030334,-1,-0.9999499917030334],"type":"VEC3"},{"bufferView":10,"componentType":5126,"count":76,"max":[1,1],"min":[0,0],"type":"VEC2"},{"bufferView":11,"componentType":5123,"count":144,"max":[75],"min":[0],"type":"SCALAR"},{"bufferView":12,"componentType":5126,"count":35,"max":[0.05999999865889549,0.17499999701976776,0.05999999865889549],"min":[-0.05999999865889549,-0.17499999701976776,-0.05999999865889549],"type":"VEC3"},{"bufferView":13,"componentType":5126,"count":35,"max":[0.985622227191925,0.16896381974220276,0.985622227191925],"min":[-0.985622227191925,-1,-0.985622227191925],"type":"VEC3"},{"bufferView":14,"componentType":5126,"count":35,"max":[1,1],"min":[0,0],"type":"VEC2"},{"bufferView":15,"componentType":5123,"count":72,"max":[34],"min":[0],"type":"SCALAR"},{"bufferView":16,"componentType":5126,"count":81,"max":[0.03999999910593033,0.03999999910593033,0.03999999910593033],"min":[-0.03999999910593033,-0.03999999910593033,-0.03999999910593033],"type":"VEC3"},{"bufferView":17,"componentType":5126,"count":81,"max":[1,1,1],"min":[-1,-1,-1],"type":"VEC3"},{"bufferView":18,"componentType":5126,"count":81,"max":[1.0625,1],"min":[-0.0625,0],"type":"VEC2"},{"bufferView":19,"componentType":5123,"count":336,"max":[80],"min":[0],"type":"SCALAR"},{"bufferView":20,"componentType":5126,"count":35,"max":[0.05999999865889549,0.17499999701976776,0.05999999865889549],"min":[-0.05999999865889549,-0.17499999701976776,-0.05999999865889549],"type":"VEC3"},{"bufferView":21,"componentType":5126,"count":35,"max":[0.985622227191925,0.16896381974220276,0.985622227191925],"min":[-0.985622227191925,-1,-0.985622227191925],"type":"VEC3"},{"bufferView":22,"componentType":5126,"count":35,"max":[1,1],"min":[0,0],"type":"VEC2"},{"bufferView":23,"componentType":5123,"count":72,"max":[34],"min":[0],"type":"SCALAR"},{"bufferView":24,"componentType":5126,"count":81,"max":[0.03999999910593033,0.03999999910593033,0.03999999910593033],"min":[-0.03999999910593033,-0.03999999910593033,-0.03999999910593033],"type":"VEC3"},{"bufferView":25,"componentType":5126,"count":81,"max":[1,1,1],"min":[-1,-1,-1],"type":"VEC3"},{"bufferView":26,"componentType":5126,"count":81,"max":[1.0625,1],"min":[-0.0625,0],"type":"VEC2"},{"bufferView":27,"componentType":5123,"count":336,"max":[80],"min":[0],"type":"SCALAR"},{"bufferView":28,"componentType":5126,"count":35,"max":[0.05999999865889549,0.17499999701976776,0.05999999865889549],"min":[-0.05999999865889549,-0.17499999701976776,-0.05999999865889549],"type":"VEC3"},{"bufferView":29,"componentType":5126,"count":35,"max":[0.985622227191925,0.16896381974220276,0.985622227191925],"min":[-0.985622227191925,-1,-0.985622227191925],"type":"VEC3"},{"bufferView":30,"componentType":5126,"count":35,"max":[1,1],"min":[0,0],"type":"VEC2"},{"bufferView":31,"componentType":5123,"count":72,"max":[34],"min":[0],"type":"SCALAR"},{"bufferView":32,"componentType":5126,"count":81,"max":[0.03999999910593033,0.03999999910593033,0.03999999910593033],"min":[-0.03999999910593033,-0.03999999910593033,-0.03999999910593033],"type":"VEC3"},{"bufferView":33,"componentType":5126,"count":81,"max":[1,1,1],"min":[-1,-1,-1],"type":"VEC3"},{"bufferView":34,"componentType":5126,"count":81,"max":[1.0625,1],"min":[-0.0625,0],"type":"VEC2"},{"bufferView":35,"componentType":5123,"count":336,"max":[80],"min":[0],"type":"SCALAR"},{"bufferView":36,"componentType":5126,"count":35,"max":[0.05999999865889549,0.17499999701976776,0.05999999865889549],"min":[-0.05999999865889549,-0.17499999701976776,-0.05999999865889549],"type":"VEC3"},{"bufferView":37,"componentType":5126,"count":35,"max":[0.985622227191925,0.16896381974220276,0.985622227191925],"min":[-0.985622227191925,-1,-0.985622227191925],"type":"VEC3"},{"bufferView":38,"componentType":5126,"count":35,"max":[1,1],"min":[0,0],"type":"VEC2"},{"bufferView":39,"componentType":5123,"count":72,"max":[34],"min":[0],"type":"SCALAR"},{"bufferView":40,"componentType":5126,"count":81,"max":[0.03999999910593033,0.03999999910593033,0.03999999910593033],"min":[-0.03999999910593033,-0.03999999910593033,-0.03999999910593033],"type":"VEC3"},{"bufferView":41,"componentType":5126,"count":81,"max":[1,1,1],"min":[-1,-1,-1],"type":"VEC3"},{"bufferView":42,"componentType":5126,"count":81,"max":[1.0625,1],"min":[-0.0625,0],"type":"VEC2"},{"bufferView":43,"componentType":5123,"count":336,"max":[80],"min":[0],"type":"SCALAR"},{"bufferView":44,"componentType":5126,"count":35,"max":[0.05999999865889549,0.17499999701976776,0.05999999865889549],"min":[-0.05999999865889549,-0.17499999701976776,-0.05999999865889549],"type":"VEC3"},{"bufferView":45,"componentType":5126,"count":35,"max":[0.985622227191925,0.16896381974220276,0.985622227191925],"min":[-0.985622227191925,-1,-0.985622227191925],"type":"VEC3"},{"bufferView":46,"componentType":5126,"count":35,"max":[1,1],"min":[0,0],"type":"VEC2"},{"bufferView":47,"componentType":5123,"count":72,"max":[34],"min":[0],"type":"SCALAR"},{"bufferView":48,"componentType":5126,"count":81,"max":[0.03999999910593033,0.03999999910593033,0.03999999910593033],"min":[-0.03999999910593033,-0.03999999910593033,-0.03999999910593033],"type":"VEC3"},{"bufferView":49,"componentType":5126,"count":81,"max":[1,1,1],"min":[-1,-1,-1],"type":"VEC3"},{"bufferView":50,"componentType":5126,"count":81,"max":[1.0625,1],"min":[-0.0625,0],"type":"VEC2"},{"bufferView":51,"componentType":5123,"count":336,"max":[80],"min":[0],"type":"SCALAR"},{"bufferView":52,"componentType":5126,"count":35,"max":[0.05999999865889549,0.17499999701976776,0.05999999865889549],"min":[-0.05999999865889549,-0.17499999701976776,-0.05999999865889549],"type":"VEC3"},{"bufferView":53,"componentType":5126,"count":35,"max":[0.985622227191925,0.16896381974220276,0.985622227191925],"min":[-0.985622227191925,-1,-0.985622227191925],"type":"VEC3"},{"bufferView":54,"componentType":5126,"count":35,"max":[1,1],"min":[0,0],"type":"VEC2"},{"bufferView":55,"componentType":5123,"count":72,"max":[34],"min":[0],"type":"SCALAR"},{"bufferView":56,"componentType":5126,"count":81,"max":[0.03999999910593033,0.03999999910593033,0.03999999910593033],"min":[-0.03999999910593033,-0.03999999910593033,-0.03999999910593033],"type":"VEC3"},{"bufferView":57,"componentType":5126,"count":81,"max":[1,1,1],"min":[-1,-1,-1],"type":"VEC3"},{"bufferView":58,"componentType":5126,"count":81,"max":[1.0625,1],"min":[-0.0625,0],"type":"VEC2"},{"bufferView":59,"componentType":5123,"count":336,"max":[80],"min":[0],"type":"SCALAR"},{"bufferView":60,"componentType":5126,"count":64,"max":[0.07608452439308167,0.25,0.07999999821186066],"min":[-0.07608452439308167,-0.25,-0.07999999821186066],"type":"VEC3"},{"bufferView":61,"componentType":5126,"count":64,"max":[0.9493492245674133,1,0.9982048273086548],"min":[-0.9493492245674133,-1,-0.9982048273086548],"type":"VEC3"},{"bufferView":62,"componentType":5126,"count":64,"max":[1,1],"min":[0,0],"type":"VEC2"},{"bufferView":63,"componentType":5123,"count":120,"max":[63],"min":[0],"type":"SCALAR"},{"bufferView":64,"componentType":5126,"count":40,"max":[0.008660254068672657,0.30000001192092896,0.009999999776482582],"min":[-0.008660254068672657,-0.30000001192092896,-0.009999999776482582],"type":"VEC3"},{"bufferView":65,"componentType":5126,"count":40,"max":[0.8660253882408142,1,1],"min":[-0.8660253882408142,-1,-1],"type":"VEC3"},{"bufferView":66,"componentType":5126,"count":40,"max":[1,1],"min":[0,0],"type":"VEC2"},{"bufferView":67,"componentType":5123,"count":72,"max":[39],"min":[0],"type":"SCALAR"},{"bufferView":68,"componentType":5126,"count":24,"max":[0.10000000149011612,0.07500000298023224,0.004999999888241291],"min":[-0.10000000149011612,-0.07500000298023224,-0.004999999888241291],"type":"VEC3"},{"bufferView":69,"componentType":5126,"count":24,"max":[1,1,1],"min":[-1,-1,-1],"type":"VEC3"},{"bufferView":70,"componentType":5126,"count":24,"max":[1,1],"min":[0,0],"type":"VEC2"},{"bufferView":71,"componentType":5123,"count":36,"max":[23],"min":[0],"type":"SCALAR"}],"materials":[{"pbrMetallicRoughness":{"baseColorFactor":[0.7843137254901961,0.7686274509803922,0.7372549019607844,1],"metallicFactor":0,"roughnessFactor":0.8}},{"pbrMetallicRoughness":{"baseColorFactor":[0.8156862745098039,0.8,0.7686274509803922,1],"metallicFactor":0,"roughnessFactor":0.75}},{"pbrMetallicRoughness":{"baseColorFactor":[0.8470588235294118,0.8313725490196079,0.8,1],"metallicFactor":0,"roughnessFactor":0.7}}],"meshes":[{"primitives":[{"mode":4,"attributes":{"POSITION":0,"NORMAL":1,"TEXCOORD_0":2},"indices":3,"material":0}]},{"primitives":[{"mode":4,"attributes":{"POSITION":4,"NORMAL":5,"TEXCOORD_0":6},"indices":7,"material":1}]},{"primitives":[{"mode":4,"attributes":{"POSITION":8,"NORMAL":9,"TEXCOORD_0":10},"indices":11,"material":1}]},{"primitives":[{"mode":4,"attributes":{"POSITION":12,"NORMAL":13,"TEXCOORD_0":14},"indices":15,"material":1}]},{"primitives":[{"mode":4,"attributes":{"POSITION":16,"NORMAL":17,"TEXCOORD_0":18},"indices":19,"material":1}]},{"primitives":[{"mode":4,"attributes":{"POSITION":20,"NORMAL":21,"TEXCOORD_0":22},"indices":23,"material":1}]},{"primitives":[{"mode":4,"attributes":{"POSITION":24,"NORMAL":25,"TEXCOORD_0":26},"indices":27,"material":1}]},{"primitives":[{"mode":4,"attributes":{"POSITION":28,"NORMAL":29,"TEXCOORD_0":30},"indices":31,"material":1}]},{"primitives":[{"mode":4,"attributes":{"POSITION":32,"NORMAL":33,"TEXCOORD_0":34},"indices":35,"material":1}]},{"primitives":[{"mode":4,"attributes":{"POSITION":36,"NORMAL":37,"TEXCOORD_0":38},"indices":39,"material":1}]},{"primitives":[{"mode":4,"attributes":{"POSITION":40,"NORMAL":41,"TEXCOORD_0":42},"indices":43,"material":1}]},{"primitives":[{"mode":4,"attributes":{"POSITION":44,"NORMAL":45,"TEXCOORD_0":46},"indices":47,"material":1}]},{"primitives":[{"mode":4,"attributes":{"POSITION":48,"NORMAL":49,"TEXCOORD_0":50},"indices":51,"material":1}]},{"primitives":[{"mode":4,"attributes":{"POSITION":52,"NORMAL":53,"TEXCOORD_0":54},"indices":55,"material":1}]},{"primitives":[{"mode":4,"attributes":{"POSITION":56,"NORMAL":57,"TEXCOORD_0":58},"indices":59,"material":1}]},{"primitives":[{"mode":4,"attributes":{"POSITION":60,"NORMAL":61,"TEXCOORD_0":62},"indices":63,"material":2}]},{"primitives":[{"mode":4,"attributes":{"POSITION":64,"NORMAL":65,"TEXCOORD_0":66},"indices":67,"material":1}]},{"primitives":[{"mode":4,"attributes":{"POSITION":68,"NORMAL":69,"TEXCOORD_0":70},"indices":71,"material":2}]}]}