{"asset":{"version":"2.0","generator":"THREE.GLTFExporter"},"scenes":[{"nodes":[13]}],"scene":0,"nodes":[{"matrix":[1.4,0,0,0,0,1,0,0,0,0,0.85,0,0,0.55,0,1],"mesh":0},{"matrix":[1,0,0,0,0,1,0,0,0,0,1,0,-0.35,0.5,0,1],"mesh":1},{"matrix":[1,0,0,0,0,1,0,0,0,0,1,0,0.55,0.65,0,1],"mesh":2},{"matrix":[0.3,0,0,0,0,0.8,0,0,0,0,1,0,0.45,0.7,0.22,1],"mesh":3},{"matrix":[0.3,0,0,0,0,0.8,0,0,0,0,1,0,0.45,0.7,-0.22,1],"mesh":4},{"matrix":[0.8775825618903728,0.479425538604203,0,0,-0.479425538604203,0.8775825618903728,0,0,0,0,1,0,0.78,0.4,0,1],"mesh":5},{"matrix":[0.7648421872844884,0.644217687237691,0,0,-0.644217687237691,0.7648421872844884,0,0,0,0,1,0,0.7,0.5,0.1,1],"mesh":6},{"matrix":[0.7648421872844884,0.644217687237691,0,0,-0.644217687237691,0.7648421872844884,0,0,0,0,1,0,0.7,0.5,-0.1,1],"mesh":7},{"matrix":[1,0,0,0,0,1,0,0,0,0,1,0,-0.28,0.25,0.2,1],"mesh":8},{"matrix":[1,0,0,0,0,1,0,0,0,0,1,0,-0.28,0.25,-0.2,1],"mesh":9},{"matrix":[1,0,0,0,0,1,0,0,0,0,1,0,0.22,0.25,0.2,1],"mesh":10},{"matrix":[1,0,0,0,0,1,0,0,0,0,1,0,0.22,0.25,-0.2,1],"mesh":11},{"matrix":[0.9210609940028851,-0.38941834230865047,0,0,0.38941834230865047,0.9210609940028851,0,0,0,0,1,0,-0.58,0.45,0,1],"mesh":12},{"children":[0,1,2,3,4,5,6,7,8,9,10,11,12]}],"bufferViews":[{"buffer":0,"byteOffset":0,"byteLength":3468,"target":34962,"byteStride":12},{"buffer":0,"byteOffset":3468,"byteLength":3468,"target":34962,"byteStride":12},{"buffer":0,"byteOffset":6936,"byteLength":2312,"target":34962,"byteStride":8},{"buffer":0,"byteOffset":9248,"byteLength":2880,"target":34963},{"buffer":0,"byteOffset":12128,"byteLength":2028,"target":34962,"byteStride":12},{"buffer":0,"byteOffset":14156,"byteLength":2028,"target":34962,"byteStride":12},{"buffer":0,"byteOffset":16184,"byteLength":1352,"target":34962,"byteStride":8},{"buffer":0,"byteOffset":17536,"byteLength":1584,"target":34963},{"buffer":0,"byteOffset":19120,"byteLength":3468,"target":34962,"byteStride":12},{"buffer":0,"byteOffset":22588,"byteLength":3468,"target":34962,"byteStride":12},{"buffer":0,"byteOffset":26056,"byteLength":2312,"target":34962,"byteStride":8},{"buffer":0,"byteOffset":28368,"byteLength":2880,"target":34963},{"buffer":0,"byteOffset":31248,"byteLength":972,"target":34962,"byteStride":12},{"buffer":0,"byteOffset":32220,"byteLength":972,"target":34962,"byteStride":12},{"buffer":0,"byteOffset":33192,"byteLength":648,"target":34962,"byteStride":8},{"buffer":0,"byteOffset":33840,"byteLength":672,"target":34963},{"buffer":0,"byteOffset":34512,"byteLength":972,"target":34962,"byteStride":12},{"buffer":0,"byteOffset":35484,"byteLength":972,"target":34962,"byteStride":12},{"buffer":0,"byteOffset":36456,"byteLength":648,"target":34962,"byteStride":8},{"buffer":0,"byteOffset":37104,"byteLength":672,"target":34963},{"buffer":0,"byteOffset":37776,"byteLength":912,"target":34962,"byteStride":12},{"buffer":0,"byteOffset":38688,"byteLength":912,"target":34962,"byteStride":12},{"buffer":0,"byteOffset":39600,"byteLength":608,"target":34962,"byteStride":8},{"buffer":0,"byteOffset":40208,"byteLength":288,"target":34963},{"buffer":0,"byteOffset":40496,"byteLength":624,"target":34962,"byteStride":12},{"buffer":0,"byteOffset":41120,"byteLength":624,"target":34962,"byteStride":12},{"buffer":0,"byteOffset":41744,"byteLength":416,"target":34962,"byteStride":8},{"buffer":0,"byteOffset":42160,"byteLength":192,"target":34963},{"buffer":0,"byteOffset":42352,"byteLength":624,"target":34962,"byteStride":12},{"buffer":0,"byteOffset":42976,"byteLength":624,"target":34962,"byteStride":12},{"buffer":0,"byteOffset":43600,"byteLength":416,"target":34962,"byteStride":8},{"buffer":0,"byteOffset":44016,"byteLength":192,"target":34963},{"buffer":0,"byteOffset":44208,"byteLength":912,"target":34962,"byteStride":12},{"buffer":0,"byteOffset":45120,"byteLength":912,"target":34962,"byteStride":12},{"buffer":0,"byteOffset":46032,"byteLength":608,"target":34962,"byteStride":8},{"buffer":0,"byteOffset":46640,"byteLength":288,"target":34963},{"buffer":0,"byteOffset":46928,"byteLength":912,"target":34962,"byteStride":12},{"buffer":0,"byteOffset":47840,"byteLength":912,"target":34962,"byteStride":12},{"buffer":0,"byteOffset":48752,"byteLength":608,"target":34962,"byteStride":8},{"buffer":0,"byteOffset":49360,"byteLength":288,"target":34963},{"buffer":0,"byteOffset":49648,"byteLength":912,"target":34962,"byteStride":12},{"buffer":0,"byteOffset":50560,"byteLength":912,"target":34962,"byteStride":12},{"buffer":0,"byteOffset":51472,"byteLength":608,"target":34962,"byteStride":8},{"buffer":0,"byteOffset":52080,"byteLength":288,"target":34963},{"buffer":0,"byteOffset":52368,"byteLength":912,"target":34962,"byteStride":12},{"buffer":0,"byteOffset":53280,"byteLength":912,"target":34962,"byteStride":12},{"buffer":0,"byteOffset":54192,"byteLength":608,"target":34962,"byteStride":8},{"buffer":0,"byteOffset":54800,"byteLength":288,"target":34963},{"buffer":0,"byteOffset":55088,"byteLength":624,"target":34962,"byteStride":12},{"buffer":0,"byteOffset":55712,"byteLength":624,"target":34962,"byteStride":12},{"buffer":0,"byteOffset":56336,"byteLength":416,"target":34962,"byteStride":8},{"buffer":0,"byteOffset":56752,"byteLength":192,"target":34963}],"buffers":[{"byteLength":56944,"uri":"data:application/octet-stream;base64,"}],"accessors":[{"bufferView":0,"componentType":5126,"count":289,"max":[0.41999998688697815,0.41999998688697815,0.41999998688697815],"min":[-0.41999998688697815,-0.41999998688697815,-0.41999998688697815],"type":"VEC3"},{"bufferView":1,"componentType":5126,"count":289,"max":[1,1,1],"min":[-1,-1,-1],"type":"VEC3"},{"bufferView":2,"componentType":5126,"count":289,"max":[1.03125,1],"min":[-0.03125,0],"type":"VEC2"},{"bufferView":3,"componentType":5123,"count":1440,"max":[288],"min":[0],"type":"SCALAR"},{"bufferView":4,"componentType":5126,"count":169,"max":[0.3199999928474426,0.3199999928474426,0.3199999928474426],"min":[-0.3199999928474426,-0.3199999928474426,-0.3199999928474426],"type":"VEC3"},{"bufferView":5,"componentType":5126,"count":169,"max":[1,1,1],"min":[-1,-1,-1],"type":"VEC3"},{"bufferView":6,"componentType":5126,"count":169,"max":[1.0416666269302368,1],"min":[-0.0416666679084301,0],"type":"VEC2"},{"bufferView":7,"componentType":5123,"count":792,"max":[168],"min":[0],"type":"SCALAR"},{"bufferView":8,"componentType":5126,"count":289,"max":[0.2199999988079071,0.2199999988079071,0.2199999988079071],"min":[-0.2199999988079071,-0.2199999988079071,-0.2199999988079071],"type":"VEC3"},{"bufferView":9,"componentType":5126,"count":289,"max":[1,1,1],"min":[-1,-1,-1],"type":"VEC3"},{"bufferView":10,"componentType":5126,"count":289,"max":[1.03125,1],"min":[-0.03125,0],"type":"VEC2"},{"bufferView":11,"componentType":5123,"count":1440,"max":[288],"min":[0],"type":"SCALAR"},{"bufferView":12,"componentType":5126,"count":81,"max":[0.15000000596046448,0.15000000596046448,0.15000000596046448],"min":[-0.15000000596046448,-0.15000000596046448,-0.15000000596046448],"type":"VEC3"},{"bufferView":13,"componentType":5126,"count":81,"max":[1,1,1],"min":[-1,-1,-1],"type":"VEC3"},{"bufferView":14,"componentType":5126,"count":81,"max":[1.0625,1],"min":[-0.0625,0],"type":"VEC2"},{"bufferView":15,"componentType":5123,"count":336,"max":[80],"min":[0],"type":"SCALAR"},{"bufferView":16,"componentType":5126,"count":81,"max":[0.15000000596046448,0.15000000596046448,0.15000000596046448],"min":[-0.15000000596046448,-0.15000000596046448,-0.15000000596046448],"type":"VEC3"},{"bufferView":17,"componentType":5126,"count":81,"max":[1,1,1],"min":[-1,-1,-1],"type":"VEC3"},{"bufferView":18,"componentType":5126,"count":81,"max":[1.0625,1],"min":[-0.0625,0],"type":"VEC2"},{"bufferView":19,"componentType":5123,"count":336,"max":[80],"min":[0],"type":"SCALAR"},{"bufferView":20,"componentType":5126,"count":76,"max":[0.10000000149011612,0.22499999403953552,0.10000000149011612],"min":[-0.10000000149011612,-0.22499999403953552,-0.10000000149011612],"type":"VEC3"},{"bufferView":21,"componentType":5126,"count":76,"max":[0.9938837289810181,1,0.9938837289810181],"min":[-0.9938837289810181,-1,-0.9938837289810181],"type":"VEC3"},{"bufferView":22,"componentType":5126,"count":76,"max":[1,1],"min":[0,0],"type":"VEC2"},{"bufferView":23,"componentType":5123,"count":144,"max":[75],"min":[0],"type":"SCALAR"},{"bufferView":24,"componentType":5126,"count":52,"max":[0.029999999329447746,0.10999999940395355,0.029999999329447746],"min":[-0.029999999329447746,-0.10999999940395355,-0.029999999329447746],"type":"VEC3"},{"bufferView":25,"componentType":5126,"count":52,"max":[0.9976837038993835,1,0.9976837038993835],"min":[-0.9976837038993835,-1,-0.9976837038993835],"type":"VEC3"},{"bufferView":26,"componentType":5126,"count":52,"max":[1,1],"min":[0,0],"type":"VEC2"},{"bufferView":27,"componentType":5123,"count":96,"max":[51],"min":[0],"type":"SCALAR"},{"bufferView":28,"componentType":5126,"count":52,"max":[0.029999999329447746,0.10999999940395355,0.029999999329447746],"min":[-0.029999999329447746,-0.10999999940395355,-0.029999999329447746],"type":"VEC3"},{"bufferView":29,"componentType":5126,"count":52,"max":[0.9976837038993835,1,0.9976837038993835],"min":[-0.9976837038993835,-1,-0.9976837038993835],"type":"VEC3"},{"bufferView":30,"componentType":5126,"count":52,"max":[1,1],"min":[0,0],"type":"VEC2"},{"bufferView":31,"componentType":5123,"count":96,"max":[51],"min":[0],"type":"SCALAR"},{"bufferView":32,"componentType":5126,"count":76,"max":[0.10000000149011612,0.25,0.10000000149011612],"min":[-0.10000000149011612,-0.25,-0.10000000149011612],"type":"VEC3"},{"bufferView":33,"componentType":5126,"count":76,"max":[0.9998000860214233,1,0.9998000860214233],"min":[-0.9998000860214233,-1,-0.9998000860214233],"type":"VEC3"},{"bufferView":34,"componentType":5126,"count":76,"max":[1,1],"min":[0,0],"type":"VEC2"},{"bufferView":35,"componentType":5123,"count":144,"max":[75],"min":[0],"type":"SCALAR"},{"bufferView":36,"componentType":5126,"count":76,"max":[0.10000000149011612,0.25,0.10000000149011612],"min":[-0.10000000149011612,-0.25,-0.10000000149011612],"type":"VEC3"},{"bufferView":37,"componentType":5126,"count":76,"max":[0.9998000860214233,1,0.9998000860214233],"min":[-0.9998000860214233,-1,-0.9998000860214233],"type":"VEC3"},{"bufferView":38,"componentType":5126,"count":76,"max":[1,1],"min":[0,0],"type":"VEC2"},{"bufferView":39,"componentType":5123,"count":144,"max":[75],"min":[0],"type":"SCALAR"},{"bufferView":40,"componentType":5126,"count":76,"max":[0.10000000149011612,0.25,0.10000000149011612],"min":[-0.10000000149011612,-0.25,-0.10000000149011612],"type":"VEC3"},{"bufferView":41,"componentType":5126,"count":76,"max":[0.9998000860214233,1,0.9998000860214233],"min":[-0.9998000860214233,-1,-0.9998000860214233],"type":"VEC3"},{"bufferView":42,"componentType":5126,"count":76,"max":[1,1],"min":[0,0],"type":"VEC2"},{"bufferView":43,"componentType":5123,"count":144,"max":[75],"min":[0],"type":"SCALAR"},{"bufferView":44,"componentType":5126,"count":76,"max":[0.10000000149011612,0.25,0.10000000149011612],"min":[-0.10000000149011612,-0.25,-0.10000000149011612],"type":"VEC3"},{"bufferView":45,"componentType":5126,"count":76,"max":[0.9998000860214233,1,0.9998000860214233],"min":[-0.9998000860214233,-1,-0.9998000860214233],"type":"VEC3"},{"bufferView":46,"componentType":5126,"count":76,"max":[1,1],"min":[0,0],"type":"VEC2"},{"bufferView":47,"componentType":5123,"count":144,"max":[75],"min":[0],"type":"SCALAR"},{"bufferView":48,"componentType":5126,"count":52,"max":[0.03500000014901161,0.10999999940395355,0.03500000014901161],"min":[-0.03500000014901161,-0.10999999940395355,-0.03500000014901161],"type":"VEC3"},{"bufferView":49,"componentType":5126,"count":52,"max":[0.9976837038993835,1,0.9976837038993835],"min":[-0.9976837038993835,-1,-0.9976837038993835],"type":"VEC3"},{"bufferView":50,"componentType":5126,"count":52,"max":[1,1],"min":[0,0],"type":"VEC2"},{"bufferView":51,"componentType":5123,"count":96,"max":[51],"min":[0],"type":"SCALAR"}],"materials":[{"pbrMetallicRoughness":{"baseColorFactor":[0.8156862745098039,0.8,0.7686274509803922,1],"metallicFactor":0,"roughnessFactor":0.75}},{"pbrMetallicRoughness":{"baseColorFactor":[0.8470588235294118,0.8313725490196079,0.8,1],"metallicFactor":0,"roughnessFactor":0.7}}],"meshes":[{"primitives":[{"mode":4,"attributes":{"POSITION":0,"NORMAL":1,"TEXCOORD_0":2},"indices":3,"material":0}]},{"primitives":[{"mode":4,"attributes":{"POSITION":4,"NORMAL":5,"TEXCOORD_0":6},"indices":7,"material":0}]},{"primitives":[{"mode":4,"attributes":{"POSITION":8,"NORMAL":9,"TEXCOORD_0":10},"indices":11,"material":0}]},{"primitives":[{"mode":4,"attributes":{"POSITION":12,"NORMAL":13,"TEXCOORD_0":14},"indices":15,"material":0}]},{"primitives":[{"mode":4,"attributes":{"POSITION":16,"NORMAL":17,"TEXCOORD_0":18},"indices":19,"material":0}]},{"primitives":[{"mode":4,"attributes":{"POSITION":20,"NORMAL":21,"TEXCOORD_0":22},"indices":23,"material":0}]},{"primitives":[{"mode":4,"attributes":{"POSITION":24,"NORMAL":25,"TEXCOORD_0":26},"indices":27,"material":1}]},{"primitives":[{"mode":4,"attributes":{"POSITION":28,"NORMAL":29,"TEXCOORD_0":30},"indices":31,"material":1}]},{"primitives":[{"mode":4,"attributes":{"POSITION":32,"NORMAL":33,"TEXCOORD_0":34},"indices":35,"material":0}]},{"primitives":[{"mode":4,"attributes":{"POSITION":36,"NORMAL":37,"TEXCOORD_0":38},"indices":39,"material":0}]},{"primitives":[{"mode":4,"attributes":{"POSITION":40,"NORMAL":41,"TEXCOORD_0":42},"indices":43,"material":0}]},{"primitives":[{"mode":4,"attributes":{"POSITION":44,"NORMAL":45,"TEXCOORD_0":46},"indices":47,"material":0}]},{"primitives":[{"mode":4,"attributes":{"POSITION":48,"NORMAL":49,"TEXCOORD_0":50},"indices":51,"material":0}]}]}