{"asset":{"version":"2.0","generator":"THREE.GLTFExporter"},"scenes":[{"nodes":[9]}],"scene":0,"nodes":[{"matrix":[1,0,0,0,0,1,0,0,0,0,1,0,0,0.125,0,1],"mesh":0},{"matrix":[1,0,0,0,0,0.9800665778412416,0.19866933079506124,0,0,-0.19866933079506124,0.9800665778412416,0,-0.1,0.55,0,1],"mesh":1},{"matrix":[1,0,0,0,0,0.955336489125606,0.29552020666133955,0,0,-0.29552020666133955,0.955336489125606,0,-0.05,0.9,0.08,1],"mesh":2},{"matrix":[0.955336489125606,0.2058909107286162,0.21199322023239767,0,-0.2955202066613396,0.665589341657975,0.6853164493328191,0,0,-0.7173560908995228,0.6967067093471655,0,-0.2,0.55,0.2,1],"mesh":3},{"matrix":[0.9800665778412416,-0.12349483641187214,-0.15562303292945553,0,0.19866933079506122,0.6092191543550328,0.7677125236495633,0,0,-0.7833269096274834,0.6216099682706644,0,0.05,0.5,0.22,1],"mesh":4},{"matrix":[0.955336489125606,0.29552020666133955,0,0,-0.29552020666133955,0.955336489125606,0,0,0,0,1,0,0.15,0.45,0.05,1],"mesh":5},{"matrix":[1,0,0,0,0,1,0,0,0,0,1,0,0.22,0.7,0.05,1],"mesh":6},{"matrix":[1,0,0,0,0,0.30901699437494745,0.9510565162951536,0,0,-0.9510565162951536,0.30901699437494745,0,0.1,0.35,0.2,1],"mesh":7},{"matrix":[1.3,0,0,0,0,0.7,0,0,0,0,0.8,0,0.05,0.25,0.35,1],"mesh":8},{"children":[0,1,2,3,4,5,6,7,8]}],"bufferViews":[{"buffer":0,"byteOffset":0,"byteLength":288,"target":34962,"byteStride":12},{"buffer":0,"byteOffset":288,"byteLength":288,"target":34962,"byteStride":12},{"buffer":0,"byteOffset":576,"byteLength":192,"target":34962,"byteStride":8},{"buffer":0,"byteOffset":768,"byteLength":72,"target":34963},{"buffer":0,"byteOffset":840,"byteLength":912,"target":34962,"byteStride":12},{"buffer":0,"byteOffset":1752,"byteLength":912,"target":34962,"byteStride":12},{"buffer":0,"byteOffset":2664,"byteLength":608,"target":34962,"byteStride":8},{"buffer":0,"byteOffset":3272,"byteLength":288,"target":34963},{"buffer":0,"byteOffset":3560,"byteLength":2028,"target":34962,"byteStride":12},{"buffer":0,"byteOffset":5588,"byteLength":2028,"target":34962,"byteStride":12},{"buffer":0,"byteOffset":7616,"byteLength":1352,"target":34962,"byteStride":8},{"buffer":0,"byteOffset":8968,"byteLength":1584,"target":34963},{"buffer":0,"byteOffset":10552,"byteLength":768,"target":34962,"byteStride":12},{"buffer":0,"byteOffset":11320,"byteLength":768,"target":34962,"byteStride":12},{"buffer":0,"byteOffset":12088,"byteLength":512,"target":34962,"byteStride":8},{"buffer":0,"byteOffset":12600,"byteLength":240,"target":34963},{"buffer":0,"byteOffset":12840,"byteLength":768,"target":34962,"byteStride":12},{"buffer":0,"byteOffset":13608,"byteLength":768,"target":34962,"byteStride":12},{"buffer":0,"byteOffset":14376,"byteLength":512,"target":34962,"byteStride":8},{"buffer":0,"byteOffset":14888,"byteLength":240,"target":34963},{"buffer":0,"byteOffset":15128,"byteLength":768,"target":34962,"byteStride":12},{"buffer":0,"byteOffset":15896,"byteLength":768,"target":34962,"byteStride":12},{"buffer":0,"byteOffset":16664,"byteLength":512,"target":34962,"byteStride":8},{"buffer":0,"byteOffset":17176,"byteLength":240,"target":34963},{"buffer":0,"byteOffset":17416,"byteLength":1452,"target":34962,"byteStride":12},{"buffer":0,"byteOffset":18868,"byteLength":1452,"target":34962,"byteStride":12},{"buffer":0,"byteOffset":20320,"byteLength":968,"target":34962,"byteStride":8},{"buffer":0,"byteOffset":21288,"byteLength":1080,"target":34963},{"buffer":0,"byteOffset":22368,"byteLength":768,"target":34962,"byteStride":12},{"buffer":0,"byteOffset":23136,"byteLength":768,"target":34962,"byteStride":12},{"buffer":0,"byteOffset":23904,"byteLength":512,"target":34962,"byteStride":8},{"buffer":0,"byteOffset":24416,"byteLength":240,"target":34963},{"buffer":0,"byteOffset":24656,"byteLength":972,"target":34962,"byteStride":12},{"buffer":0,"byteOffset":25628,"byteLength":972,"target":34962,"byteStride":12},{"buffer":0,"byteOffset":26600,"byteLength":648,"target":34962,"byteStride":8},{"buffer":0,"byteOffset":27248,"byteLength":672,"target":34963}],"buffers":[{"byteLength":27920,"uri":"data:application/octet-stream;base64,"}],"accessors":[{"bufferView":0,"componentType":5126,"count":24,"max":[0.25,0.125,0.20000000298023224],"min":[-0.25,-0.125,-0.20000000298023224],"type":"VEC3"},{"bufferView":1,"componentType":5126,"count":24,"max":[1,1,1],"min":[-1,-1,-1],"type":"VEC3"},{"bufferView":2,"componentType":5126,"count":24,"max":[1,1],"min":[0,0],"type":"VEC2"},{"bufferView":3,"componentType":5123,"count":36,"max":[23],"min":[0],"type":"SCALAR"},{"bufferView":4,"componentType":5126,"count":76,"max":[0.18000000715255737,0.25,0.18000000715255737],"min":[-0.18000000715255737,-0.25,-0.18000000715255737],"type":"VEC3"},{"bufferView":5,"componentType":5126,"count":76,"max":[0.9982048273086548,1,0.9982048273086548],"min":[-0.9982048273086548,-1,-0.9982048273086548],"type":"VEC3"},{"bufferView":6,"componentType":5126,"count":76,"max":[1,1],"min":[0,0],"type":"VEC2"},{"bufferView":7,"componentType":5123,"count":144,"max":[75],"min":[0],"type":"SCALAR"},{"bufferView":8,"componentType":5126,"count":169,"max":[0.10999999940395355,0.10999999940395355,0.10999999940395355],"min":[-0.10999999940395355,-0.10999999940395355,-0.10999999940395355],"type":"VEC3"},{"bufferView":9,"componentType":5126,"count":169,"max":[1,1,1],"min":[-1,-1,-1],"type":"VEC3"},{"bufferView":10,"componentType":5126,"count":169,"max":[1.0416666269302368,1],"min":[-0.0416666679084301,0],"type":"VEC2"},{"bufferView":11,"componentType":5123,"count":792,"max":[168],"min":[0],"type":"SCALAR"},{"bufferView":12,"componentType":5126,"count":64,"max":[0.04755282402038574,0.17499999701976776,0.05000000074505806],"min":[-0.04755282402038574,-0.17499999701976776,-0.05000000074505806],"type":"VEC3"},{"bufferView":13,"componentType":5126,"count":64,"max":[0.9506685733795166,1,0.9995920658111572],"min":[-0.9506685733795166,-1,-0.9995920658111572],"type":"VEC3"},{"bufferView":14,"componentType":5126,"count":64,"max":[1,1],"min":[0,0],"type":"VEC2"},{"bufferView":15,"componentType":5123,"count":120,"max":[63],"min":[0],"type":"SCALAR"},{"bufferView":16,"componentType":5126,"count":64,"max":[0.04755282402038574,0.17499999701976776,0.05000000074505806],"min":[-0.04755282402038574,-0.17499999701976776,-0.05000000074505806],"type":"VEC3"},{"bufferView":17,"componentType":5126,"count":64,"max":[0.9506685733795166,1,0.9995920658111572],"min":[-0.9506685733795166,-1,-0.9995920658111572],"type":"VEC3"},{"bufferView":18,"componentType":5126,"count":64,"max":[1,1],"min":[0,0],"type":"VEC2"},{"bufferView":19,"componentType":5123,"count":120,"max":[63],"min":[0],"type":"SCALAR"},{"bufferView":20,"componentType":5126,"count":64,"max":[0.09510564804077148,0.17499999701976776,0.10000000149011612],"min":[-0.09510564804077148,-0.17499999701976776,-0.10000000149011612],"type":"VEC3"},{"bufferView":21,"componentType":5126,"count":64,"max":[0.9495075345039368,1,0.9983713626861572],"min":[-0.9495075345039368,-1,-0.9983713626861572],"type":"VEC3"},{"bufferView":22,"componentType":5126,"count":64,"max":[1,1],"min":[0,0],"type":"VEC2"},{"bufferView":23,"componentType":5123,"count":120,"max":[63],"min":[0],"type":"SCALAR"},{"bufferView":24,"componentType":5126,"count":121,"max":[0.07000000029802322,0.07000000029802322,0.06657395511865616],"min":[-0.07000000029802322,-0.07000000029802322,-0.06657395511865616],"type":"VEC3"},{"bufferView":25,"componentType":5126,"count":121,"max":[1,1,0.9510565400123596],"min":[-1,-1,-0.9510565400123596],"type":"VEC3"},{"bufferView":26,"componentType":5126,"count":121,"max":[1.0499999523162842,1],"min":[-0.05000000074505806,0],"type":"VEC2"},{"bufferView":27,"componentType":5123,"count":540,"max":[120],"min":[0],"type":"SCALAR"},{"bufferView":28,"componentType":5126,"count":64,"max":[0.04755282402038574,0.15000000596046448,0.05000000074505806],"min":[-0.04755282402038574,-0.15000000596046448,-0.05000000074505806],"type":"VEC3"},{"bufferView":29,"componentType":5126,"count":64,"max":[0.9505285620689392,1,0.9994449019432068],"min":[-0.9505285620689392,-1,-0.9994449019432068],"type":"VEC3"},{"bufferView":30,"componentType":5126,"count":64,"max":[1,1],"min":[0,0],"type":"VEC2"},{"bufferView":31,"componentType":5123,"count":120,"max":[63],"min":[0],"type":"SCALAR"},{"bufferView":32,"componentType":5126,"count":81,"max":[0.05000000074505806,0.05000000074505806,0.05000000074505806],"min":[-0.05000000074505806,-0.05000000074505806,-0.05000000074505806],"type":"VEC3"},{"bufferView":33,"componentType":5126,"count":81,"max":[1,1,1],"min":[-1,-1,-1],"type":"VEC3"},{"bufferView":34,"componentType":5126,"count":81,"max":[1.0625,1],"min":[-0.0625,0],"type":"VEC2"},{"bufferView":35,"componentType":5123,"count":336,"max":[80],"min":[0],"type":"SCALAR"}],"materials":[{"pbrMetallicRoughness":{"baseColorFactor":[0.7843137254901961,0.7686274509803922,0.7372549019607844,1],"metallicFactor":0,"roughnessFactor":0.8}},{"pbrMetallicRoughness":{"baseColorFactor":[0.8156862745098039,0.8,0.7686274509803922,1],"metallicFactor":0,"roughnessFactor":0.75}}],"meshes":[{"primitives":[{"mode":4,"attributes":{"POSITION":0,"NORMAL":1,"TEXCOORD_0":2},"indices":3,"material":0}]},{"primitives":[{"mode":4,"attributes":{"POSITION":4,"NORMAL":5,"TEXCOORD_0":6},"indices":7,"material":1}]},{"primitives":[{"mode":4,"attributes":{"POSITION":8,"NORMAL":9,"TEXCOORD_0":10},"indices":11,"material":1}]},{"primitives":[{"mode":4,"attributes":{"POSITION":12,"NORMAL":13,"TEXCOORD_0":14},"indices":15,"material":1}]},{"primitives":[{"mode":4,"attributes":{"POSITION":16,"NORMAL":17,"TEXCOORD_0":18},"indices":19,"material":1}]},{"primitives":[{"mode":4,"attributes":{"POSITION":20,"NORMAL":21,"TEXCOORD_0":22},"indices":23,"material":1}]},{"primitives":[{"mode":4,"attributes":{"POSITION":24,"NORMAL":25,"TEXCOORD_0":26},"indices":27,"material":1}]},{"primitives":[{"mode":4,"attributes":{"POSITION":28,"NORMAL":29,"TEXCOORD_0":30},"indices":31,"material":1}]},{"primitives":[{"mode":4,"attributes":{"POSITION":32,"NORMAL":33,"TEXCOORD_0":34},"indices":35,"material":1}]}]}