{"asset":{"version":"2.0","generator":"THREE.GLTFExporter"},"scenes":[{"nodes":[11]}],"scene":0,"nodes":[{"matrix":[1,0,0,0,0,1,0,0,0,0,1,0,0,0.48,0,1],"mesh":0},{"matrix":[1,0,0,0,0,0.9800665778412416,0.19866933079506124,0,0,-0.19866933079506124,0.9800665778412416,0,0,1,0.05,1],"mesh":1},{"matrix":[1,0,0,0,0,1,0,0,0,0,1,0,0,1.28,0.08,1],"mesh":2},{"matrix":[0.9210609940028851,0.2978435767000479,0.2508701838500143,0,-0.38941834230865047,0.7044663052755917,0.5933637833613874,0,0,-0.644217687237691,0.7648421872844884,0,-0.18,0.95,0.18,1],"mesh":3},{"matrix":[0.955336489125606,-0.2058909107286162,-0.21199322023239767,0,0.2955202066613396,0.665589341657975,0.6853164493328191,0,0,-0.7173560908995228,0.6967067093471655,0,0.15,0.92,0.2,1],"mesh":4},{"matrix":[0.955336489125606,0,-0.29552020666133955,0,0,1,0,0,0.29552020666133955,0,0.955336489125606,0,0.02,0.85,0.35,1],"mesh":5},{"matrix":[1,0,0,0,0,1.2,0,0,0,0,0.8,0,0.25,0.35,0.25,1],"mesh":6},{"matrix":[1,0,0,0,0,1,0,0,0,0,1,0,0.29820951351085445,0.5392128437060871,0.32194546225548953,1],"mesh":7},{"matrix":[1,0,0,0,0,1,0,0,0,0,1,0,0.24257075629588282,0.5081881471144263,0.24445740497599103,1],"mesh":8},{"matrix":[1,0,0,0,0,1,0,0,0,0,1,0,0.21034879434239423,0.45403686582300246,0.20809746580265587,1],"mesh":9},{"matrix":[1,0,0,0,0,1,0,0,0,0,1,0,0.2165129200267218,0.5386648297863621,0.22823051373378292,1],"mesh":10},{"children":[0,1,2,3,4,5,6,7,8,9,10]}],"bufferViews":[{"buffer":0,"byteOffset":0,"byteLength":612,"target":34962,"byteStride":12},{"buffer":0,"byteOffset":612,"byteLength":612,"target":34962,"byteStride":12},{"buffer":0,"byteOffset":1224,"byteLength":408,"target":34962,"byteStride":8},{"buffer":0,"byteOffset":1632,"byteLength":216,"target":34963},{"buffer":0,"byteOffset":1848,"byteLength":912,"target":34962,"byteStride":12},{"buffer":0,"byteOffset":2760,"byteLength":912,"target":34962,"byteStride":12},{"buffer":0,"byteOffset":3672,"byteLength":608,"target":34962,"byteStride":8},{"buffer":0,"byteOffset":4280,"byteLength":288,"target":34963},{"buffer":0,"byteOffset":4568,"byteLength":2028,"target":34962,"byteStride":12},{"buffer":0,"byteOffset":6596,"byteLength":2028,"target":34962,"byteStride":12},{"buffer":0,"byteOffset":8624,"byteLength":1352,"target":34962,"byteStride":8},{"buffer":0,"byteOffset":9976,"byteLength":1584,"target":34963},{"buffer":0,"byteOffset":11560,"byteLength":768,"target":34962,"byteStride":12},{"buffer":0,"byteOffset":12328,"byteLength":768,"target":34962,"byteStride":12},{"buffer":0,"byteOffset":13096,"byteLength":512,"target":34962,"byteStride":8},{"buffer":0,"byteOffset":13608,"byteLength":240,"target":34963},{"buffer":0,"byteOffset":13848,"byteLength":768,"target":34962,"byteStride":12},{"buffer":0,"byteOffset":14616,"byteLength":768,"target":34962,"byteStride":12},{"buffer":0,"byteOffset":15384,"byteLength":512,"target":34962,"byteStride":8},{"buffer":0,"byteOffset":15896,"byteLength":240,"target":34963},{"buffer":0,"byteOffset":16136,"byteLength":288,"target":34962,"byteStride":12},{"buffer":0,"byteOffset":16424,"byteLength":288,"target":34962,"byteStride":12},{"buffer":0,"byteOffset":16712,"byteLength":192,"target":34962,"byteStride":8},{"buffer":0,"byteOffset":16904,"byteLength":72,"target":34963},{"buffer":0,"byteOffset":16976,"byteLength":1452,"target":34962,"byteStride":12},{"buffer":0,"byteOffset":18428,"byteLength":1452,"target":34962,"byteStride":12},{"buffer":0,"byteOffset":19880,"byteLength":968,"target":34962,"byteStride":8},{"buffer":0,"byteOffset":20848,"byteLength":1080,"target":34963},{"buffer":0,"byteOffset":21928,"byteLength":972,"target":34962,"byteStride":12},{"buffer":0,"byteOffset":22900,"byteLength":972,"target":34962,"byteStride":12},{"buffer":0,"byteOffset":23872,"byteLength":648,"target":34962,"byteStride":8},{"buffer":0,"byteOffset":24520,"byteLength":672,"target":34963},{"buffer":0,"byteOffset":25192,"byteLength":972,"target":34962,"byteStride":12},{"buffer":0,"byteOffset":26164,"byteLength":972,"target":34962,"byteStride":12},{"buffer":0,"byteOffset":27136,"byteLength":648,"target":34962,"byteStride":8},{"buffer":0,"byteOffset":27784,"byteLength":672,"target":34963},{"buffer":0,"byteOffset":28456,"byteLength":972,"target":34962,"byteStride":12},{"buffer":0,"byteOffset":29428,"byteLength":972,"target":34962,"byteStride":12},{"buffer":0,"byteOffset":30400,"byteLength":648,"target":34962,"byteStride":8},{"buffer":0,"byteOffset":31048,"byteLength":672,"target":34963},{"buffer":0,"byteOffset":31720,"byteLength":972,"target":34962,"byteStride":12},{"buffer":0,"byteOffset":32692,"byteLength":972,"target":34962,"byteStride":12},{"buffer":0,"byteOffset":33664,"byteLength":648,"target":34962,"byteStride":8},{"buffer":0,"byteOffset":34312,"byteLength":672,"target":34963}],"buffers":[{"byteLength":34984,"uri":"data:application/octet-stream;base64,"}],"accessors":[{"bufferView":0,"componentType":5126,"count":51,"max":[0.2800000011920929,0.4749999940395355,0.2800000011920929],"min":[-0.2800000011920929,-0.4749999940395355,-0.2800000011920929],"type":"VEC3"},{"bufferView":1,"componentType":5126,"count":51,"max":[0.9592045545578003,0.2827129364013672,0.9592045545578003],"min":[-0.9592045545578003,-1,-0.9592045545578003],"type":"VEC3"},{"bufferView":2,"componentType":5126,"count":51,"max":[1,1],"min":[0,0],"type":"VEC2"},{"bufferView":3,"componentType":5123,"count":108,"max":[50],"min":[0],"type":"SCALAR"},{"bufferView":4,"componentType":5126,"count":76,"max":[0.18000000715255737,0.1899999976158142,0.18000000715255737],"min":[-0.18000000715255737,-0.1899999976158142,-0.18000000715255737],"type":"VEC3"},{"bufferView":5,"componentType":5126,"count":76,"max":[0.9914543032646179,1,0.9914543032646179],"min":[-0.9914543032646179,-1,-0.9914543032646179],"type":"VEC3"},{"bufferView":6,"componentType":5126,"count":76,"max":[1,1],"min":[0,0],"type":"VEC2"},{"bufferView":7,"componentType":5123,"count":144,"max":[75],"min":[0],"type":"SCALAR"},{"bufferView":8,"componentType":5126,"count":169,"max":[0.10000000149011612,0.10000000149011612,0.10000000149011612],"min":[-0.10000000149011612,-0.10000000149011612,-0.10000000149011612],"type":"VEC3"},{"bufferView":9,"componentType":5126,"count":169,"max":[1,1,1],"min":[-1,-1,-1],"type":"VEC3"},{"bufferView":10,"componentType":5126,"count":169,"max":[1.0416666269302368,1],"min":[-0.0416666679084301,0],"type":"VEC2"},{"bufferView":11,"componentType":5123,"count":792,"max":[168],"min":[0],"type":"SCALAR"},{"bufferView":12,"componentType":5126,"count":64,"max":[0.04279754310846329,0.1599999964237213,0.04500000178813934],"min":[-0.04279754310846329,-0.1599999964237213,-0.04500000178813934],"type":"VEC3"},{"bufferView":13,"componentType":5126,"count":64,"max":[0.9505924582481384,1,0.9995120763778687],"min":[-0.9505924582481384,-1,-0.9995120763778687],"type":"VEC3"},{"bufferView":14,"componentType":5126,"count":64,"max":[1,1],"min":[0,0],"type":"VEC2"},{"bufferView":15,"componentType":5123,"count":120,"max":[63],"min":[0],"type":"SCALAR"},{"bufferView":16,"componentType":5126,"count":64,"max":[0.04279754310846329,0.1599999964237213,0.04500000178813934],"min":[-0.04279754310846329,-0.1599999964237213,-0.04500000178813934],"type":"VEC3"},{"bufferView":17,"componentType":5126,"count":64,"max":[0.9505924582481384,1,0.9995120763778687],"min":[-0.9505924582481384,-1,-0.9995120763778687],"type":"VEC3"},{"bufferView":18,"componentType":5126,"count":64,"max":[1,1],"min":[0,0],"type":"VEC2"},{"bufferView":19,"componentType":5123,"count":120,"max":[63],"min":[0],"type":"SCALAR"},{"bufferView":20,"componentType":5126,"count":24,"max":[0.07500000298023224,0.019999999552965164,0.009999999776482582],"min":[-0.07500000298023224,-0.019999999552965164,-0.009999999776482582],"type":"VEC3"},{"bufferView":21,"componentType":5126,"count":24,"max":[1,1,1],"min":[-1,-1,-1],"type":"VEC3"},{"bufferView":22,"componentType":5126,"count":24,"max":[1,1],"min":[0,0],"type":"VEC2"},{"bufferView":23,"componentType":5123,"count":36,"max":[23],"min":[0],"type":"SCALAR"},{"bufferView":24,"componentType":5126,"count":121,"max":[0.25,0.25,0.2377641350030899],"min":[-0.25,-0.25,-0.2377641350030899],"type":"VEC3"},{"bufferView":25,"componentType":5126,"count":121,"max":[1,1,0.9510565400123596],"min":[-1,-1,-0.9510565400123596],"type":"VEC3"},{"bufferView":26,"componentType":5126,"count":121,"max":[1.0499999523162842,1],"min":[-0.05000000074505806,0],"type":"VEC2"},{"bufferView":27,"componentType":5123,"count":540,"max":[120],"min":[0],"type":"SCALAR"},{"bufferView":28,"componentType":5126,"count":81,"max":[0.03999999910593033,0.03999999910593033,0.03999999910593033],"min":[-0.03999999910593033,-0.03999999910593033,-0.03999999910593033],"type":"VEC3"},{"bufferView":29,"componentType":5126,"count":81,"max":[1,1,1],"min":[-1,-1,-1],"type":"VEC3"},{"bufferView":30,"componentType":5126,"count":81,"max":[1.0625,1],"min":[-0.0625,0],"type":"VEC2"},{"bufferView":31,"componentType":5123,"count":336,"max":[80],"min":[0],"type":"SCALAR"},{"bufferView":32,"componentType":5126,"count":81,"max":[0.03999999910593033,0.03999999910593033,0.03999999910593033],"min":[-0.03999999910593033,-0.03999999910593033,-0.03999999910593033],"type":"VEC3"},{"bufferView":33,"componentType":5126,"count":81,"max":[1,1,1],"min":[-1,-1,-1],"type":"VEC3"},{"bufferView":34,"componentType":5126,"count":81,"max":[1.0625,1],"min":[-0.0625,0],"type":"VEC2"},{"bufferView":35,"componentType":5123,"count":336,"max":[80],"min":[0],"type":"SCALAR"},{"bufferView":36,"componentType":5126,"count":81,"max":[0.03999999910593033,0.03999999910593033,0.03999999910593033],"min":[-0.03999999910593033,-0.03999999910593033,-0.03999999910593033],"type":"VEC3"},{"bufferView":37,"componentType":5126,"count":81,"max":[1,1,1],"min":[-1,-1,-1],"type":"VEC3"},{"bufferView":38,"componentType":5126,"count":81,"max":[1.0625,1],"min":[-0.0625,0],"type":"VEC2"},{"bufferView":39,"componentType":5123,"count":336,"max":[80],"min":[0],"type":"SCALAR"},{"bufferView":40,"componentType":5126,"count":81,"max":[0.03999999910593033,0.03999999910593033,0.03999999910593033],"min":[-0.03999999910593033,-0.03999999910593033,-0.03999999910593033],"type":"VEC3"},{"bufferView":41,"componentType":5126,"count":81,"max":[1,1,1],"min":[-1,-1,-1],"type":"VEC3"},{"bufferView":42,"componentType":5126,"count":81,"max":[1.0625,1],"min":[-0.0625,0],"type":"VEC2"},{"bufferView":43,"componentType":5123,"count":336,"max":[80],"min":[0],"type":"SCALAR"}],"materials":[{"pbrMetallicRoughness":{"baseColorFactor":[0.8156862745098039,0.8,0.7686274509803922,1],"metallicFactor":0,"roughnessFactor":0.75}},{"pbrMetallicRoughness":{"baseColorFactor":[0.7843137254901961,0.7686274509803922,0.7372549019607844,1],"metallicFactor":0,"roughnessFactor":0.8}},{"pbrMetallicRoughness":{"baseColorFactor":[0.8470588235294118,0.8313725490196079,0.8,1],"metallicFactor":0,"roughnessFactor":0.7}}],"meshes":[{"primitives":[{"mode":4,"attributes":{"POSITION":0,"NORMAL":1,"TEXCOORD_0":2},"indices":3,"material":0}]},{"primitives":[{"mode":4,"attributes":{"POSITION":4,"NORMAL":5,"TEXCOORD_0":6},"indices":7,"material":0}]},{"primitives":[{"mode":4,"attributes":{"POSITION":8,"NORMAL":9,"TEXCOORD_0":10},"indices":11,"material":0}]},{"primitives":[{"mode":4,"attributes":{"POSITION":12,"NORMAL":13,"TEXCOORD_0":14},"indices":15,"material":0}]},{"primitives":[{"mode":4,"attributes":{"POSITION":16,"NORMAL":17,"TEXCOORD_0":18},"indices":19,"material":0}]},{"primitives":[{"mode":4,"attributes":{"POSITION":20,"NORMAL":21,"TEXCOORD_0":22},"indices":23,"material":1}]},{"primitives":[{"mode":4,"attributes":{"POSITION":24,"NORMAL":25,"TEXCOORD_0":26},"indices":27,"material":1}]},{"primitives":[{"mode":4,"attributes":{"POSITION":28,"NORMAL":29,"TEXCOORD_0":30},"indices":31,"material":2}]},{"primitives":[{"mode":4,"attributes":{"POSITION":32,"NORMAL":33,"TEXCOORD_0":34},"indices":35,"material":2}]},{"primitives":[{"mode":4,"attributes":{"POSITION":36,"NORMAL":37,"TEXCOORD_0":38},"indices":39,"material":2}]},{"primitives":[{"mode":4,"attributes":{"POSITION":40,"NORMAL":41,"TEXCOORD_0":42},"indices":43,"material":2}]}]}