{"asset":{"version":"2.0","generator":"THREE.GLTFExporter"},"scenes":[{"nodes":[14]}],"scene":0,"nodes":[{"matrix":[1,0,0,0,0,1,0,0,0,0,1,0,0,0.52,0,1],"mesh":0},{"matrix":[1,0,0,0,0,1,0,0,0,0,1,0,0,1.1,0,1],"mesh":1},{"matrix":[1,0,0,0,0,1,0,0,0,0,1,0,0,1.42,0,1],"mesh":2},{"matrix":[1,0,0,0,0,0.9800665778412416,0.19866933079506124,0,0,-0.19866933079506124,0.9800665778412416,0,0,1.32,0.06,1],"mesh":3},{"matrix":[1,0,0,0,0,1,0,0,0,0,1,0,0,1.55,0,1],"mesh":4},{"matrix":[0.8775825618903728,0.4207354924039482,0.22984884706593015,0,-0.47942553860420295,0.7701511529340699,0.4207354924039482,0,0,-0.47942553860420295,0.8775825618903728,0,-0.25,1.05,0.12,1],"mesh":5},{"matrix":[1,0,0,0,0,1,0,0,0,0,1,0,-0.35,0.92,0.25,1],"mesh":6},{"matrix":[1,0,0,0,0,1,0,0,0,0,1,0,-0.35,0.88,0.25,1],"mesh":7},{"matrix":[1,0,0,0,0,2.220446049250313e-16,1,0,0,-1,2.220446049250313e-16,0,-0.35,0.92,0.25,1],"mesh":8},{"matrix":[1,0,0,0,0,1,0,0,0,0,1,0,-0.35,0.96,0.33,1],"mesh":9},{"matrix":[1,0,0,0,0,1,0,0,0,0,1,0,-0.26999999999999996,0.96,0.25,1],"mesh":10},{"matrix":[1,0,0,0,0,1,0,0,0,0,1,0,-0.35,0.96,0.16999999999999998,1],"mesh":11},{"matrix":[1,0,0,0,0,1,0,0,0,0,1,0,-0.43,0.96,0.24999999999999997,1],"mesh":12},{"matrix":[0.6967067093471654,-0.7173560908995228,0,0,0.7173560908995228,0.6967067093471654,0,0,0,0,1,0,0.22,1.2,0,1],"mesh":13},{"children":[0,1,2,3,4,5,6,7,8,9,10,11,12,13]}],"bufferViews":[{"buffer":0,"byteOffset":0,"byteLength":612,"target":34962,"byteStride":12},{"buffer":0,"byteOffset":612,"byteLength":612,"target":34962,"byteStride":12},{"buffer":0,"byteOffset":1224,"byteLength":408,"target":34962,"byteStride":8},{"buffer":0,"byteOffset":1632,"byteLength":216,"target":34963},{"buffer":0,"byteOffset":1848,"byteLength":912,"target":34962,"byteStride":12},{"buffer":0,"byteOffset":2760,"byteLength":912,"target":34962,"byteStride":12},{"buffer":0,"byteOffset":3672,"byteLength":608,"target":34962,"byteStride":8},{"buffer":0,"byteOffset":4280,"byteLength":288,"target":34963},{"buffer":0,"byteOffset":4568,"byteLength":2028,"target":34962,"byteStride":12},{"buffer":0,"byteOffset":6596,"byteLength":2028,"target":34962,"byteStride":12},{"buffer":0,"byteOffset":8624,"byteLength":1352,"target":34962,"byteStride":8},{"buffer":0,"byteOffset":9976,"byteLength":1584,"target":34963},{"buffer":0,"byteOffset":11560,"byteLength":420,"target":34962,"byteStride":12},{"buffer":0,"byteOffset":11980,"byteLength":420,"target":34962,"byteStride":12},{"buffer":0,"byteOffset":12400,"byteLength":280,"target":34962,"byteStride":8},{"buffer":0,"byteOffset":12680,"byteLength":144,"target":34963},{"buffer":0,"byteOffset":12824,"byteLength":912,"target":34962,"byteStride":12},{"buffer":0,"byteOffset":13736,"byteLength":912,"target":34962,"byteStride":12},{"buffer":0,"byteOffset":14648,"byteLength":608,"target":34962,"byteStride":8},{"buffer":0,"byteOffset":15256,"byteLength":288,"target":34963},{"buffer":0,"byteOffset":15544,"byteLength":768,"target":34962,"byteStride":12},{"buffer":0,"byteOffset":16312,"byteLength":768,"target":34962,"byteStride":12},{"buffer":0,"byteOffset":17080,"byteLength":512,"target":34962,"byteStride":8},{"buffer":0,"byteOffset":17592,"byteLength":240,"target":34963},{"buffer":0,"byteOffset":17832,"byteLength":1452,"target":34962,"byteStride":12},{"buffer":0,"byteOffset":19284,"byteLength":1452,"target":34962,"byteStride":12},{"buffer":0,"byteOffset":20736,"byteLength":968,"target":34962,"byteStride":8},{"buffer":0,"byteOffset":21704,"byteLength":1080,"target":34963},{"buffer":0,"byteOffset":22784,"byteLength":1200,"target":34962,"byteStride":12},{"buffer":0,"byteOffset":23984,"byteLength":1200,"target":34962,"byteStride":12},{"buffer":0,"byteOffset":25184,"byteLength":800,"target":34962,"byteStride":8},{"buffer":0,"byteOffset":25984,"byteLength":384,"target":34963},{"buffer":0,"byteOffset":26368,"byteLength":1428,"target":34962,"byteStride":12},{"buffer":0,"byteOffset":27796,"byteLength":1428,"target":34962,"byteStride":12},{"buffer":0,"byteOffset":29224,"byteLength":952,"target":34962,"byteStride":8},{"buffer":0,"byteOffset":30176,"byteLength":1152,"target":34963},{"buffer":0,"byteOffset":31328,"byteLength":480,"target":34962,"byteStride":12},{"buffer":0,"byteOffset":31808,"byteLength":480,"target":34962,"byteStride":12},{"buffer":0,"byteOffset":32288,"byteLength":320,"target":34962,"byteStride":8},{"buffer":0,"byteOffset":32608,"byteLength":144,"target":34963},{"buffer":0,"byteOffset":32752,"byteLength":480,"target":34962,"byteStride":12},{"buffer":0,"byteOffset":33232,"byteLength":480,"target":34962,"byteStride":12},{"buffer":0,"byteOffset":33712,"byteLength":320,"target":34962,"byteStride":8},{"buffer":0,"byteOffset":34032,"byteLength":144,"target":34963},{"buffer":0,"byteOffset":34176,"byteLength":480,"target":34962,"byteStride":12},{"buffer":0,"byteOffset":34656,"byteLength":480,"target":34962,"byteStride":12},{"buffer":0,"byteOffset":35136,"byteLength":320,"target":34962,"byteStride":8},{"buffer":0,"byteOffset":35456,"byteLength":144,"target":34963},{"buffer":0,"byteOffset":35600,"byteLength":480,"target":34962,"byteStride":12},{"buffer":0,"byteOffset":36080,"byteLength":480,"target":34962,"byteStride":12},{"buffer":0,"byteOffset":36560,"byteLength":320,"target":34962,"byteStride":8},{"buffer":0,"byteOffset":36880,"byteLength":144,"target":34963},{"buffer":0,"byteOffset":37024,"byteLength":768,"target":34962,"byteStride":12},{"buffer":0,"byteOffset":37792,"byteLength":768,"target":34962,"byteStride":12},{"buffer":0,"byteOffset":38560,"byteLength":512,"target":34962,"byteStride":8},{"buffer":0,"byteOffset":39072,"byteLength":240,"target":34963}],"buffers":[{"byteLength":39312,"uri":"data:application/octet-stream;base64,"}],"accessors":[{"bufferView":0,"componentType":5126,"count":51,"max":[0.3199999928474426,0.5249999761581421,0.3199999928474426],"min":[-0.3199999928474426,-0.5249999761581421,-0.3199999928474426],"type":"VEC3"},{"bufferView":1,"componentType":5126,"count":51,"max":[0.9565634727478027,0.29152411222457886,0.9565634727478027],"min":[-0.9565634727478027,-1,-0.9565634727478027],"type":"VEC3"},{"bufferView":2,"componentType":5126,"count":51,"max":[1,1],"min":[0,0],"type":"VEC2"},{"bufferView":3,"componentType":5123,"count":108,"max":[50],"min":[0],"type":"SCALAR"},{"bufferView":4,"componentType":5126,"count":76,"max":[0.20000000298023224,0.20000000298023224,0.20000000298023224],"min":[-0.20000000298023224,-0.20000000298023224,-0.20000000298023224],"type":"VEC3"},{"bufferView":5,"componentType":5126,"count":76,"max":[0.9922778606414795,1,0.9922778606414795],"min":[-0.9922778606414795,-1,-0.9922778606414795],"type":"VEC3"},{"bufferView":6,"componentType":5126,"count":76,"max":[1,1],"min":[0,0],"type":"VEC2"},{"bufferView":7,"componentType":5123,"count":144,"max":[75],"min":[0],"type":"SCALAR"},{"bufferView":8,"componentType":5126,"count":169,"max":[0.11999999731779099,0.11999999731779099,0.11999999731779099],"min":[-0.11999999731779099,-0.11999999731779099,-0.11999999731779099],"type":"VEC3"},{"bufferView":9,"componentType":5126,"count":169,"max":[1,1,1],"min":[-1,-1,-1],"type":"VEC3"},{"bufferView":10,"componentType":5126,"count":169,"max":[1.0416666269302368,1],"min":[-0.0416666679084301,0],"type":"VEC2"},{"bufferView":11,"componentType":5123,"count":792,"max":[168],"min":[0],"type":"SCALAR"},{"bufferView":12,"componentType":5126,"count":35,"max":[0.07999999821186066,0.07500000298023224,0.07999999821186066],"min":[-0.07999999821186066,-0.07500000298023224,-0.07999999821186066],"type":"VEC3"},{"bufferView":13,"componentType":5126,"count":35,"max":[0.8823529481887817,0.47058823704719543,0.8823529481887817],"min":[-0.8823529481887817,-1,-0.8823529481887817],"type":"VEC3"},{"bufferView":14,"componentType":5126,"count":35,"max":[1,1],"min":[0,0],"type":"VEC2"},{"bufferView":15,"componentType":5123,"count":72,"max":[34],"min":[0],"type":"SCALAR"},{"bufferView":16,"componentType":5126,"count":76,"max":[0.10999999940395355,0.03999999910593033,0.10999999940395355],"min":[-0.10999999940395355,-0.03999999910593033,-0.10999999940395355],"type":"VEC3"},{"bufferView":17,"componentType":5126,"count":76,"max":[0.9922778606414795,1,0.9922778606414795],"min":[-0.9922778606414795,-1,-0.9922778606414795],"type":"VEC3"},{"bufferView":18,"componentType":5126,"count":76,"max":[1,1],"min":[0,0],"type":"VEC2"},{"bufferView":19,"componentType":5123,"count":144,"max":[75],"min":[0],"type":"SCALAR"},{"bufferView":20,"componentType":5126,"count":64,"max":[0.04755282402038574,0.1899999976158142,0.05000000074505806],"min":[-0.04755282402038574,-0.1899999976158142,-0.05000000074505806],"type":"VEC3"},{"bufferView":21,"componentType":5126,"count":64,"max":[0.9507274031639099,1,0.9996539354324341],"min":[-0.9507274031639099,-1,-0.9996539354324341],"type":"VEC3"},{"bufferView":22,"componentType":5126,"count":64,"max":[1,1],"min":[0,0],"type":"VEC2"},{"bufferView":23,"componentType":5123,"count":120,"max":[63],"min":[0],"type":"SCALAR"},{"bufferView":24,"componentType":5126,"count":121,"max":[0.05999999865889549,0.05999999865889549,0.05706338956952095],"min":[-0.05999999865889549,-0.05999999865889549,-0.05706338956952095],"type":"VEC3"},{"bufferView":25,"componentType":5126,"count":121,"max":[1,1,0.9510565400123596],"min":[-1,-1,-0.9510565400123596],"type":"VEC3"},{"bufferView":26,"componentType":5126,"count":121,"max":[1.0499999523162842,1],"min":[-0.05000000074505806,0],"type":"VEC2"},{"bufferView":27,"componentType":5123,"count":540,"max":[120],"min":[0],"type":"SCALAR"},{"bufferView":28,"componentType":5126,"count":100,"max":[0.14000000059604645,0.02500000037252903,0.14000000059604645],"min":[-0.14000000059604645,-0.02500000037252903,-0.14000000059604645],"type":"VEC3"},{"bufferView":29,"componentType":5126,"count":100,"max":[0.9284766912460327,1,0.9284766912460327],"min":[-0.9284766912460327,-1,-0.9284766912460327],"type":"VEC3"},{"bufferView":30,"componentType":5126,"count":100,"max":[1,1],"min":[0,0],"type":"VEC2"},{"bufferView":31,"componentType":5123,"count":192,"max":[99],"min":[0],"type":"SCALAR"},{"bufferView":32,"componentType":5126,"count":119,"max":[0.11999999731779099,0.11999999731779099,0.017320508137345314],"min":[-0.11999999731779099,-0.11999999731779099,-0.017320508137345314],"type":"VEC3"},{"bufferView":33,"componentType":5126,"count":119,"max":[1,1,0.8660253882408142],"min":[-1,-1,-0.8660253882408142],"type":"VEC3"},{"bufferView":34,"componentType":5126,"count":119,"max":[1,1],"min":[0,0],"type":"VEC2"},{"bufferView":35,"componentType":5123,"count":576,"max":[118],"min":[0],"type":"SCALAR"},{"bufferView":36,"componentType":5126,"count":40,"max":[0.021650634706020355,0.03999999910593033,0.02500000037252903],"min":[-0.021650634706020355,-0.03999999910593033,-0.02500000037252903],"type":"VEC3"},{"bufferView":37,"componentType":5126,"count":40,"max":[0.8643388748168945,1,0.9980525970458984],"min":[-0.8643388748168945,-1,-0.9980525970458984],"type":"VEC3"},{"bufferView":38,"componentType":5126,"count":40,"max":[1,1],"min":[0,0],"type":"VEC2"},{"bufferView":39,"componentType":5123,"count":72,"max":[39],"min":[0],"type":"SCALAR"},{"bufferView":40,"componentType":5126,"count":40,"max":[0.021650634706020355,0.03999999910593033,0.02500000037252903],"min":[-0.021650634706020355,-0.03999999910593033,-0.02500000037252903],"type":"VEC3"},{"bufferView":41,"componentType":5126,"count":40,"max":[0.8643388748168945,1,0.9980525970458984],"min":[-0.8643388748168945,-1,-0.9980525970458984],"type":"VEC3"},{"bufferView":42,"componentType":5126,"count":40,"max":[1,1],"min":[0,0],"type":"VEC2"},{"bufferView":43,"componentType":5123,"count":72,"max":[39],"min":[0],"type":"SCALAR"},{"bufferView":44,"componentType":5126,"count":40,"max":[0.021650634706020355,0.03999999910593033,0.02500000037252903],"min":[-0.021650634706020355,-0.03999999910593033,-0.02500000037252903],"type":"VEC3"},{"bufferView":45,"componentType":5126,"count":40,"max":[0.8643388748168945,1,0.9980525970458984],"min":[-0.8643388748168945,-1,-0.9980525970458984],"type":"VEC3"},{"bufferView":46,"componentType":5126,"count":40,"max":[1,1],"min":[0,0],"type":"VEC2"},{"bufferView":47,"componentType":5123,"count":72,"max":[39],"min":[0],"type":"SCALAR"},{"bufferView":48,"componentType":5126,"count":40,"max":[0.021650634706020355,0.03999999910593033,0.02500000037252903],"min":[-0.021650634706020355,-0.03999999910593033,-0.02500000037252903],"type":"VEC3"},{"bufferView":49,"componentType":5126,"count":40,"max":[0.8643388748168945,1,0.9980525970458984],"min":[-0.8643388748168945,-1,-0.9980525970458984],"type":"VEC3"},{"bufferView":50,"componentType":5126,"count":40,"max":[1,1],"min":[0,0],"type":"VEC2"},{"bufferView":51,"componentType":5123,"count":72,"max":[39],"min":[0],"type":"SCALAR"},{"bufferView":52,"componentType":5126,"count":64,"max":[0.04755282402038574,0.17499999701976776,0.05000000074505806],"min":[-0.04755282402038574,-0.17499999701976776,-0.05000000074505806],"type":"VEC3"},{"bufferView":53,"componentType":5126,"count":64,"max":[0.9506685733795166,1,0.9995920658111572],"min":[-0.9506685733795166,-1,-0.9995920658111572],"type":"VEC3"},{"bufferView":54,"componentType":5126,"count":64,"max":[1,1],"min":[0,0],"type":"VEC2"},{"bufferView":55,"componentType":5123,"count":120,"max":[63],"min":[0],"type":"SCALAR"}],"materials":[{"pbrMetallicRoughness":{"baseColorFactor":[0.8156862745098039,0.8,0.7686274509803922,1],"metallicFactor":0,"roughnessFactor":0.75}},{"pbrMetallicRoughness":{"baseColorFactor":[0.8470588235294118,0.8313725490196079,0.8,1],"metallicFactor":0,"roughnessFactor":0.7}},{"pbrMetallicRoughness":{"baseColorFactor":[0.7843137254901961,0.7686274509803922,0.7372549019607844,1],"metallicFactor":0,"roughnessFactor":0.8}}],"meshes":[{"primitives":[{"mode":4,"attributes":{"POSITION":0,"NORMAL":1,"TEXCOORD_0":2},"indices":3,"material":0}]},{"primitives":[{"mode":4,"attributes":{"POSITION":4,"NORMAL":5,"TEXCOORD_0":6},"indices":7,"material":0}]},{"primitives":[{"mode":4,"attributes":{"POSITION":8,"NORMAL":9,"TEXCOORD_0":10},"indices":11,"material":0}]},{"primitives":[{"mode":4,"attributes":{"POSITION":12,"NORMAL":13,"TEXCOORD_0":14},"indices":15,"material":0}]},{"primitives":[{"mode":4,"attributes":{"POSITION":16,"NORMAL":17,"TEXCOORD_0":18},"indices":19,"material":1}]},{"primitives":[{"mode":4,"attributes":{"POSITION":20,"NORMAL":21,"TEXCOORD_0":22},"indices":23,"material":0}]},{"primitives":[{"mode":4,"attributes":{"POSITION":24,"NORMAL":25,"TEXCOORD_0":26},"indices":27,"material":0}]},{"primitives":[{"mode":4,"attributes":{"POSITION":28,"NORMAL":29,"TEXCOORD_0":30},"indices":31,"material":2}]},{"primitives":[{"mode":4,"attributes":{"POSITION":32,"NORMAL":33,"TEXCOORD_0":34},"indices":35,"material":2}]},{"primitives":[{"mode":4,"attributes":{"POSITION":36,"NORMAL":37,"TEXCOORD_0":38},"indices":39,"material":2}]},{"primitives":[{"mode":4,"attributes":{"POSITION":40,"NORMAL":41,"TEXCOORD_0":42},"indices":43,"material":2}]},{"primitives":[{"mode":4,"attributes":{"POSITION":44,"NORMAL":45,"TEXCOORD_0":46},"indices":47,"material":2}]},{"primitives":[{"mode":4,"attributes":{"POSITION":48,"NORMAL":49,"TEXCOORD_0":50},"indices":51,"material":2}]},{"primitives":[{"mode":4,"attributes":{"POSITION":52,"NORMAL":53,"TEXCOORD_0":54},"indices":55,"material":0}]}]}