{"asset":{"version":"2.0","generator":"THREE.GLTFExporter"},"scenes":[{"nodes":[10]}],"scene":0,"nodes":[{"matrix":[1,0,0,0,0,1,0,0,0,0,1,0,-0.1,0.6,0,1],"mesh":0},{"matrix":[0.9210609940028851,-0.38941834230865047,0,0,0.38941834230865047,0.9210609940028851,0,0,0,0,1,0,0.15,0.7,0.2,1],"mesh":1},{"matrix":[1,0,0,0,0,1,0,0,0,0,1,0,0.25,1,0.2,1],"mesh":2},{"matrix":[0.955336489125606,0.29552020666133955,0,0,-0.29552020666133955,0.955336489125606,0,0,0,0,1,0,0.18,1.12,0.22,1],"mesh":3},{"matrix":[0.955336489125606,-0.29552020666133955,0,0,0.29552020666133955,0.955336489125606,0,0,0,0,1,0,0.32,1.12,0.22,1],"mesh":4},{"matrix":[0.6967067093471654,-0.7173560908995228,0,0,0.7173560908995228,0.6967067093471654,0,0,0,0,1,0,0.35,0.85,0.25,1],"mesh":5},{"matrix":[0.8775825618903728,-0.479425538604203,0,0,0.479425538604203,0.8775825618903728,0,0,0,0,1,0,0.15,0.65,-0.2,1],"mesh":6},{"matrix":[1,0,0,0,0,1,0,0,0,0,1,0,0.28,0.92,-0.2,1],"mesh":7},{"matrix":[1,0,0,0,0,1,0,0,0,0,1,0,0.28,1.05,-0.2,1],"mesh":8},{"matrix":[0.6216099682706644,-0.7677125236495633,-0.15562303292945553,0,0.7833269096274834,0.6092191543550328,0.12349483641187214,0,0,-0.19866933079506122,0.9800665778412416,0,0.38,0.78,-0.15,1],"mesh":9},{"children":[0,1,2,3,4,5,6,7,8,9]}],"bufferViews":[{"buffer":0,"byteOffset":0,"byteLength":288,"target":34962,"byteStride":12},{"buffer":0,"byteOffset":288,"byteLength":288,"target":34962,"byteStride":12},{"buffer":0,"byteOffset":576,"byteLength":192,"target":34962,"byteStride":8},{"buffer":0,"byteOffset":768,"byteLength":72,"target":34963},{"buffer":0,"byteOffset":840,"byteLength":912,"target":34962,"byteStride":12},{"buffer":0,"byteOffset":1752,"byteLength":912,"target":34962,"byteStride":12},{"buffer":0,"byteOffset":2664,"byteLength":608,"target":34962,"byteStride":8},{"buffer":0,"byteOffset":3272,"byteLength":288,"target":34963},{"buffer":0,"byteOffset":3560,"byteLength":2028,"target":34962,"byteStride":12},{"buffer":0,"byteOffset":5588,"byteLength":2028,"target":34962,"byteStride":12},{"buffer":0,"byteOffset":7616,"byteLength":1352,"target":34962,"byteStride":8},{"buffer":0,"byteOffset":8968,"byteLength":1584,"target":34963},{"buffer":0,"byteOffset":10552,"byteLength":420,"target":34962,"byteStride":12},{"buffer":0,"byteOffset":10972,"byteLength":420,"target":34962,"byteStride":12},{"buffer":0,"byteOffset":11392,"byteLength":280,"target":34962,"byteStride":8},{"buffer":0,"byteOffset":11672,"byteLength":144,"target":34963},{"buffer":0,"byteOffset":11816,"byteLength":420,"target":34962,"byteStride":12},{"buffer":0,"byteOffset":12236,"byteLength":420,"target":34962,"byteStride":12},{"buffer":0,"byteOffset":12656,"byteLength":280,"target":34962,"byteStride":8},{"buffer":0,"byteOffset":12936,"byteLength":144,"target":34963},{"buffer":0,"byteOffset":13080,"byteLength":768,"target":34962,"byteStride":12},{"buffer":0,"byteOffset":13848,"byteLength":768,"target":34962,"byteStride":12},{"buffer":0,"byteOffset":14616,"byteLength":512,"target":34962,"byteStride":8},{"buffer":0,"byteOffset":15128,"byteLength":240,"target":34963},{"buffer":0,"byteOffset":15368,"byteLength":912,"target":34962,"byteStride":12},{"buffer":0,"byteOffset":16280,"byteLength":912,"target":34962,"byteStride":12},{"buffer":0,"byteOffset":17192,"byteLength":608,"target":34962,"byteStride":8},{"buffer":0,"byteOffset":17800,"byteLength":288,"target":34963},{"buffer":0,"byteOffset":18088,"byteLength":2028,"target":34962,"byteStride":12},{"buffer":0,"byteOffset":20116,"byteLength":2028,"target":34962,"byteStride":12},{"buffer":0,"byteOffset":22144,"byteLength":1352,"target":34962,"byteStride":8},{"buffer":0,"byteOffset":23496,"byteLength":1584,"target":34963},{"buffer":0,"byteOffset":25080,"byteLength":420,"target":34962,"byteStride":12},{"buffer":0,"byteOffset":25500,"byteLength":420,"target":34962,"byteStride":12},{"buffer":0,"byteOffset":25920,"byteLength":280,"target":34962,"byteStride":8},{"buffer":0,"byteOffset":26200,"byteLength":144,"target":34963},{"buffer":0,"byteOffset":26344,"byteLength":768,"target":34962,"byteStride":12},{"buffer":0,"byteOffset":27112,"byteLength":768,"target":34962,"byteStride":12},{"buffer":0,"byteOffset":27880,"byteLength":512,"target":34962,"byteStride":8},{"buffer":0,"byteOffset":28392,"byteLength":240,"target":34963}],"buffers":[{"byteLength":28632,"uri":"data:application/octet-stream;base64,"}],"accessors":[{"bufferView":0,"componentType":5126,"count":24,"max":[0.07500000298023224,0.6000000238418579,0.4000000059604645],"min":[-0.07500000298023224,-0.6000000238418579,-0.4000000059604645],"type":"VEC3"},{"bufferView":1,"componentType":5126,"count":24,"max":[1,1,1],"min":[-1,-1,-1],"type":"VEC3"},{"bufferView":2,"componentType":5126,"count":24,"max":[1,1],"min":[0,0],"type":"VEC2"},{"bufferView":3,"componentType":5123,"count":36,"max":[23],"min":[0],"type":"SCALAR"},{"bufferView":4,"componentType":5126,"count":76,"max":[0.18000000715255737,0.25,0.18000000715255737],"min":[-0.18000000715255737,-0.25,-0.18000000715255737],"type":"VEC3"},{"bufferView":5,"componentType":5126,"count":76,"max":[0.9982048273086548,1,0.9982048273086548],"min":[-0.9982048273086548,-1,-0.9982048273086548],"type":"VEC3"},{"bufferView":6,"componentType":5126,"count":76,"max":[1,1],"min":[0,0],"type":"VEC2"},{"bufferView":7,"componentType":5123,"count":144,"max":[75],"min":[0],"type":"SCALAR"},{"bufferView":8,"componentType":5126,"count":169,"max":[0.11999999731779099,0.11999999731779099,0.11999999731779099],"min":[-0.11999999731779099,-0.11999999731779099,-0.11999999731779099],"type":"VEC3"},{"bufferView":9,"componentType":5126,"count":169,"max":[1,1,1],"min":[-1,-1,-1],"type":"VEC3"},{"bufferView":10,"componentType":5126,"count":169,"max":[1.0416666269302368,1],"min":[-0.0416666679084301,0],"type":"VEC2"},{"bufferView":11,"componentType":5123,"count":792,"max":[168],"min":[0],"type":"SCALAR"},{"bufferView":12,"componentType":5126,"count":35,"max":[0.02500000037252903,0.07500000298023224,0.02500000037252903],"min":[-0.02500000037252903,-0.07500000298023224,-0.02500000037252903],"type":"VEC3"},{"bufferView":13,"componentType":5126,"count":35,"max":[0.986393928527832,0.16439898312091827,0.986393928527832],"min":[-0.986393928527832,-1,-0.986393928527832],"type":"VEC3"},{"bufferView":14,"componentType":5126,"count":35,"max":[1,1],"min":[0,0],"type":"VEC2"},{"bufferView":15,"componentType":5123,"count":72,"max":[34],"min":[0],"type":"SCALAR"},{"bufferView":16,"componentType":5126,"count":35,"max":[0.02500000037252903,0.07500000298023224,0.02500000037252903],"min":[-0.02500000037252903,-0.07500000298023224,-0.02500000037252903],"type":"VEC3"},{"bufferView":17,"componentType":5126,"count":35,"max":[0.986393928527832,0.16439898312091827,0.986393928527832],"min":[-0.986393928527832,-1,-0.986393928527832],"type":"VEC3"},{"bufferView":18,"componentType":5126,"count":35,"max":[1,1],"min":[0,0],"type":"VEC2"},{"bufferView":19,"componentType":5123,"count":72,"max":[34],"min":[0],"type":"SCALAR"},{"bufferView":20,"componentType":5126,"count":64,"max":[0.05706338956952095,0.20000000298023224,0.05999999865889549],"min":[-0.05706338956952095,-0.20000000298023224,-0.05999999865889549],"type":"VEC3"},{"bufferView":21,"componentType":5126,"count":64,"max":[0.9507594704627991,1,0.999687671661377],"min":[-0.9507594704627991,-1,-0.999687671661377],"type":"VEC3"},{"bufferView":22,"componentType":5126,"count":64,"max":[1,1],"min":[0,0],"type":"VEC2"},{"bufferView":23,"componentType":5123,"count":120,"max":[63],"min":[0],"type":"SCALAR"},{"bufferView":24,"componentType":5126,"count":76,"max":[0.18000000715255737,0.25,0.18000000715255737],"min":[-0.18000000715255737,-0.25,-0.18000000715255737],"type":"VEC3"},{"bufferView":25,"componentType":5126,"count":76,"max":[0.9982048273086548,1,0.9982048273086548],"min":[-0.9982048273086548,-1,-0.9982048273086548],"type":"VEC3"},{"bufferView":26,"componentType":5126,"count":76,"max":[1,1],"min":[0,0],"type":"VEC2"},{"bufferView":27,"componentType":5123,"count":144,"max":[75],"min":[0],"type":"SCALAR"},{"bufferView":28,"componentType":5126,"count":169,"max":[0.10999999940395355,0.10999999940395355,0.10999999940395355],"min":[-0.10999999940395355,-0.10999999940395355,-0.10999999940395355],"type":"VEC3"},{"bufferView":29,"componentType":5126,"count":169,"max":[1,1,1],"min":[-1,-1,-1],"type":"VEC3"},{"bufferView":30,"componentType":5126,"count":169,"max":[1.0416666269302368,1],"min":[-0.0416666679084301,0],"type":"VEC2"},{"bufferView":31,"componentType":5123,"count":792,"max":[168],"min":[0],"type":"SCALAR"},{"bufferView":32,"componentType":5126,"count":35,"max":[0.02500000037252903,0.07000000029802322,0.02500000037252903],"min":[-0.02500000037252903,-0.07000000029802322,-0.02500000037252903],"type":"VEC3"},{"bufferView":33,"componentType":5126,"count":35,"max":[0.9844275712966919,0.17579063773155212,0.9844275712966919],"min":[-0.9844275712966919,-1,-0.9844275712966919],"type":"VEC3"},{"bufferView":34,"componentType":5126,"count":35,"max":[1,1],"min":[0,0],"type":"VEC2"},{"bufferView":35,"componentType":5123,"count":72,"max":[34],"min":[0],"type":"SCALAR"},{"bufferView":36,"componentType":5126,"count":64,"max":[0.05706338956952095,0.1899999976158142,0.05999999865889549],"min":[-0.05706338956952095,-0.1899999976158142,-0.05999999865889549],"type":"VEC3"},{"bufferView":37,"componentType":5126,"count":64,"max":[0.9507274031639099,1,0.9996539354324341],"min":[-0.9507274031639099,-1,-0.9996539354324341],"type":"VEC3"},{"bufferView":38,"componentType":5126,"count":64,"max":[1,1],"min":[0,0],"type":"VEC2"},{"bufferView":39,"componentType":5123,"count":120,"max":[63],"min":[0],"type":"SCALAR"}],"materials":[{"pbrMetallicRoughness":{"baseColorFactor":[0.7843137254901961,0.7686274509803922,0.7372549019607844,1],"metallicFactor":0,"roughnessFactor":0.8}},{"pbrMetallicRoughness":{"baseColorFactor":[0.8156862745098039,0.8,0.7686274509803922,1],"metallicFactor":0,"roughnessFactor":0.75}},{"pbrMetallicRoughness":{"baseColorFactor":[0.8470588235294118,0.8313725490196079,0.8,1],"metallicFactor":0,"roughnessFactor":0.7}}],"meshes":[{"primitives":[{"mode":4,"attributes":{"POSITION":0,"NORMAL":1,"TEXCOORD_0":2},"indices":3,"material":0}]},{"primitives":[{"mode":4,"attributes":{"POSITION":4,"NORMAL":5,"TEXCOORD_0":6},"indices":7,"material":1}]},{"primitives":[{"mode":4,"attributes":{"POSITION":8,"NORMAL":9,"TEXCOORD_0":10},"indices":11,"material":1}]},{"primitives":[{"mode":4,"attributes":{"POSITION":12,"NORMAL":13,"TEXCOORD_0":14},"indices":15,"material":2}]},{"primitives":[{"mode":4,"attributes":{"POSITION":16,"NORMAL":17,"TEXCOORD_0":18},"indices":19,"material":2}]},{"primitives":[{"mode":4,"attributes":{"POSITION":20,"NORMAL":21,"TEXCOORD_0":22},"indices":23,"material":1}]},{"primitives":[{"mode":4,"attributes":{"POSITION":24,"NORMAL":25,"TEXCOORD_0":26},"indices":27,"material":1}]},{"primitives":[{"mode":4,"attributes":{"POSITION":28,"NORMAL":29,"TEXCOORD_0":30},"indices":31,"material":1}]},{"primitives":[{"mode":4,"attributes":{"POSITION":32,"NORMAL":33,"TEXCOORD_0":34},"indices":35,"material":2}]},{"primitives":[{"mode":4,"attributes":{"POSITION":36,"NORMAL":37,"TEXCOORD_0":38},"indices":39,"material":1}]}]}