{"asset":{"version":"2.0","generator":"THREE.GLTFExporter"},"scenes":[{"nodes":[16]}],"scene":0,"nodes":[{"matrix":[1,0,0,0,0,1,0,0,0,0,1,0,0,0.3,0,1],"mesh":0},{"matrix":[1,0,0,0,0,0.9887710779360422,0.14943813247359922,0,0,-0.14943813247359922,0.9887710779360422,0,0,0.8,0,1],"mesh":1},{"matrix":[1,0,0,0,0,0.955336489125606,0.29552020666133955,0,0,-0.29552020666133955,0.955336489125606,0,0,1.1,0.05,1],"mesh":2},{"matrix":[0.9210609940028851,0.2978435767000479,0.2508701838500143,0,-0.38941834230865047,0.7044663052755917,0.5933637833613874,0,0,-0.644217687237691,0.7648421872844884,0,-0.18,0.78,0.15,1],"mesh":3},{"matrix":[0.955336489125606,-0.2058909107286162,-0.21199322023239767,0,0.2955202066613396,0.665589341657975,0.6853164493328191,0,0,-0.7173560908995228,0.6967067093471655,0,0.18,0.75,0.18,1],"mesh":4},{"matrix":[0.9425116514041739,-0.3226905413690256,-0.08684815184183314,0,0.3341732888298778,0.9101253906414398,0.2449489463998359,0,0,-0.2598895685108038,0.9656383444019133,0,-0.12,0.7849912736573041,0.28,1],"mesh":5},{"matrix":[0.9918168594998534,0.12393832433694749,0.030636725875941247,0,-0.12766877931525764,0.9628361787027355,0.2380066716906607,0,-1.734723475976807e-18,-0.23997038305104135,0.9707802095522634,0,-0.09,0.7081096304236796,0.28,1],"mesh":6},{"matrix":[0.9975336866542726,-0.06397485526807647,-0.028874935209697673,0,0.07018934384887474,0.909213133066793,0.4103717030558157,0,-1.734723475976807e-18,-0.41138631060390773,0.9114610816966927,0,-0.06,0.7199645103603348,0.28,1],"mesh":7},{"matrix":[0.9894949751221546,-0.1397620613019842,-0.0369629602254353,0,0.14456726534041758,0.9566056122413503,0.2529940877181612,0,0,-0.2556800126114119,0.9667614654872361,0,-0.03,0.740115801773681,0.28,1],"mesh":8},{"matrix":[0.9768820798581885,0.1901766017008689,0.09764354672710729,0,-0.21377886250034103,0.8690293887666782,0.4461911243042311,0,6.938893903907228e-18,-0.4567502398744007,0.8895949743420752,0,0,0.7372656451534768,0.28,1],"mesh":9},{"matrix":[0.7076475832266709,0.5336322965449879,0.46311064556709747,0,-0.6785666839080239,0.33058899128817365,0.6559406789711517,0,0.19693184974381284,-0.7784262912589666,0.5960455986191749,0,0.207222649693789,0.6813217640510637,0.27597857589828934,1],"mesh":10},{"matrix":[0.5770390022612851,0.49194114719128856,-0.6519355010807586,0,-0.3057344914389082,0.8703116832121272,0.386113966089115,0,0.757332430715794,-0.023483648877315244,0.6526071617914672,0,0.18351793226863428,0.696276400203333,0.24045080927912235,1],"mesh":11},{"matrix":[0.5682076922284196,0.8223023754077907,0.030964849283639406,0,-0.4353913719584044,0.2684968298126946,0.8592693440387078,0,0.6982652588498385,-0.5017252791909512,0.5105853234319708,0,0.1982314513243246,0.6484021068329138,0.23307174310471498,1],"mesh":12},{"matrix":[0.5377225499618937,0.8065355023441327,-0.2456724297127708,0,-0.6940384599905138,0.5888764751172393,0.41416797692179386,0,0.47871189176421636,-0.05220134588296657,0.8764188177872108,0,0.18549526419300721,0.7125225747039481,0.250347118254579,1],"mesh":13},{"matrix":[0.9268154937997143,0.3686708610200792,-0.07137812471272409,0,-0.14169397812718212,0.5193685188496393,0.8427212814391396,0,0.3477583313384244,-0.7709332901507402,0.5335972311791632,0,0.20729248050555776,0.6767535983587428,0.2770262937232292,1],"mesh":14},{"matrix":[0.8046470182257954,0.5044326493885594,-0.31319463324133623,0,-0.3525816763593607,0.8303466304775207,0.4315213027768744,0,0.47773354242292787,-0.2367956407653371,0.8459896494393853,0,0.2501703857445569,0.7099325925814441,0.22774829444590242,1],"mesh":15},{"children":[0,1,2,3,4,5,6,7,8,9,10,11,12,13,14,15]}],"bufferViews":[{"buffer":0,"byteOffset":0,"byteLength":612,"target":34962,"byteStride":12},{"buffer":0,"byteOffset":612,"byteLength":612,"target":34962,"byteStride":12},{"buffer":0,"byteOffset":1224,"byteLength":408,"target":34962,"byteStride":8},{"buffer":0,"byteOffset":1632,"byteLength":216,"target":34963},{"buffer":0,"byteOffset":1848,"byteLength":912,"target":34962,"byteStride":12},{"buffer":0,"byteOffset":2760,"byteLength":912,"target":34962,"byteStride":12},{"buffer":0,"byteOffset":3672,"byteLength":608,"target":34962,"byteStride":8},{"buffer":0,"byteOffset":4280,"byteLength":288,"target":34963},{"buffer":0,"byteOffset":4568,"byteLength":2028,"target":34962,"byteStride":12},{"buffer":0,"byteOffset":6596,"byteLength":2028,"target":34962,"byteStride":12},{"buffer":0,"byteOffset":8624,"byteLength":1352,"target":34962,"byteStride":8},{"buffer":0,"byteOffset":9976,"byteLength":1584,"target":34963},{"buffer":0,"byteOffset":11560,"byteLength":768,"target":34962,"byteStride":12},{"buffer":0,"byteOffset":12328,"byteLength":768,"target":34962,"byteStride":12},{"buffer":0,"byteOffset":13096,"byteLength":512,"target":34962,"byteStride":8},{"buffer":0,"byteOffset":13608,"byteLength":240,"target":34963},{"buffer":0,"byteOffset":13848,"byteLength":768,"target":34962,"byteStride":12},{"buffer":0,"byteOffset":14616,"byteLength":768,"target":34962,"byteStride":12},{"buffer":0,"byteOffset":15384,"byteLength":512,"target":34962,"byteStride":8},{"buffer":0,"byteOffset":15896,"byteLength":240,"target":34963},{"buffer":0,"byteOffset":16136,"byteLength":288,"target":34962,"byteStride":12},{"buffer":0,"byteOffset":16424,"byteLength":288,"target":34962,"byteStride":12},{"buffer":0,"byteOffset":16712,"byteLength":192,"target":34962,"byteStride":8},{"buffer":0,"byteOffset":16904,"byteLength":72,"target":34963},{"buffer":0,"byteOffset":16976,"byteLength":288,"target":34962,"byteStride":12},{"buffer":0,"byteOffset":17264,"byteLength":288,"target":34962,"byteStride":12},{"buffer":0,"byteOffset":17552,"byteLength":192,"target":34962,"byteStride":8},{"buffer":0,"byteOffset":17744,"byteLength":72,"target":34963},{"buffer":0,"byteOffset":17816,"byteLength":288,"target":34962,"byteStride":12},{"buffer":0,"byteOffset":18104,"byteLength":288,"target":34962,"byteStride":12},{"buffer":0,"byteOffset":18392,"byteLength":192,"target":34962,"byteStride":8},{"buffer":0,"byteOffset":18584,"byteLength":72,"target":34963},{"buffer":0,"byteOffset":18656,"byteLength":288,"target":34962,"byteStride":12},{"buffer":0,"byteOffset":18944,"byteLength":288,"target":34962,"byteStride":12},{"buffer":0,"byteOffset":19232,"byteLength":192,"target":34962,"byteStride":8},{"buffer":0,"byteOffset":19424,"byteLength":72,"target":34963},{"buffer":0,"byteOffset":19496,"byteLength":288,"target":34962,"byteStride":12},{"buffer":0,"byteOffset":19784,"byteLength":288,"target":34962,"byteStride":12},{"buffer":0,"byteOffset":20072,"byteLength":192,"target":34962,"byteStride":8},{"buffer":0,"byteOffset":20264,"byteLength":72,"target":34963},{"buffer":0,"byteOffset":20336,"byteLength":144,"target":34962,"byteStride":12},{"buffer":0,"byteOffset":20480,"byteLength":144,"target":34962,"byteStride":12},{"buffer":0,"byteOffset":20624,"byteLength":96,"target":34962,"byteStride":8},{"buffer":0,"byteOffset":20720,"byteLength":144,"target":34962,"byteStride":12},{"buffer":0,"byteOffset":20864,"byteLength":144,"target":34962,"byteStride":12},{"buffer":0,"byteOffset":21008,"byteLength":96,"target":34962,"byteStride":8},{"buffer":0,"byteOffset":21104,"byteLength":144,"target":34962,"byteStride":12},{"buffer":0,"byteOffset":21248,"byteLength":144,"target":34962,"byteStride":12},{"buffer":0,"byteOffset":21392,"byteLength":96,"target":34962,"byteStride":8},{"buffer":0,"byteOffset":21488,"byteLength":144,"target":34962,"byteStride":12},{"buffer":0,"byteOffset":21632,"byteLength":144,"target":34962,"byteStride":12},{"buffer":0,"byteOffset":21776,"byteLength":96,"target":34962,"byteStride":8},{"buffer":0,"byteOffset":21872,"byteLength":144,"target":34962,"byteStride":12},{"buffer":0,"byteOffset":22016,"byteLength":144,"target":34962,"byteStride":12},{"buffer":0,"byteOffset":22160,"byteLength":96,"target":34962,"byteStride":8},{"buffer":0,"byteOffset":22256,"byteLength":144,"target":34962,"byteStride":12},{"buffer":0,"byteOffset":22400,"byteLength":144,"target":34962,"byteStride":12},{"buffer":0,"byteOffset":22544,"byteLength":96,"target":34962,"byteStride":8}],"buffers":[{"byteLength":22640,"uri":"data:application/octet-stream;base64,"}],"accessors":[{"bufferView":0,"componentType":5126,"count":51,"max":[0.2800000011920929,0.42500001192092896,0.2800000011920929],"min":[-0.2800000011920929,-0.42500001192092896,-0.2800000011920929],"type":"VEC3"},{"bufferView":1,"componentType":5126,"count":51,"max":[0.9497947692871094,0.31287357211112976,0.9497947692871094],"min":[-0.9497947692871094,-1,-0.9497947692871094],"type":"VEC3"},{"bufferView":2,"componentType":5126,"count":51,"max":[1,1],"min":[0,0],"type":"VEC2"},{"bufferView":3,"componentType":5123,"count":108,"max":[50],"min":[0],"type":"SCALAR"},{"bufferView":4,"componentType":5126,"count":76,"max":[0.18000000715255737,0.1899999976158142,0.18000000715255737],"min":[-0.18000000715255737,-0.1899999976158142,-0.18000000715255737],"type":"VEC3"},{"bufferView":5,"componentType":5126,"count":76,"max":[0.9914543032646179,1,0.9914543032646179],"min":[-0.9914543032646179,-1,-0.9914543032646179],"type":"VEC3"},{"bufferView":6,"componentType":5126,"count":76,"max":[1,1],"min":[0,0],"type":"VEC2"},{"bufferView":7,"componentType":5123,"count":144,"max":[75],"min":[0],"type":"SCALAR"},{"bufferView":8,"componentType":5126,"count":169,"max":[0.10000000149011612,0.10000000149011612,0.10000000149011612],"min":[-0.10000000149011612,-0.10000000149011612,-0.10000000149011612],"type":"VEC3"},{"bufferView":9,"componentType":5126,"count":169,"max":[1,1,1],"min":[-1,-1,-1],"type":"VEC3"},{"bufferView":10,"componentType":5126,"count":169,"max":[1.0416666269302368,1],"min":[-0.0416666679084301,0],"type":"VEC2"},{"bufferView":11,"componentType":5123,"count":792,"max":[168],"min":[0],"type":"SCALAR"},{"bufferView":12,"componentType":5126,"count":64,"max":[0.04279754310846329,0.1599999964237213,0.04500000178813934],"min":[-0.04279754310846329,-0.1599999964237213,-0.04500000178813934],"type":"VEC3"},{"bufferView":13,"componentType":5126,"count":64,"max":[0.9505924582481384,1,0.9995120763778687],"min":[-0.9505924582481384,-1,-0.9995120763778687],"type":"VEC3"},{"bufferView":14,"componentType":5126,"count":64,"max":[1,1],"min":[0,0],"type":"VEC2"},{"bufferView":15,"componentType":5123,"count":120,"max":[63],"min":[0],"type":"SCALAR"},{"bufferView":16,"componentType":5126,"count":64,"max":[0.04279754310846329,0.1599999964237213,0.04500000178813934],"min":[-0.04279754310846329,-0.1599999964237213,-0.04500000178813934],"type":"VEC3"},{"bufferView":17,"componentType":5126,"count":64,"max":[0.9505924582481384,1,0.9995120763778687],"min":[-0.9505924582481384,-1,-0.9995120763778687],"type":"VEC3"},{"bufferView":18,"componentType":5126,"count":64,"max":[1,1],"min":[0,0],"type":"VEC2"},{"bufferView":19,"componentType":5123,"count":120,"max":[63],"min":[0],"type":"SCALAR"},{"bufferView":20,"componentType":5126,"count":24,"max":[0.009999999776482582,0.06385650485754013,0.004999999888241291],"min":[-0.009999999776482582,-0.06385650485754013,-0.004999999888241291],"type":"VEC3"},{"bufferView":21,"componentType":5126,"count":24,"max":[1,1,1],"min":[-1,-1,-1],"type":"VEC3"},{"bufferView":22,"componentType":5126,"count":24,"max":[1,1],"min":[0,0],"type":"VEC2"},{"bufferView":23,"componentType":5123,"count":36,"max":[23],"min":[0],"type":"SCALAR"},{"bufferView":24,"componentType":5126,"count":24,"max":[0.009999999776482582,0.048393990844488144,0.004999999888241291],"min":[-0.009999999776482582,-0.048393990844488144,-0.004999999888241291],"type":"VEC3"},{"bufferView":25,"componentType":5126,"count":24,"max":[1,1,1],"min":[-1,-1,-1],"type":"VEC3"},{"bufferView":26,"componentType":5126,"count":24,"max":[1,1],"min":[0,0],"type":"VEC2"},{"bufferView":27,"componentType":5123,"count":36,"max":[23],"min":[0],"type":"SCALAR"},{"bufferView":28,"componentType":5126,"count":24,"max":[0.009999999776482582,0.05926070362329483,0.004999999888241291],"min":[-0.009999999776482582,-0.05926070362329483,-0.004999999888241291],"type":"VEC3"},{"bufferView":29,"componentType":5126,"count":24,"max":[1,1,1],"min":[-1,-1,-1],"type":"VEC3"},{"bufferView":30,"componentType":5126,"count":24,"max":[1,1],"min":[0,0],"type":"VEC2"},{"bufferView":31,"componentType":5123,"count":36,"max":[23],"min":[0],"type":"SCALAR"},{"bufferView":32,"componentType":5126,"count":24,"max":[0.009999999776482582,0.05549019202589989,0.004999999888241291],"min":[-0.009999999776482582,-0.05549019202589989,-0.004999999888241291],"type":"VEC3"},{"bufferView":33,"componentType":5126,"count":24,"max":[1,1,1],"min":[-1,-1,-1],"type":"VEC3"},{"bufferView":34,"componentType":5126,"count":24,"max":[1,1],"min":[0,0],"type":"VEC2"},{"bufferView":35,"componentType":5123,"count":36,"max":[23],"min":[0],"type":"SCALAR"},{"bufferView":36,"componentType":5126,"count":24,"max":[0.009999999776482582,0.05561801791191101,0.004999999888241291],"min":[-0.009999999776482582,-0.05561801791191101,-0.004999999888241291],"type":"VEC3"},{"bufferView":37,"componentType":5126,"count":24,"max":[1,1,1],"min":[-1,-1,-1],"type":"VEC3"},{"bufferView":38,"componentType":5126,"count":24,"max":[1,1],"min":[0,0],"type":"VEC2"},{"bufferView":39,"componentType":5123,"count":36,"max":[23],"min":[0],"type":"SCALAR"},{"bufferView":40,"componentType":5126,"count":12,"max":[0.014433756470680237,0.014433756470680237,0.014433756470680237],"min":[-0.014433756470680237,-0.014433756470680237,-0.014433756470680237],"type":"VEC3"},{"bufferView":41,"componentType":5126,"count":12,"max":[0.5773502588272095,0.5773502588272095,0.5773502588272095],"min":[-0.5773502588272095,-0.5773502588272095,-0.5773502588272095],"type":"VEC3"},{"bufferView":42,"componentType":5126,"count":12,"max":[0.875,0.6959132552146912],"min":[0.125,0.30408671498298645],"type":"VEC2"},{"bufferView":43,"componentType":5126,"count":12,"max":[0.014433756470680237,0.014433756470680237,0.014433756470680237],"min":[-0.014433756470680237,-0.014433756470680237,-0.014433756470680237],"type":"VEC3"},{"bufferView":44,"componentType":5126,"count":12,"max":[0.5773502588272095,0.5773502588272095,0.5773502588272095],"min":[-0.5773502588272095,-0.5773502588272095,-0.5773502588272095],"type":"VEC3"},{"bufferView":45,"componentType":5126,"count":12,"max":[0.875,0.6959132552146912],"min":[0.125,0.30408671498298645],"type":"VEC2"},{"bufferView":46,"componentType":5126,"count":12,"max":[0.014433756470680237,0.014433756470680237,0.014433756470680237],"min":[-0.014433756470680237,-0.014433756470680237,-0.014433756470680237],"type":"VEC3"},{"bufferView":47,"componentType":5126,"count":12,"max":[0.5773502588272095,0.5773502588272095,0.5773502588272095],"min":[-0.5773502588272095,-0.5773502588272095,-0.5773502588272095],"type":"VEC3"},{"bufferView":48,"componentType":5126,"count":12,"max":[0.875,0.6959132552146912],"min":[0.125,0.30408671498298645],"type":"VEC2"},{"bufferView":49,"componentType":5126,"count":12,"max":[0.014433756470680237,0.014433756470680237,0.014433756470680237],"min":[-0.014433756470680237,-0.014433756470680237,-0.014433756470680237],"type":"VEC3"},{"bufferView":50,"componentType":5126,"count":12,"max":[0.5773502588272095,0.5773502588272095,0.5773502588272095],"min":[-0.5773502588272095,-0.5773502588272095,-0.5773502588272095],"type":"VEC3"},{"bufferView":51,"componentType":5126,"count":12,"max":[0.875,0.6959132552146912],"min":[0.125,0.30408671498298645],"type":"VEC2"},{"bufferView":52,"componentType":5126,"count":12,"max":[0.014433756470680237,0.014433756470680237,0.014433756470680237],"min":[-0.014433756470680237,-0.014433756470680237,-0.014433756470680237],"type":"VEC3"},{"bufferView":53,"componentType":5126,"count":12,"max":[0.5773502588272095,0.5773502588272095,0.5773502588272095],"min":[-0.5773502588272095,-0.5773502588272095,-0.5773502588272095],"type":"VEC3"},{"bufferView":54,"componentType":5126,"count":12,"max":[0.875,0.6959132552146912],"min":[0.125,0.30408671498298645],"type":"VEC2"},{"bufferView":55,"componentType":5126,"count":12,"max":[0.014433756470680237,0.014433756470680237,0.014433756470680237],"min":[-0.014433756470680237,-0.014433756470680237,-0.014433756470680237],"type":"VEC3"},{"bufferView":56,"componentType":5126,"count":12,"max":[0.5773502588272095,0.5773502588272095,0.5773502588272095],"min":[-0.5773502588272095,-0.5773502588272095,-0.5773502588272095],"type":"VEC3"},{"bufferView":57,"componentType":5126,"count":12,"max":[0.875,0.6959132552146912],"min":[0.125,0.30408671498298645],"type":"VEC2"}],"materials":[{"pbrMetallicRoughness":{"baseColorFactor":[0.8156862745098039,0.8,0.7686274509803922,1],"metallicFactor":0,"roughnessFactor":0.75}},{"pbrMetallicRoughness":{"baseColorFactor":[0.8470588235294118,0.8313725490196079,0.8,1],"metallicFactor":0,"roughnessFactor":0.7}}],"meshes":[{"primitives":[{"mode":4,"attributes":{"POSITION":0,"NORMAL":1,"TEXCOORD_0":2},"indices":3,"material":0}]},{"primitives":[{"mode":4,"attributes":{"POSITION":4,"NORMAL":5,"TEXCOORD_0":6},"indices":7,"material":0}]},{"primitives":[{"mode":4,"attributes":{"POSITION":8,"NORMAL":9,"TEXCOORD_0":10},"indices":11,"material":0}]},{"primitives":[{"mode":4,"attributes":{"POSITION":12,"NORMAL":13,"TEXCOORD_0":14},"indices":15,"material":0}]},{"primitives":[{"mode":4,"attributes":{"POSITION":16,"NORMAL":17,"TEXCOORD_0":18},"indices":19,"material":0}]},{"primitives":[{"mode":4,"attributes":{"POSITION":20,"NORMAL":21,"TEXCOORD_0":22},"indices":23,"material":1}]},{"primitives":[{"mode":4,"attributes":{"POSITION":24,"NORMAL":25,"TEXCOORD_0":26},"indices":27,"material":1}]},{"primitives":[{"mode":4,"attributes":{"POSITION":28,"NORMAL":29,"TEXCOORD_0":30},"indices":31,"material":1}]},{"primitives":[{"mode":4,"attributes":{"POSITION":32,"NORMAL":33,"TEXCOORD_0":34},"indices":35,"material":1}]},{"primitives":[{"mode":4,"attributes":{"POSITION":36,"NORMAL":37,"TEXCOORD_0":38},"indices":39,"material":1}]},{"primitives":[{"mode":4,"attributes":{"POSITION":40,"NORMAL":41,"TEXCOORD_0":42},"material":1}]},{"primitives":[{"mode":4,"attributes":{"POSITION":43,"NORMAL":44,"TEXCOORD_0":45},"material":1}]},{"primitives":[{"mode":4,"attributes":{"POSITION":46,"NORMAL":47,"TEXCOORD_0":48},"material":1}]},{"primitives":[{"mode":4,"attributes":{"POSITION":49,"NORMAL":50,"TEXCOORD_0":51},"material":1}]},{"primitives":[{"mode":4,"attributes":{"POSITION":52,"NORMAL":53,"TEXCOORD_0":54},"material":1}]},{"primitives":[{"mode":4,"attributes":{"POSITION":55,"NORMAL":56,"TEXCOORD_0":57},"material":1}]}]}