{"asset":{"version":"2.0","generator":"THREE.GLTFExporter"},"scenes":[{"nodes":[10]}],"scene":0,"nodes":[{"matrix":[1,0,0,0,0,1,0,0,0,0,1,0,0,0.55,0,1],"mesh":0},{"matrix":[1,0,0,0,0,1,0,0,0,0,1,0,0,1.15,0,1],"mesh":1},{"matrix":[1,0,0,0,0,1,0,0,0,0,1,0,0,1.42,0,1],"mesh":2},{"matrix":[1,0,0,0,0,0.7,0,0,0,0,1.2,0,0,1.48,-0.05,1],"mesh":3},{"matrix":[1,0,0,0,0,1,0,0,0,0,1,0,0,1.4,0.08,1],"mesh":4},{"matrix":[0.9210609940028851,0.2978435767000479,0.2508701838500143,0,-0.38941834230865047,0.7044663052755917,0.5933637833613874,0,0,-0.644217687237691,0.7648421872844884,0,-0.2,1,0.15,1],"mesh":5},{"matrix":[0.9210609940028851,-0.2978435767000479,-0.2508701838500143,0,0.38941834230865047,0.7044663052755917,0.5933637833613874,0,0,-0.644217687237691,0.7648421872844884,0,0.2,1,0.15,1],"mesh":6},{"matrix":[0.955336489125606,0,-0.29552020666133955,0,0,1,0,0,0.29552020666133955,0,0.955336489125606,0,-0.13,0.95,0.25,1],"mesh":7},{"matrix":[0.955336489125606,0,0.29552020666133955,0,0,1,0,0,-0.29552020666133955,0,0.955336489125606,0,0.13,0.95,0.25,1],"mesh":8},{"matrix":[1,0,0,0,0,1,0,0,0,0,1,0,0,0.95,0.18,1],"mesh":9},{"children":[0,1,2,3,4,5,6,7,8,9]}],"bufferViews":[{"buffer":0,"byteOffset":0,"byteLength":612,"target":34962,"byteStride":12},{"buffer":0,"byteOffset":612,"byteLength":612,"target":34962,"byteStride":12},{"buffer":0,"byteOffset":1224,"byteLength":408,"target":34962,"byteStride":8},{"buffer":0,"byteOffset":1632,"byteLength":216,"target":34963},{"buffer":0,"byteOffset":1848,"byteLength":912,"target":34962,"byteStride":12},{"buffer":0,"byteOffset":2760,"byteLength":912,"target":34962,"byteStride":12},{"buffer":0,"byteOffset":3672,"byteLength":608,"target":34962,"byteStride":8},{"buffer":0,"byteOffset":4280,"byteLength":288,"target":34963},{"buffer":0,"byteOffset":4568,"byteLength":2028,"target":34962,"byteStride":12},{"buffer":0,"byteOffset":6596,"byteLength":2028,"target":34962,"byteStride":12},{"buffer":0,"byteOffset":8624,"byteLength":1352,"target":34962,"byteStride":8},{"buffer":0,"byteOffset":9976,"byteLength":1584,"target":34963},{"buffer":0,"byteOffset":11560,"byteLength":1452,"target":34962,"byteStride":12},{"buffer":0,"byteOffset":13012,"byteLength":1452,"target":34962,"byteStride":12},{"buffer":0,"byteOffset":14464,"byteLength":968,"target":34962,"byteStride":8},{"buffer":0,"byteOffset":15432,"byteLength":1080,"target":34963},{"buffer":0,"byteOffset":16512,"byteLength":1452,"target":34962,"byteStride":12},{"buffer":0,"byteOffset":17964,"byteLength":1452,"target":34962,"byteStride":12},{"buffer":0,"byteOffset":19416,"byteLength":968,"target":34962,"byteStride":8},{"buffer":0,"byteOffset":20384,"byteLength":1080,"target":34963},{"buffer":0,"byteOffset":21464,"byteLength":768,"target":34962,"byteStride":12},{"buffer":0,"byteOffset":22232,"byteLength":768,"target":34962,"byteStride":12},{"buffer":0,"byteOffset":23000,"byteLength":512,"target":34962,"byteStride":8},{"buffer":0,"byteOffset":23512,"byteLength":240,"target":34963},{"buffer":0,"byteOffset":23752,"byteLength":768,"target":34962,"byteStride":12},{"buffer":0,"byteOffset":24520,"byteLength":768,"target":34962,"byteStride":12},{"buffer":0,"byteOffset":25288,"byteLength":512,"target":34962,"byteStride":8},{"buffer":0,"byteOffset":25800,"byteLength":240,"target":34963},{"buffer":0,"byteOffset":26040,"byteLength":288,"target":34962,"byteStride":12},{"buffer":0,"byteOffset":26328,"byteLength":288,"target":34962,"byteStride":12},{"buffer":0,"byteOffset":26616,"byteLength":192,"target":34962,"byteStride":8},{"buffer":0,"byteOffset":26808,"byteLength":72,"target":34963},{"buffer":0,"byteOffset":26880,"byteLength":288,"target":34962,"byteStride":12},{"buffer":0,"byteOffset":27168,"byteLength":288,"target":34962,"byteStride":12},{"buffer":0,"byteOffset":27456,"byteLength":192,"target":34962,"byteStride":8},{"buffer":0,"byteOffset":27648,"byteLength":72,"target":34963},{"buffer":0,"byteOffset":27720,"byteLength":624,"target":34962,"byteStride":12},{"buffer":0,"byteOffset":28344,"byteLength":624,"target":34962,"byteStride":12},{"buffer":0,"byteOffset":28968,"byteLength":416,"target":34962,"byteStride":8},{"buffer":0,"byteOffset":29384,"byteLength":192,"target":34963}],"buffers":[{"byteLength":29576,"uri":"data:application/octet-stream;base64,"}],"accessors":[{"bufferView":0,"componentType":5126,"count":51,"max":[0.3499999940395355,0.550000011920929,0.3499999940395355],"min":[-0.3499999940395355,-0.550000011920929,-0.3499999940395355],"type":"VEC3"},{"bufferView":1,"componentType":5126,"count":51,"max":[0.9529258012771606,0.30320367217063904,0.9529258012771606],"min":[-0.9529258012771606,-1,-0.9529258012771606],"type":"VEC3"},{"bufferView":2,"componentType":5126,"count":51,"max":[1,1],"min":[0,0],"type":"VEC2"},{"bufferView":3,"componentType":5123,"count":108,"max":[50],"min":[0],"type":"SCALAR"},{"bufferView":4,"componentType":5126,"count":76,"max":[0.2199999988079071,0.20000000298023224,0.2199999988079071],"min":[-0.2199999988079071,-0.20000000298023224,-0.2199999988079071],"type":"VEC3"},{"bufferView":5,"componentType":5126,"count":76,"max":[0.9889363646507263,1,0.9889363646507263],"min":[-0.9889363646507263,-1,-0.9889363646507263],"type":"VEC3"},{"bufferView":6,"componentType":5126,"count":76,"max":[1,1],"min":[0,0],"type":"VEC2"},{"bufferView":7,"componentType":5123,"count":144,"max":[75],"min":[0],"type":"SCALAR"},{"bufferView":8,"componentType":5126,"count":169,"max":[0.14000000059604645,0.14000000059604645,0.14000000059604645],"min":[-0.14000000059604645,-0.14000000059604645,-0.14000000059604645],"type":"VEC3"},{"bufferView":9,"componentType":5126,"count":169,"max":[1,1,1],"min":[-1,-1,-1],"type":"VEC3"},{"bufferView":10,"componentType":5126,"count":169,"max":[1.0416666269302368,1],"min":[-0.0416666679084301,0],"type":"VEC2"},{"bufferView":11,"componentType":5123,"count":792,"max":[168],"min":[0],"type":"SCALAR"},{"bufferView":12,"componentType":5126,"count":121,"max":[0.15000000596046448,0.15000000596046448,0.14265847206115723],"min":[-0.15000000596046448,-0.15000000596046448,-0.14265847206115723],"type":"VEC3"},{"bufferView":13,"componentType":5126,"count":121,"max":[1,1,0.9510565400123596],"min":[-1,-1,-0.9510565400123596],"type":"VEC3"},{"bufferView":14,"componentType":5126,"count":121,"max":[1.0499999523162842,1],"min":[-0.05000000074505806,0],"type":"VEC2"},{"bufferView":15,"componentType":5123,"count":540,"max":[120],"min":[0],"type":"SCALAR"},{"bufferView":16,"componentType":5126,"count":121,"max":[0.07999999821186066,0.07999999821186066,0.07608452439308167],"min":[-0.07999999821186066,-0.07999999821186066,-0.07608452439308167],"type":"VEC3"},{"bufferView":17,"componentType":5126,"count":121,"max":[1,1,0.9510565400123596],"min":[-1,-1,-0.9510565400123596],"type":"VEC3"},{"bufferView":18,"componentType":5126,"count":121,"max":[1.0499999523162842,1],"min":[-0.05000000074505806,0],"type":"VEC2"},{"bufferView":19,"componentType":5123,"count":540,"max":[120],"min":[0],"type":"SCALAR"},{"bufferView":20,"componentType":5126,"count":64,"max":[0.04755282402038574,0.17499999701976776,0.05000000074505806],"min":[-0.04755282402038574,-0.17499999701976776,-0.05000000074505806],"type":"VEC3"},{"bufferView":21,"componentType":5126,"count":64,"max":[0.9506685733795166,1,0.9995920658111572],"min":[-0.9506685733795166,-1,-0.9995920658111572],"type":"VEC3"},{"bufferView":22,"componentType":5126,"count":64,"max":[1,1],"min":[0,0],"type":"VEC2"},{"bufferView":23,"componentType":5123,"count":120,"max":[63],"min":[0],"type":"SCALAR"},{"bufferView":24,"componentType":5126,"count":64,"max":[0.04755282402038574,0.17499999701976776,0.05000000074505806],"min":[-0.04755282402038574,-0.17499999701976776,-0.05000000074505806],"type":"VEC3"},{"bufferView":25,"componentType":5126,"count":64,"max":[0.9506685733795166,1,0.9995920658111572],"min":[-0.9506685733795166,-1,-0.9995920658111572],"type":"VEC3"},{"bufferView":26,"componentType":5126,"count":64,"max":[1,1],"min":[0,0],"type":"VEC2"},{"bufferView":27,"componentType":5123,"count":120,"max":[63],"min":[0],"type":"SCALAR"},{"bufferView":28,"componentType":5126,"count":24,"max":[0.125,0.17499999701976776,0.019999999552965164],"min":[-0.125,-0.17499999701976776,-0.019999999552965164],"type":"VEC3"},{"bufferView":29,"componentType":5126,"count":24,"max":[1,1,1],"min":[-1,-1,-1],"type":"VEC3"},{"bufferView":30,"componentType":5126,"count":24,"max":[1,1],"min":[0,0],"type":"VEC2"},{"bufferView":31,"componentType":5123,"count":36,"max":[23],"min":[0],"type":"SCALAR"},{"bufferView":32,"componentType":5126,"count":24,"max":[0.125,0.17499999701976776,0.019999999552965164],"min":[-0.125,-0.17499999701976776,-0.019999999552965164],"type":"VEC3"},{"bufferView":33,"componentType":5126,"count":24,"max":[1,1,1],"min":[-1,-1,-1],"type":"VEC3"},{"bufferView":34,"componentType":5126,"count":24,"max":[1,1],"min":[0,0],"type":"VEC2"},{"bufferView":35,"componentType":5123,"count":36,"max":[23],"min":[0],"type":"SCALAR"},{"bufferView":36,"componentType":5126,"count":52,"max":[0.029999999329447746,0.17499999701976776,0.029999999329447746],"min":[-0.029999999329447746,-0.17499999701976776,-0.029999999329447746],"type":"VEC3"},{"bufferView":37,"componentType":5126,"count":52,"max":[1,1,1],"min":[-1,-1,-1],"type":"VEC3"},{"bufferView":38,"componentType":5126,"count":52,"max":[1,1],"min":[0,0],"type":"VEC2"},{"bufferView":39,"componentType":5123,"count":96,"max":[51],"min":[0],"type":"SCALAR"}],"materials":[{"pbrMetallicRoughness":{"baseColorFactor":[0.8156862745098039,0.8,0.7686274509803922,1],"metallicFactor":0,"roughnessFactor":0.75}},{"pbrMetallicRoughness":{"baseColorFactor":[0.7843137254901961,0.7686274509803922,0.7372549019607844,1],"metallicFactor":0,"roughnessFactor":0.8}},{"pbrMetallicRoughness":{"baseColorFactor":[0.8470588235294118,0.8313725490196079,0.8,1],"metallicFactor":0,"roughnessFactor":0.7}}],"meshes":[{"primitives":[{"mode":4,"attributes":{"POSITION":0,"NORMAL":1,"TEXCOORD_0":2},"indices":3,"material":0}]},{"primitives":[{"mode":4,"attributes":{"POSITION":4,"NORMAL":5,"TEXCOORD_0":6},"indices":7,"material":0}]},{"primitives":[{"mode":4,"attributes":{"POSITION":8,"NORMAL":9,"TEXCOORD_0":10},"indices":11,"material":0}]},{"primitives":[{"mode":4,"attributes":{"POSITION":12,"NORMAL":13,"TEXCOORD_0":14},"indices":15,"material":0}]},{"primitives":[{"mode":4,"attributes":{"POSITION":16,"NORMAL":17,"TEXCOORD_0":18},"indices":19,"material":1}]},{"primitives":[{"mode":4,"attributes":{"POSITION":20,"NORMAL":21,"TEXCOORD_0":22},"indices":23,"material":0}]},{"primitives":[{"mode":4,"attributes":{"POSITION":24,"NORMAL":25,"TEXCOORD_0":26},"indices":27,"material":0}]},{"primitives":[{"mode":4,"attributes":{"POSITION":28,"NORMAL":29,"TEXCOORD_0":30},"indices":31,"material":2}]},{"primitives":[{"mode":4,"attributes":{"POSITION":32,"NORMAL":33,"TEXCOORD_0":34},"indices":35,"material":2}]},{"primitives":[{"mode":4,"attributes":{"POSITION":36,"NORMAL":37,"TEXCOORD_0":38},"indices":39,"material":1}]}]}