{"asset":{"version":"2.0","generator":"THREE.GLTFExporter"},"scenes":[{"nodes":[15]}],"scene":0,"nodes":[{"matrix":[1,0,0,0,0,1,0,0,0,0,1,0,0,0.5,0,1],"mesh":0},{"matrix":[1,0,0,0,0,1,0,0,0,0,1,0,0,1.05,0,1],"mesh":1},{"matrix":[1,0,0,0,0,1,0,0,0,0,1,0,0,1.38,0,1],"mesh":2},{"matrix":[0.955336489125606,0.29552020666133955,0,0,-0.29552020666133955,0.955336489125606,0,0,0,0,1,0,-0.22,0.98,0,1],"mesh":3},{"matrix":[0.955336489125606,-0.2593433800522307,-0.1416799342470381,0,0.2955202066613395,0.8383866435942036,0.4580127108472919,0,0,-0.4794255386042029,0.8775825618903728,0,0.2,0.95,0.15,1],"mesh":4},{"matrix":[1,0,0,0,0,1,0,0,0,0,1,0,0.28,0.85,0.22,1],"mesh":5},{"matrix":[0.9850999163919958,0.17163377832248244,0.010954490550997453,0,-0.17198300708059194,0.9830995721355766,0.06274612770811518,0,-8.673617379884035e-19,-0.06369519138518222,0.9979693996282677,0,-0.30744458418357534,1.0449825452404766,0.039299045278211125,1],"mesh":6},{"matrix":[0.9905771153052693,-0.13683362713673705,-0.005791124078774832,0,0.13695611937219657,0.98969115266406,0.04188608008626327,0,-4.336808689942018e-19,-0.042284522263928044,0.999105609621381,0,-0.31890596186239195,1.0279655996094563,-0.04099358648026823,1],"mesh":7},{"matrix":[0.9911012937281863,-0.1316281359296182,-0.019805539679828302,0,0.13310982522081266,0.9800690189057232,0.14746692039524653,0,1.734723475976807e-18,-0.14879096751102613,0.9888686707481094,0,-0.30373057877712617,0.9858903660137648,-0.005488188737289998,1],"mesh":8},{"matrix":[0.9944666366218451,0.10127526709679818,0.02791825425250022,0,-0.10505288499624871,0.9587064100745856,0.2642837691494985,0,1.734723475976807e-18,-0.2657542841731299,0.9640407981219609,0,-0.3116657542592789,0.9292459063548828,-0.03188405571364056,1],"mesh":9},{"matrix":[0.9749379979726741,-0.21837110015580077,-0.042543656704370034,0,0.22247674060232467,0.956946252559231,0.18643489373990704,0,0,-0.1912274361319257,0.981545754241956,0,-0.3466342189860316,1.03978873794855,0.011470509816023641,1],"mesh":10},{"matrix":[0.992469406342258,-0.12239955233445862,-0.004777767571805336,0,0.1224927649889824,0.9917141722849068,0.03871076096663695,0,-4.336808689942018e-19,-0.039004487915960354,0.9992390354276667,0,-0.29472057547041536,1.0604964756649382,0.047010862149899704,1],"mesh":11},{"matrix":[0.9998477600035235,0.016978888309421705,0.004021712037509228,0,-0.01744869095194432,0.9729270516785455,0.23045280492143352,0,0,-0.2304878943976645,0.9730751926424448,0,-0.3422993287666847,0.9633568882168526,0.005574992569580529,1],"mesh":12},{"matrix":[0.9763444835180094,-0.216213405501168,-0.0017924244862586717,0,0.2162208350366621,0.9763109354744385,0.008093686988973678,0,1.0842021724855044e-19,-0.00828978616216495,0.9999656391323581,0,-0.3496297727270473,0.9028065873054744,-0.033833636695737225,1],"mesh":13},{"matrix":[1.2,0,0,0,0,0.8,0,0,0,0,0.6,0,-0.2,1.15,0,1],"mesh":14},{"children":[0,1,2,3,4,5,6,7,8,9,10,11,12,13,14]}],"bufferViews":[{"buffer":0,"byteOffset":0,"byteLength":612,"target":34962,"byteStride":12},{"buffer":0,"byteOffset":612,"byteLength":612,"target":34962,"byteStride":12},{"buffer":0,"byteOffset":1224,"byteLength":408,"target":34962,"byteStride":8},{"buffer":0,"byteOffset":1632,"byteLength":216,"target":34963},{"buffer":0,"byteOffset":1848,"byteLength":912,"target":34962,"byteStride":12},{"buffer":0,"byteOffset":2760,"byteLength":912,"target":34962,"byteStride":12},{"buffer":0,"byteOffset":3672,"byteLength":608,"target":34962,"byteStride":8},{"buffer":0,"byteOffset":4280,"byteLength":288,"target":34963},{"buffer":0,"byteOffset":4568,"byteLength":2028,"target":34962,"byteStride":12},{"buffer":0,"byteOffset":6596,"byteLength":2028,"target":34962,"byteStride":12},{"buffer":0,"byteOffset":8624,"byteLength":1352,"target":34962,"byteStride":8},{"buffer":0,"byteOffset":9976,"byteLength":1584,"target":34963},{"buffer":0,"byteOffset":11560,"byteLength":768,"target":34962,"byteStride":12},{"buffer":0,"byteOffset":12328,"byteLength":768,"target":34962,"byteStride":12},{"buffer":0,"byteOffset":13096,"byteLength":512,"target":34962,"byteStride":8},{"buffer":0,"byteOffset":13608,"byteLength":240,"target":34963},{"buffer":0,"byteOffset":13848,"byteLength":768,"target":34962,"byteStride":12},{"buffer":0,"byteOffset":14616,"byteLength":768,"target":34962,"byteStride":12},{"buffer":0,"byteOffset":15384,"byteLength":512,"target":34962,"byteStride":8},{"buffer":0,"byteOffset":15896,"byteLength":240,"target":34963},{"buffer":0,"byteOffset":16136,"byteLength":288,"target":34962,"byteStride":12},{"buffer":0,"byteOffset":16424,"byteLength":288,"target":34962,"byteStride":12},{"buffer":0,"byteOffset":16712,"byteLength":192,"target":34962,"byteStride":8},{"buffer":0,"byteOffset":16904,"byteLength":72,"target":34963},{"buffer":0,"byteOffset":16976,"byteLength":480,"target":34962,"byteStride":12},{"buffer":0,"byteOffset":17456,"byteLength":480,"target":34962,"byteStride":12},{"buffer":0,"byteOffset":17936,"byteLength":320,"target":34962,"byteStride":8},{"buffer":0,"byteOffset":18256,"byteLength":144,"target":34963},{"buffer":0,"byteOffset":18400,"byteLength":480,"target":34962,"byteStride":12},{"buffer":0,"byteOffset":18880,"byteLength":480,"target":34962,"byteStride":12},{"buffer":0,"byteOffset":19360,"byteLength":320,"target":34962,"byteStride":8},{"buffer":0,"byteOffset":19680,"byteLength":144,"target":34963},{"buffer":0,"byteOffset":19824,"byteLength":480,"target":34962,"byteStride":12},{"buffer":0,"byteOffset":20304,"byteLength":480,"target":34962,"byteStride":12},{"buffer":0,"byteOffset":20784,"byteLength":320,"target":34962,"byteStride":8},{"buffer":0,"byteOffset":21104,"byteLength":144,"target":34963},{"buffer":0,"byteOffset":21248,"byteLength":480,"target":34962,"byteStride":12},{"buffer":0,"byteOffset":21728,"byteLength":480,"target":34962,"byteStride":12},{"buffer":0,"byteOffset":22208,"byteLength":320,"target":34962,"byteStride":8},{"buffer":0,"byteOffset":22528,"byteLength":144,"target":34963},{"buffer":0,"byteOffset":22672,"byteLength":480,"target":34962,"byteStride":12},{"buffer":0,"byteOffset":23152,"byteLength":480,"target":34962,"byteStride":12},{"buffer":0,"byteOffset":23632,"byteLength":320,"target":34962,"byteStride":8},{"buffer":0,"byteOffset":23952,"byteLength":144,"target":34963},{"buffer":0,"byteOffset":24096,"byteLength":480,"target":34962,"byteStride":12},{"buffer":0,"byteOffset":24576,"byteLength":480,"target":34962,"byteStride":12},{"buffer":0,"byteOffset":25056,"byteLength":320,"target":34962,"byteStride":8},{"buffer":0,"byteOffset":25376,"byteLength":144,"target":34963},{"buffer":0,"byteOffset":25520,"byteLength":480,"target":34962,"byteStride":12},{"buffer":0,"byteOffset":26000,"byteLength":480,"target":34962,"byteStride":12},{"buffer":0,"byteOffset":26480,"byteLength":320,"target":34962,"byteStride":8},{"buffer":0,"byteOffset":26800,"byteLength":144,"target":34963},{"buffer":0,"byteOffset":26944,"byteLength":480,"target":34962,"byteStride":12},{"buffer":0,"byteOffset":27424,"byteLength":480,"target":34962,"byteStride":12},{"buffer":0,"byteOffset":27904,"byteLength":320,"target":34962,"byteStride":8},{"buffer":0,"byteOffset":28224,"byteLength":144,"target":34963},{"buffer":0,"byteOffset":28368,"byteLength":972,"target":34962,"byteStride":12},{"buffer":0,"byteOffset":29340,"byteLength":972,"target":34962,"byteStride":12},{"buffer":0,"byteOffset":30312,"byteLength":648,"target":34962,"byteStride":8},{"buffer":0,"byteOffset":30960,"byteLength":672,"target":34963}],"buffers":[{"byteLength":31632,"uri":"data:application/octet-stream;base64,"}],"accessors":[{"bufferView":0,"componentType":5126,"count":51,"max":[0.30000001192092896,0.5,0.30000001192092896],"min":[-0.30000001192092896,-0.5,-0.30000001192092896],"type":"VEC3"},{"bufferView":1,"componentType":5126,"count":51,"max":[0.9578262567520142,0.2873478829860687,0.9578262567520142],"min":[-0.9578262567520142,-1,-0.9578262567520142],"type":"VEC3"},{"bufferView":2,"componentType":5126,"count":51,"max":[1,1],"min":[0,0],"type":"VEC2"},{"bufferView":3,"componentType":5123,"count":108,"max":[50],"min":[0],"type":"SCALAR"},{"bufferView":4,"componentType":5126,"count":76,"max":[0.1899999976158142,0.20000000298023224,0.1899999976158142],"min":[-0.1899999976158142,-0.20000000298023224,-0.1899999976158142],"type":"VEC3"},{"bufferView":5,"componentType":5126,"count":76,"max":[0.9922778606414795,1,0.9922778606414795],"min":[-0.9922778606414795,-1,-0.9922778606414795],"type":"VEC3"},{"bufferView":6,"componentType":5126,"count":76,"max":[1,1],"min":[0,0],"type":"VEC2"},{"bufferView":7,"componentType":5123,"count":144,"max":[75],"min":[0],"type":"SCALAR"},{"bufferView":8,"componentType":5126,"count":169,"max":[0.10999999940395355,0.10999999940395355,0.10999999940395355],"min":[-0.10999999940395355,-0.10999999940395355,-0.10999999940395355],"type":"VEC3"},{"bufferView":9,"componentType":5126,"count":169,"max":[1,1,1],"min":[-1,-1,-1],"type":"VEC3"},{"bufferView":10,"componentType":5126,"count":169,"max":[1.0416666269302368,1],"min":[-0.0416666679084301,0],"type":"VEC2"},{"bufferView":11,"componentType":5123,"count":792,"max":[168],"min":[0],"type":"SCALAR"},{"bufferView":12,"componentType":5126,"count":64,"max":[0.04755282402038574,0.17499999701976776,0.05000000074505806],"min":[-0.04755282402038574,-0.17499999701976776,-0.05000000074505806],"type":"VEC3"},{"bufferView":13,"componentType":5126,"count":64,"max":[0.9506685733795166,1,0.9995920658111572],"min":[-0.9506685733795166,-1,-0.9995920658111572],"type":"VEC3"},{"bufferView":14,"componentType":5126,"count":64,"max":[1,1],"min":[0,0],"type":"VEC2"},{"bufferView":15,"componentType":5123,"count":120,"max":[63],"min":[0],"type":"SCALAR"},{"bufferView":16,"componentType":5126,"count":64,"max":[0.04755282402038574,0.17499999701976776,0.05000000074505806],"min":[-0.04755282402038574,-0.17499999701976776,-0.05000000074505806],"type":"VEC3"},{"bufferView":17,"componentType":5126,"count":64,"max":[0.9506685733795166,1,0.9995920658111572],"min":[-0.9506685733795166,-1,-0.9995920658111572],"type":"VEC3"},{"bufferView":18,"componentType":5126,"count":64,"max":[1,1],"min":[0,0],"type":"VEC2"},{"bufferView":19,"componentType":5123,"count":120,"max":[63],"min":[0],"type":"SCALAR"},{"bufferView":20,"componentType":5126,"count":24,"max":[0.05999999865889549,0.03999999910593033,0.05000000074505806],"min":[-0.05999999865889549,-0.03999999910593033,-0.05000000074505806],"type":"VEC3"},{"bufferView":21,"componentType":5126,"count":24,"max":[1,1,1],"min":[-1,-1,-1],"type":"VEC3"},{"bufferView":22,"componentType":5126,"count":24,"max":[1,1],"min":[0,0],"type":"VEC2"},{"bufferView":23,"componentType":5123,"count":36,"max":[23],"min":[0],"type":"SCALAR"},{"bufferView":24,"componentType":5126,"count":40,"max":[0.017320508137345314,0.09790098667144775,0.019999999552965164],"min":[-0.017320508137345314,-0.09790098667144775,-0.019999999552965164],"type":"VEC3"},{"bufferView":25,"componentType":5126,"count":40,"max":[0.864898145198822,1,0.998698353767395],"min":[-0.864898145198822,-1,-0.998698353767395],"type":"VEC3"},{"bufferView":26,"componentType":5126,"count":40,"max":[1,1],"min":[0,0],"type":"VEC2"},{"bufferView":27,"componentType":5123,"count":72,"max":[39],"min":[0],"type":"SCALAR"},{"bufferView":28,"componentType":5126,"count":40,"max":[0.017320508137345314,0.1031678318977356,0.019999999552965164],"min":[-0.017320508137345314,-0.1031678318977356,-0.019999999552965164],"type":"VEC3"},{"bufferView":29,"componentType":5126,"count":40,"max":[0.865010142326355,1,0.9988276362419128],"min":[-0.865010142326355,-1,-0.9988276362419128],"type":"VEC3"},{"bufferView":30,"componentType":5126,"count":40,"max":[1,1],"min":[0,0],"type":"VEC2"},{"bufferView":31,"componentType":5123,"count":72,"max":[39],"min":[0],"type":"SCALAR"},{"bufferView":32,"componentType":5126,"count":40,"max":[0.017320508137345314,0.09073110669851303,0.019999999552965164],"min":[-0.017320508137345314,-0.09073110669851303,-0.019999999552965164],"type":"VEC3"},{"bufferView":33,"componentType":5126,"count":40,"max":[0.8647133708000183,1,0.9984850287437439],"min":[-0.8647133708000183,-1,-0.9984850287437439],"type":"VEC3"},{"bufferView":34,"componentType":5126,"count":40,"max":[1,1],"min":[0,0],"type":"VEC2"},{"bufferView":35,"componentType":5123,"count":72,"max":[39],"min":[0],"type":"SCALAR"},{"bufferView":36,"componentType":5126,"count":40,"max":[0.017320508137345314,0.06893078237771988,0.019999999552965164],"min":[-0.017320508137345314,-0.06893078237771988,-0.019999999552965164],"type":"VEC3"},{"bufferView":37,"componentType":5126,"count":40,"max":[0.8637560606002808,1,0.9973795413970947],"min":[-0.8637560606002808,-1,-0.9973795413970947],"type":"VEC3"},{"bufferView":38,"componentType":5126,"count":40,"max":[1,1],"min":[0,0],"type":"VEC2"},{"bufferView":39,"componentType":5123,"count":72,"max":[39],"min":[0],"type":"SCALAR"},{"bufferView":40,"componentType":5126,"count":40,"max":[0.017320508137345314,0.08200058341026306,0.019999999552965164],"min":[-0.017320508137345314,-0.08200058341026306,-0.019999999552965164],"type":"VEC3"},{"bufferView":41,"componentType":5126,"count":40,"max":[0.8644199371337891,1,0.9981461763381958],"min":[-0.8644199371337891,-1,-0.9981461763381958],"type":"VEC3"},{"bufferView":42,"componentType":5126,"count":40,"max":[1,1],"min":[0,0],"type":"VEC2"},{"bufferView":43,"componentType":5123,"count":72,"max":[39],"min":[0],"type":"SCALAR"},{"bufferView":44,"componentType":5126,"count":40,"max":[0.017320508137345314,0.06911556422710419,0.019999999552965164],"min":[-0.017320508137345314,-0.06911556422710419,-0.019999999552965164],"type":"VEC3"},{"bufferView":45,"componentType":5126,"count":40,"max":[0.8637681007385254,1,0.9973934888839722],"min":[-0.8637681007385254,-1,-0.9973934888839722],"type":"VEC3"},{"bufferView":46,"componentType":5126,"count":40,"max":[1,1],"min":[0,0],"type":"VEC2"},{"bufferView":47,"componentType":5123,"count":72,"max":[39],"min":[0],"type":"SCALAR"},{"bufferView":48,"componentType":5126,"count":40,"max":[0.017320508137345314,0.10694736987352371,0.019999999552965164],"min":[-0.017320508137345314,-0.10694736987352371,-0.019999999552965164],"type":"VEC3"},{"bufferView":49,"componentType":5126,"count":40,"max":[0.8650804758071899,1,0.9989089369773865],"min":[-0.8650804758071899,-1,-0.9989089369773865],"type":"VEC3"},{"bufferView":50,"componentType":5126,"count":40,"max":[1,1],"min":[0,0],"type":"VEC2"},{"bufferView":51,"componentType":5123,"count":72,"max":[39],"min":[0],"type":"SCALAR"},{"bufferView":52,"componentType":5126,"count":40,"max":[0.017320508137345314,0.08113189041614532,0.019999999552965164],"min":[-0.017320508137345314,-0.08113189041614532,-0.019999999552965164],"type":"VEC3"},{"bufferView":53,"componentType":5126,"count":40,"max":[0.8643854856491089,1,0.9981063604354858],"min":[-0.8643854856491089,-1,-0.9981063604354858],"type":"VEC3"},{"bufferView":54,"componentType":5126,"count":40,"max":[1,1],"min":[0,0],"type":"VEC2"},{"bufferView":55,"componentType":5123,"count":72,"max":[39],"min":[0],"type":"SCALAR"},{"bufferView":56,"componentType":5126,"count":81,"max":[0.07999999821186066,0.07999999821186066,0.07999999821186066],"min":[-0.07999999821186066,-0.07999999821186066,-0.07999999821186066],"type":"VEC3"},{"bufferView":57,"componentType":5126,"count":81,"max":[1,1,1],"min":[-1,-1,-1],"type":"VEC3"},{"bufferView":58,"componentType":5126,"count":81,"max":[1.0625,1],"min":[-0.0625,0],"type":"VEC2"},{"bufferView":59,"componentType":5123,"count":336,"max":[80],"min":[0],"type":"SCALAR"}],"materials":[{"pbrMetallicRoughness":{"baseColorFactor":[0.8156862745098039,0.8,0.7686274509803922,1],"metallicFactor":0,"roughnessFactor":0.75}},{"pbrMetallicRoughness":{"baseColorFactor":[0.7843137254901961,0.7686274509803922,0.7372549019607844,1],"metallicFactor":0,"roughnessFactor":0.8}},{"pbrMetallicRoughness":{"baseColorFactor":[0.8470588235294118,0.8313725490196079,0.8,1],"metallicFactor":0,"roughnessFactor":0.7}}],"meshes":[{"primitives":[{"mode":4,"attributes":{"POSITION":0,"NORMAL":1,"TEXCOORD_0":2},"indices":3,"material":0}]},{"primitives":[{"mode":4,"attributes":{"POSITION":4,"NORMAL":5,"TEXCOORD_0":6},"indices":7,"material":0}]},{"primitives":[{"mode":4,"attributes":{"POSITION":8,"NORMAL":9,"TEXCOORD_0":10},"indices":11,"material":0}]},{"primitives":[{"mode":4,"attributes":{"POSITION":12,"NORMAL":13,"TEXCOORD_0":14},"indices":15,"material":1}]},{"primitives":[{"mode":4,"attributes":{"POSITION":16,"NORMAL":17,"TEXCOORD_0":18},"indices":19,"material":0}]},{"primitives":[{"mode":4,"attributes":{"POSITION":20,"NORMAL":21,"TEXCOORD_0":22},"indices":23,"material":2}]},{"primitives":[{"mode":4,"attributes":{"POSITION":24,"NORMAL":25,"TEXCOORD_0":26},"indices":27,"material":1}]},{"primitives":[{"mode":4,"attributes":{"POSITION":28,"NORMAL":29,"TEXCOORD_0":30},"indices":31,"material":1}]},{"primitives":[{"mode":4,"attributes":{"POSITION":32,"NORMAL":33,"TEXCOORD_0":34},"indices":35,"material":1}]},{"primitives":[{"mode":4,"attributes":{"POSITION":36,"NORMAL":37,"TEXCOORD_0":38},"indices":39,"material":1}]},{"primitives":[{"mode":4,"attributes":{"POSITION":40,"NORMAL":41,"TEXCOORD_0":42},"indices":43,"material":1}]},{"primitives":[{"mode":4,"attributes":{"POSITION":44,"NORMAL":45,"TEXCOORD_0":46},"indices":47,"material":1}]},{"primitives":[{"mode":4,"attributes":{"POSITION":48,"NORMAL":49,"TEXCOORD_0":50},"indices":51,"material":1}]},{"primitives":[{"mode":4,"attributes":{"POSITION":52,"NORMAL":53,"TEXCOORD_0":54},"indices":55,"material":1}]},{"primitives":[{"mode":4,"attributes":{"POSITION":56,"NORMAL":57,"TEXCOORD_0":58},"indices":59,"material":1}]}]}