{"asset":{"version":"2.0","generator":"THREE.GLTFExporter"},"scenes":[{"nodes":[10]}],"scene":0,"nodes":[{"matrix":[0.9887710779360422,-0.14943813247359922,0,0,0.14943813247359922,0.9887710779360422,0,0,0,0,1,0,-0.15,0.28,0,1],"mesh":0},{"matrix":[0.9887710779360422,0.14943813247359922,0,0,-0.14943813247359922,0.9887710779360422,0,0,0,0,1,0,0.15,0.28,0,1],"mesh":1},{"matrix":[1,0,0,0,0,0.9800665778412416,-0.19866933079506124,0,0,0.19866933079506124,0.9800665778412416,0,0,0.85,0,1],"mesh":2},{"matrix":[1.2,0,0,0,0,1,0,0,0,0,0.9,0,0,0.9,0.08,1],"mesh":3},{"matrix":[0.9,0,0,0,0,1.0131670934031738,-0.4283601765395155,0,0,0.38941834230865047,0.9210609940028851,0,0,1.22,0.1,1],"mesh":4},{"matrix":[1,0,0,0,0,0.30901699437494745,0.9510565162951536,0,0,-0.9510565162951536,0.30901699437494745,0,0,1.12,0.22,1],"mesh":5},{"matrix":[0.9210609940028851,0.35867804544976134,-0.15164664532641728,0,-0.38941834230865047,0.8483533546735827,-0.35867804544976134,0,0,0.38941834230865047,0.9210609940028851,0,-0.12,1.35,0.15,1],"mesh":6},{"matrix":[0.9210609940028851,-0.35867804544976134,0.15164664532641728,0,0.38941834230865047,0.8483533546735827,-0.35867804544976134,0,0,0.38941834230865047,0.9210609940028851,0,0.12,1.35,0.15,1],"mesh":7},{"matrix":[0.6967067093471654,0.7173560908995228,0,0,-0.7173560908995228,0.6967067093471654,0,0,0,0,1,0,-0.35,0.95,0,1],"mesh":8},{"matrix":[0.6967067093471654,-0.7173560908995228,0,0,0.7173560908995228,0.6967067093471654,0,0,0,0,1,0,0.35,0.95,0,1],"mesh":9},{"children":[0,1,2,3,4,5,6,7,8,9]}],"bufferViews":[{"buffer":0,"byteOffset":0,"byteLength":912,"target":34962,"byteStride":12},{"buffer":0,"byteOffset":912,"byteLength":912,"target":34962,"byteStride":12},{"buffer":0,"byteOffset":1824,"byteLength":608,"target":34962,"byteStride":8},{"buffer":0,"byteOffset":2432,"byteLength":288,"target":34963},{"buffer":0,"byteOffset":2720,"byteLength":912,"target":34962,"byteStride":12},{"buffer":0,"byteOffset":3632,"byteLength":912,"target":34962,"byteStride":12},{"buffer":0,"byteOffset":4544,"byteLength":608,"target":34962,"byteStride":8},{"buffer":0,"byteOffset":5152,"byteLength":288,"target":34963},{"buffer":0,"byteOffset":5440,"byteLength":1056,"target":34962,"byteStride":12},{"buffer":0,"byteOffset":6496,"byteLength":1056,"target":34962,"byteStride":12},{"buffer":0,"byteOffset":7552,"byteLength":704,"target":34962,"byteStride":8},{"buffer":0,"byteOffset":8256,"byteLength":336,"target":34963},{"buffer":0,"byteOffset":8592,"byteLength":2028,"target":34962,"byteStride":12},{"buffer":0,"byteOffset":10620,"byteLength":2028,"target":34962,"byteStride":12},{"buffer":0,"byteOffset":12648,"byteLength":1352,"target":34962,"byteStride":8},{"buffer":0,"byteOffset":14000,"byteLength":1584,"target":34963},{"buffer":0,"byteOffset":15584,"byteLength":2028,"target":34962,"byteStride":12},{"buffer":0,"byteOffset":17612,"byteLength":2028,"target":34962,"byteStride":12},{"buffer":0,"byteOffset":19640,"byteLength":1352,"target":34962,"byteStride":8},{"buffer":0,"byteOffset":20992,"byteLength":1584,"target":34963},{"buffer":0,"byteOffset":22576,"byteLength":768,"target":34962,"byteStride":12},{"buffer":0,"byteOffset":23344,"byteLength":768,"target":34962,"byteStride":12},{"buffer":0,"byteOffset":24112,"byteLength":512,"target":34962,"byteStride":8},{"buffer":0,"byteOffset":24624,"byteLength":240,"target":34963},{"buffer":0,"byteOffset":24864,"byteLength":420,"target":34962,"byteStride":12},{"buffer":0,"byteOffset":25284,"byteLength":420,"target":34962,"byteStride":12},{"buffer":0,"byteOffset":25704,"byteLength":280,"target":34962,"byteStride":8},{"buffer":0,"byteOffset":25984,"byteLength":144,"target":34963},{"buffer":0,"byteOffset":26128,"byteLength":420,"target":34962,"byteStride":12},{"buffer":0,"byteOffset":26548,"byteLength":420,"target":34962,"byteStride":12},{"buffer":0,"byteOffset":26968,"byteLength":280,"target":34962,"byteStride":8},{"buffer":0,"byteOffset":27248,"byteLength":144,"target":34963},{"buffer":0,"byteOffset":27392,"byteLength":768,"target":34962,"byteStride":12},{"buffer":0,"byteOffset":28160,"byteLength":768,"target":34962,"byteStride":12},{"buffer":0,"byteOffset":28928,"byteLength":512,"target":34962,"byteStride":8},{"buffer":0,"byteOffset":29440,"byteLength":240,"target":34963},{"buffer":0,"byteOffset":29680,"byteLength":768,"target":34962,"byteStride":12},{"buffer":0,"byteOffset":30448,"byteLength":768,"target":34962,"byteStride":12},{"buffer":0,"byteOffset":31216,"byteLength":512,"target":34962,"byteStride":8},{"buffer":0,"byteOffset":31728,"byteLength":240,"target":34963}],"buffers":[{"byteLength":31968,"uri":"data:application/octet-stream;base64,"}],"accessors":[{"bufferView":0,"componentType":5126,"count":76,"max":[0.10999999940395355,0.2750000059604645,0.10999999940395355],"min":[-0.10999999940395355,-0.2750000059604645,-0.10999999940395355],"type":"VEC3"},{"bufferView":1,"componentType":5126,"count":76,"max":[0.9993395209312439,1,0.9993395209312439],"min":[-0.9993395209312439,-1,-0.9993395209312439],"type":"VEC3"},{"bufferView":2,"componentType":5126,"count":76,"max":[1,1],"min":[0,0],"type":"VEC2"},{"bufferView":3,"componentType":5123,"count":144,"max":[75],"min":[0],"type":"SCALAR"},{"bufferView":4,"componentType":5126,"count":76,"max":[0.10999999940395355,0.2750000059604645,0.10999999940395355],"min":[-0.10999999940395355,-0.2750000059604645,-0.10999999940395355],"type":"VEC3"},{"bufferView":5,"componentType":5126,"count":76,"max":[0.9993395209312439,1,0.9993395209312439],"min":[-0.9993395209312439,-1,-0.9993395209312439],"type":"VEC3"},{"bufferView":6,"componentType":5126,"count":76,"max":[1,1],"min":[0,0],"type":"VEC2"},{"bufferView":7,"componentType":5123,"count":144,"max":[75],"min":[0],"type":"SCALAR"},{"bufferView":8,"componentType":5126,"count":88,"max":[0.23398269712924957,0.25,0.23999999463558197],"min":[-0.23398269712924957,-0.25,-0.23999999463558197],"type":"VEC3"},{"bufferView":9,"componentType":5126,"count":88,"max":[0.9718230366706848,1,0.9968152642250061],"min":[-0.9718230366706848,-1,-0.9968152642250061],"type":"VEC3"},{"bufferView":10,"componentType":5126,"count":88,"max":[1,1],"min":[0,0],"type":"VEC2"},{"bufferView":11,"componentType":5123,"count":168,"max":[87],"min":[0],"type":"SCALAR"},{"bufferView":12,"componentType":5126,"count":169,"max":[0.2199999988079071,0.2199999988079071,0.2199999988079071],"min":[-0.2199999988079071,-0.2199999988079071,-0.2199999988079071],"type":"VEC3"},{"bufferView":13,"componentType":5126,"count":169,"max":[1,1,1],"min":[-1,-1,-1],"type":"VEC3"},{"bufferView":14,"componentType":5126,"count":169,"max":[1.0416666269302368,1],"min":[-0.0416666679084301,0],"type":"VEC2"},{"bufferView":15,"componentType":5123,"count":792,"max":[168],"min":[0],"type":"SCALAR"},{"bufferView":16,"componentType":5126,"count":169,"max":[0.15000000596046448,0.15000000596046448,0.15000000596046448],"min":[-0.15000000596046448,-0.15000000596046448,-0.15000000596046448],"type":"VEC3"},{"bufferView":17,"componentType":5126,"count":169,"max":[1,1,1],"min":[-1,-1,-1],"type":"VEC3"},{"bufferView":18,"componentType":5126,"count":169,"max":[1.0416666269302368,1],"min":[-0.0416666679084301,0],"type":"VEC2"},{"bufferView":19,"componentType":5123,"count":792,"max":[168],"min":[0],"type":"SCALAR"},{"bufferView":20,"componentType":5126,"count":64,"max":[0.08559508621692657,0.07000000029802322,0.09000000357627869],"min":[-0.08559508621692657,-0.07000000029802322,-0.09000000357627869],"type":"VEC3"},{"bufferView":21,"componentType":5126,"count":64,"max":[0.9299453496932983,1,0.9778023958206177],"min":[-0.9299453496932983,-1,-0.9778023958206177],"type":"VEC3"},{"bufferView":22,"componentType":5126,"count":64,"max":[1,1],"min":[0,0],"type":"VEC2"},{"bufferView":23,"componentType":5123,"count":120,"max":[63],"min":[0],"type":"SCALAR"},{"bufferView":24,"componentType":5126,"count":35,"max":[0.03500000014901161,0.10999999940395355,0.03500000014901161],"min":[-0.03500000014901161,-0.10999999940395355,-0.03500000014901161],"type":"VEC3"},{"bufferView":25,"componentType":5126,"count":35,"max":[0.9875802993774414,0.15711504220962524,0.9875802993774414],"min":[-0.9875802993774414,-1,-0.9875802993774414],"type":"VEC3"},{"bufferView":26,"componentType":5126,"count":35,"max":[1,1],"min":[0,0],"type":"VEC2"},{"bufferView":27,"componentType":5123,"count":72,"max":[34],"min":[0],"type":"SCALAR"},{"bufferView":28,"componentType":5126,"count":35,"max":[0.03500000014901161,0.10999999940395355,0.03500000014901161],"min":[-0.03500000014901161,-0.10999999940395355,-0.03500000014901161],"type":"VEC3"},{"bufferView":29,"componentType":5126,"count":35,"max":[0.9875802993774414,0.15711504220962524,0.9875802993774414],"min":[-0.9875802993774414,-1,-0.9875802993774414],"type":"VEC3"},{"bufferView":30,"componentType":5126,"count":35,"max":[1,1],"min":[0,0],"type":"VEC2"},{"bufferView":31,"componentType":5123,"count":72,"max":[34],"min":[0],"type":"SCALAR"},{"bufferView":32,"componentType":5126,"count":64,"max":[0.06657395511865616,0.20999999344348907,0.07000000029802322],"min":[-0.06657395511865616,-0.20999999344348907,-0.07000000029802322],"type":"VEC3"},{"bufferView":33,"componentType":5126,"count":64,"max":[0.9507870674133301,1,0.9997166991233826],"min":[-0.9507870674133301,-1,-0.9997166991233826],"type":"VEC3"},{"bufferView":34,"componentType":5126,"count":64,"max":[1,1],"min":[0,0],"type":"VEC2"},{"bufferView":35,"componentType":5123,"count":120,"max":[63],"min":[0],"type":"SCALAR"},{"bufferView":36,"componentType":5126,"count":64,"max":[0.06657395511865616,0.20999999344348907,0.07000000029802322],"min":[-0.06657395511865616,-0.20999999344348907,-0.07000000029802322],"type":"VEC3"},{"bufferView":37,"componentType":5126,"count":64,"max":[0.9507870674133301,1,0.9997166991233826],"min":[-0.9507870674133301,-1,-0.9997166991233826],"type":"VEC3"},{"bufferView":38,"componentType":5126,"count":64,"max":[1,1],"min":[0,0],"type":"VEC2"},{"bufferView":39,"componentType":5123,"count":120,"max":[63],"min":[0],"type":"SCALAR"}],"materials":[{"pbrMetallicRoughness":{"baseColorFactor":[0.8156862745098039,0.8,0.7686274509803922,1],"metallicFactor":0,"roughnessFactor":0.75}},{"pbrMetallicRoughness":{"baseColorFactor":[0.8470588235294118,0.8313725490196079,0.8,1],"metallicFactor":0,"roughnessFactor":0.7}}],"meshes":[{"primitives":[{"mode":4,"attributes":{"POSITION":0,"NORMAL":1,"TEXCOORD_0":2},"indices":3,"material":0}]},{"primitives":[{"mode":4,"attributes":{"POSITION":4,"NORMAL":5,"TEXCOORD_0":6},"indices":7,"material":0}]},{"primitives":[{"mode":4,"attributes":{"POSITION":8,"NORMAL":9,"TEXCOORD_0":10},"indices":11,"material":0}]},{"primitives":[{"mode":4,"attributes":{"POSITION":12,"NORMAL":13,"TEXCOORD_0":14},"indices":15,"material":0}]},{"primitives":[{"mode":4,"attributes":{"POSITION":16,"NORMAL":17,"TEXCOORD_0":18},"indices":19,"material":0}]},{"primitives":[{"mode":4,"attributes":{"POSITION":20,"NORMAL":21,"TEXCOORD_0":22},"indices":23,"material":0}]},{"primitives":[{"mode":4,"attributes":{"POSITION":24,"NORMAL":25,"TEXCOORD_0":26},"indices":27,"material":1}]},{"primitives":[{"mode":4,"attributes":{"POSITION":28,"NORMAL":29,"TEXCOORD_0":30},"indices":31,"material":1}]},{"primitives":[{"mode":4,"attributes":{"POSITION":32,"NORMAL":33,"TEXCOORD_0":34},"indices":35,"material":0}]},{"primitives":[{"mode":4,"attributes":{"POSITION":36,"NORMAL":37,"TEXCOORD_0":38},"indices":39,"material":0}]}]}