{"asset":{"version":"2.0","generator":"THREE.GLTFExporter"},"scenes":[{"nodes":[9]}],"scene":0,"nodes":[{"matrix":[1,0,0,0,0,1,0,0,0,0,1,0,0,0.5,0,1],"mesh":0},{"matrix":[1,0,0,0,0,1,0,0,0,0,1,0,0,1.05,0,1],"mesh":1},{"matrix":[1,0,0,0,0,1,0,0,0,0,1,0,0,1.38,0,1],"mesh":2},{"matrix":[1,0,0,0,0,0.9800665778412416,0.19866933079506124,0,0,-0.19866933079506124,0.9800665778412416,0,0,1.28,0.06,1],"mesh":3},{"matrix":[0.9210609940028851,0.34174674649032755,0.18669709850368066,0,-0.38941834230865047,0.808307066774345,0.44158016313715576,0,0,-0.479425538604203,0.8775825618903728,0,-0.2,0.95,0.12,1],"mesh":4},{"matrix":[0.955336489125606,-0.2439033514830719,-0.16686326042747074,0,0.29552020666133955,0.7884732286981353,0.5394235581444113,0,1.3877787807814457e-17,-0.5646424733950353,0.8253356149096783,0,0.18,0.92,0.15,1],"mesh":5},{"matrix":[1.3322676295501878e-16,0.6,0,0,-1,2.220446049250313e-16,0,0,0,0,0.7,0,0,0.85,0.25,1],"mesh":6},{"matrix":[1,0,0,0,0,1,0,0,0,0,1,0,0,0.95,0.25,1],"mesh":7},{"matrix":[1,0,0,0,0,1,0,0,0,0,1,0,0,0.95,0.27,1],"mesh":8},{"children":[0,1,2,3,4,5,6,7,8]}],"bufferViews":[{"buffer":0,"byteOffset":0,"byteLength":612,"target":34962,"byteStride":12},{"buffer":0,"byteOffset":612,"byteLength":612,"target":34962,"byteStride":12},{"buffer":0,"byteOffset":1224,"byteLength":408,"target":34962,"byteStride":8},{"buffer":0,"byteOffset":1632,"byteLength":216,"target":34963},{"buffer":0,"byteOffset":1848,"byteLength":912,"target":34962,"byteStride":12},{"buffer":0,"byteOffset":2760,"byteLength":912,"target":34962,"byteStride":12},{"buffer":0,"byteOffset":3672,"byteLength":608,"target":34962,"byteStride":8},{"buffer":0,"byteOffset":4280,"byteLength":288,"target":34963},{"buffer":0,"byteOffset":4568,"byteLength":2028,"target":34962,"byteStride":12},{"buffer":0,"byteOffset":6596,"byteLength":2028,"target":34962,"byteStride":12},{"buffer":0,"byteOffset":8624,"byteLength":1352,"target":34962,"byteStride":8},{"buffer":0,"byteOffset":9976,"byteLength":1584,"target":34963},{"buffer":0,"byteOffset":11560,"byteLength":420,"target":34962,"byteStride":12},{"buffer":0,"byteOffset":11980,"byteLength":420,"target":34962,"byteStride":12},{"buffer":0,"byteOffset":12400,"byteLength":280,"target":34962,"byteStride":8},{"buffer":0,"byteOffset":12680,"byteLength":144,"target":34963},{"buffer":0,"byteOffset":12824,"byteLength":768,"target":34962,"byteStride":12},{"buffer":0,"byteOffset":13592,"byteLength":768,"target":34962,"byteStride":12},{"buffer":0,"byteOffset":14360,"byteLength":512,"target":34962,"byteStride":8},{"buffer":0,"byteOffset":14872,"byteLength":240,"target":34963},{"buffer":0,"byteOffset":15112,"byteLength":768,"target":34962,"byteStride":12},{"buffer":0,"byteOffset":15880,"byteLength":768,"target":34962,"byteStride":12},{"buffer":0,"byteOffset":16648,"byteLength":512,"target":34962,"byteStride":8},{"buffer":0,"byteOffset":17160,"byteLength":240,"target":34963},{"buffer":0,"byteOffset":17400,"byteLength":768,"target":34962,"byteStride":12},{"buffer":0,"byteOffset":18168,"byteLength":768,"target":34962,"byteStride":12},{"buffer":0,"byteOffset":18936,"byteLength":512,"target":34962,"byteStride":8},{"buffer":0,"byteOffset":19448,"byteLength":240,"target":34963},{"buffer":0,"byteOffset":19688,"byteLength":480,"target":34962,"byteStride":12},{"buffer":0,"byteOffset":20168,"byteLength":480,"target":34962,"byteStride":12},{"buffer":0,"byteOffset":20648,"byteLength":320,"target":34962,"byteStride":8},{"buffer":0,"byteOffset":20968,"byteLength":144,"target":34963},{"buffer":0,"byteOffset":21112,"byteLength":288,"target":34962,"byteStride":12},{"buffer":0,"byteOffset":21400,"byteLength":288,"target":34962,"byteStride":12},{"buffer":0,"byteOffset":21688,"byteLength":192,"target":34962,"byteStride":8},{"buffer":0,"byteOffset":21880,"byteLength":72,"target":34963}],"buffers":[{"byteLength":21952,"uri":"data:application/octet-stream;base64,"}],"accessors":[{"bufferView":0,"componentType":5126,"count":51,"max":[0.30000001192092896,0.5,0.30000001192092896],"min":[-0.30000001192092896,-0.5,-0.30000001192092896],"type":"VEC3"},{"bufferView":1,"componentType":5126,"count":51,"max":[0.9578262567520142,0.2873478829860687,0.9578262567520142],"min":[-0.9578262567520142,-1,-0.9578262567520142],"type":"VEC3"},{"bufferView":2,"componentType":5126,"count":51,"max":[1,1],"min":[0,0],"type":"VEC2"},{"bufferView":3,"componentType":5123,"count":108,"max":[50],"min":[0],"type":"SCALAR"},{"bufferView":4,"componentType":5126,"count":76,"max":[0.20000000298023224,0.20000000298023224,0.20000000298023224],"min":[-0.20000000298023224,-0.20000000298023224,-0.20000000298023224],"type":"VEC3"},{"bufferView":5,"componentType":5126,"count":76,"max":[0.9889363646507263,1,0.9889363646507263],"min":[-0.9889363646507263,-1,-0.9889363646507263],"type":"VEC3"},{"bufferView":6,"componentType":5126,"count":76,"max":[1,1],"min":[0,0],"type":"VEC2"},{"bufferView":7,"componentType":5123,"count":144,"max":[75],"min":[0],"type":"SCALAR"},{"bufferView":8,"componentType":5126,"count":169,"max":[0.10999999940395355,0.10999999940395355,0.10999999940395355],"min":[-0.10999999940395355,-0.10999999940395355,-0.10999999940395355],"type":"VEC3"},{"bufferView":9,"componentType":5126,"count":169,"max":[1,1,1],"min":[-1,-1,-1],"type":"VEC3"},{"bufferView":10,"componentType":5126,"count":169,"max":[1.0416666269302368,1],"min":[-0.0416666679084301,0],"type":"VEC2"},{"bufferView":11,"componentType":5123,"count":792,"max":[168],"min":[0],"type":"SCALAR"},{"bufferView":12,"componentType":5126,"count":35,"max":[0.07999999821186066,0.09000000357627869,0.07999999821186066],"min":[-0.07999999821186066,-0.09000000357627869,-0.07999999821186066],"type":"VEC3"},{"bufferView":13,"componentType":5126,"count":35,"max":[0.9138115644454956,0.40613847970962524,0.9138115644454956],"min":[-0.9138115644454956,-1,-0.9138115644454956],"type":"VEC3"},{"bufferView":14,"componentType":5126,"count":35,"max":[1,1],"min":[0,0],"type":"VEC2"},{"bufferView":15,"componentType":5123,"count":72,"max":[34],"min":[0],"type":"SCALAR"},{"bufferView":16,"componentType":5126,"count":64,"max":[0.04755282402038574,0.17499999701976776,0.05000000074505806],"min":[-0.04755282402038574,-0.17499999701976776,-0.05000000074505806],"type":"VEC3"},{"bufferView":17,"componentType":5126,"count":64,"max":[0.9506685733795166,1,0.9995920658111572],"min":[-0.9506685733795166,-1,-0.9995920658111572],"type":"VEC3"},{"bufferView":18,"componentType":5126,"count":64,"max":[1,1],"min":[0,0],"type":"VEC2"},{"bufferView":19,"componentType":5123,"count":120,"max":[63],"min":[0],"type":"SCALAR"},{"bufferView":20,"componentType":5126,"count":64,"max":[0.04755282402038574,0.17499999701976776,0.05000000074505806],"min":[-0.04755282402038574,-0.17499999701976776,-0.05000000074505806],"type":"VEC3"},{"bufferView":21,"componentType":5126,"count":64,"max":[0.9506685733795166,1,0.9995920658111572],"min":[-0.9506685733795166,-1,-0.9995920658111572],"type":"VEC3"},{"bufferView":22,"componentType":5126,"count":64,"max":[1,1],"min":[0,0],"type":"VEC2"},{"bufferView":23,"componentType":5123,"count":120,"max":[63],"min":[0],"type":"SCALAR"},{"bufferView":24,"componentType":5126,"count":64,"max":[0.05706338956952095,0.125,0.05999999865889549],"min":[-0.05706338956952095,-0.125,-0.05999999865889549],"type":"VEC3"},{"bufferView":25,"componentType":5126,"count":64,"max":[0.9442819952964783,1,0.9928768277168274],"min":[-0.9442819952964783,-1,-0.9928768277168274],"type":"VEC3"},{"bufferView":26,"componentType":5126,"count":64,"max":[1,1],"min":[0,0],"type":"VEC2"},{"bufferView":27,"componentType":5123,"count":120,"max":[63],"min":[0],"type":"SCALAR"},{"bufferView":28,"componentType":5126,"count":40,"max":[0.008660254068672657,0.10000000149011612,0.009999999776482582],"min":[-0.008660254068672657,-0.10000000149011612,-0.009999999776482582],"type":"VEC3"},{"bufferView":29,"componentType":5126,"count":40,"max":[0.8659821152687073,1,0.9999499917030334],"min":[-0.8659821152687073,-1,-0.9999499917030334],"type":"VEC3"},{"bufferView":30,"componentType":5126,"count":40,"max":[1,1],"min":[0,0],"type":"VEC2"},{"bufferView":31,"componentType":5123,"count":72,"max":[39],"min":[0],"type":"SCALAR"},{"bufferView":32,"componentType":5126,"count":24,"max":[0.05999999865889549,0.05000000074505806,0.004000000189989805],"min":[-0.05999999865889549,-0.05000000074505806,-0.004000000189989805],"type":"VEC3"},{"bufferView":33,"componentType":5126,"count":24,"max":[1,1,1],"min":[-1,-1,-1],"type":"VEC3"},{"bufferView":34,"componentType":5126,"count":24,"max":[1,1],"min":[0,0],"type":"VEC2"},{"bufferView":35,"componentType":5123,"count":36,"max":[23],"min":[0],"type":"SCALAR"}],"materials":[{"pbrMetallicRoughness":{"baseColorFactor":[0.8156862745098039,0.8,0.7686274509803922,1],"metallicFactor":0,"roughnessFactor":0.75}},{"pbrMetallicRoughness":{"baseColorFactor":[0.8470588235294118,0.8313725490196079,0.8,1],"metallicFactor":0,"roughnessFactor":0.7}}],"meshes":[{"primitives":[{"mode":4,"attributes":{"POSITION":0,"NORMAL":1,"TEXCOORD_0":2},"indices":3,"material":0}]},{"primitives":[{"mode":4,"attributes":{"POSITION":4,"NORMAL":5,"TEXCOORD_0":6},"indices":7,"material":0}]},{"primitives":[{"mode":4,"attributes":{"POSITION":8,"NORMAL":9,"TEXCOORD_0":10},"indices":11,"material":0}]},{"primitives":[{"mode":4,"attributes":{"POSITION":12,"NORMAL":13,"TEXCOORD_0":14},"indices":15,"material":0}]},{"primitives":[{"mode":4,"attributes":{"POSITION":16,"NORMAL":17,"TEXCOORD_0":18},"indices":19,"material":0}]},{"primitives":[{"mode":4,"attributes":{"POSITION":20,"NORMAL":21,"TEXCOORD_0":22},"indices":23,"material":0}]},{"primitives":[{"mode":4,"attributes":{"POSITION":24,"NORMAL":25,"TEXCOORD_0":26},"indices":27,"material":1}]},{"primitives":[{"mode":4,"attributes":{"POSITION":28,"NORMAL":29,"TEXCOORD_0":30},"indices":31,"material":1}]},{"primitives":[{"mode":4,"attributes":{"POSITION":32,"NORMAL":33,"TEXCOORD_0":34},"indices":35,"material":1}]}]}