{"asset":{"version":"2.0","generator":"THREE.GLTFExporter"},"scenes":[{"nodes":[12]}],"scene":0,"nodes":[{"matrix":[1.4,0,0,0,0,0.9,0,0,0,0,0.85,0,0,0.6,0,1],"mesh":0},{"matrix":[0.8775825618903728,-0.479425538604203,0,0,0.479425538604203,0.8775825618903728,0,0,0,0,1,0,0.35,0.85,0,1],"mesh":1},{"matrix":[1.3,0,0,0,0,1,0,0,0,0,0.8,0,0.5,1.05,0,1],"mesh":2},{"matrix":[1,0,0,0,0,1,0,0,0,0,1,0,-0.2,0.25,0.15,1],"mesh":3},{"matrix":[1,0,0,0,0,1,0,0,0,0,1,0,-0.2,0.25,-0.15,1],"mesh":4},{"matrix":[1,0,0,0,0,1,0,0,0,0,1,0,0.15,0.25,0.15,1],"mesh":5},{"matrix":[1,0,0,0,0,1,0,0,0,0,1,0,0.15,0.25,-0.15,1],"mesh":6},{"matrix":[0.8253356149096783,0.5394235581444113,0.16686326042747074,0,-0.5646424733950353,0.7884732286981353,0.2439033514830719,0,-1.3877787807814457e-17,-0.29552020666133955,0.955336489125606,0,-0.1,0.95,0.25,1],"mesh":7},{"matrix":[0.8253356149096783,0.5394235581444113,-0.16686326042747074,0,-0.5646424733950353,0.7884732286981353,-0.2439033514830719,0,1.3877787807814457e-17,0.29552020666133955,0.955336489125606,0,-0.1,0.95,-0.25,1],"mesh":8},{"matrix":[1.3,0,0,0,0,0.9,0,0,0,0,0.8,0,-0.45,0.35,0.2,1],"mesh":9},{"matrix":[1.2,0,0,0,0,1,0,0,0,0,0.8,0,-0.32,0.48,0.2,1],"mesh":10},{"matrix":[0.8775825618903726,0.4698689469495153,0.0952471509205588,0,-0.479425538604203,0.8600893382050472,0.17434874028817574,0,0,-0.1986693307950612,0.9800665778412416,0,-0.5,0.48,0.28,1],"mesh":11},{"children":[0,1,2,3,4,5,6,7,8,9,10,11]}],"bufferViews":[{"buffer":0,"byteOffset":0,"byteLength":2700,"target":34962,"byteStride":12},{"buffer":0,"byteOffset":2700,"byteLength":2700,"target":34962,"byteStride":12},{"buffer":0,"byteOffset":5400,"byteLength":1800,"target":34962,"byteStride":8},{"buffer":0,"byteOffset":7200,"byteLength":2184,"target":34963},{"buffer":0,"byteOffset":9384,"byteLength":912,"target":34962,"byteStride":12},{"buffer":0,"byteOffset":10296,"byteLength":912,"target":34962,"byteStride":12},{"buffer":0,"byteOffset":11208,"byteLength":608,"target":34962,"byteStride":8},{"buffer":0,"byteOffset":11816,"byteLength":288,"target":34963},{"buffer":0,"byteOffset":12104,"byteLength":2028,"target":34962,"byteStride":12},{"buffer":0,"byteOffset":14132,"byteLength":2028,"target":34962,"byteStride":12},{"buffer":0,"byteOffset":16160,"byteLength":1352,"target":34962,"byteStride":8},{"buffer":0,"byteOffset":17512,"byteLength":1584,"target":34963},{"buffer":0,"byteOffset":19096,"byteLength":768,"target":34962,"byteStride":12},{"buffer":0,"byteOffset":19864,"byteLength":768,"target":34962,"byteStride":12},{"buffer":0,"byteOffset":20632,"byteLength":512,"target":34962,"byteStride":8},{"buffer":0,"byteOffset":21144,"byteLength":240,"target":34963},{"buffer":0,"byteOffset":21384,"byteLength":768,"target":34962,"byteStride":12},{"buffer":0,"byteOffset":22152,"byteLength":768,"target":34962,"byteStride":12},{"buffer":0,"byteOffset":22920,"byteLength":512,"target":34962,"byteStride":8},{"buffer":0,"byteOffset":23432,"byteLength":240,"target":34963},{"buffer":0,"byteOffset":23672,"byteLength":768,"target":34962,"byteStride":12},{"buffer":0,"byteOffset":24440,"byteLength":768,"target":34962,"byteStride":12},{"buffer":0,"byteOffset":25208,"byteLength":512,"target":34962,"byteStride":8},{"buffer":0,"byteOffset":25720,"byteLength":240,"target":34963},{"buffer":0,"byteOffset":25960,"byteLength":768,"target":34962,"byteStride":12},{"buffer":0,"byteOffset":26728,"byteLength":768,"target":34962,"byteStride":12},{"buffer":0,"byteOffset":27496,"byteLength":512,"target":34962,"byteStride":8},{"buffer":0,"byteOffset":28008,"byteLength":240,"target":34963},{"buffer":0,"byteOffset":28248,"byteLength":288,"target":34962,"byteStride":12},{"buffer":0,"byteOffset":28536,"byteLength":288,"target":34962,"byteStride":12},{"buffer":0,"byteOffset":28824,"byteLength":192,"target":34962,"byteStride":8},{"buffer":0,"byteOffset":29016,"byteLength":72,"target":34963},{"buffer":0,"byteOffset":29088,"byteLength":288,"target":34962,"byteStride":12},{"buffer":0,"byteOffset":29376,"byteLength":288,"target":34962,"byteStride":12},{"buffer":0,"byteOffset":29664,"byteLength":192,"target":34962,"byteStride":8},{"buffer":0,"byteOffset":29856,"byteLength":72,"target":34963},{"buffer":0,"byteOffset":29928,"byteLength":2028,"target":34962,"byteStride":12},{"buffer":0,"byteOffset":31956,"byteLength":2028,"target":34962,"byteStride":12},{"buffer":0,"byteOffset":33984,"byteLength":1352,"target":34962,"byteStride":8},{"buffer":0,"byteOffset":35336,"byteLength":1584,"target":34963},{"buffer":0,"byteOffset":36920,"byteLength":1452,"target":34962,"byteStride":12},{"buffer":0,"byteOffset":38372,"byteLength":1452,"target":34962,"byteStride":12},{"buffer":0,"byteOffset":39824,"byteLength":968,"target":34962,"byteStride":8},{"buffer":0,"byteOffset":40792,"byteLength":1080,"target":34963},{"buffer":0,"byteOffset":41872,"byteLength":288,"target":34962,"byteStride":12},{"buffer":0,"byteOffset":42160,"byteLength":288,"target":34962,"byteStride":12},{"buffer":0,"byteOffset":42448,"byteLength":192,"target":34962,"byteStride":8},{"buffer":0,"byteOffset":42640,"byteLength":72,"target":34963}],"buffers":[{"byteLength":42712,"uri":"data:application/octet-stream;base64,"}],"accessors":[{"bufferView":0,"componentType":5126,"count":225,"max":[0.3499999940395355,0.3499999940395355,0.3412247598171234],"min":[-0.3499999940395355,-0.3499999940395355,-0.3412247598171234],"type":"VEC3"},{"bufferView":1,"componentType":5126,"count":225,"max":[1,1,0.9749279022216797],"min":[-1,-1,-0.9749279022216797],"type":"VEC3"},{"bufferView":2,"componentType":5126,"count":225,"max":[1.0357142686843872,1],"min":[-0.0357142873108387,0],"type":"VEC2"},{"bufferView":3,"componentType":5123,"count":1092,"max":[224],"min":[0],"type":"SCALAR"},{"bufferView":4,"componentType":5126,"count":76,"max":[0.15000000596046448,0.17499999701976776,0.15000000596046448],"min":[-0.15000000596046448,-0.17499999701976776,-0.15000000596046448],"type":"VEC3"},{"bufferView":5,"componentType":5126,"count":76,"max":[0.9899494647979736,1,0.9899494647979736],"min":[-0.9899494647979736,-1,-0.9899494647979736],"type":"VEC3"},{"bufferView":6,"componentType":5126,"count":76,"max":[1,1],"min":[0,0],"type":"VEC2"},{"bufferView":7,"componentType":5123,"count":144,"max":[75],"min":[0],"type":"SCALAR"},{"bufferView":8,"componentType":5126,"count":169,"max":[0.11999999731779099,0.11999999731779099,0.11999999731779099],"min":[-0.11999999731779099,-0.11999999731779099,-0.11999999731779099],"type":"VEC3"},{"bufferView":9,"componentType":5126,"count":169,"max":[1,1,1],"min":[-1,-1,-1],"type":"VEC3"},{"bufferView":10,"componentType":5126,"count":169,"max":[1.0416666269302368,1],"min":[-0.0416666679084301,0],"type":"VEC2"},{"bufferView":11,"componentType":5123,"count":792,"max":[168],"min":[0],"type":"SCALAR"},{"bufferView":12,"componentType":5126,"count":64,"max":[0.05706338956952095,0.25,0.05999999865889549],"min":[-0.05706338956952095,-0.25,-0.05999999865889549],"type":"VEC3"},{"bufferView":13,"componentType":5126,"count":64,"max":[0.9508663415908813,1,0.9998000860214233],"min":[-0.9508663415908813,-1,-0.9998000860214233],"type":"VEC3"},{"bufferView":14,"componentType":5126,"count":64,"max":[1,1],"min":[0,0],"type":"VEC2"},{"bufferView":15,"componentType":5123,"count":120,"max":[63],"min":[0],"type":"SCALAR"},{"bufferView":16,"componentType":5126,"count":64,"max":[0.05706338956952095,0.25,0.05999999865889549],"min":[-0.05706338956952095,-0.25,-0.05999999865889549],"type":"VEC3"},{"bufferView":17,"componentType":5126,"count":64,"max":[0.9508663415908813,1,0.9998000860214233],"min":[-0.9508663415908813,-1,-0.9998000860214233],"type":"VEC3"},{"bufferView":18,"componentType":5126,"count":64,"max":[1,1],"min":[0,0],"type":"VEC2"},{"bufferView":19,"componentType":5123,"count":120,"max":[63],"min":[0],"type":"SCALAR"},{"bufferView":20,"componentType":5126,"count":64,"max":[0.05706338956952095,0.25,0.05999999865889549],"min":[-0.05706338956952095,-0.25,-0.05999999865889549],"type":"VEC3"},{"bufferView":21,"componentType":5126,"count":64,"max":[0.9508663415908813,1,0.9998000860214233],"min":[-0.9508663415908813,-1,-0.9998000860214233],"type":"VEC3"},{"bufferView":22,"componentType":5126,"count":64,"max":[1,1],"min":[0,0],"type":"VEC2"},{"bufferView":23,"componentType":5123,"count":120,"max":[63],"min":[0],"type":"SCALAR"},{"bufferView":24,"componentType":5126,"count":64,"max":[0.05706338956952095,0.25,0.05999999865889549],"min":[-0.05706338956952095,-0.25,-0.05999999865889549],"type":"VEC3"},{"bufferView":25,"componentType":5126,"count":64,"max":[0.9508663415908813,1,0.9998000860214233],"min":[-0.9508663415908813,-1,-0.9998000860214233],"type":"VEC3"},{"bufferView":26,"componentType":5126,"count":64,"max":[1,1],"min":[0,0],"type":"VEC2"},{"bufferView":27,"componentType":5123,"count":120,"max":[63],"min":[0],"type":"SCALAR"},{"bufferView":28,"componentType":5126,"count":24,"max":[0.02500000037252903,0.25,0.15000000596046448],"min":[-0.02500000037252903,-0.25,-0.15000000596046448],"type":"VEC3"},{"bufferView":29,"componentType":5126,"count":24,"max":[1,1,1],"min":[-1,-1,-1],"type":"VEC3"},{"bufferView":30,"componentType":5126,"count":24,"max":[1,1],"min":[0,0],"type":"VEC2"},{"bufferView":31,"componentType":5123,"count":36,"max":[23],"min":[0],"type":"SCALAR"},{"bufferView":32,"componentType":5126,"count":24,"max":[0.02500000037252903,0.25,0.15000000596046448],"min":[-0.02500000037252903,-0.25,-0.15000000596046448],"type":"VEC3"},{"bufferView":33,"componentType":5126,"count":24,"max":[1,1,1],"min":[-1,-1,-1],"type":"VEC3"},{"bufferView":34,"componentType":5126,"count":24,"max":[1,1],"min":[0,0],"type":"VEC2"},{"bufferView":35,"componentType":5123,"count":36,"max":[23],"min":[0],"type":"SCALAR"},{"bufferView":36,"componentType":5126,"count":169,"max":[0.18000000715255737,0.18000000715255737,0.18000000715255737],"min":[-0.18000000715255737,-0.18000000715255737,-0.18000000715255737],"type":"VEC3"},{"bufferView":37,"componentType":5126,"count":169,"max":[1,1,1],"min":[-1,-1,-1],"type":"VEC3"},{"bufferView":38,"componentType":5126,"count":169,"max":[1.0416666269302368,1],"min":[-0.0416666679084301,0],"type":"VEC2"},{"bufferView":39,"componentType":5123,"count":792,"max":[168],"min":[0],"type":"SCALAR"},{"bufferView":40,"componentType":5126,"count":121,"max":[0.07999999821186066,0.07999999821186066,0.07608452439308167],"min":[-0.07999999821186066,-0.07999999821186066,-0.07608452439308167],"type":"VEC3"},{"bufferView":41,"componentType":5126,"count":121,"max":[1,1,0.9510565400123596],"min":[-1,-1,-0.9510565400123596],"type":"VEC3"},{"bufferView":42,"componentType":5126,"count":121,"max":[1.0499999523162842,1],"min":[-0.05000000074505806,0],"type":"VEC2"},{"bufferView":43,"componentType":5123,"count":540,"max":[120],"min":[0],"type":"SCALAR"},{"bufferView":44,"componentType":5126,"count":24,"max":[0.014999999664723873,0.10000000149011612,0.05999999865889549],"min":[-0.014999999664723873,-0.10000000149011612,-0.05999999865889549],"type":"VEC3"},{"bufferView":45,"componentType":5126,"count":24,"max":[1,1,1],"min":[-1,-1,-1],"type":"VEC3"},{"bufferView":46,"componentType":5126,"count":24,"max":[1,1],"min":[0,0],"type":"VEC2"},{"bufferView":47,"componentType":5123,"count":36,"max":[23],"min":[0],"type":"SCALAR"}],"materials":[{"pbrMetallicRoughness":{"baseColorFactor":[0.8156862745098039,0.8,0.7686274509803922,1],"metallicFactor":0,"roughnessFactor":0.75}},{"pbrMetallicRoughness":{"baseColorFactor":[0.8470588235294118,0.8313725490196079,0.8,1],"metallicFactor":0,"roughnessFactor":0.7}}],"meshes":[{"primitives":[{"mode":4,"attributes":{"POSITION":0,"NORMAL":1,"TEXCOORD_0":2},"indices":3,"material":0}]},{"primitives":[{"mode":4,"attributes":{"POSITION":4,"NORMAL":5,"TEXCOORD_0":6},"indices":7,"material":0}]},{"primitives":[{"mode":4,"attributes":{"POSITION":8,"NORMAL":9,"TEXCOORD_0":10},"indices":11,"material":0}]},{"primitives":[{"mode":4,"attributes":{"POSITION":12,"NORMAL":13,"TEXCOORD_0":14},"indices":15,"material":0}]},{"primitives":[{"mode":4,"attributes":{"POSITION":16,"NORMAL":17,"TEXCOORD_0":18},"indices":19,"material":0}]},{"primitives":[{"mode":4,"attributes":{"POSITION":20,"NORMAL":21,"TEXCOORD_0":22},"indices":23,"material":0}]},{"primitives":[{"mode":4,"attributes":{"POSITION":24,"NORMAL":25,"TEXCOORD_0":26},"indices":27,"material":0}]},{"primitives":[{"mode":4,"attributes":{"POSITION":28,"NORMAL":29,"TEXCOORD_0":30},"indices":31,"material":1}]},{"primitives":[{"mode":4,"attributes":{"POSITION":32,"NORMAL":33,"TEXCOORD_0":34},"indices":35,"material":1}]},{"primitives":[{"mode":4,"attributes":{"POSITION":36,"NORMAL":37,"TEXCOORD_0":38},"indices":39,"material":0}]},{"primitives":[{"mode":4,"attributes":{"POSITION":40,"NORMAL":41,"TEXCOORD_0":42},"indices":43,"material":0}]},{"primitives":[{"mode":4,"attributes":{"POSITION":44,"NORMAL":45,"TEXCOORD_0":46},"indices":47,"material":1}]}]}