{"asset":{"version":"2.0","generator":"THREE.GLTFExporter"},"scenes":[{"nodes":[10]}],"scene":0,"nodes":[{"matrix":[1,0,0,0,0,1,0,0,0,0,1,0,0,0.5,0,1],"mesh":0},{"matrix":[1,0,0,0,0,1,0,0,0,0,1,0,0,1.05,0,1],"mesh":1},{"matrix":[1,0,0,0,0,1,0,0,0,0,1,0,0,1.38,0,1],"mesh":2},{"matrix":[1,0,0,0,0,0.8,0,0,0,0,1,0,0,1.44,-0.03,1],"mesh":3},{"matrix":[0.8775825618903728,0.4580127108472919,0.1416799342470381,0,-0.4794255386042029,0.8383866435942036,0.2593433800522307,0,0,-0.2955202066613395,0.955336489125606,0,-0.25,1,0.1,1],"mesh":4},{"matrix":[0.8212123745874306,0.2094601188724622,-0.5307887474564694,0,-0.08239607431674402,0.9639712998135481,0.2529233482163482,0,0.5646424733950355,-0.1639688742954362,0.8088838516750252,0,-0.35,0.85,0.15,1],"mesh":5},{"matrix":[0.8212123745874306,0.2094601188724622,-0.5307887474564694,0,-0.08239607431674402,0.9639712998135481,0.2529233482163482,0,0.5646424733950355,-0.1639688742954362,0.8088838516750252,0,-0.35,0.85,0.17,1],"mesh":6},{"matrix":[1.3,0,0,0,0,0.8,0,0,0,0,0.5,0,-0.32,0.9,0.22,1],"mesh":7},{"matrix":[1.3,0,0,0,0,0.8,0,0,0,0,0.5,0,-0.4,0.8,0.2,1],"mesh":8},{"matrix":[1.3,0,0,0,0,0.8,0,0,0,0,0.5,0,-0.28,0.78,0.21,1],"mesh":9},{"children":[0,1,2,3,4,5,6,7,8,9]}],"bufferViews":[{"buffer":0,"byteOffset":0,"byteLength":612,"target":34962,"byteStride":12},{"buffer":0,"byteOffset":612,"byteLength":612,"target":34962,"byteStride":12},{"buffer":0,"byteOffset":1224,"byteLength":408,"target":34962,"byteStride":8},{"buffer":0,"byteOffset":1632,"byteLength":216,"target":34963},{"buffer":0,"byteOffset":1848,"byteLength":912,"target":34962,"byteStride":12},{"buffer":0,"byteOffset":2760,"byteLength":912,"target":34962,"byteStride":12},{"buffer":0,"byteOffset":3672,"byteLength":608,"target":34962,"byteStride":8},{"buffer":0,"byteOffset":4280,"byteLength":288,"target":34963},{"buffer":0,"byteOffset":4568,"byteLength":2028,"target":34962,"byteStride":12},{"buffer":0,"byteOffset":6596,"byteLength":2028,"target":34962,"byteStride":12},{"buffer":0,"byteOffset":8624,"byteLength":1352,"target":34962,"byteStride":8},{"buffer":0,"byteOffset":9976,"byteLength":1584,"target":34963},{"buffer":0,"byteOffset":11560,"byteLength":1452,"target":34962,"byteStride":12},{"buffer":0,"byteOffset":13012,"byteLength":1452,"target":34962,"byteStride":12},{"buffer":0,"byteOffset":14464,"byteLength":968,"target":34962,"byteStride":8},{"buffer":0,"byteOffset":15432,"byteLength":1080,"target":34963},{"buffer":0,"byteOffset":16512,"byteLength":768,"target":34962,"byteStride":12},{"buffer":0,"byteOffset":17280,"byteLength":768,"target":34962,"byteStride":12},{"buffer":0,"byteOffset":18048,"byteLength":512,"target":34962,"byteStride":8},{"buffer":0,"byteOffset":18560,"byteLength":240,"target":34963},{"buffer":0,"byteOffset":18800,"byteLength":1488,"target":34962,"byteStride":12},{"buffer":0,"byteOffset":20288,"byteLength":1488,"target":34962,"byteStride":12},{"buffer":0,"byteOffset":21776,"byteLength":992,"target":34962,"byteStride":8},{"buffer":0,"byteOffset":22768,"byteLength":480,"target":34963},{"buffer":0,"byteOffset":23248,"byteLength":2268,"target":34962,"byteStride":12},{"buffer":0,"byteOffset":25516,"byteLength":2268,"target":34962,"byteStride":12},{"buffer":0,"byteOffset":27784,"byteLength":1512,"target":34962,"byteStride":8},{"buffer":0,"byteOffset":29296,"byteLength":1920,"target":34963},{"buffer":0,"byteOffset":31216,"byteLength":1452,"target":34962,"byteStride":12},{"buffer":0,"byteOffset":32668,"byteLength":1452,"target":34962,"byteStride":12},{"buffer":0,"byteOffset":34120,"byteLength":968,"target":34962,"byteStride":8},{"buffer":0,"byteOffset":35088,"byteLength":1080,"target":34963},{"buffer":0,"byteOffset":36168,"byteLength":1452,"target":34962,"byteStride":12},{"buffer":0,"byteOffset":37620,"byteLength":1452,"target":34962,"byteStride":12},{"buffer":0,"byteOffset":39072,"byteLength":968,"target":34962,"byteStride":8},{"buffer":0,"byteOffset":40040,"byteLength":1080,"target":34963},{"buffer":0,"byteOffset":41120,"byteLength":1452,"target":34962,"byteStride":12},{"buffer":0,"byteOffset":42572,"byteLength":1452,"target":34962,"byteStride":12},{"buffer":0,"byteOffset":44024,"byteLength":968,"target":34962,"byteStride":8},{"buffer":0,"byteOffset":44992,"byteLength":1080,"target":34963}],"buffers":[{"byteLength":46072,"uri":"data:application/octet-stream;base64,"}],"accessors":[{"bufferView":0,"componentType":5126,"count":51,"max":[0.3199999928474426,0.5,0.3199999928474426],"min":[-0.3199999928474426,-0.5,-0.3199999928474426],"type":"VEC3"},{"bufferView":1,"componentType":5126,"count":51,"max":[0.952424168586731,0.3047757148742676,0.952424168586731],"min":[-0.952424168586731,-1,-0.952424168586731],"type":"VEC3"},{"bufferView":2,"componentType":5126,"count":51,"max":[1,1],"min":[0,0],"type":"VEC2"},{"bufferView":3,"componentType":5123,"count":108,"max":[50],"min":[0],"type":"SCALAR"},{"bufferView":4,"componentType":5126,"count":76,"max":[0.20000000298023224,0.20000000298023224,0.20000000298023224],"min":[-0.20000000298023224,-0.20000000298023224,-0.20000000298023224],"type":"VEC3"},{"bufferView":5,"componentType":5126,"count":76,"max":[0.9889363646507263,1,0.9889363646507263],"min":[-0.9889363646507263,-1,-0.9889363646507263],"type":"VEC3"},{"bufferView":6,"componentType":5126,"count":76,"max":[1,1],"min":[0,0],"type":"VEC2"},{"bufferView":7,"componentType":5123,"count":144,"max":[75],"min":[0],"type":"SCALAR"},{"bufferView":8,"componentType":5126,"count":169,"max":[0.10999999940395355,0.10999999940395355,0.10999999940395355],"min":[-0.10999999940395355,-0.10999999940395355,-0.10999999940395355],"type":"VEC3"},{"bufferView":9,"componentType":5126,"count":169,"max":[1,1,1],"min":[-1,-1,-1],"type":"VEC3"},{"bufferView":10,"componentType":5126,"count":169,"max":[1.0416666269302368,1],"min":[-0.0416666679084301,0],"type":"VEC2"},{"bufferView":11,"componentType":5123,"count":792,"max":[168],"min":[0],"type":"SCALAR"},{"bufferView":12,"componentType":5126,"count":121,"max":[0.11999999731779099,0.11999999731779099,0.1141267791390419],"min":[-0.11999999731779099,-0.11999999731779099,-0.1141267791390419],"type":"VEC3"},{"bufferView":13,"componentType":5126,"count":121,"max":[1,1,0.9510565400123596],"min":[-1,-1,-0.9510565400123596],"type":"VEC3"},{"bufferView":14,"componentType":5126,"count":121,"max":[1.0499999523162842,1],"min":[-0.05000000074505806,0],"type":"VEC2"},{"bufferView":15,"componentType":5123,"count":540,"max":[120],"min":[0],"type":"SCALAR"},{"bufferView":16,"componentType":5126,"count":64,"max":[0.04755282402038574,0.20000000298023224,0.05000000074505806],"min":[-0.04755282402038574,-0.20000000298023224,-0.05000000074505806],"type":"VEC3"},{"bufferView":17,"componentType":5126,"count":64,"max":[0.9507594704627991,1,0.999687671661377],"min":[-0.9507594704627991,-1,-0.999687671661377],"type":"VEC3"},{"bufferView":18,"componentType":5126,"count":64,"max":[1,1],"min":[0,0],"type":"VEC2"},{"bufferView":19,"componentType":5123,"count":120,"max":[63],"min":[0],"type":"SCALAR"},{"bufferView":20,"componentType":5126,"count":124,"max":[0.3499999940395355,0.019999999552965164,0.3499999940395355],"min":[-0.3499999940395355,-0.019999999552965164,-0.3499999940395355],"type":"VEC3"},{"bufferView":21,"componentType":5126,"count":124,"max":[1,1,1],"min":[-1,-1,-1],"type":"VEC3"},{"bufferView":22,"componentType":5126,"count":124,"max":[1,1],"min":[0,0],"type":"VEC2"},{"bufferView":23,"componentType":5123,"count":240,"max":[123],"min":[0],"type":"SCALAR"},{"bufferView":24,"componentType":5126,"count":189,"max":[0.3799999952316284,0.3799999952316284,0.029999999329447746],"min":[-0.3799999952316284,-0.3799999952316284,-0.029999999329447746],"type":"VEC3"},{"bufferView":25,"componentType":5126,"count":189,"max":[1,1,1],"min":[-1,-1,-1],"type":"VEC3"},{"bufferView":26,"componentType":5126,"count":189,"max":[1,1],"min":[0,0],"type":"VEC2"},{"bufferView":27,"componentType":5123,"count":960,"max":[188],"min":[0],"type":"SCALAR"},{"bufferView":28,"componentType":5126,"count":121,"max":[0.07999999821186066,0.07999999821186066,0.07608452439308167],"min":[-0.07999999821186066,-0.07999999821186066,-0.07608452439308167],"type":"VEC3"},{"bufferView":29,"componentType":5126,"count":121,"max":[1,1,0.9510565400123596],"min":[-1,-1,-0.9510565400123596],"type":"VEC3"},{"bufferView":30,"componentType":5126,"count":121,"max":[1.0499999523162842,1],"min":[-0.05000000074505806,0],"type":"VEC2"},{"bufferView":31,"componentType":5123,"count":540,"max":[120],"min":[0],"type":"SCALAR"},{"bufferView":32,"componentType":5126,"count":121,"max":[0.07999999821186066,0.07999999821186066,0.07608452439308167],"min":[-0.07999999821186066,-0.07999999821186066,-0.07608452439308167],"type":"VEC3"},{"bufferView":33,"componentType":5126,"count":121,"max":[1,1,0.9510565400123596],"min":[-1,-1,-0.9510565400123596],"type":"VEC3"},{"bufferView":34,"componentType":5126,"count":121,"max":[1.0499999523162842,1],"min":[-0.05000000074505806,0],"type":"VEC2"},{"bufferView":35,"componentType":5123,"count":540,"max":[120],"min":[0],"type":"SCALAR"},{"bufferView":36,"componentType":5126,"count":121,"max":[0.07999999821186066,0.07999999821186066,0.07608452439308167],"min":[-0.07999999821186066,-0.07999999821186066,-0.07608452439308167],"type":"VEC3"},{"bufferView":37,"componentType":5126,"count":121,"max":[1,1,0.9510565400123596],"min":[-1,-1,-0.9510565400123596],"type":"VEC3"},{"bufferView":38,"componentType":5126,"count":121,"max":[1.0499999523162842,1],"min":[-0.05000000074505806,0],"type":"VEC2"},{"bufferView":39,"componentType":5123,"count":540,"max":[120],"min":[0],"type":"SCALAR"}],"materials":[{"pbrMetallicRoughness":{"baseColorFactor":[0.8156862745098039,0.8,0.7686274509803922,1],"metallicFactor":0,"roughnessFactor":0.75}},{"pbrMetallicRoughness":{"baseColorFactor":[0.8470588235294118,0.8313725490196079,0.8,1],"metallicFactor":0,"roughnessFactor":0.7}}],"meshes":[{"primitives":[{"mode":4,"attributes":{"POSITION":0,"NORMAL":1,"TEXCOORD_0":2},"indices":3,"material":0}]},{"primitives":[{"mode":4,"attributes":{"POSITION":4,"NORMAL":5,"TEXCOORD_0":6},"indices":7,"material":0}]},{"primitives":[{"mode":4,"attributes":{"POSITION":8,"NORMAL":9,"TEXCOORD_0":10},"indices":11,"material":0}]},{"primitives":[{"mode":4,"attributes":{"POSITION":12,"NORMAL":13,"TEXCOORD_0":14},"indices":15,"material":0}]},{"primitives":[{"mode":4,"attributes":{"POSITION":16,"NORMAL":17,"TEXCOORD_0":18},"indices":19,"material":0}]},{"primitives":[{"mode":4,"attributes":{"POSITION":20,"NORMAL":21,"TEXCOORD_0":22},"indices":23,"material":1}]},{"primitives":[{"mode":4,"attributes":{"POSITION":24,"NORMAL":25,"TEXCOORD_0":26},"indices":27,"material":0}]},{"primitives":[{"mode":4,"attributes":{"POSITION":28,"NORMAL":29,"TEXCOORD_0":30},"indices":31,"material":0}]},{"primitives":[{"mode":4,"attributes":{"POSITION":32,"NORMAL":33,"TEXCOORD_0":34},"indices":35,"material":0}]},{"primitives":[{"mode":4,"attributes":{"POSITION":36,"NORMAL":37,"TEXCOORD_0":38},"indices":39,"material":0}]}]}