{"asset":{"version":"2.0","generator":"THREE.GLTFExporter"},"scenes":[{"nodes":[16]}],"scene":0,"nodes":[{"matrix":[1,0,0,0,0,1,0,0,0,0,1,0,0,0.52,0,1],"mesh":0},{"matrix":[1,0,0,0,0,1,0,0,0,0,1,0,0,1.1,0,1],"mesh":1},{"matrix":[1,0,0,0,0,1,0,0,0,0,1,0,0,1.42,0,1],"mesh":2},{"matrix":[1,0,0,0,0,2.220446049250313e-16,1,0,0,-1,2.220446049250313e-16,0,0,1.55,0,1],"mesh":3},{"matrix":[1,0,0,0,0,0.955336489125606,0.29552020666133955,0,0,-0.29552020666133955,0.955336489125606,0,0,1.62,0.08,1],"mesh":4},{"matrix":[0.966439417116043,0.2540099843039673,0.03838985436676422,0,-0.2568946341292537,0.9555873442217102,0.14442290164269525,0,-3.469446951953614e-18,-0.14943813247359924,0.9887710779360422,0,0.06928203230275509,1.62,0.04000000000000001,1],"mesh":5},{"matrix":[0.966439417116043,0.2540099843039674,-0.03838985436676421,0,-0.25689463412925373,0.9555873442217102,-0.1444229016426952,0,0,0.1494381324735992,0.9887710779360422,0,0.06928203230275509,1.62,-0.03999999999999998,1],"mesh":6},{"matrix":[1,3.5098493205490307e-17,-1.0857236255135214e-17,0,-3.673940397442059e-17,0.955336489125606,-0.29552020666133955,0,0,0.29552020666133955,0.955336489125606,0,9.797174393178826e-18,1.62,-0.08,1],"mesh":7},{"matrix":[0.966439417116043,-0.2540099843039672,0.03838985436676423,0,0.25689463412925356,0.9555873442217102,-0.14442290164269533,0,0,0.14943813247359933,0.9887710779360422,0,-0.06928203230275508,1.62,-0.040000000000000036,1],"mesh":8},{"matrix":[0.966439417116043,-0.2540099843039673,-0.03838985436676422,0,0.2568946341292537,0.9555873442217102,0.14442290164269525,0,3.469446951953614e-18,-0.14943813247359924,0.9887710779360422,0,-0.06928203230275509,1.62,0.04000000000000001,1],"mesh":9},{"matrix":[0.6967067093471654,0.7173560908995228,0,0,-0.7173560908995228,0.6967067093471654,0,0,0,0,1,0,-0.28,1.2,0,1],"mesh":10},{"matrix":[0.6967067093471654,-0.7173560908995228,0,0,0.7173560908995228,0.6967067093471654,0,0,0,0,1,0,0.28,1.2,0,1],"mesh":11},{"matrix":[0.8775825618903728,0.479425538604203,0,0,-0.479425538604203,0.8775825618903728,0,0,0,0,1,0,-0.42,1.38,0,1],"mesh":12},{"matrix":[0.8253356149096783,0.5646424733950353,0,0,-0.5646424733950353,0.8253356149096783,0,0,0,0,1,0,-0.39999999999999997,1.4,0,1],"mesh":13},{"matrix":[0.7648421872844884,0.644217687237691,0,0,-0.644217687237691,0.7648421872844884,0,0,0,0,1,0,-0.38,1.42,0,1],"mesh":14},{"matrix":[0.6967067093471654,0.7173560908995228,0,0,-0.7173560908995228,0.6967067093471654,0,0,0,0,1,0,-0.36,1.44,0,1],"mesh":15},{"children":[0,1,2,3,4,5,6,7,8,9,10,11,12,13,14,15]}],"bufferViews":[{"buffer":0,"byteOffset":0,"byteLength":612,"target":34962,"byteStride":12},{"buffer":0,"byteOffset":612,"byteLength":612,"target":34962,"byteStride":12},{"buffer":0,"byteOffset":1224,"byteLength":408,"target":34962,"byteStride":8},{"buffer":0,"byteOffset":1632,"byteLength":216,"target":34963},{"buffer":0,"byteOffset":1848,"byteLength":912,"target":34962,"byteStride":12},{"buffer":0,"byteOffset":2760,"byteLength":912,"target":34962,"byteStride":12},{"buffer":0,"byteOffset":3672,"byteLength":608,"target":34962,"byteStride":8},{"buffer":0,"byteOffset":4280,"byteLength":288,"target":34963},{"buffer":0,"byteOffset":4568,"byteLength":2028,"target":34962,"byteStride":12},{"buffer":0,"byteOffset":6596,"byteLength":2028,"target":34962,"byteStride":12},{"buffer":0,"byteOffset":8624,"byteLength":1352,"target":34962,"byteStride":8},{"buffer":0,"byteOffset":9976,"byteLength":1584,"target":34963},{"buffer":0,"byteOffset":11560,"byteLength":1836,"target":34962,"byteStride":12},{"buffer":0,"byteOffset":13396,"byteLength":1836,"target":34962,"byteStride":12},{"buffer":0,"byteOffset":15232,"byteLength":1224,"target":34962,"byteStride":8},{"buffer":0,"byteOffset":16456,"byteLength":1536,"target":34963},{"buffer":0,"byteOffset":17992,"byteLength":480,"target":34962,"byteStride":12},{"buffer":0,"byteOffset":18472,"byteLength":480,"target":34962,"byteStride":12},{"buffer":0,"byteOffset":18952,"byteLength":320,"target":34962,"byteStride":8},{"buffer":0,"byteOffset":19272,"byteLength":144,"target":34963},{"buffer":0,"byteOffset":19416,"byteLength":480,"target":34962,"byteStride":12},{"buffer":0,"byteOffset":19896,"byteLength":480,"target":34962,"byteStride":12},{"buffer":0,"byteOffset":20376,"byteLength":320,"target":34962,"byteStride":8},{"buffer":0,"byteOffset":20696,"byteLength":144,"target":34963},{"buffer":0,"byteOffset":20840,"byteLength":480,"target":34962,"byteStride":12},{"buffer":0,"byteOffset":21320,"byteLength":480,"target":34962,"byteStride":12},{"buffer":0,"byteOffset":21800,"byteLength":320,"target":34962,"byteStride":8},{"buffer":0,"byteOffset":22120,"byteLength":144,"target":34963},{"buffer":0,"byteOffset":22264,"byteLength":480,"target":34962,"byteStride":12},{"buffer":0,"byteOffset":22744,"byteLength":480,"target":34962,"byteStride":12},{"buffer":0,"byteOffset":23224,"byteLength":320,"target":34962,"byteStride":8},{"buffer":0,"byteOffset":23544,"byteLength":144,"target":34963},{"buffer":0,"byteOffset":23688,"byteLength":480,"target":34962,"byteStride":12},{"buffer":0,"byteOffset":24168,"byteLength":480,"target":34962,"byteStride":12},{"buffer":0,"byteOffset":24648,"byteLength":320,"target":34962,"byteStride":8},{"buffer":0,"byteOffset":24968,"byteLength":144,"target":34963},{"buffer":0,"byteOffset":25112,"byteLength":480,"target":34962,"byteStride":12},{"buffer":0,"byteOffset":25592,"byteLength":480,"target":34962,"byteStride":12},{"buffer":0,"byteOffset":26072,"byteLength":320,"target":34962,"byteStride":8},{"buffer":0,"byteOffset":26392,"byteLength":144,"target":34963},{"buffer":0,"byteOffset":26536,"byteLength":768,"target":34962,"byteStride":12},{"buffer":0,"byteOffset":27304,"byteLength":768,"target":34962,"byteStride":12},{"buffer":0,"byteOffset":28072,"byteLength":512,"target":34962,"byteStride":8},{"buffer":0,"byteOffset":28584,"byteLength":240,"target":34963},{"buffer":0,"byteOffset":28824,"byteLength":768,"target":34962,"byteStride":12},{"buffer":0,"byteOffset":29592,"byteLength":768,"target":34962,"byteStride":12},{"buffer":0,"byteOffset":30360,"byteLength":512,"target":34962,"byteStride":8},{"buffer":0,"byteOffset":30872,"byteLength":240,"target":34963},{"buffer":0,"byteOffset":31112,"byteLength":480,"target":34962,"byteStride":12},{"buffer":0,"byteOffset":31592,"byteLength":480,"target":34962,"byteStride":12},{"buffer":0,"byteOffset":32072,"byteLength":320,"target":34962,"byteStride":8},{"buffer":0,"byteOffset":32392,"byteLength":144,"target":34963},{"buffer":0,"byteOffset":32536,"byteLength":480,"target":34962,"byteStride":12},{"buffer":0,"byteOffset":33016,"byteLength":480,"target":34962,"byteStride":12},{"buffer":0,"byteOffset":33496,"byteLength":320,"target":34962,"byteStride":8},{"buffer":0,"byteOffset":33816,"byteLength":144,"target":34963},{"buffer":0,"byteOffset":33960,"byteLength":480,"target":34962,"byteStride":12},{"buffer":0,"byteOffset":34440,"byteLength":480,"target":34962,"byteStride":12},{"buffer":0,"byteOffset":34920,"byteLength":320,"target":34962,"byteStride":8},{"buffer":0,"byteOffset":35240,"byteLength":144,"target":34963},{"buffer":0,"byteOffset":35384,"byteLength":480,"target":34962,"byteStride":12},{"buffer":0,"byteOffset":35864,"byteLength":480,"target":34962,"byteStride":12},{"buffer":0,"byteOffset":36344,"byteLength":320,"target":34962,"byteStride":8},{"buffer":0,"byteOffset":36664,"byteLength":144,"target":34963}],"buffers":[{"byteLength":36808,"uri":"data:application/octet-stream;base64,"}],"accessors":[{"bufferView":0,"componentType":5126,"count":51,"max":[0.3199999928474426,0.5249999761581421,0.3199999928474426],"min":[-0.3199999928474426,-0.5249999761581421,-0.3199999928474426],"type":"VEC3"},{"bufferView":1,"componentType":5126,"count":51,"max":[0.9565634727478027,0.29152411222457886,0.9565634727478027],"min":[-0.9565634727478027,-1,-0.9565634727478027],"type":"VEC3"},{"bufferView":2,"componentType":5126,"count":51,"max":[1,1],"min":[0,0],"type":"VEC2"},{"bufferView":3,"componentType":5123,"count":108,"max":[50],"min":[0],"type":"SCALAR"},{"bufferView":4,"componentType":5126,"count":76,"max":[0.20000000298023224,0.20000000298023224,0.20000000298023224],"min":[-0.20000000298023224,-0.20000000298023224,-0.20000000298023224],"type":"VEC3"},{"bufferView":5,"componentType":5126,"count":76,"max":[0.9889363646507263,1,0.9889363646507263],"min":[-0.9889363646507263,-1,-0.9889363646507263],"type":"VEC3"},{"bufferView":6,"componentType":5126,"count":76,"max":[1,1],"min":[0,0],"type":"VEC2"},{"bufferView":7,"componentType":5123,"count":144,"max":[75],"min":[0],"type":"SCALAR"},{"bufferView":8,"componentType":5126,"count":169,"max":[0.11999999731779099,0.11999999731779099,0.11999999731779099],"min":[-0.11999999731779099,-0.11999999731779099,-0.11999999731779099],"type":"VEC3"},{"bufferView":9,"componentType":5126,"count":169,"max":[1,1,1],"min":[-1,-1,-1],"type":"VEC3"},{"bufferView":10,"componentType":5126,"count":169,"max":[1.0416666269302368,1],"min":[-0.0416666679084301,0],"type":"VEC2"},{"bufferView":11,"componentType":5123,"count":792,"max":[168],"min":[0],"type":"SCALAR"},{"bufferView":12,"componentType":5126,"count":153,"max":[0.11999999731779099,0.11999999731779099,0.019999999552965164],"min":[-0.11999999731779099,-0.11999999731779099,-0.019999999552965164],"type":"VEC3"},{"bufferView":13,"componentType":5126,"count":153,"max":[1,1,1],"min":[-1,-1,-1],"type":"VEC3"},{"bufferView":14,"componentType":5126,"count":153,"max":[1,1],"min":[0,0],"type":"VEC2"},{"bufferView":15,"componentType":5123,"count":768,"max":[152],"min":[0],"type":"SCALAR"},{"bufferView":16,"componentType":5126,"count":40,"max":[0.017320508137345314,0.07500000298023224,0.019999999552965164],"min":[-0.017320508137345314,-0.07500000298023224,-0.019999999552965164],"type":"VEC3"},{"bufferView":17,"componentType":5126,"count":40,"max":[0.8641073107719421,1,0.9977851510047913],"min":[-0.8641073107719421,-1,-0.9977851510047913],"type":"VEC3"},{"bufferView":18,"componentType":5126,"count":40,"max":[1,1],"min":[0,0],"type":"VEC2"},{"bufferView":19,"componentType":5123,"count":72,"max":[39],"min":[0],"type":"SCALAR"},{"bufferView":20,"componentType":5126,"count":40,"max":[0.017320508137345314,0.07500000298023224,0.019999999552965164],"min":[-0.017320508137345314,-0.07500000298023224,-0.019999999552965164],"type":"VEC3"},{"bufferView":21,"componentType":5126,"count":40,"max":[0.8641073107719421,1,0.9977851510047913],"min":[-0.8641073107719421,-1,-0.9977851510047913],"type":"VEC3"},{"bufferView":22,"componentType":5126,"count":40,"max":[1,1],"min":[0,0],"type":"VEC2"},{"bufferView":23,"componentType":5123,"count":72,"max":[39],"min":[0],"type":"SCALAR"},{"bufferView":24,"componentType":5126,"count":40,"max":[0.017320508137345314,0.07500000298023224,0.019999999552965164],"min":[-0.017320508137345314,-0.07500000298023224,-0.019999999552965164],"type":"VEC3"},{"bufferView":25,"componentType":5126,"count":40,"max":[0.8641073107719421,1,0.9977851510047913],"min":[-0.8641073107719421,-1,-0.9977851510047913],"type":"VEC3"},{"bufferView":26,"componentType":5126,"count":40,"max":[1,1],"min":[0,0],"type":"VEC2"},{"bufferView":27,"componentType":5123,"count":72,"max":[39],"min":[0],"type":"SCALAR"},{"bufferView":28,"componentType":5126,"count":40,"max":[0.017320508137345314,0.07500000298023224,0.019999999552965164],"min":[-0.017320508137345314,-0.07500000298023224,-0.019999999552965164],"type":"VEC3"},{"bufferView":29,"componentType":5126,"count":40,"max":[0.8641073107719421,1,0.9977851510047913],"min":[-0.8641073107719421,-1,-0.9977851510047913],"type":"VEC3"},{"bufferView":30,"componentType":5126,"count":40,"max":[1,1],"min":[0,0],"type":"VEC2"},{"bufferView":31,"componentType":5123,"count":72,"max":[39],"min":[0],"type":"SCALAR"},{"bufferView":32,"componentType":5126,"count":40,"max":[0.017320508137345314,0.07500000298023224,0.019999999552965164],"min":[-0.017320508137345314,-0.07500000298023224,-0.019999999552965164],"type":"VEC3"},{"bufferView":33,"componentType":5126,"count":40,"max":[0.8641073107719421,1,0.9977851510047913],"min":[-0.8641073107719421,-1,-0.9977851510047913],"type":"VEC3"},{"bufferView":34,"componentType":5126,"count":40,"max":[1,1],"min":[0,0],"type":"VEC2"},{"bufferView":35,"componentType":5123,"count":72,"max":[39],"min":[0],"type":"SCALAR"},{"bufferView":36,"componentType":5126,"count":40,"max":[0.017320508137345314,0.07500000298023224,0.019999999552965164],"min":[-0.017320508137345314,-0.07500000298023224,-0.019999999552965164],"type":"VEC3"},{"bufferView":37,"componentType":5126,"count":40,"max":[0.8641073107719421,1,0.9977851510047913],"min":[-0.8641073107719421,-1,-0.9977851510047913],"type":"VEC3"},{"bufferView":38,"componentType":5126,"count":40,"max":[1,1],"min":[0,0],"type":"VEC2"},{"bufferView":39,"componentType":5123,"count":72,"max":[39],"min":[0],"type":"SCALAR"},{"bufferView":40,"componentType":5126,"count":64,"max":[0.04755282402038574,0.1899999976158142,0.05000000074505806],"min":[-0.04755282402038574,-0.1899999976158142,-0.05000000074505806],"type":"VEC3"},{"bufferView":41,"componentType":5126,"count":64,"max":[0.9507274031639099,1,0.9996539354324341],"min":[-0.9507274031639099,-1,-0.9996539354324341],"type":"VEC3"},{"bufferView":42,"componentType":5126,"count":64,"max":[1,1],"min":[0,0],"type":"VEC2"},{"bufferView":43,"componentType":5123,"count":120,"max":[63],"min":[0],"type":"SCALAR"},{"bufferView":44,"componentType":5126,"count":64,"max":[0.04755282402038574,0.1899999976158142,0.05000000074505806],"min":[-0.04755282402038574,-0.1899999976158142,-0.05000000074505806],"type":"VEC3"},{"bufferView":45,"componentType":5126,"count":64,"max":[0.9507274031639099,1,0.9996539354324341],"min":[-0.9507274031639099,-1,-0.9996539354324341],"type":"VEC3"},{"bufferView":46,"componentType":5126,"count":64,"max":[1,1],"min":[0,0],"type":"VEC2"},{"bufferView":47,"componentType":5123,"count":120,"max":[63],"min":[0],"type":"SCALAR"},{"bufferView":48,"componentType":5126,"count":40,"max":[0.012990380637347698,0.03999999910593033,0.014999999664723873],"min":[-0.012990380637347698,-0.03999999910593033,-0.014999999664723873],"type":"VEC3"},{"bufferView":49,"componentType":5126,"count":40,"max":[0.8627290725708008,1,0.9961937069892883],"min":[-0.8627290725708008,-1,-0.9961937069892883],"type":"VEC3"},{"bufferView":50,"componentType":5126,"count":40,"max":[1,1],"min":[0,0],"type":"VEC2"},{"bufferView":51,"componentType":5123,"count":72,"max":[39],"min":[0],"type":"SCALAR"},{"bufferView":52,"componentType":5126,"count":40,"max":[0.012990380637347698,0.03999999910593033,0.014999999664723873],"min":[-0.012990380637347698,-0.03999999910593033,-0.014999999664723873],"type":"VEC3"},{"bufferView":53,"componentType":5126,"count":40,"max":[0.8627290725708008,1,0.9961937069892883],"min":[-0.8627290725708008,-1,-0.9961937069892883],"type":"VEC3"},{"bufferView":54,"componentType":5126,"count":40,"max":[1,1],"min":[0,0],"type":"VEC2"},{"bufferView":55,"componentType":5123,"count":72,"max":[39],"min":[0],"type":"SCALAR"},{"bufferView":56,"componentType":5126,"count":40,"max":[0.012990380637347698,0.03999999910593033,0.014999999664723873],"min":[-0.012990380637347698,-0.03999999910593033,-0.014999999664723873],"type":"VEC3"},{"bufferView":57,"componentType":5126,"count":40,"max":[0.8627290725708008,1,0.9961937069892883],"min":[-0.8627290725708008,-1,-0.9961937069892883],"type":"VEC3"},{"bufferView":58,"componentType":5126,"count":40,"max":[1,1],"min":[0,0],"type":"VEC2"},{"bufferView":59,"componentType":5123,"count":72,"max":[39],"min":[0],"type":"SCALAR"},{"bufferView":60,"componentType":5126,"count":40,"max":[0.012990380637347698,0.03999999910593033,0.014999999664723873],"min":[-0.012990380637347698,-0.03999999910593033,-0.014999999664723873],"type":"VEC3"},{"bufferView":61,"componentType":5126,"count":40,"max":[0.8627290725708008,1,0.9961937069892883],"min":[-0.8627290725708008,-1,-0.9961937069892883],"type":"VEC3"},{"bufferView":62,"componentType":5126,"count":40,"max":[1,1],"min":[0,0],"type":"VEC2"},{"bufferView":63,"componentType":5123,"count":72,"max":[39],"min":[0],"type":"SCALAR"}],"materials":[{"pbrMetallicRoughness":{"baseColorFactor":[0.8156862745098039,0.8,0.7686274509803922,1],"metallicFactor":0,"roughnessFactor":0.75}},{"pbrMetallicRoughness":{"baseColorFactor":[0.7843137254901961,0.7686274509803922,0.7372549019607844,1],"metallicFactor":0,"roughnessFactor":0.8}}],"meshes":[{"primitives":[{"mode":4,"attributes":{"POSITION":0,"NORMAL":1,"TEXCOORD_0":2},"indices":3,"material":0}]},{"primitives":[{"mode":4,"attributes":{"POSITION":4,"NORMAL":5,"TEXCOORD_0":6},"indices":7,"material":0}]},{"primitives":[{"mode":4,"attributes":{"POSITION":8,"NORMAL":9,"TEXCOORD_0":10},"indices":11,"material":0}]},{"primitives":[{"mode":4,"attributes":{"POSITION":12,"NORMAL":13,"TEXCOORD_0":14},"indices":15,"material":1}]},{"primitives":[{"mode":4,"attributes":{"POSITION":16,"NORMAL":17,"TEXCOORD_0":18},"indices":19,"material":1}]},{"primitives":[{"mode":4,"attributes":{"POSITION":20,"NORMAL":21,"TEXCOORD_0":22},"indices":23,"material":1}]},{"primitives":[{"mode":4,"attributes":{"POSITION":24,"NORMAL":25,"TEXCOORD_0":26},"indices":27,"material":1}]},{"primitives":[{"mode":4,"attributes":{"POSITION":28,"NORMAL":29,"TEXCOORD_0":30},"indices":31,"material":1}]},{"primitives":[{"mode":4,"attributes":{"POSITION":32,"NORMAL":33,"TEXCOORD_0":34},"indices":35,"material":1}]},{"primitives":[{"mode":4,"attributes":{"POSITION":36,"NORMAL":37,"TEXCOORD_0":38},"indices":39,"material":1}]},{"primitives":[{"mode":4,"attributes":{"POSITION":40,"NORMAL":41,"TEXCOORD_0":42},"indices":43,"material":0}]},{"primitives":[{"mode":4,"attributes":{"POSITION":44,"NORMAL":45,"TEXCOORD_0":46},"indices":47,"material":0}]},{"primitives":[{"mode":4,"attributes":{"POSITION":48,"NORMAL":49,"TEXCOORD_0":50},"indices":51,"material":1}]},{"primitives":[{"mode":4,"attributes":{"POSITION":52,"NORMAL":53,"TEXCOORD_0":54},"indices":55,"material":1}]},{"primitives":[{"mode":4,"attributes":{"POSITION":56,"NORMAL":57,"TEXCOORD_0":58},"indices":59,"material":1}]},{"primitives":[{"mode":4,"attributes":{"POSITION":60,"NORMAL":61,"TEXCOORD_0":62},"indices":63,"material":1}]}]}