{"asset":{"version":"2.0","generator":"THREE.GLTFExporter"},"scenes":[{"nodes":[6]}],"scene":0,"nodes":[{"matrix":[1,0,0,0,0,1,0,0,0,0,1,0,0,0.6,0,1],"mesh":0},{"matrix":[1,0,0,0,0,1,0,0,0,0,1,0,0,1.35,0,1],"mesh":1},{"matrix":[0.07500000000000001,0.12990381056766578,0,0,-0.8660254037844386,0.5000000000000001,0,0,0,0,0.8,0,-0.5,1,-0.1,1],"mesh":2},{"matrix":[0.07500000000000001,-0.12990381056766578,0,0,0.8660254037844386,0.5000000000000001,0,0,0,0,0.8,0,0.5,1,-0.1,1],"mesh":3},{"matrix":[0.7071067811865475,-0.7071067811865476,0,0,0.7071067811865476,0.7071067811865475,0,0,0,0,1,0,0.35,1.3,0.15,1],"mesh":4},{"matrix":[0.8090169943749475,-0.587785252292473,0,0,0.587785252292473,0.8090169943749475,0,0,0,0,1,0,0.18,1.15,0.1,1],"mesh":5},{"children":[0,1,2,3,4,5]}],"bufferViews":[{"buffer":0,"byteOffset":0,"byteLength":420,"target":34962,"byteStride":12},{"buffer":0,"byteOffset":420,"byteLength":420,"target":34962,"byteStride":12},{"buffer":0,"byteOffset":840,"byteLength":280,"target":34962,"byteStride":8},{"buffer":0,"byteOffset":1120,"byteLength":144,"target":34963},{"buffer":0,"byteOffset":1264,"byteLength":972,"target":34962,"byteStride":12},{"buffer":0,"byteOffset":2236,"byteLength":972,"target":34962,"byteStride":12},{"buffer":0,"byteOffset":3208,"byteLength":648,"target":34962,"byteStride":8},{"buffer":0,"byteOffset":3856,"byteLength":672,"target":34963},{"buffer":0,"byteOffset":4528,"byteLength":228,"target":34962,"byteStride":12},{"buffer":0,"byteOffset":4756,"byteLength":228,"target":34962,"byteStride":12},{"buffer":0,"byteOffset":4984,"byteLength":152,"target":34962,"byteStride":8},{"buffer":0,"byteOffset":5136,"byteLength":72,"target":34963},{"buffer":0,"byteOffset":5208,"byteLength":228,"target":34962,"byteStride":12},{"buffer":0,"byteOffset":5436,"byteLength":228,"target":34962,"byteStride":12},{"buffer":0,"byteOffset":5664,"byteLength":152,"target":34962,"byteStride":8},{"buffer":0,"byteOffset":5816,"byteLength":72,"target":34963},{"buffer":0,"byteOffset":5888,"byteLength":624,"target":34962,"byteStride":12},{"buffer":0,"byteOffset":6512,"byteLength":624,"target":34962,"byteStride":12},{"buffer":0,"byteOffset":7136,"byteLength":416,"target":34962,"byteStride":8},{"buffer":0,"byteOffset":7552,"byteLength":192,"target":34963},{"buffer":0,"byteOffset":7744,"byteLength":624,"target":34962,"byteStride":12},{"buffer":0,"byteOffset":8368,"byteLength":624,"target":34962,"byteStride":12},{"buffer":0,"byteOffset":8992,"byteLength":416,"target":34962,"byteStride":8},{"buffer":0,"byteOffset":9408,"byteLength":192,"target":34963}],"buffers":[{"byteLength":9600,"uri":"data:application/octet-stream;base64,"}],"accessors":[{"bufferView":0,"componentType":5126,"count":35,"max":[0.30000001192092896,0.6000000238418579,0.30000001192092896],"min":[-0.30000001192092896,-0.6000000238418579,-0.30000001192092896],"type":"VEC3"},{"bufferView":1,"componentType":5126,"count":35,"max":[0.9701424837112427,0.24253562092781067,0.9701424837112427],"min":[-0.9701424837112427,-1,-0.9701424837112427],"type":"VEC3"},{"bufferView":2,"componentType":5126,"count":35,"max":[1,1],"min":[0,0],"type":"VEC2"},{"bufferView":3,"componentType":5123,"count":72,"max":[34],"min":[0],"type":"SCALAR"},{"bufferView":4,"componentType":5126,"count":81,"max":[0.18000000715255737,0.18000000715255737,0.18000000715255737],"min":[-0.18000000715255737,-0.18000000715255737,-0.18000000715255737],"type":"VEC3"},{"bufferView":5,"componentType":5126,"count":81,"max":[1,1,1],"min":[-1,-1,-1],"type":"VEC3"},{"bufferView":6,"componentType":5126,"count":81,"max":[1.0625,1],"min":[-0.0625,0],"type":"VEC2"},{"bufferView":7,"componentType":5123,"count":336,"max":[80],"min":[0],"type":"SCALAR"},{"bufferView":8,"componentType":5126,"count":19,"max":[0.5,0.4000000059604645,0.5],"min":[-0.5,-0.4000000059604645,-0.5],"type":"VEC3"},{"bufferView":9,"componentType":5126,"count":19,"max":[0.847998321056366,0.5299989581108093,0.847998321056366],"min":[-0.847998321056366,-1,-0.847998321056366],"type":"VEC3"},{"bufferView":10,"componentType":5126,"count":19,"max":[1,1],"min":[0,0],"type":"VEC2"},{"bufferView":11,"componentType":5123,"count":36,"max":[18],"min":[0],"type":"SCALAR"},{"bufferView":12,"componentType":5126,"count":19,"max":[0.5,0.4000000059604645,0.5],"min":[-0.5,-0.4000000059604645,-0.5],"type":"VEC3"},{"bufferView":13,"componentType":5126,"count":19,"max":[0.847998321056366,0.5299989581108093,0.847998321056366],"min":[-0.847998321056366,-1,-0.847998321056366],"type":"VEC3"},{"bufferView":14,"componentType":5126,"count":19,"max":[1,1],"min":[0,0],"type":"VEC2"},{"bufferView":15,"componentType":5123,"count":36,"max":[18],"min":[0],"type":"SCALAR"},{"bufferView":16,"componentType":5126,"count":52,"max":[0.11999999731779099,0.25,0.11999999731779099],"min":[-0.11999999731779099,-0.25,-0.11999999731779099],"type":"VEC3"},{"bufferView":17,"componentType":5126,"count":52,"max":[0.9841833114624023,1,0.9841833114624023],"min":[-0.9841833114624023,-1,-0.9841833114624023],"type":"VEC3"},{"bufferView":18,"componentType":5126,"count":52,"max":[1,1],"min":[0,0],"type":"VEC2"},{"bufferView":19,"componentType":5123,"count":96,"max":[51],"min":[0],"type":"SCALAR"},{"bufferView":20,"componentType":5126,"count":52,"max":[0.05999999865889549,0.20000000298023224,0.05999999865889549],"min":[-0.05999999865889549,-0.20000000298023224,-0.05999999865889549],"type":"VEC3"},{"bufferView":21,"componentType":5126,"count":52,"max":[0.999687671661377,1,0.999687671661377],"min":[-0.999687671661377,-1,-0.999687671661377],"type":"VEC3"},{"bufferView":22,"componentType":5126,"count":52,"max":[1,1],"min":[0,0],"type":"VEC2"},{"bufferView":23,"componentType":5123,"count":96,"max":[51],"min":[0],"type":"SCALAR"}],"materials":[{"pbrMetallicRoughness":{"baseColorFactor":[0.8156862745098039,0.8,0.7686274509803922,1],"metallicFactor":0,"roughnessFactor":0.75}},{"pbrMetallicRoughness":{"baseColorFactor":[0.8470588235294118,0.8313725490196079,0.8,1],"metallicFactor":0,"roughnessFactor":0.7}},{"pbrMetallicRoughness":{"baseColorFactor":[0.7843137254901961,0.7686274509803922,0.7372549019607844,1],"metallicFactor":0,"roughnessFactor":0.8}}],"meshes":[{"primitives":[{"mode":4,"attributes":{"POSITION":0,"NORMAL":1,"TEXCOORD_0":2},"indices":3,"material":0}]},{"primitives":[{"mode":4,"attributes":{"POSITION":4,"NORMAL":5,"TEXCOORD_0":6},"indices":7,"material":0}]},{"primitives":[{"mode":4,"attributes":{"POSITION":8,"NORMAL":9,"TEXCOORD_0":10},"indices":11,"material":1}]},{"primitives":[{"mode":4,"attributes":{"POSITION":12,"NORMAL":13,"TEXCOORD_0":14},"indices":15,"material":1}]},{"primitives":[{"mode":4,"attributes":{"POSITION":16,"NORMAL":17,"TEXCOORD_0":18},"indices":19,"material":2}]},{"primitives":[{"mode":4,"attributes":{"POSITION":20,"NORMAL":21,"TEXCOORD_0":22},"indices":23,"material":0}]}]}