{"asset":{"version":"2.0","generator":"THREE.GLTFExporter"},"scenes":[{"nodes":[3]}],"scene":0,"nodes":[{"matrix":[0.9950041652780258,0.09983341664682815,0,0,-0.09983341664682815,0.9950041652780258,0,0,0,0,1,0,0,0.4,0,1],"mesh":0},{"matrix":[1,0,0,0,0,1,0,0,0,0,1,0,0.02,0.82,0,1],"mesh":1},{"matrix":[0.9788417498233435,-0.02992043065821425,-0.20241935834302502,0,0.048982913390461874,0.9947519479160024,0.08982892804159134,0,0.1986693307950613,-0.09784339500725575,0.9751703272018158,0,-0.02,0.02,0,1],"mesh":2},{"children":[0,1,2]}],"bufferViews":[{"buffer":0,"byteOffset":0,"byteLength":624,"target":34962,"byteStride":12},{"buffer":0,"byteOffset":624,"byteLength":624,"target":34962,"byteStride":12},{"buffer":0,"byteOffset":1248,"byteLength":416,"target":34962,"byteStride":8},{"buffer":0,"byteOffset":1664,"byteLength":192,"target":34963},{"buffer":0,"byteOffset":1856,"byteLength":972,"target":34962,"byteStride":12},{"buffer":0,"byteOffset":2828,"byteLength":972,"target":34962,"byteStride":12},{"buffer":0,"byteOffset":3800,"byteLength":648,"target":34962,"byteStride":8},{"buffer":0,"byteOffset":4448,"byteLength":672,"target":34963},{"buffer":0,"byteOffset":5120,"byteLength":288,"target":34962,"byteStride":12},{"buffer":0,"byteOffset":5408,"byteLength":288,"target":34962,"byteStride":12},{"buffer":0,"byteOffset":5696,"byteLength":192,"target":34962,"byteStride":8},{"buffer":0,"byteOffset":5888,"byteLength":72,"target":34963}],"buffers":[{"byteLength":5960,"uri":"data:application/octet-stream;base64,"}],"accessors":[{"bufferView":0,"componentType":5126,"count":52,"max":[0.11999999731779099,0.4000000059604645,0.11999999731779099],"min":[-0.11999999731779099,-0.4000000059604645,-0.11999999731779099],"type":"VEC3"},{"bufferView":1,"componentType":5126,"count":52,"max":[0.9987523555755615,1,0.9987523555755615],"min":[-0.9987523555755615,-1,-0.9987523555755615],"type":"VEC3"},{"bufferView":2,"componentType":5126,"count":52,"max":[1,1],"min":[0,0],"type":"VEC2"},{"bufferView":3,"componentType":5123,"count":96,"max":[51],"min":[0],"type":"SCALAR"},{"bufferView":4,"componentType":5126,"count":81,"max":[0.09000000357627869,0.09000000357627869,0.09000000357627869],"min":[-0.09000000357627869,-0.09000000357627869,-0.09000000357627869],"type":"VEC3"},{"bufferView":5,"componentType":5126,"count":81,"max":[1,1,1],"min":[-1,-1,-1],"type":"VEC3"},{"bufferView":6,"componentType":5126,"count":81,"max":[1.0625,1],"min":[-0.0625,0],"type":"VEC2"},{"bufferView":7,"componentType":5123,"count":336,"max":[80],"min":[0],"type":"SCALAR"},{"bufferView":8,"componentType":5126,"count":24,"max":[0.125,0.05999999865889549,0.10000000149011612],"min":[-0.125,-0.05999999865889549,-0.10000000149011612],"type":"VEC3"},{"bufferView":9,"componentType":5126,"count":24,"max":[1,1,1],"min":[-1,-1,-1],"type":"VEC3"},{"bufferView":10,"componentType":5126,"count":24,"max":[1,1],"min":[0,0],"type":"VEC2"},{"bufferView":11,"componentType":5123,"count":36,"max":[23],"min":[0],"type":"SCALAR"}],"materials":[{"pbrMetallicRoughness":{"baseColorFactor":[0.8156862745098039,0.8,0.7686274509803922,1],"metallicFactor":0,"roughnessFactor":0.75}},{"pbrMetallicRoughness":{"baseColorFactor":[0.7843137254901961,0.7686274509803922,0.7372549019607844,1],"metallicFactor":0,"roughnessFactor":0.8}}],"meshes":[{"primitives":[{"mode":4,"attributes":{"POSITION":0,"NORMAL":1,"TEXCOORD_0":2},"indices":3,"material":0}]},{"primitives":[{"mode":4,"attributes":{"POSITION":4,"NORMAL":5,"TEXCOORD_0":6},"indices":7,"material":0}]},{"primitives":[{"mode":4,"attributes":{"POSITION":8,"NORMAL":9,"TEXCOORD_0":10},"indices":11,"material":1}]}]}