{"asset":{"version":"2.0","generator":"THREE.GLTFExporter"},"scenes":[{"nodes":[9]}],"scene":0,"nodes":[{"matrix":[1.3,0,0,0,0,0.9,0,0,0,0,0.8,0,0,0.5,0,1],"mesh":0},{"matrix":[1,0,0,0,0,1,0,0,0,0,1,0,0.5,0.6,0,1],"mesh":1},{"matrix":[0.8775825618903728,0.479425538604203,0,0,-0.479425538604203,0.8775825618903728,0,0,0,0,1,0,0.7,0.35,0,1],"mesh":2},{"matrix":[1,0,0,0,0,1,0,0,0,0,1,0,-0.25,0.25,0.2,1],"mesh":3},{"matrix":[1,0,0,0,0,1,0,0,0,0,1,0,-0.25,0.25,-0.2,1],"mesh":4},{"matrix":[1,0,0,0,0,1,0,0,0,0,1,0,0.2,0.25,0.2,1],"mesh":5},{"matrix":[1,0,0,0,0,1,0,0,0,0,1,0,0.2,0.25,-0.2,1],"mesh":6},{"matrix":[1,0,0,0,0,1,0,0,0,0,1,0,0,1.1,0,1],"mesh":7},{"matrix":[1,0,0,0,0,1,0,0,0,0,1,0,0,1.45,0,1],"mesh":8},{"children":[0,1,2,3,4,5,6,7,8]}],"bufferViews":[{"buffer":0,"byteOffset":0,"byteLength":972,"target":34962,"byteStride":12},{"buffer":0,"byteOffset":972,"byteLength":972,"target":34962,"byteStride":12},{"buffer":0,"byteOffset":1944,"byteLength":648,"target":34962,"byteStride":8},{"buffer":0,"byteOffset":2592,"byteLength":672,"target":34963},{"buffer":0,"byteOffset":3264,"byteLength":972,"target":34962,"byteStride":12},{"buffer":0,"byteOffset":4236,"byteLength":972,"target":34962,"byteStride":12},{"buffer":0,"byteOffset":5208,"byteLength":648,"target":34962,"byteStride":8},{"buffer":0,"byteOffset":5856,"byteLength":672,"target":34963},{"buffer":0,"byteOffset":6528,"byteLength":624,"target":34962,"byteStride":12},{"buffer":0,"byteOffset":7152,"byteLength":624,"target":34962,"byteStride":12},{"buffer":0,"byteOffset":7776,"byteLength":416,"target":34962,"byteStride":8},{"buffer":0,"byteOffset":8192,"byteLength":192,"target":34963},{"buffer":0,"byteOffset":8384,"byteLength":624,"target":34962,"byteStride":12},{"buffer":0,"byteOffset":9008,"byteLength":624,"target":34962,"byteStride":12},{"buffer":0,"byteOffset":9632,"byteLength":416,"target":34962,"byteStride":8},{"buffer":0,"byteOffset":10048,"byteLength":192,"target":34963},{"buffer":0,"byteOffset":10240,"byteLength":624,"target":34962,"byteStride":12},{"buffer":0,"byteOffset":10864,"byteLength":624,"target":34962,"byteStride":12},{"buffer":0,"byteOffset":11488,"byteLength":416,"target":34962,"byteStride":8},{"buffer":0,"byteOffset":11904,"byteLength":192,"target":34963},{"buffer":0,"byteOffset":12096,"byteLength":624,"target":34962,"byteStride":12},{"buffer":0,"byteOffset":12720,"byteLength":624,"target":34962,"byteStride":12},{"buffer":0,"byteOffset":13344,"byteLength":416,"target":34962,"byteStride":8},{"buffer":0,"byteOffset":13760,"byteLength":192,"target":34963},{"buffer":0,"byteOffset":13952,"byteLength":624,"target":34962,"byteStride":12},{"buffer":0,"byteOffset":14576,"byteLength":624,"target":34962,"byteStride":12},{"buffer":0,"byteOffset":15200,"byteLength":416,"target":34962,"byteStride":8},{"buffer":0,"byteOffset":15616,"byteLength":192,"target":34963},{"buffer":0,"byteOffset":15808,"byteLength":288,"target":34962,"byteStride":12},{"buffer":0,"byteOffset":16096,"byteLength":288,"target":34962,"byteStride":12},{"buffer":0,"byteOffset":16384,"byteLength":192,"target":34962,"byteStride":8},{"buffer":0,"byteOffset":16576,"byteLength":72,"target":34963},{"buffer":0,"byteOffset":16648,"byteLength":624,"target":34962,"byteStride":12},{"buffer":0,"byteOffset":17272,"byteLength":624,"target":34962,"byteStride":12},{"buffer":0,"byteOffset":17896,"byteLength":416,"target":34962,"byteStride":8},{"buffer":0,"byteOffset":18312,"byteLength":192,"target":34963}],"buffers":[{"byteLength":18504,"uri":"data:application/octet-stream;base64,"}],"accessors":[{"bufferView":0,"componentType":5126,"count":81,"max":[0.5,0.5,0.5],"min":[-0.5,-0.5,-0.5],"type":"VEC3"},{"bufferView":1,"componentType":5126,"count":81,"max":[1,1,1],"min":[-1,-1,-1],"type":"VEC3"},{"bufferView":2,"componentType":5126,"count":81,"max":[1.0625,1],"min":[-0.0625,0],"type":"VEC2"},{"bufferView":3,"componentType":5123,"count":336,"max":[80],"min":[0],"type":"SCALAR"},{"bufferView":4,"componentType":5126,"count":81,"max":[0.25,0.25,0.25],"min":[-0.25,-0.25,-0.25],"type":"VEC3"},{"bufferView":5,"componentType":5126,"count":81,"max":[1,1,1],"min":[-1,-1,-1],"type":"VEC3"},{"bufferView":6,"componentType":5126,"count":81,"max":[1.0625,1],"min":[-0.0625,0],"type":"VEC2"},{"bufferView":7,"componentType":5123,"count":336,"max":[80],"min":[0],"type":"SCALAR"},{"bufferView":8,"componentType":5126,"count":52,"max":[0.10000000149011612,0.25,0.10000000149011612],"min":[-0.10000000149011612,-0.25,-0.10000000149011612],"type":"VEC3"},{"bufferView":9,"componentType":5126,"count":52,"max":[0.9968152642250061,1,0.9968152642250061],"min":[-0.9968152642250061,-1,-0.9968152642250061],"type":"VEC3"},{"bufferView":10,"componentType":5126,"count":52,"max":[1,1],"min":[0,0],"type":"VEC2"},{"bufferView":11,"componentType":5123,"count":96,"max":[51],"min":[0],"type":"SCALAR"},{"bufferView":12,"componentType":5126,"count":52,"max":[0.11999999731779099,0.25,0.11999999731779099],"min":[-0.11999999731779099,-0.25,-0.11999999731779099],"type":"VEC3"},{"bufferView":13,"componentType":5126,"count":52,"max":[0.9992009401321411,1,0.9992009401321411],"min":[-0.9992009401321411,-1,-0.9992009401321411],"type":"VEC3"},{"bufferView":14,"componentType":5126,"count":52,"max":[1,1],"min":[0,0],"type":"VEC2"},{"bufferView":15,"componentType":5123,"count":96,"max":[51],"min":[0],"type":"SCALAR"},{"bufferView":16,"componentType":5126,"count":52,"max":[0.11999999731779099,0.25,0.11999999731779099],"min":[-0.11999999731779099,-0.25,-0.11999999731779099],"type":"VEC3"},{"bufferView":17,"componentType":5126,"count":52,"max":[0.9992009401321411,1,0.9992009401321411],"min":[-0.9992009401321411,-1,-0.9992009401321411],"type":"VEC3"},{"bufferView":18,"componentType":5126,"count":52,"max":[1,1],"min":[0,0],"type":"VEC2"},{"bufferView":19,"componentType":5123,"count":96,"max":[51],"min":[0],"type":"SCALAR"},{"bufferView":20,"componentType":5126,"count":52,"max":[0.11999999731779099,0.25,0.11999999731779099],"min":[-0.11999999731779099,-0.25,-0.11999999731779099],"type":"VEC3"},{"bufferView":21,"componentType":5126,"count":52,"max":[0.9992009401321411,1,0.9992009401321411],"min":[-0.9992009401321411,-1,-0.9992009401321411],"type":"VEC3"},{"bufferView":22,"componentType":5126,"count":52,"max":[1,1],"min":[0,0],"type":"VEC2"},{"bufferView":23,"componentType":5123,"count":96,"max":[51],"min":[0],"type":"SCALAR"},{"bufferView":24,"componentType":5126,"count":52,"max":[0.11999999731779099,0.25,0.11999999731779099],"min":[-0.11999999731779099,-0.25,-0.11999999731779099],"type":"VEC3"},{"bufferView":25,"componentType":5126,"count":52,"max":[0.9992009401321411,1,0.9992009401321411],"min":[-0.9992009401321411,-1,-0.9992009401321411],"type":"VEC3"},{"bufferView":26,"componentType":5126,"count":52,"max":[1,1],"min":[0,0],"type":"VEC2"},{"bufferView":27,"componentType":5123,"count":96,"max":[51],"min":[0],"type":"SCALAR"},{"bufferView":28,"componentType":5126,"count":24,"max":[0.25,0.20000000298023224,0.20000000298023224],"min":[-0.25,-0.20000000298023224,-0.20000000298023224],"type":"VEC3"},{"bufferView":29,"componentType":5126,"count":24,"max":[1,1,1],"min":[-1,-1,-1],"type":"VEC3"},{"bufferView":30,"componentType":5126,"count":24,"max":[1,1],"min":[0,0],"type":"VEC2"},{"bufferView":31,"componentType":5123,"count":36,"max":[23],"min":[0],"type":"SCALAR"},{"bufferView":32,"componentType":5126,"count":52,"max":[0.11999999731779099,0.15000000596046448,0.11999999731779099],"min":[-0.11999999731779099,-0.15000000596046448,-0.11999999731779099],"type":"VEC3"},{"bufferView":33,"componentType":5126,"count":52,"max":[0.9977851510047913,1,0.9977851510047913],"min":[-0.9977851510047913,-1,-0.9977851510047913],"type":"VEC3"},{"bufferView":34,"componentType":5126,"count":52,"max":[1,1],"min":[0,0],"type":"VEC2"},{"bufferView":35,"componentType":5123,"count":96,"max":[51],"min":[0],"type":"SCALAR"}],"materials":[{"pbrMetallicRoughness":{"baseColorFactor":[0.8156862745098039,0.8,0.7686274509803922,1],"metallicFactor":0,"roughnessFactor":0.75}},{"pbrMetallicRoughness":{"baseColorFactor":[0.8470588235294118,0.8313725490196079,0.8,1],"metallicFactor":0,"roughnessFactor":0.7}}],"meshes":[{"primitives":[{"mode":4,"attributes":{"POSITION":0,"NORMAL":1,"TEXCOORD_0":2},"indices":3,"material":0}]},{"primitives":[{"mode":4,"attributes":{"POSITION":4,"NORMAL":5,"TEXCOORD_0":6},"indices":7,"material":0}]},{"primitives":[{"mode":4,"attributes":{"POSITION":8,"NORMAL":9,"TEXCOORD_0":10},"indices":11,"material":0}]},{"primitives":[{"mode":4,"attributes":{"POSITION":12,"NORMAL":13,"TEXCOORD_0":14},"indices":15,"material":0}]},{"primitives":[{"mode":4,"attributes":{"POSITION":16,"NORMAL":17,"TEXCOORD_0":18},"indices":19,"material":0}]},{"primitives":[{"mode":4,"attributes":{"POSITION":20,"NORMAL":21,"TEXCOORD_0":22},"indices":23,"material":0}]},{"primitives":[{"mode":4,"attributes":{"POSITION":24,"NORMAL":25,"TEXCOORD_0":26},"indices":27,"material":0}]},{"primitives":[{"mode":4,"attributes":{"POSITION":28,"NORMAL":29,"TEXCOORD_0":30},"indices":31,"material":1}]},{"primitives":[{"mode":4,"attributes":{"POSITION":32,"NORMAL":33,"TEXCOORD_0":34},"indices":35,"material":1}]}]}