{"asset":{"version":"2.0","generator":"THREE.GLTFExporter"},"scenes":[{"nodes":[13]}],"scene":0,"nodes":[{"matrix":[1,0,0,0,0,0.955336489125606,0.29552020666133955,0,0,-0.29552020666133955,0.955336489125606,0,0,0.55,0,1],"mesh":0},{"matrix":[1,0,0,0,0,0.9210609940028851,0.38941834230865047,0,0,-0.38941834230865047,0.9210609940028851,0,0,1,0.15,1],"mesh":1},{"matrix":[1,0,0,0,0,-1,1.2246467991473532e-16,0,0,-1.2246467991473532e-16,-1,0,0,0.95,0.28,1],"mesh":2},{"matrix":[1,0,0,0,0,1,0,0,0,0,1,0,0,0.85,0.4,1],"mesh":3},{"matrix":[1,0,0,0,0,1,0,0,0,0,1,0,0.1,0.78,0.38,1],"mesh":4},{"matrix":[1.3,0,0,0,0,0.8,0,0,0,0,0.9,0,0.08,0.7,0.35,1],"mesh":5},{"matrix":[1.3,0,0,0,0,0.8,0,0,0,0,0.9,0,-0.06,0.65,0.38,1],"mesh":6},{"matrix":[1.3,0,0,0,0,0.8,0,0,0,0,0.9,0,0.12,0.6,0.32,1],"mesh":7},{"matrix":[1.3,0,0,0,0,0.8,0,0,0,0,0.9,0,-0.1,0.55,0.35,1],"mesh":8},{"matrix":[1.3,0,0,0,0,0.8,0,0,0,0,0.9,0,0.05,0.5,0.38,1],"mesh":9},{"matrix":[0.6,0,0,0,0,0.7071067811865475,0.7071067811865476,0,0,-0.28284271247461906,0.282842712474619,0,0,0.6,0.38,1],"mesh":10},{"matrix":[0.9210609940028851,0.38941834230865047,0,0,-0.38941834230865047,0.9210609940028851,0,0,0,0,1,0,-0.25,0.65,0.05,1],"mesh":11},{"matrix":[0.9210609940028851,-0.38941834230865047,0,0,0.38941834230865047,0.9210609940028851,0,0,0,0,1,0,0.25,0.65,0.05,1],"mesh":12},{"children":[0,1,2,3,4,5,6,7,8,9,10,11,12]}],"bufferViews":[{"buffer":0,"byteOffset":0,"byteLength":1056,"target":34962,"byteStride":12},{"buffer":0,"byteOffset":1056,"byteLength":1056,"target":34962,"byteStride":12},{"buffer":0,"byteOffset":2112,"byteLength":704,"target":34962,"byteStride":8},{"buffer":0,"byteOffset":2816,"byteLength":336,"target":34963},{"buffer":0,"byteOffset":3152,"byteLength":2028,"target":34962,"byteStride":12},{"buffer":0,"byteOffset":5180,"byteLength":2028,"target":34962,"byteStride":12},{"buffer":0,"byteOffset":7208,"byteLength":1352,"target":34962,"byteStride":8},{"buffer":0,"byteOffset":8560,"byteLength":1584,"target":34963},{"buffer":0,"byteOffset":10144,"byteLength":1404,"target":34962,"byteStride":12},{"buffer":0,"byteOffset":11548,"byteLength":1404,"target":34962,"byteStride":12},{"buffer":0,"byteOffset":12952,"byteLength":936,"target":34962,"byteStride":8},{"buffer":0,"byteOffset":13888,"byteLength":1152,"target":34963},{"buffer":0,"byteOffset":15040,"byteLength":2028,"target":34962,"byteStride":12},{"buffer":0,"byteOffset":17068,"byteLength":2028,"target":34962,"byteStride":12},{"buffer":0,"byteOffset":19096,"byteLength":1352,"target":34962,"byteStride":8},{"buffer":0,"byteOffset":20448,"byteLength":1584,"target":34963},{"buffer":0,"byteOffset":22032,"byteLength":1452,"target":34962,"byteStride":12},{"buffer":0,"byteOffset":23484,"byteLength":1452,"target":34962,"byteStride":12},{"buffer":0,"byteOffset":24936,"byteLength":968,"target":34962,"byteStride":8},{"buffer":0,"byteOffset":25904,"byteLength":1080,"target":34963},{"buffer":0,"byteOffset":26984,"byteLength":972,"target":34962,"byteStride":12},{"buffer":0,"byteOffset":27956,"byteLength":972,"target":34962,"byteStride":12},{"buffer":0,"byteOffset":28928,"byteLength":648,"target":34962,"byteStride":8},{"buffer":0,"byteOffset":29576,"byteLength":672,"target":34963},{"buffer":0,"byteOffset":30248,"byteLength":972,"target":34962,"byteStride":12},{"buffer":0,"byteOffset":31220,"byteLength":972,"target":34962,"byteStride":12},{"buffer":0,"byteOffset":32192,"byteLength":648,"target":34962,"byteStride":8},{"buffer":0,"byteOffset":32840,"byteLength":672,"target":34963},{"buffer":0,"byteOffset":33512,"byteLength":972,"target":34962,"byteStride":12},{"buffer":0,"byteOffset":34484,"byteLength":972,"target":34962,"byteStride":12},{"buffer":0,"byteOffset":35456,"byteLength":648,"target":34962,"byteStride":8},{"buffer":0,"byteOffset":36104,"byteLength":672,"target":34963},{"buffer":0,"byteOffset":36776,"byteLength":972,"target":34962,"byteStride":12},{"buffer":0,"byteOffset":37748,"byteLength":972,"target":34962,"byteStride":12},{"buffer":0,"byteOffset":38720,"byteLength":648,"target":34962,"byteStride":8},{"buffer":0,"byteOffset":39368,"byteLength":672,"target":34963},{"buffer":0,"byteOffset":40040,"byteLength":972,"target":34962,"byteStride":12},{"buffer":0,"byteOffset":41012,"byteLength":972,"target":34962,"byteStride":12},{"buffer":0,"byteOffset":41984,"byteLength":648,"target":34962,"byteStride":8},{"buffer":0,"byteOffset":42632,"byteLength":672,"target":34963},{"buffer":0,"byteOffset":43304,"byteLength":768,"target":34962,"byteStride":12},{"buffer":0,"byteOffset":44072,"byteLength":768,"target":34962,"byteStride":12},{"buffer":0,"byteOffset":44840,"byteLength":512,"target":34962,"byteStride":8},{"buffer":0,"byteOffset":45352,"byteLength":240,"target":34963},{"buffer":0,"byteOffset":45592,"byteLength":768,"target":34962,"byteStride":12},{"buffer":0,"byteOffset":46360,"byteLength":768,"target":34962,"byteStride":12},{"buffer":0,"byteOffset":47128,"byteLength":512,"target":34962,"byteStride":8},{"buffer":0,"byteOffset":47640,"byteLength":240,"target":34963},{"buffer":0,"byteOffset":47880,"byteLength":768,"target":34962,"byteStride":12},{"buffer":0,"byteOffset":48648,"byteLength":768,"target":34962,"byteStride":12},{"buffer":0,"byteOffset":49416,"byteLength":512,"target":34962,"byteStride":8},{"buffer":0,"byteOffset":49928,"byteLength":240,"target":34963}],"buffers":[{"byteLength":50168,"uri":"data:application/octet-stream;base64,"}],"accessors":[{"bufferView":0,"componentType":5126,"count":88,"max":[0.24373197555541992,0.3499999940395355,0.25],"min":[-0.24373197555541992,-0.3499999940395355,-0.25],"type":"VEC3"},{"bufferView":1,"componentType":5126,"count":88,"max":[0.972450315952301,1,0.9974586963653564],"min":[-0.972450315952301,-1,-0.9974586963653564],"type":"VEC3"},{"bufferView":2,"componentType":5126,"count":88,"max":[1,1],"min":[0,0],"type":"VEC2"},{"bufferView":3,"componentType":5123,"count":168,"max":[87],"min":[0],"type":"SCALAR"},{"bufferView":4,"componentType":5126,"count":169,"max":[0.14000000059604645,0.14000000059604645,0.14000000059604645],"min":[-0.14000000059604645,-0.14000000059604645,-0.14000000059604645],"type":"VEC3"},{"bufferView":5,"componentType":5126,"count":169,"max":[1,1,1],"min":[-1,-1,-1],"type":"VEC3"},{"bufferView":6,"componentType":5126,"count":169,"max":[1.0416666269302368,1],"min":[-0.0416666679084301,0],"type":"VEC2"},{"bufferView":7,"componentType":5123,"count":792,"max":[168],"min":[0],"type":"SCALAR"},{"bufferView":8,"componentType":5126,"count":117,"max":[0.06499999761581421,0.06499999761581421,0.014999999664723873],"min":[-0.06499999761581421,0,-0.014999999664723873],"type":"VEC3"},{"bufferView":9,"componentType":5126,"count":117,"max":[1,1,1],"min":[-1,-1,-1],"type":"VEC3"},{"bufferView":10,"componentType":5126,"count":117,"max":[1,1],"min":[0,0],"type":"VEC2"},{"bufferView":11,"componentType":5123,"count":576,"max":[116],"min":[0],"type":"SCALAR"},{"bufferView":12,"componentType":5126,"count":169,"max":[0.07999999821186066,0.07999999821186066,0.07999999821186066],"min":[-0.07999999821186066,-0.07999999821186066,-0.07999999821186066],"type":"VEC3"},{"bufferView":13,"componentType":5126,"count":169,"max":[1,1,1],"min":[-1,-1,-1],"type":"VEC3"},{"bufferView":14,"componentType":5126,"count":169,"max":[1.0416666269302368,1],"min":[-0.0416666679084301,0],"type":"VEC2"},{"bufferView":15,"componentType":5123,"count":792,"max":[168],"min":[0],"type":"SCALAR"},{"bufferView":16,"componentType":5126,"count":121,"max":[0.05000000074505806,0.05000000074505806,0.04755282402038574],"min":[-0.05000000074505806,-0.05000000074505806,-0.04755282402038574],"type":"VEC3"},{"bufferView":17,"componentType":5126,"count":121,"max":[1,1,0.9510565400123596],"min":[-1,-1,-0.9510565400123596],"type":"VEC3"},{"bufferView":18,"componentType":5126,"count":121,"max":[1.0499999523162842,1],"min":[-0.05000000074505806,0],"type":"VEC2"},{"bufferView":19,"componentType":5123,"count":540,"max":[120],"min":[0],"type":"SCALAR"},{"bufferView":20,"componentType":5126,"count":81,"max":[0.02500000037252903,0.02500000037252903,0.02500000037252903],"min":[-0.02500000037252903,-0.02500000037252903,-0.02500000037252903],"type":"VEC3"},{"bufferView":21,"componentType":5126,"count":81,"max":[1,1,1],"min":[-1,-1,-1],"type":"VEC3"},{"bufferView":22,"componentType":5126,"count":81,"max":[1.0625,1],"min":[-0.0625,0],"type":"VEC2"},{"bufferView":23,"componentType":5123,"count":336,"max":[80],"min":[0],"type":"SCALAR"},{"bufferView":24,"componentType":5126,"count":81,"max":[0.02800000086426735,0.02800000086426735,0.02800000086426735],"min":[-0.02800000086426735,-0.02800000086426735,-0.02800000086426735],"type":"VEC3"},{"bufferView":25,"componentType":5126,"count":81,"max":[1,1,1],"min":[-1,-1,-1],"type":"VEC3"},{"bufferView":26,"componentType":5126,"count":81,"max":[1.0625,1],"min":[-0.0625,0],"type":"VEC2"},{"bufferView":27,"componentType":5123,"count":336,"max":[80],"min":[0],"type":"SCALAR"},{"bufferView":28,"componentType":5126,"count":81,"max":[0.03099999949336052,0.03099999949336052,0.03099999949336052],"min":[-0.03099999949336052,-0.03099999949336052,-0.03099999949336052],"type":"VEC3"},{"bufferView":29,"componentType":5126,"count":81,"max":[1,1,1],"min":[-1,-1,-1],"type":"VEC3"},{"bufferView":30,"componentType":5126,"count":81,"max":[1.0625,1],"min":[-0.0625,0],"type":"VEC2"},{"bufferView":31,"componentType":5123,"count":336,"max":[80],"min":[0],"type":"SCALAR"},{"bufferView":32,"componentType":5126,"count":81,"max":[0.03400000184774399,0.03400000184774399,0.03400000184774399],"min":[-0.03400000184774399,-0.03400000184774399,-0.03400000184774399],"type":"VEC3"},{"bufferView":33,"componentType":5126,"count":81,"max":[1,1,1],"min":[-1,-1,-1],"type":"VEC3"},{"bufferView":34,"componentType":5126,"count":81,"max":[1.0625,1],"min":[-0.0625,0],"type":"VEC2"},{"bufferView":35,"componentType":5123,"count":336,"max":[80],"min":[0],"type":"SCALAR"},{"bufferView":36,"componentType":5126,"count":81,"max":[0.03700000047683716,0.03700000047683716,0.03700000047683716],"min":[-0.03700000047683716,-0.03700000047683716,-0.03700000047683716],"type":"VEC3"},{"bufferView":37,"componentType":5126,"count":81,"max":[1,1,1],"min":[-1,-1,-1],"type":"VEC3"},{"bufferView":38,"componentType":5126,"count":81,"max":[1.0625,1],"min":[-0.0625,0],"type":"VEC2"},{"bufferView":39,"componentType":5123,"count":336,"max":[80],"min":[0],"type":"SCALAR"},{"bufferView":40,"componentType":5126,"count":64,"max":[0.14265847206115723,0.25,0.15000000596046448],"min":[-0.14265847206115723,-0.25,-0.15000000596046448],"type":"VEC3"},{"bufferView":41,"componentType":5126,"count":64,"max":[0.9418709874153137,1,0.9903417229652405],"min":[-0.9418709874153137,-1,-0.9903417229652405],"type":"VEC3"},{"bufferView":42,"componentType":5126,"count":64,"max":[1,1],"min":[0,0],"type":"VEC2"},{"bufferView":43,"componentType":5123,"count":120,"max":[63],"min":[0],"type":"SCALAR"},{"bufferView":44,"componentType":5126,"count":64,"max":[0.05706338956952095,0.17499999701976776,0.05999999865889549],"min":[-0.05706338956952095,-0.17499999701976776,-0.05999999865889549],"type":"VEC3"},{"bufferView":45,"componentType":5126,"count":64,"max":[0.9506685733795166,1,0.9995920658111572],"min":[-0.9506685733795166,-1,-0.9995920658111572],"type":"VEC3"},{"bufferView":46,"componentType":5126,"count":64,"max":[1,1],"min":[0,0],"type":"VEC2"},{"bufferView":47,"componentType":5123,"count":120,"max":[63],"min":[0],"type":"SCALAR"},{"bufferView":48,"componentType":5126,"count":64,"max":[0.05706338956952095,0.17499999701976776,0.05999999865889549],"min":[-0.05706338956952095,-0.17499999701976776,-0.05999999865889549],"type":"VEC3"},{"bufferView":49,"componentType":5126,"count":64,"max":[0.9506685733795166,1,0.9995920658111572],"min":[-0.9506685733795166,-1,-0.9995920658111572],"type":"VEC3"},{"bufferView":50,"componentType":5126,"count":64,"max":[1,1],"min":[0,0],"type":"VEC2"},{"bufferView":51,"componentType":5123,"count":120,"max":[63],"min":[0],"type":"SCALAR"}],"materials":[{"pbrMetallicRoughness":{"baseColorFactor":[0.8156862745098039,0.8,0.7686274509803922,1],"metallicFactor":0,"roughnessFactor":0.75}},{"pbrMetallicRoughness":{"baseColorFactor":[0.7843137254901961,0.7686274509803922,0.7372549019607844,1],"metallicFactor":0,"roughnessFactor":0.8}},{"pbrMetallicRoughness":{"baseColorFactor":[0.8470588235294118,0.8313725490196079,0.8,1],"metallicFactor":0,"roughnessFactor":0.7}}],"meshes":[{"primitives":[{"mode":4,"attributes":{"POSITION":0,"NORMAL":1,"TEXCOORD_0":2},"indices":3,"material":0}]},{"primitives":[{"mode":4,"attributes":{"POSITION":4,"NORMAL":5,"TEXCOORD_0":6},"indices":7,"material":0}]},{"primitives":[{"mode":4,"attributes":{"POSITION":8,"NORMAL":9,"TEXCOORD_0":10},"indices":11,"material":1}]},{"primitives":[{"mode":4,"attributes":{"POSITION":12,"NORMAL":13,"TEXCOORD_0":14},"indices":15,"material":2}]},{"primitives":[{"mode":4,"attributes":{"POSITION":16,"NORMAL":17,"TEXCOORD_0":18},"indices":19,"material":2}]},{"primitives":[{"mode":4,"attributes":{"POSITION":20,"NORMAL":21,"TEXCOORD_0":22},"indices":23,"material":0}]},{"primitives":[{"mode":4,"attributes":{"POSITION":24,"NORMAL":25,"TEXCOORD_0":26},"indices":27,"material":0}]},{"primitives":[{"mode":4,"attributes":{"POSITION":28,"NORMAL":29,"TEXCOORD_0":30},"indices":31,"material":0}]},{"primitives":[{"mode":4,"attributes":{"POSITION":32,"NORMAL":33,"TEXCOORD_0":34},"indices":35,"material":0}]},{"primitives":[{"mode":4,"attributes":{"POSITION":36,"NORMAL":37,"TEXCOORD_0":38},"indices":39,"material":0}]},{"primitives":[{"mode":4,"attributes":{"POSITION":40,"NORMAL":41,"TEXCOORD_0":42},"indices":43,"material":2}]},{"primitives":[{"mode":4,"attributes":{"POSITION":44,"NORMAL":45,"TEXCOORD_0":46},"indices":47,"material":0}]},{"primitives":[{"mode":4,"attributes":{"POSITION":48,"NORMAL":49,"TEXCOORD_0":50},"indices":51,"material":0}]}]}