{"asset":{"version":"2.0","generator":"THREE.GLTFExporter"},"scenes":[{"nodes":[11]}],"scene":0,"nodes":[{"matrix":[1,0,0,0,0,2.220446049250313e-16,1,0,0,-1,2.220446049250313e-16,0,0,0.1,0,1],"mesh":0},{"matrix":[1,0,0,0,0,1,0,0,0,0,1,0,0,0.08,0,1],"mesh":1},{"matrix":[1,0,0,0,0,1,0,0,0,0,1,0,0,0.5,0,1],"mesh":2},{"matrix":[1,0,0,0,0,1,0,0,0,0,0.6,0,0,0.25,0,1],"mesh":3},{"matrix":[1,0,0,0,0,1,0,0,0,0,1,0,0,0.88,0,1],"mesh":4},{"matrix":[1,0,0,0,0,1,0,0,0,0,1,0,0,1.15,0,1],"mesh":5},{"matrix":[1,0,0,0,0,0.9950041652780258,0.09983341664682815,0,0,-0.09983341664682815,0.9950041652780258,0,0,1.32,-0.02,1],"mesh":6},{"matrix":[0.6967067093471655,0.6853164493328191,0.21199322023239767,0,-0.7173560908995228,0.665589341657975,0.2058909107286162,0,0,-0.2955202066613396,0.955336489125606,0,-0.22,1,0.08,1],"mesh":7},{"matrix":[0.6967067093471655,-0.6853164493328191,-0.21199322023239767,0,0.7173560908995228,0.665589341657975,0.2058909107286162,0,0,-0.2955202066613396,0.955336489125606,0,0.22,1,0.08,1],"mesh":8},{"matrix":[1,0,0,0,0,1,0,0,0,0,1,0,-0.38,1.12,0.15,1],"mesh":9},{"matrix":[1,0,0,0,0,1,0,0,0,0,1,0,0.38,1.12,0.15,1],"mesh":10},{"children":[0,1,2,3,4,5,6,7,8,9,10]}],"bufferViews":[{"buffer":0,"byteOffset":0,"byteLength":3276,"target":34962,"byteStride":12},{"buffer":0,"byteOffset":3276,"byteLength":3276,"target":34962,"byteStride":12},{"buffer":0,"byteOffset":6552,"byteLength":2184,"target":34962,"byteStride":8},{"buffer":0,"byteOffset":8736,"byteLength":2880,"target":34963},{"buffer":0,"byteOffset":11616,"byteLength":1200,"target":34962,"byteStride":12},{"buffer":0,"byteOffset":12816,"byteLength":1200,"target":34962,"byteStride":12},{"buffer":0,"byteOffset":14016,"byteLength":800,"target":34962,"byteStride":8},{"buffer":0,"byteOffset":14816,"byteLength":384,"target":34963},{"buffer":0,"byteOffset":15200,"byteLength":912,"target":34962,"byteStride":12},{"buffer":0,"byteOffset":16112,"byteLength":912,"target":34962,"byteStride":12},{"buffer":0,"byteOffset":17024,"byteLength":608,"target":34962,"byteStride":8},{"buffer":0,"byteOffset":17632,"byteLength":288,"target":34963},{"buffer":0,"byteOffset":17920,"byteLength":912,"target":34962,"byteStride":12},{"buffer":0,"byteOffset":18832,"byteLength":912,"target":34962,"byteStride":12},{"buffer":0,"byteOffset":19744,"byteLength":608,"target":34962,"byteStride":8},{"buffer":0,"byteOffset":20352,"byteLength":288,"target":34963},{"buffer":0,"byteOffset":20640,"byteLength":912,"target":34962,"byteStride":12},{"buffer":0,"byteOffset":21552,"byteLength":912,"target":34962,"byteStride":12},{"buffer":0,"byteOffset":22464,"byteLength":608,"target":34962,"byteStride":8},{"buffer":0,"byteOffset":23072,"byteLength":288,"target":34963},{"buffer":0,"byteOffset":23360,"byteLength":2028,"target":34962,"byteStride":12},{"buffer":0,"byteOffset":25388,"byteLength":2028,"target":34962,"byteStride":12},{"buffer":0,"byteOffset":27416,"byteLength":1352,"target":34962,"byteStride":8},{"buffer":0,"byteOffset":28768,"byteLength":1584,"target":34963},{"buffer":0,"byteOffset":30352,"byteLength":516,"target":34962,"byteStride":12},{"buffer":0,"byteOffset":30868,"byteLength":516,"target":34962,"byteStride":12},{"buffer":0,"byteOffset":31384,"byteLength":344,"target":34962,"byteStride":8},{"buffer":0,"byteOffset":31728,"byteLength":180,"target":34963},{"buffer":0,"byteOffset":31908,"byteLength":768,"target":34962,"byteStride":12},{"buffer":0,"byteOffset":32676,"byteLength":768,"target":34962,"byteStride":12},{"buffer":0,"byteOffset":33444,"byteLength":512,"target":34962,"byteStride":8},{"buffer":0,"byteOffset":33956,"byteLength":240,"target":34963},{"buffer":0,"byteOffset":34196,"byteLength":768,"target":34962,"byteStride":12},{"buffer":0,"byteOffset":34964,"byteLength":768,"target":34962,"byteStride":12},{"buffer":0,"byteOffset":35732,"byteLength":512,"target":34962,"byteStride":8},{"buffer":0,"byteOffset":36244,"byteLength":240,"target":34963},{"buffer":0,"byteOffset":36484,"byteLength":972,"target":34962,"byteStride":12},{"buffer":0,"byteOffset":37456,"byteLength":972,"target":34962,"byteStride":12},{"buffer":0,"byteOffset":38428,"byteLength":648,"target":34962,"byteStride":8},{"buffer":0,"byteOffset":39076,"byteLength":672,"target":34963},{"buffer":0,"byteOffset":39748,"byteLength":972,"target":34962,"byteStride":12},{"buffer":0,"byteOffset":40720,"byteLength":972,"target":34962,"byteStride":12},{"buffer":0,"byteOffset":41692,"byteLength":648,"target":34962,"byteStride":8},{"buffer":0,"byteOffset":42340,"byteLength":672,"target":34963}],"buffers":[{"byteLength":43012,"uri":"data:application/octet-stream;base64,"}],"accessors":[{"bufferView":0,"componentType":5126,"count":273,"max":[0.44999998807907104,0.44999998807907104,0.10000000149011612],"min":[-0.44999998807907104,-0.44999998807907104,-0.10000000149011612],"type":"VEC3"},{"bufferView":1,"componentType":5126,"count":273,"max":[1,1,1],"min":[-1,-1,-1],"type":"VEC3"},{"bufferView":2,"componentType":5126,"count":273,"max":[1,1],"min":[0,0],"type":"VEC2"},{"bufferView":3,"componentType":5123,"count":1440,"max":[272],"min":[0],"type":"SCALAR"},{"bufferView":4,"componentType":5126,"count":100,"max":[0.3499999940395355,0.07500000298023224,0.3499999940395355],"min":[-0.3499999940395355,-0.07500000298023224,-0.3499999940395355],"type":"VEC3"},{"bufferView":5,"componentType":5126,"count":100,"max":[0.8320503234863281,1,0.8320503234863281],"min":[-0.8320503234863281,-1,-0.8320503234863281],"type":"VEC3"},{"bufferView":6,"componentType":5126,"count":100,"max":[1,1],"min":[0,0],"type":"VEC2"},{"bufferView":7,"componentType":5123,"count":192,"max":[99],"min":[0],"type":"SCALAR"},{"bufferView":8,"componentType":5126,"count":76,"max":[0.20000000298023224,0.30000001192092896,0.20000000298023224],"min":[-0.20000000298023224,-0.30000001192092896,-0.20000000298023224],"type":"VEC3"},{"bufferView":9,"componentType":5126,"count":76,"max":[0.991227924823761,1,0.991227924823761],"min":[-0.991227924823761,-1,-0.991227924823761],"type":"VEC3"},{"bufferView":10,"componentType":5126,"count":76,"max":[1,1],"min":[0,0],"type":"VEC2"},{"bufferView":11,"componentType":5123,"count":144,"max":[75],"min":[0],"type":"SCALAR"},{"bufferView":12,"componentType":5126,"count":76,"max":[0.18000000715255737,0.17499999701976776,0.18000000715255737],"min":[-0.18000000715255737,-0.17499999701976776,-0.18000000715255737],"type":"VEC3"},{"bufferView":13,"componentType":5126,"count":76,"max":[0.996346652507782,1,0.996346652507782],"min":[-0.996346652507782,-1,-0.996346652507782],"type":"VEC3"},{"bufferView":14,"componentType":5126,"count":76,"max":[1,1],"min":[0,0],"type":"VEC2"},{"bufferView":15,"componentType":5123,"count":144,"max":[75],"min":[0],"type":"SCALAR"},{"bufferView":16,"componentType":5126,"count":76,"max":[0.14000000059604645,0.17499999701976776,0.14000000059604645],"min":[-0.14000000059604645,-0.17499999701976776,-0.14000000059604645],"type":"VEC3"},{"bufferView":17,"componentType":5126,"count":76,"max":[0.996346652507782,1,0.996346652507782],"min":[-0.996346652507782,-1,-0.996346652507782],"type":"VEC3"},{"bufferView":18,"componentType":5126,"count":76,"max":[1,1],"min":[0,0],"type":"VEC2"},{"bufferView":19,"componentType":5123,"count":144,"max":[75],"min":[0],"type":"SCALAR"},{"bufferView":20,"componentType":5126,"count":169,"max":[0.10000000149011612,0.10000000149011612,0.10000000149011612],"min":[-0.10000000149011612,-0.10000000149011612,-0.10000000149011612],"type":"VEC3"},{"bufferView":21,"componentType":5126,"count":169,"max":[1,1,1],"min":[-1,-1,-1],"type":"VEC3"},{"bufferView":22,"componentType":5126,"count":169,"max":[1.0416666269302368,1],"min":[-0.0416666679084301,0],"type":"VEC2"},{"bufferView":23,"componentType":5123,"count":792,"max":[168],"min":[0],"type":"SCALAR"},{"bufferView":24,"componentType":5126,"count":43,"max":[0.1141267791390419,0.125,0.11999999731779099],"min":[-0.1141267791390419,-0.125,-0.11999999731779099],"type":"VEC3"},{"bufferView":25,"componentType":5126,"count":43,"max":[0.8573994040489197,0.4327310621738434,0.9015230536460876],"min":[-0.8573994040489197,-1,-0.9015230536460876],"type":"VEC3"},{"bufferView":26,"componentType":5126,"count":43,"max":[1,1],"min":[0,0],"type":"VEC2"},{"bufferView":27,"componentType":5123,"count":90,"max":[42],"min":[0],"type":"SCALAR"},{"bufferView":28,"componentType":5126,"count":64,"max":[0.04279754310846329,0.17499999701976776,0.04500000178813934],"min":[-0.04279754310846329,-0.17499999701976776,-0.04500000178813934],"type":"VEC3"},{"bufferView":29,"componentType":5126,"count":64,"max":[0.9506685733795166,1,0.9995920658111572],"min":[-0.9506685733795166,-1,-0.9995920658111572],"type":"VEC3"},{"bufferView":30,"componentType":5126,"count":64,"max":[1,1],"min":[0,0],"type":"VEC2"},{"bufferView":31,"componentType":5123,"count":120,"max":[63],"min":[0],"type":"SCALAR"},{"bufferView":32,"componentType":5126,"count":64,"max":[0.04279754310846329,0.17499999701976776,0.04500000178813934],"min":[-0.04279754310846329,-0.17499999701976776,-0.04500000178813934],"type":"VEC3"},{"bufferView":33,"componentType":5126,"count":64,"max":[0.9506685733795166,1,0.9995920658111572],"min":[-0.9506685733795166,-1,-0.9995920658111572],"type":"VEC3"},{"bufferView":34,"componentType":5126,"count":64,"max":[1,1],"min":[0,0],"type":"VEC2"},{"bufferView":35,"componentType":5123,"count":120,"max":[63],"min":[0],"type":"SCALAR"},{"bufferView":36,"componentType":5126,"count":81,"max":[0.03999999910593033,0.03999999910593033,0.03999999910593033],"min":[-0.03999999910593033,-0.03999999910593033,-0.03999999910593033],"type":"VEC3"},{"bufferView":37,"componentType":5126,"count":81,"max":[1,1,1],"min":[-1,-1,-1],"type":"VEC3"},{"bufferView":38,"componentType":5126,"count":81,"max":[1.0625,1],"min":[-0.0625,0],"type":"VEC2"},{"bufferView":39,"componentType":5123,"count":336,"max":[80],"min":[0],"type":"SCALAR"},{"bufferView":40,"componentType":5126,"count":81,"max":[0.03999999910593033,0.03999999910593033,0.03999999910593033],"min":[-0.03999999910593033,-0.03999999910593033,-0.03999999910593033],"type":"VEC3"},{"bufferView":41,"componentType":5126,"count":81,"max":[1,1,1],"min":[-1,-1,-1],"type":"VEC3"},{"bufferView":42,"componentType":5126,"count":81,"max":[1.0625,1],"min":[-0.0625,0],"type":"VEC2"},{"bufferView":43,"componentType":5123,"count":336,"max":[80],"min":[0],"type":"SCALAR"}],"materials":[{"pbrMetallicRoughness":{"baseColorFactor":[0.7843137254901961,0.7686274509803922,0.7372549019607844,1],"metallicFactor":0,"roughnessFactor":0.8}},{"pbrMetallicRoughness":{"baseColorFactor":[0.8156862745098039,0.8,0.7686274509803922,1],"metallicFactor":0,"roughnessFactor":0.75}}],"meshes":[{"primitives":[{"mode":4,"attributes":{"POSITION":0,"NORMAL":1,"TEXCOORD_0":2},"indices":3,"material":0}]},{"primitives":[{"mode":4,"attributes":{"POSITION":4,"NORMAL":5,"TEXCOORD_0":6},"indices":7,"material":0}]},{"primitives":[{"mode":4,"attributes":{"POSITION":8,"NORMAL":9,"TEXCOORD_0":10},"indices":11,"material":1}]},{"primitives":[{"mode":4,"attributes":{"POSITION":12,"NORMAL":13,"TEXCOORD_0":14},"indices":15,"material":0}]},{"primitives":[{"mode":4,"attributes":{"POSITION":16,"NORMAL":17,"TEXCOORD_0":18},"indices":19,"material":1}]},{"primitives":[{"mode":4,"attributes":{"POSITION":20,"NORMAL":21,"TEXCOORD_0":22},"indices":23,"material":1}]},{"primitives":[{"mode":4,"attributes":{"POSITION":24,"NORMAL":25,"TEXCOORD_0":26},"indices":27,"material":1}]},{"primitives":[{"mode":4,"attributes":{"POSITION":28,"NORMAL":29,"TEXCOORD_0":30},"indices":31,"material":1}]},{"primitives":[{"mode":4,"attributes":{"POSITION":32,"NORMAL":33,"TEXCOORD_0":34},"indices":35,"material":1}]},{"primitives":[{"mode":4,"attributes":{"POSITION":36,"NORMAL":37,"TEXCOORD_0":38},"indices":39,"material":1}]},{"primitives":[{"mode":4,"attributes":{"POSITION":40,"NORMAL":41,"TEXCOORD_0":42},"indices":43,"material":1}]}]}