{"asset":{"version":"2.0","generator":"THREE.GLTFExporter"},"scenes":[{"nodes":[11]}],"scene":0,"nodes":[{"matrix":[1.5,0,0,0,0,1,0,0,0,0,1,0,-0.15,0.4,0,1],"mesh":0},{"matrix":[1.2,0,0,0,0,1,0,0,0,0,0.9,0,0.3,0.5,0,1],"mesh":1},{"matrix":[0.8775825618903728,-0.479425538604203,0,0,0.479425538604203,0.8775825618903728,0,0,0,0,1,0,0.25,0.65,0.12,1],"mesh":2},{"matrix":[0.8775825618903728,-0.479425538604203,0,0,0.479425538604203,0.8775825618903728,0,0,0,0,1,0,0.25,0.65,-0.12,1],"mesh":3},{"matrix":[1,0,0,0,0,1,0,0,0,0,1,0,-0.35,0.18,0.15,1],"mesh":4},{"matrix":[1,0,0,0,0,1,0,0,0,0,1,0,-0.35,0.18,-0.15,1],"mesh":5},{"matrix":[1,0,0,0,0,1,0,0,0,0,1,0,0.05,0.18,0.15,1],"mesh":6},{"matrix":[1,0,0,0,0,1,0,0,0,0,1,0,0.05,0.18,-0.15,1],"mesh":7},{"matrix":[1,0,0,0,0,0.9210609940028851,-0.38941834230865047,0,0,0.38941834230865047,0.9210609940028851,0,0.25,0.75,0,1],"mesh":8},{"matrix":[1,0,0,0,0,1,0,0,0,0,1,0,0.18,1,0,1],"mesh":9},{"matrix":[0.8775825618903728,-0.4580127108472919,-0.1416799342470381,0,0.4794255386042029,0.8383866435942036,0.2593433800522307,0,0,-0.2955202066613395,0.955336489125606,0,0.35,0.85,0.1,1],"mesh":10},{"children":[0,1,2,3,4,5,6,7,8,9,10]}],"bufferViews":[{"buffer":0,"byteOffset":0,"byteLength":2700,"target":34962,"byteStride":12},{"buffer":0,"byteOffset":2700,"byteLength":2700,"target":34962,"byteStride":12},{"buffer":0,"byteOffset":5400,"byteLength":1800,"target":34962,"byteStride":8},{"buffer":0,"byteOffset":7200,"byteLength":2184,"target":34963},{"buffer":0,"byteOffset":9384,"byteLength":2028,"target":34962,"byteStride":12},{"buffer":0,"byteOffset":11412,"byteLength":2028,"target":34962,"byteStride":12},{"buffer":0,"byteOffset":13440,"byteLength":1352,"target":34962,"byteStride":8},{"buffer":0,"byteOffset":14792,"byteLength":1584,"target":34963},{"buffer":0,"byteOffset":16376,"byteLength":1404,"target":34962,"byteStride":12},{"buffer":0,"byteOffset":17780,"byteLength":1404,"target":34962,"byteStride":12},{"buffer":0,"byteOffset":19184,"byteLength":936,"target":34962,"byteStride":8},{"buffer":0,"byteOffset":20120,"byteLength":1152,"target":34963},{"buffer":0,"byteOffset":21272,"byteLength":1404,"target":34962,"byteStride":12},{"buffer":0,"byteOffset":22676,"byteLength":1404,"target":34962,"byteStride":12},{"buffer":0,"byteOffset":24080,"byteLength":936,"target":34962,"byteStride":8},{"buffer":0,"byteOffset":25016,"byteLength":1152,"target":34963},{"buffer":0,"byteOffset":26168,"byteLength":768,"target":34962,"byteStride":12},{"buffer":0,"byteOffset":26936,"byteLength":768,"target":34962,"byteStride":12},{"buffer":0,"byteOffset":27704,"byteLength":512,"target":34962,"byteStride":8},{"buffer":0,"byteOffset":28216,"byteLength":240,"target":34963},{"buffer":0,"byteOffset":28456,"byteLength":768,"target":34962,"byteStride":12},{"buffer":0,"byteOffset":29224,"byteLength":768,"target":34962,"byteStride":12},{"buffer":0,"byteOffset":29992,"byteLength":512,"target":34962,"byteStride":8},{"buffer":0,"byteOffset":30504,"byteLength":240,"target":34963},{"buffer":0,"byteOffset":30744,"byteLength":768,"target":34962,"byteStride":12},{"buffer":0,"byteOffset":31512,"byteLength":768,"target":34962,"byteStride":12},{"buffer":0,"byteOffset":32280,"byteLength":512,"target":34962,"byteStride":8},{"buffer":0,"byteOffset":32792,"byteLength":240,"target":34963},{"buffer":0,"byteOffset":33032,"byteLength":768,"target":34962,"byteStride":12},{"buffer":0,"byteOffset":33800,"byteLength":768,"target":34962,"byteStride":12},{"buffer":0,"byteOffset":34568,"byteLength":512,"target":34962,"byteStride":8},{"buffer":0,"byteOffset":35080,"byteLength":240,"target":34963},{"buffer":0,"byteOffset":35320,"byteLength":912,"target":34962,"byteStride":12},{"buffer":0,"byteOffset":36232,"byteLength":912,"target":34962,"byteStride":12},{"buffer":0,"byteOffset":37144,"byteLength":608,"target":34962,"byteStride":8},{"buffer":0,"byteOffset":37752,"byteLength":288,"target":34963},{"buffer":0,"byteOffset":38040,"byteLength":2028,"target":34962,"byteStride":12},{"buffer":0,"byteOffset":40068,"byteLength":2028,"target":34962,"byteStride":12},{"buffer":0,"byteOffset":42096,"byteLength":1352,"target":34962,"byteStride":8},{"buffer":0,"byteOffset":43448,"byteLength":1584,"target":34963},{"buffer":0,"byteOffset":45032,"byteLength":624,"target":34962,"byteStride":12},{"buffer":0,"byteOffset":45656,"byteLength":624,"target":34962,"byteStride":12},{"buffer":0,"byteOffset":46280,"byteLength":416,"target":34962,"byteStride":8},{"buffer":0,"byteOffset":46696,"byteLength":192,"target":34963}],"buffers":[{"byteLength":46888,"uri":"data:application/octet-stream;base64,"}],"accessors":[{"bufferView":0,"componentType":5126,"count":225,"max":[0.3499999940395355,0.3499999940395355,0.3412247598171234],"min":[-0.3499999940395355,-0.3499999940395355,-0.3412247598171234],"type":"VEC3"},{"bufferView":1,"componentType":5126,"count":225,"max":[1,1,0.9749279022216797],"min":[-1,-1,-0.9749279022216797],"type":"VEC3"},{"bufferView":2,"componentType":5126,"count":225,"max":[1.0357142686843872,1],"min":[-0.0357142873108387,0],"type":"VEC2"},{"bufferView":3,"componentType":5123,"count":1092,"max":[224],"min":[0],"type":"SCALAR"},{"bufferView":4,"componentType":5126,"count":169,"max":[0.18000000715255737,0.18000000715255737,0.18000000715255737],"min":[-0.18000000715255737,-0.18000000715255737,-0.18000000715255737],"type":"VEC3"},{"bufferView":5,"componentType":5126,"count":169,"max":[1,1,1],"min":[-1,-1,-1],"type":"VEC3"},{"bufferView":6,"componentType":5126,"count":169,"max":[1.0416666269302368,1],"min":[-0.0416666679084301,0],"type":"VEC2"},{"bufferView":7,"componentType":5123,"count":792,"max":[168],"min":[0],"type":"SCALAR"},{"bufferView":8,"componentType":5126,"count":117,"max":[0.14000000059604645,0.14000000059604645,0.019999999552965164],"min":[-0.14000000059604645,0,-0.019999999552965164],"type":"VEC3"},{"bufferView":9,"componentType":5126,"count":117,"max":[1,1,1],"min":[-1,-1,-1],"type":"VEC3"},{"bufferView":10,"componentType":5126,"count":117,"max":[1,1],"min":[0,0],"type":"VEC2"},{"bufferView":11,"componentType":5123,"count":576,"max":[116],"min":[0],"type":"SCALAR"},{"bufferView":12,"componentType":5126,"count":117,"max":[0.14000000059604645,0.14000000059604645,0.019999999552965164],"min":[-0.14000000059604645,0,-0.019999999552965164],"type":"VEC3"},{"bufferView":13,"componentType":5126,"count":117,"max":[1,1,1],"min":[-1,-1,-1],"type":"VEC3"},{"bufferView":14,"componentType":5126,"count":117,"max":[1,1],"min":[0,0],"type":"VEC2"},{"bufferView":15,"componentType":5123,"count":576,"max":[116],"min":[0],"type":"SCALAR"},{"bufferView":16,"componentType":5126,"count":64,"max":[0.06657395511865616,0.18000000715255737,0.07000000029802322],"min":[-0.06657395511865616,-0.18000000715255737,-0.07000000029802322],"type":"VEC3"},{"bufferView":17,"componentType":5126,"count":64,"max":[0.9506897926330566,1,0.999614417552948],"min":[-0.9506897926330566,-1,-0.999614417552948],"type":"VEC3"},{"bufferView":18,"componentType":5126,"count":64,"max":[1,1],"min":[0,0],"type":"VEC2"},{"bufferView":19,"componentType":5123,"count":120,"max":[63],"min":[0],"type":"SCALAR"},{"bufferView":20,"componentType":5126,"count":64,"max":[0.06657395511865616,0.18000000715255737,0.07000000029802322],"min":[-0.06657395511865616,-0.18000000715255737,-0.07000000029802322],"type":"VEC3"},{"bufferView":21,"componentType":5126,"count":64,"max":[0.9506897926330566,1,0.999614417552948],"min":[-0.9506897926330566,-1,-0.999614417552948],"type":"VEC3"},{"bufferView":22,"componentType":5126,"count":64,"max":[1,1],"min":[0,0],"type":"VEC2"},{"bufferView":23,"componentType":5123,"count":120,"max":[63],"min":[0],"type":"SCALAR"},{"bufferView":24,"componentType":5126,"count":64,"max":[0.06657395511865616,0.18000000715255737,0.07000000029802322],"min":[-0.06657395511865616,-0.18000000715255737,-0.07000000029802322],"type":"VEC3"},{"bufferView":25,"componentType":5126,"count":64,"max":[0.9506897926330566,1,0.999614417552948],"min":[-0.9506897926330566,-1,-0.999614417552948],"type":"VEC3"},{"bufferView":26,"componentType":5126,"count":64,"max":[1,1],"min":[0,0],"type":"VEC2"},{"bufferView":27,"componentType":5123,"count":120,"max":[63],"min":[0],"type":"SCALAR"},{"bufferView":28,"componentType":5126,"count":64,"max":[0.06657395511865616,0.18000000715255737,0.07000000029802322],"min":[-0.06657395511865616,-0.18000000715255737,-0.07000000029802322],"type":"VEC3"},{"bufferView":29,"componentType":5126,"count":64,"max":[0.9506897926330566,1,0.999614417552948],"min":[-0.9506897926330566,-1,-0.999614417552948],"type":"VEC3"},{"bufferView":30,"componentType":5126,"count":64,"max":[1,1],"min":[0,0],"type":"VEC2"},{"bufferView":31,"componentType":5123,"count":120,"max":[63],"min":[0],"type":"SCALAR"},{"bufferView":32,"componentType":5126,"count":76,"max":[0.11999999731779099,0.22499999403953552,0.11999999731779099],"min":[-0.11999999731779099,-0.22499999403953552,-0.11999999731779099],"type":"VEC3"},{"bufferView":33,"componentType":5126,"count":76,"max":[0.9990137815475464,1,0.9990137815475464],"min":[-0.9990137815475464,-1,-0.9990137815475464],"type":"VEC3"},{"bufferView":34,"componentType":5126,"count":76,"max":[1,1],"min":[0,0],"type":"VEC2"},{"bufferView":35,"componentType":5123,"count":144,"max":[75],"min":[0],"type":"SCALAR"},{"bufferView":36,"componentType":5126,"count":169,"max":[0.07999999821186066,0.07999999821186066,0.07999999821186066],"min":[-0.07999999821186066,-0.07999999821186066,-0.07999999821186066],"type":"VEC3"},{"bufferView":37,"componentType":5126,"count":169,"max":[1,1,1],"min":[-1,-1,-1],"type":"VEC3"},{"bufferView":38,"componentType":5126,"count":169,"max":[1.0416666269302368,1],"min":[-0.0416666679084301,0],"type":"VEC2"},{"bufferView":39,"componentType":5123,"count":792,"max":[168],"min":[0],"type":"SCALAR"},{"bufferView":40,"componentType":5126,"count":52,"max":[0.03999999910593033,0.125,0.03999999910593033],"min":[-0.03999999910593033,-0.125,-0.03999999910593033],"type":"VEC3"},{"bufferView":41,"componentType":5126,"count":52,"max":[0.9992009401321411,1,0.9992009401321411],"min":[-0.9992009401321411,-1,-0.9992009401321411],"type":"VEC3"},{"bufferView":42,"componentType":5126,"count":52,"max":[1,1],"min":[0,0],"type":"VEC2"},{"bufferView":43,"componentType":5123,"count":96,"max":[51],"min":[0],"type":"SCALAR"}],"materials":[{"pbrMetallicRoughness":{"baseColorFactor":[0.7843137254901961,0.7686274509803922,0.7372549019607844,1],"metallicFactor":0,"roughnessFactor":0.8}},{"pbrMetallicRoughness":{"baseColorFactor":[0.8156862745098039,0.8,0.7686274509803922,1],"metallicFactor":0,"roughnessFactor":0.75}}],"meshes":[{"primitives":[{"mode":4,"attributes":{"POSITION":0,"NORMAL":1,"TEXCOORD_0":2},"indices":3,"material":0}]},{"primitives":[{"mode":4,"attributes":{"POSITION":4,"NORMAL":5,"TEXCOORD_0":6},"indices":7,"material":0}]},{"primitives":[{"mode":4,"attributes":{"POSITION":8,"NORMAL":9,"TEXCOORD_0":10},"indices":11,"material":1}]},{"primitives":[{"mode":4,"attributes":{"POSITION":12,"NORMAL":13,"TEXCOORD_0":14},"indices":15,"material":1}]},{"primitives":[{"mode":4,"attributes":{"POSITION":16,"NORMAL":17,"TEXCOORD_0":18},"indices":19,"material":0}]},{"primitives":[{"mode":4,"attributes":{"POSITION":20,"NORMAL":21,"TEXCOORD_0":22},"indices":23,"material":0}]},{"primitives":[{"mode":4,"attributes":{"POSITION":24,"NORMAL":25,"TEXCOORD_0":26},"indices":27,"material":0}]},{"primitives":[{"mode":4,"attributes":{"POSITION":28,"NORMAL":29,"TEXCOORD_0":30},"indices":31,"material":0}]},{"primitives":[{"mode":4,"attributes":{"POSITION":32,"NORMAL":33,"TEXCOORD_0":34},"indices":35,"material":1}]},{"primitives":[{"mode":4,"attributes":{"POSITION":36,"NORMAL":37,"TEXCOORD_0":38},"indices":39,"material":1}]},{"primitives":[{"mode":4,"attributes":{"POSITION":40,"NORMAL":41,"TEXCOORD_0":42},"indices":43,"material":1}]}]}