{"asset": {"version": "2.0", "generator": "THREE.GLTFExporter", "extras": {"statueName": "Two Children Laughing with Flute", "statueDescription": "Pure happiness, companionship, simple pleasures of childhood.", "statueId": "children_flute"}}, "scenes": [{"nodes": [9]}], "scene": 0, "nodes": [{"matrix": [1, 0, 0, 0, 0, 1, 0, 0, 0, 0, 1, 0, -0.12, 0.3, 0, 1], "mesh": 0}, {"matrix": [1, 0, 0, 0, 0, 0.9800665778412416, -0.19866933079506124, 0, 0, 0.19866933079506124, 0.9800665778412416, 0, -0.12, 0.58, 0.02, 1], "mesh": 1}, {"matrix": [1, 0, 0, 0, 0, 0.7, 0, 0, 0, 0, 0.9, 0, -0.12, 0.62, -0.01, 1], "mesh": 2}, {"matrix": [1, 0, 0, 0, 0, 1, 0, 0, 0, 0, 1, 0, 0.12, 0.28, 0.05, 1], "mesh": 3}, {"matrix": [1, 0, 0, 0, 0, 0.955336489125606, -0.29552020666133955, 0, 0, 0.29552020666133955, 0.955336489125606, 0, 0.12, 0.55, 0.08, 1], "mesh": 4}, {"matrix": [1, 0, 0, 0, 0, 0.65, 0, 0, 0, 0, 0.85, 0, 0.12, 0.59, 0.05, 1], "mesh": 5}, {"matrix": [0.8253356149096784, -0.4955203883541316, -0.2707040219262241, 0, 0.5646424733950351, 0.7243001433518017, 0.39568697170730355, 0, 0, -0.47942553860420295, 0.8775825618903728, 0, -0.02, 0.4, 0.1, 1], "mesh": 6}, {"matrix": [0.8775825618903728, 0.39568697170730355, 0.2707040219262241, 0, -0.47942553860420295, 0.7243001433518017, 0.4955203883541316, 0, 0, -0.5646424733950351, 0.8253356149096784, 0, 0.02, 0.38, 0.12, 1], "mesh": 7}, {"matrix": [2.220446049250313e-16, 1, 0, 0, -1, 2.220446049250313e-16, 0, 0, 0, 0, 1, 0, 0, 0.42, 0.18, 1], "mesh": 8}, {"children": [0, 1, 2, 3, 4, 5, 6, 7, 8]}], "bufferViews": [{"buffer": 0, "byteOffset": 0, "byteLength": 768, "target": 34962, "byteStride": 12}, {"buffer": 0, "byteOffset": 768, "byteLength": 768, "target": 34962, "byteStride": 12}, {"buffer": 0, "byteOffset": 1536, "byteLength": 512, "target": 34962, "byteStride": 8}, {"buffer": 0, "byteOffset": 2048, "byteLength": 240, "target": 34963}, {"buffer": 0, "byteOffset": 2288, "byteLength": 1452, "target": 34962, "byteStride": 12}, {"buffer": 0, "byteOffset": 3740, "byteLength": 1452, "target": 34962, "byteStride": 12}, {"buffer": 0, "byteOffset": 5192, "byteLength": 968, "target": 34962, "byteStride": 8}, {"buffer": 0, "byteOffset": 6160, "byteLength": 1080, "target": 34963}, {"buffer": 0, "byteOffset": 7240, "byteLength": 972, "target": 34962, "byteStride": 12}, {"buffer": 0, "byteOffset": 8212, "byteLength": 972, "target": 34962, "byteStride": 12}, {"buffer": 0, "byteOffset": 9184, "byteLength": 648, "target": 34962, "byteStride": 8}, {"buffer": 0, "byteOffset": 9832, "byteLength": 672, "target": 34963}, {"buffer": 0, "byteOffset": 10504, "byteLength": 768, "target": 34962, "byteStride": 12}, {"buffer": 0, "byteOffset": 11272, "byteLength": 768, "target": 34962, "byteStride": 12}, {"buffer": 0, "byteOffset": 12040, "byteLength": 512, "target": 34962, "byteStride": 8}, {"buffer": 0, "byteOffset": 12552, "byteLength": 240, "target": 34963}, {"buffer": 0, "byteOffset": 12792, "byteLength": 1452, "target": 34962, "byteStride": 12}, {"buffer": 0, "byteOffset": 14244, "byteLength": 1452, "target": 34962, "byteStride": 12}, {"buffer": 0, "byteOffset": 15696, "byteLength": 968, "target": 34962, "byteStride": 8}, {"buffer": 0, "byteOffset": 16664, "byteLength": 1080, "target": 34963}, {"buffer": 0, "byteOffset": 17744, "byteLength": 972, "target": 34962, "byteStride": 12}, {"buffer": 0, "byteOffset": 18716, "byteLength": 972, "target": 34962, "byteStride": 12}, {"buffer": 0, "byteOffset": 19688, "byteLength": 648, "target": 34962, "byteStride": 8}, {"buffer": 0, "byteOffset": 20336, "byteLength": 672, "target": 34963}, {"buffer": 0, "byteOffset": 21008, "byteLength": 624, "target": 34962, "byteStride": 12}, {"buffer": 0, "byteOffset": 21632, "byteLength": 624, "target": 34962, "byteStride": 12}, {"buffer": 0, "byteOffset": 22256, "byteLength": 416, "target": 34962, "byteStride": 8}, {"buffer": 0, "byteOffset": 22672, "byteLength": 192, "target": 34963}, {"buffer": 0, "byteOffset": 22864, "byteLength": 624, "target": 34962, "byteStride": 12}, {"buffer": 0, "byteOffset": 23488, "byteLength": 624, "target": 34962, "byteStride": 12}, {"buffer": 0, "byteOffset": 24112, "byteLength": 416, "target": 34962, "byteStride": 8}, {"buffer": 0, "byteOffset": 24528, "byteLength": 192, "target": 34963}, {"buffer": 0, "byteOffset": 24720, "byteLength": 624, "target": 34962, "byteStride": 12}, {"buffer": 0, "byteOffset": 25344, "byteLength": 624, "target": 34962, "byteStride": 12}, {"buffer": 0, "byteOffset": 25968, "byteLength": 416, "target": 34962, "byteStride": 8}, {"buffer": 0, "byteOffset": 26384, "byteLength": 192, "target": 34963}], "buffers": [{"byteLength": 26576, "uri": "data:application/octet-stream;base64,"}], "accessors": [{"bufferView": 0, "componentType": 5126, "count": 64, "max": [0.09510564804077148, 0.20000000298023224, 0.10000000149011612], "min": [-0.09510564804077148, -0.20000000298023224, -0.10000000149011612], "type": "VEC3"}, {"bufferView": 1, "componentType": 5126, "count": 64, "max": [0.9498699307441711, 1, 0.9987523555755615], "min": [-0.9498699307441711, -1, -0.9987523555755615], "type": "VEC3"}, {"bufferView": 2, "componentType": 5126, "count": 64, "max": [1, 1], "min": [0, 0], "type": "VEC2"}, {"bufferView": 3, "componentType": 5123, "count": 120, "max": [63], "min": [0], "type": "SCALAR"}, {"bufferView": 4, "componentType": 5126, "count": 121, "max": [0.07000000029802322, 0.07000000029802322, 0.06657395511865616], "min": [-0.07000000029802322, -0.07000000029802322, -0.06657395511865616], "type": "VEC3"}, {"bufferView": 5, "componentType": 5126, "count": 121, "max": [1, 1, 0.9510565400123596], "min": [-1, -1, -0.9510565400123596], "type": "VEC3"}, {"bufferView": 6, "componentType": 5126, "count": 121, "max": [1.0499999523162842, 1], "min": [-0.05000000074505806, 0], "type": "VEC2"}, {"bufferView": 7, "componentType": 5123, "count": 540, "max": [120], "min": [0], "type": "SCALAR"}, {"bufferView": 8, "componentType": 5126, "count": 81, "max": [0.07500000298023224, 0.07500000298023224, 0.07500000298023224], "min": [-0.07500000298023224, -0.07500000298023224, -0.07500000298023224], "type": "VEC3"}, {"bufferView": 9, "componentType": 5126, "count": 81, "max": [1, 1, 1], "min": [-1, -1, -1], "type": "VEC3"}, {"bufferView": 10, "componentType": 5126, "count": 81, "max": [1.0625, 1], "min": [-0.0625, 0], "type": "VEC2"}, {"bufferView": 11, "componentType": 5123, "count": 336, "max": [80], "min": [0], "type": "SCALAR"}, {"bufferView": 12, "componentType": 5126, "count": 64, "max": [0.09035036712884903, 0.1899999976158142, 0.0949999988079071], "min": [-0.09035036712884903, -0.1899999976158142, -0.0949999988079071], "type": "VEC3"}, {"bufferView": 13, "componentType": 5126, "count": 64, "max": [0.9497420191764832, 1, 0.9986178278923035], "min": [-0.9497420191764832, -1, -0.9986178278923035], "type": "VEC3"}, {"bufferView": 14, "componentType": 5126, "count": 64, "max": [1, 1], "min": [0, 0], "type": "VEC2"}, {"bufferView": 15, "componentType": 5123, "count": 120, "max": [63], "min": [0], "type": "SCALAR"}, {"bufferView": 16, "componentType": 5126, "count": 121, "max": [0.06499999761581421, 0.06499999761581421, 0.061818674206733704], "min": [-0.06499999761581421, -0.06499999761581421, -0.061818674206733704], "type": "VEC3"}, {"bufferView": 17, "componentType": 5126, "count": 121, "max": [1, 1, 0.9510565400123596], "min": [-1, -1, -0.9510565400123596], "type": "VEC3"}, {"bufferView": 18, "componentType": 5126, "count": 121, "max": [1.0499999523162842, 1], "min": [-0.05000000074505806, 0], "type": "VEC2"}, {"bufferView": 19, "componentType": 5123, "count": 540, "max": [120], "min": [0], "type": "SCALAR"}, {"bufferView": 20, "componentType": 5126, "count": 81, "max": [0.07000000029802322, 0.07000000029802322, 0.07000000029802322], "min": [-0.07000000029802322, -0.07000000029802322, -0.07000000029802322], "type": "VEC3"}, {"bufferView": 21, "componentType": 5126, "count": 81, "max": [1, 1, 1], "min": [-1, -1, -1], "type": "VEC3"}, {"bufferView": 22, "componentType": 5126, "count": 81, "max": [1.0625, 1], "min": [-0.0625, 0], "type": "VEC2"}, {"bufferView": 23, "componentType": 5123, "count": 336, "max": [80], "min": [0], "type": "SCALAR"}, {"bufferView": 24, "componentType": 5126, "count": 52, "max": [0.029999999329447746, 0.10000000149011612, 0.029999999329447746], "min": [-0.029999999329447746, -0.10000000149011612, -0.029999999329447746], "type": "VEC3"}, {"bufferView": 25, "componentType": 5126, "count": 52, "max": [0.999687671661377, 1, 0.999687671661377], "min": [-0.999687671661377, -1, -0.999687671661377], "type": "VEC3"}, {"bufferView": 26, "componentType": 5126, "count": 52, "max": [1, 1], "min": [0, 0], "type": "VEC2"}, {"bufferView": 27, "componentType": 5123, "count": 96, "max": [51], "min": [0], "type": "SCALAR"}, {"bufferView": 28, "componentType": 5126, "count": 52, "max": [0.029999999329447746, 0.09000000357627869, 0.029999999329447746], "min": [-0.029999999329447746, -0.09000000357627869, -0.029999999329447746], "type": "VEC3"}, {"bufferView": 29, "componentType": 5126, "count": 52, "max": [0.999614417552948, 1, 0.999614417552948], "min": [-0.999614417552948, -1, -0.999614417552948], "type": "VEC3"}, {"bufferView": 30, "componentType": 5126, "count": 52, "max": [1, 1], "min": [0, 0], "type": "VEC2"}, {"bufferView": 31, "componentType": 5123, "count": 96, "max": [51], "min": [0], "type": "SCALAR"}, {"bufferView": 32, "componentType": 5126, "count": 52, "max": [0.012000000104308128, 0.10000000149011612, 0.012000000104308128], "min": [-0.012000000104308128, -0.10000000149011612, -0.012000000104308128], "type": "VEC3"}, {"bufferView": 33, "componentType": 5126, "count": 52, "max": [1, 1, 1], "min": [-1, -1, -1], "type": "VEC3"}, {"bufferView": 34, "componentType": 5126, "count": 52, "max": [1, 1], "min": [0, 0], "type": "VEC2"}, {"bufferView": 35, "componentType": 5123, "count": 96, "max": [51], "min": [0], "type": "SCALAR"}], "materials": [{"pbrMetallicRoughness": {"baseColorFactor": [0.8156862745098039, 0.8, 0.7686274509803922, 1], "metallicFactor": 0, "roughnessFactor": 0.75}}, {"pbrMetallicRoughness": {"baseColorFactor": [0.7843137254901961, 0.7686274509803922, 0.7372549019607844, 1], "metallicFactor": 0, "roughnessFactor": 0.8}}], "meshes": [{"primitives": [{"mode": 4, "attributes": {"POSITION": 0, "NORMAL": 1, "TEXCOORD_0": 2}, "indices": 3, "material": 0}]}, {"primitives": [{"mode": 4, "attributes": {"POSITION": 4, "NORMAL": 5, "TEXCOORD_0": 6}, "indices": 7, "material": 0}]}, {"primitives": [{"mode": 4, "attributes": {"POSITION": 8, "NORMAL": 9, "TEXCOORD_0": 10}, "indices": 11, "material": 0}]}, {"primitives": [{"mode": 4, "attributes": {"POSITION": 12, "NORMAL": 13, "TEXCOORD_0": 14}, "indices": 15, "material": 0}]}, {"primitives": [{"mode": 4, "attributes": {"POSITION": 16, "NORMAL": 17, "TEXCOORD_0": 18}, "indices": 19, "material": 0}]}, {"primitives": [{"mode": 4, "attributes": {"POSITION": 20, "NORMAL": 21, "TEXCOORD_0": 22}, "indices": 23, "material": 0}]}, {"primitives": [{"mode": 4, "attributes": {"POSITION": 24, "NORMAL": 25, "TEXCOORD_0": 26}, "indices": 27, "material": 0}]}, {"primitives": [{"mode": 4, "attributes": {"POSITION": 28, "NORMAL": 29, "TEXCOORD_0": 30}, "indices": 31, "material": 0}]}, {"primitives": [{"mode": 4, "attributes": {"POSITION": 32, "NORMAL": 33, "TEXCOORD_0": 34}, "indices": 35, "material": 1}]}]}