{"asset": {"version": "2.0", "generator": "THREE.GLTFExporter", "extras": {"statueName": "Child Examining Flower", "statueDescription": "Innocence and wonder. The child is bowed forward, intently examining a single flower.", "statueId": "child_flower"}}, "scenes": [{"nodes": [13]}], "scene": 0, "nodes": [{"matrix": [1, 0, 0, 0, 0, 0.9210609940028851, 0.38941834230865047, 0, 0, -0.38941834230865047, 0.9210609940028851, 0, 0, 0.3, 0, 1], "mesh": 0}, {"matrix": [1, 0, 0, 0, 0, 1, 0, 0, 0, 0, 1, 0, -0.06, 0.08, -0.08, 1], "mesh": 1}, {"matrix": [1, 0, 0, 0, 0, 1, 0, 0, 0, 0, 1, 0, 0.06, 0.08, -0.08, 1], "mesh": 2}, {"matrix": [1, 0, 0, 0, 0, 1, 0, 0, 0, 0, 1, 0, 0, 0.52, 0.15, 1], "mesh": 3}, {"matrix": [0.9800665778412416, 0.12349483641187214, 0.15562303292945553, 0, -0.19866933079506122, 0.6092191543550328, 0.7677125236495633, 0, 0, -0.7833269096274834, 0.6216099682706644, 0, -0.08, 0.38, 0.2, 1], "mesh": 4}, {"matrix": [0.9800665778412416, -0.12349483641187214, -0.15562303292945553, 0, 0.19866933079506122, 0.6092191543550328, 0.7677125236495633, 0, 0, -0.7833269096274834, 0.6216099682706644, 0, 0.08, 0.38, 0.2, 1], "mesh": 5}, {"matrix": [1, 0, 0, 0, 0, 1, 0, 0, 0, 0, 1, 0, 0, 0.15, 0.32, 1], "mesh": 6}, {"matrix": [1, 0, 0, 0, 0, 0.5, 0, 0, 0, 0, 1, 0, 0, 0.24, 0.35, 1], "mesh": 7}, {"matrix": [1, 0, 0, 0, 0, 0.5, 0, 0, 0, 0, 1, 0, 0.028531695488854605, 0.24, 0.32927050983124845, 1], "mesh": 8}, {"matrix": [1, 0, 0, 0, 0, 0.5, 0, 0, 0, 0, 1, 0, 0.017633557568774196, 0.24, 0.2957294901687516, 1], "mesh": 9}, {"matrix": [1, 0, 0, 0, 0, 0.5, 0, 0, 0, 0, 1, 0, -0.01763355756877419, 0.24, 0.2957294901687516, 1], "mesh": 10}, {"matrix": [1, 0, 0, 0, 0, 0.5, 0, 0, 0, 0, 1, 0, -0.02853169548885461, 0.24, 0.32927050983124845, 1], "mesh": 11}, {"matrix": [1, 0, 0, 0, 0, 1, 0, 0, 0, 0, 1, 0, 0, 0.24, 0.32, 1], "mesh": 12}, {"children": [0, 1, 2, 3, 4, 5, 6, 7, 8, 9, 10, 11, 12]}], "bufferViews": [{"buffer": 0, "byteOffset": 0, "byteLength": 912, "target": 34962, "byteStride": 12}, {"buffer": 0, "byteOffset": 912, "byteLength": 912, "target": 34962, "byteStride": 12}, {"buffer": 0, "byteOffset": 1824, "byteLength": 608, "target": 34962, "byteStride": 8}, {"buffer": 0, "byteOffset": 2432, "byteLength": 288, "target": 34963}, {"buffer": 0, "byteOffset": 2720, "byteLength": 768, "target": 34962, "byteStride": 12}, {"buffer": 0, "byteOffset": 3488, "byteLength": 768, "target": 34962, "byteStride": 12}, {"buffer": 0, "byteOffset": 4256, "byteLength": 512, "target": 34962, "byteStride": 8}, {"buffer": 0, "byteOffset": 4768, "byteLength": 240, "target": 34963}, {"buffer": 0, "byteOffset": 5008, "byteLength": 768, "target": 34962, "byteStride": 12}, {"buffer": 0, "byteOffset": 5776, "byteLength": 768, "target": 34962, "byteStride": 12}, {"buffer": 0, "byteOffset": 6544, "byteLength": 512, "target": 34962, "byteStride": 8}, {"buffer": 0, "byteOffset": 7056, "byteLength": 240, "target": 34963}, {"buffer": 0, "byteOffset": 7296, "byteLength": 2028, "target": 34962, "byteStride": 12}, {"buffer": 0, "byteOffset": 9324, "byteLength": 2028, "target": 34962, "byteStride": 12}, {"buffer": 0, "byteOffset": 11352, "byteLength": 1352, "target": 34962, "byteStride": 8}, {"buffer": 0, "byteOffset": 12704, "byteLength": 1584, "target": 34963}, {"buffer": 0, "byteOffset": 14288, "byteLength": 768, "target": 34962, "byteStride": 12}, {"buffer": 0, "byteOffset": 15056, "byteLength": 768, "target": 34962, "byteStride": 12}, {"buffer": 0, "byteOffset": 15824, "byteLength": 512, "target": 34962, "byteStride": 8}, {"buffer": 0, "byteOffset": 16336, "byteLength": 240, "target": 34963}, {"buffer": 0, "byteOffset": 16576, "byteLength": 768, "target": 34962, "byteStride": 12}, {"buffer": 0, "byteOffset": 17344, "byteLength": 768, "target": 34962, "byteStride": 12}, {"buffer": 0, "byteOffset": 18112, "byteLength": 512, "target": 34962, "byteStride": 8}, {"buffer": 0, "byteOffset": 18624, "byteLength": 240, "target": 34963}, {"buffer": 0, "byteOffset": 18864, "byteLength": 480, "target": 34962, "byteStride": 12}, {"buffer": 0, "byteOffset": 19344, "byteLength": 480, "target": 34962, "byteStride": 12}, {"buffer": 0, "byteOffset": 19824, "byteLength": 320, "target": 34962, "byteStride": 8}, {"buffer": 0, "byteOffset": 20144, "byteLength": 144, "target": 34963}, {"buffer": 0, "byteOffset": 20288, "byteLength": 972, "target": 34962, "byteStride": 12}, {"buffer": 0, "byteOffset": 21260, "byteLength": 972, "target": 34962, "byteStride": 12}, {"buffer": 0, "byteOffset": 22232, "byteLength": 648, "target": 34962, "byteStride": 8}, {"buffer": 0, "byteOffset": 22880, "byteLength": 672, "target": 34963}, {"buffer": 0, "byteOffset": 23552, "byteLength": 972, "target": 34962, "byteStride": 12}, {"buffer": 0, "byteOffset": 24524, "byteLength": 972, "target": 34962, "byteStride": 12}, {"buffer": 0, "byteOffset": 25496, "byteLength": 648, "target": 34962, "byteStride": 8}, {"buffer": 0, "byteOffset": 26144, "byteLength": 672, "target": 34963}, {"buffer": 0, "byteOffset": 26816, "byteLength": 972, "target": 34962, "byteStride": 12}, {"buffer": 0, "byteOffset": 27788, "byteLength": 972, "target": 34962, "byteStride": 12}, {"buffer": 0, "byteOffset": 28760, "byteLength": 648, "target": 34962, "byteStride": 8}, {"buffer": 0, "byteOffset": 29408, "byteLength": 672, "target": 34963}, {"buffer": 0, "byteOffset": 30080, "byteLength": 972, "target": 34962, "byteStride": 12}, {"buffer": 0, "byteOffset": 31052, "byteLength": 972, "target": 34962, "byteStride": 12}, {"buffer": 0, "byteOffset": 32024, "byteLength": 648, "target": 34962, "byteStride": 8}, {"buffer": 0, "byteOffset": 32672, "byteLength": 672, "target": 34963}, {"buffer": 0, "byteOffset": 33344, "byteLength": 972, "target": 34962, "byteStride": 12}, {"buffer": 0, "byteOffset": 34316, "byteLength": 972, "target": 34962, "byteStride": 12}, {"buffer": 0, "byteOffset": 35288, "byteLength": 648, "target": 34962, "byteStride": 8}, {"buffer": 0, "byteOffset": 35936, "byteLength": 672, "target": 34963}, {"buffer": 0, "byteOffset": 36608, "byteLength": 972, "target": 34962, "byteStride": 12}, {"buffer": 0, "byteOffset": 37580, "byteLength": 972, "target": 34962, "byteStride": 12}, {"buffer": 0, "byteOffset": 38552, "byteLength": 648, "target": 34962, "byteStride": 8}, {"buffer": 0, "byteOffset": 39200, "byteLength": 672, "target": 34963}], "buffers": [{"byteLength": 39872, "uri": "data:application/octet-stream;base64,"}], "accessors": [{"bufferView": 0, "componentType": 5126, "count": 76, "max": [0.11999999731779099, 0.20000000298023224, 0.11999999731779099], "min": [-0.11999999731779099, -0.20000000298023224, -0.11999999731779099], "type": "VEC3"}, {"bufferView": 1, "componentType": 5126, "count": 76, "max": [0.9987523555755615, 1, 0.9987523555755615], "min": [-0.9987523555755615, -1, -0.9987523555755615], "type": "VEC3"}, {"bufferView": 2, "componentType": 5126, "count": 76, "max": [1, 1], "min": [0, 0], "type": "VEC2"}, {"bufferView": 3, "componentType": 5123, "count": 144, "max": [75], "min": [0], "type": "SCALAR"}, {"bufferView": 4, "componentType": 5126, "count": 64, "max": [0.04755282402038574, 0.15000000596046448, 0.05000000074505806], "min": [-0.04755282402038574, -0.15000000596046448, -0.05000000074505806], "type": "VEC3"}, {"bufferView": 5, "componentType": 5126, "count": 64, "max": [0.9505285620689392, 1, 0.9994449019432068], "min": [-0.9505285620689392, -1, -0.9994449019432068], "type": "VEC3"}, {"bufferView": 6, "componentType": 5126, "count": 64, "max": [1, 1], "min": [0, 0], "type": "VEC2"}, {"bufferView": 7, "componentType": 5123, "count": 120, "max": [63], "min": [0], "type": "SCALAR"}, {"bufferView": 8, "componentType": 5126, "count": 64, "max": [0.04755282402038574, 0.15000000596046448, 0.05000000074505806], "min": [-0.04755282402038574, -0.15000000596046448, -0.05000000074505806], "type": "VEC3"}, {"bufferView": 9, "componentType": 5126, "count": 64, "max": [0.9505285620689392, 1, 0.9994449019432068], "min": [-0.9505285620689392, -1, -0.9994449019432068], "type": "VEC3"}, {"bufferView": 10, "componentType": 5126, "count": 64, "max": [1, 1], "min": [0, 0], "type": "VEC2"}, {"bufferView": 11, "componentType": 5123, "count": 120, "max": [63], "min": [0], "type": "SCALAR"}, {"bufferView": 12, "componentType": 5126, "count": 169, "max": [0.09000000357627869, 0.09000000357627869, 0.09000000357627869], "min": [-0.09000000357627869, -0.09000000357627869, -0.09000000357627869], "type": "VEC3"}, {"bufferView": 13, "componentType": 5126, "count": 169, "max": [1, 1, 1], "min": [-1, -1, -1], "type": "VEC3"}, {"bufferView": 14, "componentType": 5126, "count": 169, "max": [1.0416666269302368, 1], "min": [-0.0416666679084301, 0], "type": "VEC2"}, {"bufferView": 15, "componentType": 5123, "count": 792, "max": [168], "min": [0], "type": "SCALAR"}, {"bufferView": 16, "componentType": 5126, "count": 64, "max": [0.03328697755932808, 0.125, 0.03500000014901161], "min": [-0.03328697755932808, -0.125, -0.03500000014901161], "type": "VEC3"}, {"bufferView": 17, "componentType": 5126, "count": 64, "max": [0.9508663415908813, 1, 0.9998000860214233], "min": [-0.9508663415908813, -1, -0.9998000860214233], "type": "VEC3"}, {"bufferView": 18, "componentType": 5126, "count": 64, "max": [1, 1], "min": [0, 0], "type": "VEC2"}, {"bufferView": 19, "componentType": 5123, "count": 120, "max": [63], "min": [0], "type": "SCALAR"}, {"bufferView": 20, "componentType": 5126, "count": 64, "max": [0.03328697755932808, 0.125, 0.03500000014901161], "min": [-0.03328697755932808, -0.125, -0.03500000014901161], "type": "VEC3"}, {"bufferView": 21, "componentType": 5126, "count": 64, "max": [0.9508663415908813, 1, 0.9998000860214233], "min": [-0.9508663415908813, -1, -0.9998000860214233], "type": "VEC3"}, {"bufferView": 22, "componentType": 5126, "count": 64, "max": [1, 1], "min": [0, 0], "type": "VEC2"}, {"bufferView": 23, "componentType": 5123, "count": 120, "max": [63], "min": [0], "type": "SCALAR"}, {"bufferView": 24, "componentType": 5126, "count": 40, "max": [0.006928203161805868, 0.07500000298023224, 0.00800000037997961], "min": [-0.006928203161805868, -0.07500000298023224, -0.00800000037997961], "type": "VEC3"}, {"bufferView": 25, "componentType": 5126, "count": 40, "max": [0.8660253882408142, 1, 1], "min": [-0.8660253882408142, -1, -1], "type": "VEC3"}, {"bufferView": 26, "componentType": 5126, "count": 40, "max": [1, 1], "min": [0, 0], "type": "VEC2"}, {"bufferView": 27, "componentType": 5123, "count": 72, "max": [39], "min": [0], "type": "SCALAR"}, {"bufferView": 28, "componentType": 5126, "count": 81, "max": [0.02500000037252903, 0.02500000037252903, 0.02500000037252903], "min": [-0.02500000037252903, -0.02500000037252903, -0.02500000037252903], "type": "VEC3"}, {"bufferView": 29, "componentType": 5126, "count": 81, "max": [1, 1, 1], "min": [-1, -1, -1], "type": "VEC3"}, {"bufferView": 30, "componentType": 5126, "count": 81, "max": [1.0625, 1], "min": [-0.0625, 0], "type": "VEC2"}, {"bufferView": 31, "componentType": 5123, "count": 336, "max": [80], "min": [0], "type": "SCALAR"}, {"bufferView": 32, "componentType": 5126, "count": 81, "max": [0.02500000037252903, 0.02500000037252903, 0.02500000037252903], "min": [-0.02500000037252903, -0.02500000037252903, -0.02500000037252903], "type": "VEC3"}, {"bufferView": 33, "componentType": 5126, "count": 81, "max": [1, 1, 1], "min": [-1, -1, -1], "type": "VEC3"}, {"bufferView": 34, "componentType": 5126, "count": 81, "max": [1.0625, 1], "min": [-0.0625, 0], "type": "VEC2"}, {"bufferView": 35, "componentType": 5123, "count": 336, "max": [80], "min": [0], "type": "SCALAR"}, {"bufferView": 36, "componentType": 5126, "count": 81, "max": [0.02500000037252903, 0.02500000037252903, 0.02500000037252903], "min": [-0.02500000037252903, -0.02500000037252903, -0.02500000037252903], "type": "VEC3"}, {"bufferView": 37, "componentType": 5126, "count": 81, "max": [1, 1, 1], "min": [-1, -1, -1], "type": "VEC3"}, {"bufferView": 38, "componentType": 5126, "count": 81, "max": [1.0625, 1], "min": [-0.0625, 0], "type": "VEC2"}, {"bufferView": 39, "componentType": 5123, "count": 336, "max": [80], "min": [0], "type": "SCALAR"}, {"bufferView": 40, "componentType": 5126, "count": 81, "max": [0.02500000037252903, 0.02500000037252903, 0.02500000037252903], "min": [-0.02500000037252903, -0.02500000037252903, -0.02500000037252903], "type": "VEC3"}, {"bufferView": 41, "componentType": 5126, "count": 81, "max": [1, 1, 1], "min": [-1, -1, -1], "type": "VEC3"}, {"bufferView": 42, "componentType": 5126, "count": 81, "max": [1.0625, 1], "min": [-0.0625, 0], "type": "VEC2"}, {"bufferView": 43, "componentType": 5123, "count": 336, "max": [80], "min": [0], "type": "SCALAR"}, {"bufferView": 44, "componentType": 5126, "count": 81, "max": [0.02500000037252903, 0.02500000037252903, 0.02500000037252903], "min": [-0.02500000037252903, -0.02500000037252903, -0.02500000037252903], "type": "VEC3"}, {"bufferView": 45, "componentType": 5126, "count": 81, "max": [1, 1, 1], "min": [-1, -1, -1], "type": "VEC3"}, {"bufferView": 46, "componentType": 5126, "count": 81, "max": [1.0625, 1], "min": [-0.0625, 0], "type": "VEC2"}, {"bufferView": 47, "componentType": 5123, "count": 336, "max": [80], "min": [0], "type": "SCALAR"}, {"bufferView": 48, "componentType": 5126, "count": 81, "max": [0.014999999664723873, 0.014999999664723873, 0.014999999664723873], "min": [-0.014999999664723873, -0.014999999664723873, -0.014999999664723873], "type": "VEC3"}, {"bufferView": 49, "componentType": 5126, "count": 81, "max": [1, 1, 1], "min": [-1, -1, -1], "type": "VEC3"}, {"bufferView": 50, "componentType": 5126, "count": 81, "max": [1.0625, 1], "min": [-0.0625, 0], "type": "VEC2"}, {"bufferView": 51, "componentType": 5123, "count": 336, "max": [80], "min": [0], "type": "SCALAR"}], "materials": [{"pbrMetallicRoughness": {"baseColorFactor": [0.8156862745098039, 0.8, 0.7686274509803922, 1], "metallicFactor": 0, "roughnessFactor": 0.75}}, {"pbrMetallicRoughness": {"baseColorFactor": [0.7843137254901961, 0.7686274509803922, 0.7372549019607844, 1], "metallicFactor": 0, "roughnessFactor": 0.8}}, {"pbrMetallicRoughness": {"baseColorFactor": [0.8470588235294118, 0.8313725490196079, 0.8, 1], "metallicFactor": 0, "roughnessFactor": 0.7}}], "meshes": [{"primitives": [{"mode": 4, "attributes": {"POSITION": 0, "NORMAL": 1, "TEXCOORD_0": 2}, "indices": 3, "material": 0}]}, {"primitives": [{"mode": 4, "attributes": {"POSITION": 4, "NORMAL": 5, "TEXCOORD_0": 6}, "indices": 7, "material": 0}]}, {"primitives": [{"mode": 4, "attributes": {"POSITION": 8, "NORMAL": 9, "TEXCOORD_0": 10}, "indices": 11, "material": 0}]}, {"primitives": [{"mode": 4, "attributes": {"POSITION": 12, "NORMAL": 13, "TEXCOORD_0": 14}, "indices": 15, "material": 0}]}, {"primitives": [{"mode": 4, "attributes": {"POSITION": 16, "NORMAL": 17, "TEXCOORD_0": 18}, "indices": 19, "material": 0}]}, {"primitives": [{"mode": 4, "attributes": {"POSITION": 20, "NORMAL": 21, "TEXCOORD_0": 22}, "indices": 23, "material": 0}]}, {"primitives": [{"mode": 4, "attributes": {"POSITION": 24, "NORMAL": 25, "TEXCOORD_0": 26}, "indices": 27, "material": 1}]}, {"primitives": [{"mode": 4, "attributes": {"POSITION": 28, "NORMAL": 29, "TEXCOORD_0": 30}, "indices": 31, "material": 2}]}, {"primitives": [{"mode": 4, "attributes": {"POSITION": 32, "NORMAL": 33, "TEXCOORD_0": 34}, "indices": 35, "material": 2}]}, {"primitives": [{"mode": 4, "attributes": {"POSITION": 36, "NORMAL": 37, "TEXCOORD_0": 38}, "indices": 39, "material": 2}]}, {"primitives": [{"mode": 4, "attributes": {"POSITION": 40, "NORMAL": 41, "TEXCOORD_0": 42}, "indices": 43, "material": 2}]}, {"primitives": [{"mode": 4, "attributes": {"POSITION": 44, "NORMAL": 45, "TEXCOORD_0": 46}, "indices": 47, "material": 2}]}, {"primitives": [{"mode": 4, "attributes": {"POSITION": 48, "NORMAL": 49, "TEXCOORD_0": 50}, "indices": 51, "material": 0}]}]}