{"asset": {"version": "2.0", "generator": "THREE.GLTFExporter", "extras": {"statueName": "Elderly King with Crown", "statueDescription": "Dignity reclaimed by nature - gulls have nested in his crown. Age and majesty intertwined.", "statueId": "elderly_king"}}, "scenes": [{"nodes": [13]}], "scene": 0, "nodes": [{"matrix": [1, 0, 0, 0, 0, 1, 0, 0, 0, 0, 1, 0, 0, 0.55, 0, 1], "mesh": 0}, {"matrix": [1, 0, 0, 0, 0, 1, 0, 0, 0, 0, 1, 0, 0, 1.15, 0, 1], "mesh": 1}, {"matrix": [1, 0, 0, 0, 0, 1, 0, 0, 0, 0, 1, 0, 0, 1.45, 0, 1], "mesh": 2}, {"matrix": [1, 0, 0, 0, 0, 0.955336489125606, 0.29552020666133955, 0, 0, -0.29552020666133955, 0.955336489125606, 0, 0, 1.32, 0.08, 1], "mesh": 3}, {"matrix": [1, 0, 0, 0, 0, 1, 0, 0, 0, 0, 1, 0, 0, 1.58, 0, 1], "mesh": 4}, {"matrix": [1, 0, 0, 0, 0, 1, 0, 0, 0, 0, 1, 0, 0, 1.66, 0.1, 1], "mesh": 5}, {"matrix": [1, 0, 0, 0, 0, 1, 0, 0, 0, 0, 1, 0, 0.09510565162951536, 1.66, 0.030901699437494747, 1], "mesh": 6}, {"matrix": [1, 0, 0, 0, 0, 1, 0, 0, 0, 0, 1, 0, 0.05877852522924733, 1.66, -0.08090169943749474, 1], "mesh": 7}, {"matrix": [1, 0, 0, 0, 0, 1, 0, 0, 0, 0, 1, 0, -0.05877852522924731, 1.66, -0.08090169943749476, 1], "mesh": 8}, {"matrix": [1, 0, 0, 0, 0, 1, 0, 0, 0, 0, 1, 0, -0.09510565162951537, 1.66, 0.030901699437494726, 1], "mesh": 9}, {"matrix": [1, 0, 0, 0, 0, 2.220446049250313e-16, 1, 0, 0, -1, 2.220446049250313e-16, 0, 0, 1.62, 0, 1], "mesh": 10}, {"matrix": [1.2, 0, 0, 0, 0, 0.8, 0, 0, 0, 0, 0.8, 0, 0, 1.68, 0, 1], "mesh": 11}, {"matrix": [1, 0, 0, 0, 0, 1, 0, 0, 0, 0, 1, 0, 0.04, 1.7, 0, 1], "mesh": 12}, {"children": [0, 1, 2, 3, 4, 5, 6, 7, 8, 9, 10, 11, 12]}], "bufferViews": [{"buffer": 0, "byteOffset": 0, "byteLength": 612, "target": 34962, "byteStride": 12}, {"buffer": 0, "byteOffset": 612, "byteLength": 612, "target": 34962, "byteStride": 12}, {"buffer": 0, "byteOffset": 1224, "byteLength": 408, "target": 34962, "byteStride": 8}, {"buffer": 0, "byteOffset": 1632, "byteLength": 216, "target": 34963}, {"buffer": 0, "byteOffset": 1848, "byteLength": 912, "target": 34962, "byteStride": 12}, {"buffer": 0, "byteOffset": 2760, "byteLength": 912, "target": 34962, "byteStride": 12}, {"buffer": 0, "byteOffset": 3672, "byteLength": 608, "target": 34962, "byteStride": 8}, {"buffer": 0, "byteOffset": 4280, "byteLength": 288, "target": 34963}, {"buffer": 0, "byteOffset": 4568, "byteLength": 2028, "target": 34962, "byteStride": 12}, {"buffer": 0, "byteOffset": 6596, "byteLength": 2028, "target": 34962, "byteStride": 12}, {"buffer": 0, "byteOffset": 8624, "byteLength": 1352, "target": 34962, "byteStride": 8}, {"buffer": 0, "byteOffset": 9976, "byteLength": 1584, "target": 34963}, {"buffer": 0, "byteOffset": 11560, "byteLength": 420, "target": 34962, "byteStride": 12}, {"buffer": 0, "byteOffset": 11980, "byteLength": 420, "target": 34962, "byteStride": 12}, {"buffer": 0, "byteOffset": 12400, "byteLength": 280, "target": 34962, "byteStride": 8}, {"buffer": 0, "byteOffset": 12680, "byteLength": 144, "target": 34963}, {"buffer": 0, "byteOffset": 12824, "byteLength": 912, "target": 34962, "byteStride": 12}, {"buffer": 0, "byteOffset": 13736, "byteLength": 912, "target": 34962, "byteStride": 12}, {"buffer": 0, "byteOffset": 14648, "byteLength": 608, "target": 34962, "byteStride": 8}, {"buffer": 0, "byteOffset": 15256, "byteLength": 288, "target": 34963}, {"buffer": 0, "byteOffset": 15544, "byteLength": 324, "target": 34962, "byteStride": 12}, {"buffer": 0, "byteOffset": 15868, "byteLength": 324, "target": 34962, "byteStride": 12}, {"buffer": 0, "byteOffset": 16192, "byteLength": 216, "target": 34962, "byteStride": 8}, {"buffer": 0, "byteOffset": 16408, "byteLength": 108, "target": 34963}, {"buffer": 0, "byteOffset": 16516, "byteLength": 324, "target": 34962, "byteStride": 12}, {"buffer": 0, "byteOffset": 16840, "byteLength": 324, "target": 34962, "byteStride": 12}, {"buffer": 0, "byteOffset": 17164, "byteLength": 216, "target": 34962, "byteStride": 8}, {"buffer": 0, "byteOffset": 17380, "byteLength": 108, "target": 34963}, {"buffer": 0, "byteOffset": 17488, "byteLength": 324, "target": 34962, "byteStride": 12}, {"buffer": 0, "byteOffset": 17812, "byteLength": 324, "target": 34962, "byteStride": 12}, {"buffer": 0, "byteOffset": 18136, "byteLength": 216, "target": 34962, "byteStride": 8}, {"buffer": 0, "byteOffset": 18352, "byteLength": 108, "target": 34963}, {"buffer": 0, "byteOffset": 18460, "byteLength": 324, "target": 34962, "byteStride": 12}, {"buffer": 0, "byteOffset": 18784, "byteLength": 324, "target": 34962, "byteStride": 12}, {"buffer": 0, "byteOffset": 19108, "byteLength": 216, "target": 34962, "byteStride": 8}, {"buffer": 0, "byteOffset": 19324, "byteLength": 108, "target": 34963}, {"buffer": 0, "byteOffset": 19432, "byteLength": 324, "target": 34962, "byteStride": 12}, {"buffer": 0, "byteOffset": 19756, "byteLength": 324, "target": 34962, "byteStride": 12}, {"buffer": 0, "byteOffset": 20080, "byteLength": 216, "target": 34962, "byteStride": 8}, {"buffer": 0, "byteOffset": 20296, "byteLength": 108, "target": 34963}, {"buffer": 0, "byteOffset": 20404, "byteLength": 1404, "target": 34962, "byteStride": 12}, {"buffer": 0, "byteOffset": 21808, "byteLength": 1404, "target": 34962, "byteStride": 12}, {"buffer": 0, "byteOffset": 23212, "byteLength": 936, "target": 34962, "byteStride": 8}, {"buffer": 0, "byteOffset": 24148, "byteLength": 1152, "target": 34963}, {"buffer": 0, "byteOffset": 25300, "byteLength": 972, "target": 34962, "byteStride": 12}, {"buffer": 0, "byteOffset": 26272, "byteLength": 972, "target": 34962, "byteStride": 12}, {"buffer": 0, "byteOffset": 27244, "byteLength": 648, "target": 34962, "byteStride": 8}, {"buffer": 0, "byteOffset": 27892, "byteLength": 672, "target": 34963}, {"buffer": 0, "byteOffset": 28564, "byteLength": 588, "target": 34962, "byteStride": 12}, {"buffer": 0, "byteOffset": 29152, "byteLength": 588, "target": 34962, "byteStride": 12}, {"buffer": 0, "byteOffset": 29740, "byteLength": 392, "target": 34962, "byteStride": 8}, {"buffer": 0, "byteOffset": 30132, "byteLength": 360, "target": 34963}], "buffers": [{"byteLength": 30492, "uri": "data:application/octet-stream;base64,"}], "accessors": [{"bufferView": 0, "componentType": 5126, "count": 51, "max": [0.3499999940395355, 0.550000011920929, 0.3499999940395355], "min": [-0.3499999940395355, -0.550000011920929, -0.3499999940395355], "type": "VEC3"}, {"bufferView": 1, "componentType": 5126, "count": 51, "max": [0.9529258012771606, 0.30320367217063904, 0.9529258012771606], "min": [-0.9529258012771606, -1, -0.9529258012771606], "type": "VEC3"}, {"bufferView": 2, "componentType": 5126, "count": 51, "max": [1, 1], "min": [0, 0], "type": "VEC2"}, {"bufferView": 3, "componentType": 5123, "count": 108, "max": [50], "min": [0], "type": "SCALAR"}, {"bufferView": 4, "componentType": 5126, "count": 76, "max": [0.2199999988079071, 0.20000000298023224, 0.2199999988079071], "min": [-0.2199999988079071, -0.20000000298023224, -0.2199999988079071], "type": "VEC3"}, {"bufferView": 5, "componentType": 5126, "count": 76, "max": [0.9889363646507263, 1, 0.9889363646507263], "min": [-0.9889363646507263, -1, -0.9889363646507263], "type": "VEC3"}, {"bufferView": 6, "componentType": 5126, "count": 76, "max": [1, 1], "min": [0, 0], "type": "VEC2"}, {"bufferView": 7, "componentType": 5123, "count": 144, "max": [75], "min": [0], "type": "SCALAR"}, {"bufferView": 8, "componentType": 5126, "count": 169, "max": [0.12999999523162842, 0.12999999523162842, 0.12999999523162842], "min": [-0.12999999523162842, -0.12999999523162842, -0.12999999523162842], "type": "VEC3"}, {"bufferView": 9, "componentType": 5126, "count": 169, "max": [1, 1, 1], "min": [-1, -1, -1], "type": "VEC3"}, {"bufferView": 10, "componentType": 5126, "count": 169, "max": [1.0416666269302368, 1], "min": [-0.0416666679084301, 0], "type": "VEC2"}, {"bufferView": 11, "componentType": 5123, "count": 792, "max": [168], "min": [0], "type": "SCALAR"}, {"bufferView": 12, "componentType": 5126, "count": 35, "max": [0.10000000149011612, 0.10000000149011612, 0.10000000149011612], "min": [-0.10000000149011612, -0.10000000149011612, -0.10000000149011612], "type": "VEC3"}, {"bufferView": 13, "componentType": 5126, "count": 35, "max": [0.8944271802902222, 0.4472135901451111, 0.8944271802902222], "min": [-0.8944271802902222, -1, -0.8944271802902222], "type": "VEC3"}, {"bufferView": 14, "componentType": 5126, "count": 35, "max": [1, 1], "min": [0, 0], "type": "VEC2"}, {"bufferView": 15, "componentType": 5123, "count": 72, "max": [34], "min": [0], "type": "SCALAR"}, {"bufferView": 16, "componentType": 5126, "count": 76, "max": [0.14000000059604645, 0.05000000074505806, 0.14000000059604645], "min": [-0.14000000059604645, -0.05000000074505806, -0.14000000059604645], "type": "VEC3"}, {"bufferView": 17, "componentType": 5126, "count": 76, "max": [0.9805806875228882, 1, 0.9805806875228882], "min": [-0.9805806875228882, -1, -0.9805806875228882], "type": "VEC3"}, {"bufferView": 18, "componentType": 5126, "count": 76, "max": [1, 1], "min": [0, 0], "type": "VEC2"}, {"bufferView": 19, "componentType": 5123, "count": 144, "max": [75], "min": [0], "type": "SCALAR"}, {"bufferView": 20, "componentType": 5126, "count": 27, "max": [0.021650634706020355, 0.03999999910593033, 0.02500000037252903], "min": [-0.021650634706020355, -0.03999999910593033, -0.02500000037252903], "type": "VEC3"}, {"bufferView": 21, "componentType": 5126, "count": 27, "max": [0.826603889465332, 0.2982749938964844, 0.954479992389679], "min": [-0.826603889465332, -1, -0.954479992389679], "type": "VEC3"}, {"bufferView": 22, "componentType": 5126, "count": 27, "max": [1, 1], "min": [0, 0], "type": "VEC2"}, {"bufferView": 23, "componentType": 5123, "count": 54, "max": [26], "min": [0], "type": "SCALAR"}, {"bufferView": 24, "componentType": 5126, "count": 27, "max": [0.021650634706020355, 0.03999999910593033, 0.02500000037252903], "min": [-0.021650634706020355, -0.03999999910593033, -0.02500000037252903], "type": "VEC3"}, {"bufferView": 25, "componentType": 5126, "count": 27, "max": [0.826603889465332, 0.2982749938964844, 0.954479992389679], "min": [-0.826603889465332, -1, -0.954479992389679], "type": "VEC3"}, {"bufferView": 26, "componentType": 5126, "count": 27, "max": [1, 1], "min": [0, 0], "type": "VEC2"}, {"bufferView": 27, "componentType": 5123, "count": 54, "max": [26], "min": [0], "type": "SCALAR"}, {"bufferView": 28, "componentType": 5126, "count": 27, "max": [0.021650634706020355, 0.03999999910593033, 0.02500000037252903], "min": [-0.021650634706020355, -0.03999999910593033, -0.02500000037252903], "type": "VEC3"}, {"bufferView": 29, "componentType": 5126, "count": 27, "max": [0.826603889465332, 0.2982749938964844, 0.954479992389679], "min": [-0.826603889465332, -1, -0.954479992389679], "type": "VEC3"}, {"bufferView": 30, "componentType": 5126, "count": 27, "max": [1, 1], "min": [0, 0], "type": "VEC2"}, {"bufferView": 31, "componentType": 5123, "count": 54, "max": [26], "min": [0], "type": "SCALAR"}, {"bufferView": 32, "componentType": 5126, "count": 27, "max": [0.021650634706020355, 0.03999999910593033, 0.02500000037252903], "min": [-0.021650634706020355, -0.03999999910593033, -0.02500000037252903], "type": "VEC3"}, {"bufferView": 33, "componentType": 5126, "count": 27, "max": [0.826603889465332, 0.2982749938964844, 0.954479992389679], "min": [-0.826603889465332, -1, -0.954479992389679], "type": "VEC3"}, {"bufferView": 34, "componentType": 5126, "count": 27, "max": [1, 1], "min": [0, 0], "type": "VEC2"}, {"bufferView": 35, "componentType": 5123, "count": 54, "max": [26], "min": [0], "type": "SCALAR"}, {"bufferView": 36, "componentType": 5126, "count": 27, "max": [0.021650634706020355, 0.03999999910593033, 0.02500000037252903], "min": [-0.021650634706020355, -0.03999999910593033, -0.02500000037252903], "type": "VEC3"}, {"bufferView": 37, "componentType": 5126, "count": 27, "max": [0.826603889465332, 0.2982749938964844, 0.954479992389679], "min": [-0.826603889465332, -1, -0.954479992389679], "type": "VEC3"}, {"bufferView": 38, "componentType": 5126, "count": 27, "max": [1, 1], "min": [0, 0], "type": "VEC2"}, {"bufferView": 39, "componentType": 5123, "count": 54, "max": [26], "min": [0], "type": "SCALAR"}, {"bufferView": 40, "componentType": 5126, "count": 117, "max": [0.10499999672174454, 0.10499999672174454, 0.02500000037252903], "min": [-0.10499999672174454, -0.10499999672174454, -0.02500000037252903], "type": "VEC3"}, {"bufferView": 41, "componentType": 5126, "count": 117, "max": [1, 1, 1], "min": [-1, -1, -1], "type": "VEC3"}, {"bufferView": 42, "componentType": 5126, "count": 117, "max": [1, 1], "min": [0, 0], "type": "VEC2"}, {"bufferView": 43, "componentType": 5123, "count": 576, "max": [116], "min": [0], "type": "SCALAR"}, {"bufferView": 44, "componentType": 5126, "count": 81, "max": [0.03999999910593033, 0.03999999910593033, 0.03999999910593033], "min": [-0.03999999910593033, -0.03999999910593033, -0.03999999910593033], "type": "VEC3"}, {"bufferView": 45, "componentType": 5126, "count": 81, "max": [1, 1, 1], "min": [-1, -1, -1], "type": "VEC3"}, {"bufferView": 46, "componentType": 5126, "count": 81, "max": [1.0625, 1], "min": [-0.0625, 0], "type": "VEC2"}, {"bufferView": 47, "componentType": 5123, "count": 336, "max": [80], "min": [0], "type": "SCALAR"}, {"bufferView": 48, "componentType": 5126, "count": 49, "max": [0.019999999552965164, 0.019999999552965164, 0.017320508137345314], "min": [-0.019999999552965164, -0.019999999552965164, -0.017320508137345314], "type": "VEC3"}, {"bufferView": 49, "componentType": 5126, "count": 49, "max": [1, 1, 0.8660253882408142], "min": [-1, -1, -0.8660253882408142], "type": "VEC3"}, {"bufferView": 50, "componentType": 5126, "count": 49, "max": [1.0833333730697632, 1], "min": [-0.0833333358168602, 0], "type": "VEC2"}, {"bufferView": 51, "componentType": 5123, "count": 180, "max": [48], "min": [0], "type": "SCALAR"}], "materials": [{"pbrMetallicRoughness": {"baseColorFactor": [0.8156862745098039, 0.8, 0.7686274509803922, 1], "metallicFactor": 0, "roughnessFactor": 0.75}}, {"pbrMetallicRoughness": {"baseColorFactor": [0.8470588235294118, 0.8313725490196079, 0.8, 1], "metallicFactor": 0, "roughnessFactor": 0.7}}, {"pbrMetallicRoughness": {"baseColorFactor": [0.7843137254901961, 0.7686274509803922, 0.7372549019607844, 1], "metallicFactor": 0, "roughnessFactor": 0.8}}], "meshes": [{"primitives": [{"mode": 4, "attributes": {"POSITION": 0, "NORMAL": 1, "TEXCOORD_0": 2}, "indices": 3, "material": 0}]}, {"primitives": [{"mode": 4, "attributes": {"POSITION": 4, "NORMAL": 5, "TEXCOORD_0": 6}, "indices": 7, "material": 0}]}, {"primitives": [{"mode": 4, "attributes": {"POSITION": 8, "NORMAL": 9, "TEXCOORD_0": 10}, "indices": 11, "material": 0}]}, {"primitives": [{"mode": 4, "attributes": {"POSITION": 12, "NORMAL": 13, "TEXCOORD_0": 14}, "indices": 15, "material": 0}]}, {"primitives": [{"mode": 4, "attributes": {"POSITION": 16, "NORMAL": 17, "TEXCOORD_0": 18}, "indices": 19, "material": 1}]}, {"primitives": [{"mode": 4, "attributes": {"POSITION": 20, "NORMAL": 21, "TEXCOORD_0": 22}, "indices": 23, "material": 1}]}, {"primitives": [{"mode": 4, "attributes": {"POSITION": 24, "NORMAL": 25, "TEXCOORD_0": 26}, "indices": 27, "material": 1}]}, {"primitives": [{"mode": 4, "attributes": {"POSITION": 28, "NORMAL": 29, "TEXCOORD_0": 30}, "indices": 31, "material": 1}]}, {"primitives": [{"mode": 4, "attributes": {"POSITION": 32, "NORMAL": 33, "TEXCOORD_0": 34}, "indices": 35, "material": 1}]}, {"primitives": [{"mode": 4, "attributes": {"POSITION": 36, "NORMAL": 37, "TEXCOORD_0": 38}, "indices": 39, "material": 1}]}, {"primitives": [{"mode": 4, "attributes": {"POSITION": 40, "NORMAL": 41, "TEXCOORD_0": 42}, "indices": 43, "material": 2}]}, {"primitives": [{"mode": 4, "attributes": {"POSITION": 44, "NORMAL": 45, "TEXCOORD_0": 46}, "indices": 47, "material": 1}]}, {"primitives": [{"mode": 4, "attributes": {"POSITION": 48, "NORMAL": 49, "TEXCOORD_0": 50}, "indices": 51, "material": 1}]}]}