{"asset": {"version": "2.0", "generator": "THREE.GLTFExporter", "extras": {"statueName": "Fox Teaching Students", "statueDescription": "Wisdom passed down - kitsune-like knowledge shared with unlikely pupils. Squirrels and satyrs attend.", "statueId": "fox_teacher"}}, "scenes": [{"nodes": [16]}], "scene": 0, "nodes": [{"matrix": [1, 0, 0, 0, 0, 1, 0, 0, 0, 0, 1, 0, 0, 0.55, 0, 1], "mesh": 0}, {"matrix": [0.9, 0, 0, 0, 0, 1.1, 0, 0, 0, 0, 1, 0, 0, 0.88, 0, 1], "mesh": 1}, {"matrix": [1, 0, 0, 0, 0, 2.220446049250313e-16, 1, 0, 0, -1, 2.220446049250313e-16, 0, 0, 0.85, 0.1, 1], "mesh": 2}, {"matrix": [0.9800665778412416, 0.19866933079506124, 0, 0, -0.19866933079506124, 0.9800665778412416, 0, 0, 0, 0, 1, 0, -0.06, 1, 0, 1], "mesh": 3}, {"matrix": [0.9800665778412416, -0.19866933079506124, 0, 0, 0.19866933079506124, 0.9800665778412416, 0, 0, 0, 0, 1, 0, 0.06, 1, 0, 1], "mesh": 4}, {"matrix": [0.8775825618903728, -0.4207354924039482, -0.22984884706593015, 0, 0.47942553860420295, 0.7701511529340699, 0.4207354924039482, 0, 0, -0.47942553860420295, 0.8775825618903728, 0, 0.12, 0.7, 0.1, 1], "mesh": 5}, {"matrix": [0.8, 0, 0, 0, 0, 1.2, 0, 0, 0, 0, 0.8, 0, -0.25, 0.2, 0.15, 1], "mesh": 6}, {"matrix": [1, 0, 0, 0, 0, 1, 0, 0, 0, 0, 1, 0, -0.25, 0.30000000000000004, 0.16999999999999998, 1], "mesh": 7}, {"matrix": [0.8, 0, 0, 0, 0, 1.2, 0, 0, 0, 0, 0.8, 0, -0.15, 0.18, 0.22, 1], "mesh": 8}, {"matrix": [1, 0, 0, 0, 0, 1, 0, 0, 0, 0, 1, 0, -0.15, 0.28, 0.24, 1], "mesh": 9}, {"matrix": [1, 0, 0, 0, 0, 1, 0, 0, 0, 0, 1, 0, 0.2, 0.22, 0.12, 1], "mesh": 10}, {"matrix": [1, 0, 0, 0, 0, 1, 0, 0, 0, 0, 1, 0, 0.2, 0.32, 0.12, 1], "mesh": 11}, {"matrix": [1, 0, 0, 0, 0, 1, 0, 0, 0, 0, 1, 0, 0.22, 0.35, 0.12, 1], "mesh": 12}, {"matrix": [1, 0, 0, 0, 0, 1, 0, 0, 0, 0, 1, 0, 0.28, 0.2, 0.2, 1], "mesh": 13}, {"matrix": [1, 0, 0, 0, 0, 1, 0, 0, 0, 0, 1, 0, 0.28, 0.30000000000000004, 0.2, 1], "mesh": 14}, {"matrix": [1, 0, 0, 0, 0, 1, 0, 0, 0, 0, 1, 0, 0.30000000000000004, 0.33, 0.2, 1], "mesh": 15}, {"children": [0, 1, 2, 3, 4, 5, 6, 7, 8, 9, 10, 11, 12, 13, 14, 15]}], "bufferViews": [{"buffer": 0, "byteOffset": 0, "byteLength": 912, "target": 34962, "byteStride": 12}, {"buffer": 0, "byteOffset": 912, "byteLength": 912, "target": 34962, "byteStride": 12}, {"buffer": 0, "byteOffset": 1824, "byteLength": 608, "target": 34962, "byteStride": 8}, {"buffer": 0, "byteOffset": 2432, "byteLength": 288, "target": 34963}, {"buffer": 0, "byteOffset": 2720, "byteLength": 2028, "target": 34962, "byteStride": 12}, {"buffer": 0, "byteOffset": 4748, "byteLength": 2028, "target": 34962, "byteStride": 12}, {"buffer": 0, "byteOffset": 6776, "byteLength": 1352, "target": 34962, "byteStride": 8}, {"buffer": 0, "byteOffset": 8128, "byteLength": 1584, "target": 34963}, {"buffer": 0, "byteOffset": 9712, "byteLength": 420, "target": 34962, "byteStride": 12}, {"buffer": 0, "byteOffset": 10132, "byteLength": 420, "target": 34962, "byteStride": 12}, {"buffer": 0, "byteOffset": 10552, "byteLength": 280, "target": 34962, "byteStride": 8}, {"buffer": 0, "byteOffset": 10832, "byteLength": 144, "target": 34963}, {"buffer": 0, "byteOffset": 10976, "byteLength": 324, "target": 34962, "byteStride": 12}, {"buffer": 0, "byteOffset": 11300, "byteLength": 324, "target": 34962, "byteStride": 12}, {"buffer": 0, "byteOffset": 11624, "byteLength": 216, "target": 34962, "byteStride": 8}, {"buffer": 0, "byteOffset": 11840, "byteLength": 108, "target": 34963}, {"buffer": 0, "byteOffset": 11948, "byteLength": 324, "target": 34962, "byteStride": 12}, {"buffer": 0, "byteOffset": 12272, "byteLength": 324, "target": 34962, "byteStride": 12}, {"buffer": 0, "byteOffset": 12596, "byteLength": 216, "target": 34962, "byteStride": 8}, {"buffer": 0, "byteOffset": 12812, "byteLength": 108, "target": 34963}, {"buffer": 0, "byteOffset": 12920, "byteLength": 624, "target": 34962, "byteStride": 12}, {"buffer": 0, "byteOffset": 13544, "byteLength": 624, "target": 34962, "byteStride": 12}, {"buffer": 0, "byteOffset": 14168, "byteLength": 416, "target": 34962, "byteStride": 8}, {"buffer": 0, "byteOffset": 14584, "byteLength": 192, "target": 34963}, {"buffer": 0, "byteOffset": 14776, "byteLength": 972, "target": 34962, "byteStride": 12}, {"buffer": 0, "byteOffset": 15748, "byteLength": 972, "target": 34962, "byteStride": 12}, {"buffer": 0, "byteOffset": 16720, "byteLength": 648, "target": 34962, "byteStride": 8}, {"buffer": 0, "byteOffset": 17368, "byteLength": 672, "target": 34963}, {"buffer": 0, "byteOffset": 18040, "byteLength": 972, "target": 34962, "byteStride": 12}, {"buffer": 0, "byteOffset": 19012, "byteLength": 972, "target": 34962, "byteStride": 12}, {"buffer": 0, "byteOffset": 19984, "byteLength": 648, "target": 34962, "byteStride": 8}, {"buffer": 0, "byteOffset": 20632, "byteLength": 672, "target": 34963}, {"buffer": 0, "byteOffset": 21304, "byteLength": 972, "target": 34962, "byteStride": 12}, {"buffer": 0, "byteOffset": 22276, "byteLength": 972, "target": 34962, "byteStride": 12}, {"buffer": 0, "byteOffset": 23248, "byteLength": 648, "target": 34962, "byteStride": 8}, {"buffer": 0, "byteOffset": 23896, "byteLength": 672, "target": 34963}, {"buffer": 0, "byteOffset": 24568, "byteLength": 972, "target": 34962, "byteStride": 12}, {"buffer": 0, "byteOffset": 25540, "byteLength": 972, "target": 34962, "byteStride": 12}, {"buffer": 0, "byteOffset": 26512, "byteLength": 648, "target": 34962, "byteStride": 8}, {"buffer": 0, "byteOffset": 27160, "byteLength": 672, "target": 34963}, {"buffer": 0, "byteOffset": 27832, "byteLength": 420, "target": 34962, "byteStride": 12}, {"buffer": 0, "byteOffset": 28252, "byteLength": 420, "target": 34962, "byteStride": 12}, {"buffer": 0, "byteOffset": 28672, "byteLength": 280, "target": 34962, "byteStride": 8}, {"buffer": 0, "byteOffset": 28952, "byteLength": 144, "target": 34963}, {"buffer": 0, "byteOffset": 29096, "byteLength": 972, "target": 34962, "byteStride": 12}, {"buffer": 0, "byteOffset": 30068, "byteLength": 972, "target": 34962, "byteStride": 12}, {"buffer": 0, "byteOffset": 31040, "byteLength": 648, "target": 34962, "byteStride": 8}, {"buffer": 0, "byteOffset": 31688, "byteLength": 672, "target": 34963}, {"buffer": 0, "byteOffset": 32360, "byteLength": 228, "target": 34962, "byteStride": 12}, {"buffer": 0, "byteOffset": 32588, "byteLength": 228, "target": 34962, "byteStride": 12}, {"buffer": 0, "byteOffset": 32816, "byteLength": 152, "target": 34962, "byteStride": 8}, {"buffer": 0, "byteOffset": 32968, "byteLength": 72, "target": 34963}, {"buffer": 0, "byteOffset": 33040, "byteLength": 420, "target": 34962, "byteStride": 12}, {"buffer": 0, "byteOffset": 33460, "byteLength": 420, "target": 34962, "byteStride": 12}, {"buffer": 0, "byteOffset": 33880, "byteLength": 280, "target": 34962, "byteStride": 8}, {"buffer": 0, "byteOffset": 34160, "byteLength": 144, "target": 34963}, {"buffer": 0, "byteOffset": 34304, "byteLength": 972, "target": 34962, "byteStride": 12}, {"buffer": 0, "byteOffset": 35276, "byteLength": 972, "target": 34962, "byteStride": 12}, {"buffer": 0, "byteOffset": 36248, "byteLength": 648, "target": 34962, "byteStride": 8}, {"buffer": 0, "byteOffset": 36896, "byteLength": 672, "target": 34963}, {"buffer": 0, "byteOffset": 37568, "byteLength": 228, "target": 34962, "byteStride": 12}, {"buffer": 0, "byteOffset": 37796, "byteLength": 228, "target": 34962, "byteStride": 12}, {"buffer": 0, "byteOffset": 38024, "byteLength": 152, "target": 34962, "byteStride": 8}, {"buffer": 0, "byteOffset": 38176, "byteLength": 72, "target": 34963}], "buffers": [{"byteLength": 38248, "uri": "data:application/octet-stream;base64,"}], "accessors": [{"bufferView": 0, "componentType": 5126, "count": 76, "max": [0.11999999731779099, 0.25, 0.11999999731779099], "min": [-0.11999999731779099, -0.25, -0.11999999731779099], "type": "VEC3"}, {"bufferView": 1, "componentType": 5126, "count": 76, "max": [0.9992009401321411, 1, 0.9992009401321411], "min": [-0.9992009401321411, -1, -0.9992009401321411], "type": "VEC3"}, {"bufferView": 2, "componentType": 5126, "count": 76, "max": [1, 1], "min": [0, 0], "type": "VEC2"}, {"bufferView": 3, "componentType": 5123, "count": 144, "max": [75], "min": [0], "type": "SCALAR"}, {"bufferView": 4, "componentType": 5126, "count": 169, "max": [0.10000000149011612, 0.10000000149011612, 0.10000000149011612], "min": [-0.10000000149011612, -0.10000000149011612, -0.10000000149011612], "type": "VEC3"}, {"bufferView": 5, "componentType": 5126, "count": 169, "max": [1, 1, 1], "min": [-1, -1, -1], "type": "VEC3"}, {"bufferView": 6, "componentType": 5126, "count": 169, "max": [1.0416666269302368, 1], "min": [-0.0416666679084301, 0], "type": "VEC2"}, {"bufferView": 7, "componentType": 5123, "count": 792, "max": [168], "min": [0], "type": "SCALAR"}, {"bufferView": 8, "componentType": 5126, "count": 35, "max": [0.03999999910593033, 0.05999999865889549, 0.03999999910593033], "min": [-0.03999999910593033, -0.05999999865889549, -0.03999999910593033], "type": "VEC3"}, {"bufferView": 9, "componentType": 5126, "count": 35, "max": [0.9486833214759827, 0.3162277638912201, 0.9486833214759827], "min": [-0.9486833214759827, -1, -0.9486833214759827], "type": "VEC3"}, {"bufferView": 10, "componentType": 5126, "count": 35, "max": [1, 1], "min": [0, 0], "type": "VEC2"}, {"bufferView": 11, "componentType": 5123, "count": 72, "max": [34], "min": [0], "type": "SCALAR"}, {"bufferView": 12, "componentType": 5126, "count": 27, "max": [0.025980761274695396, 0.03999999910593033, 0.029999999329447746], "min": [-0.025980761274695396, -0.03999999910593033, -0.029999999329447746], "type": "VEC3"}, {"bufferView": 13, "componentType": 5126, "count": 27, "max": [0.8108848333358765, 0.3511234521865845, 0.936329185962677], "min": [-0.8108848333358765, -1, -0.936329185962677], "type": "VEC3"}, {"bufferView": 14, "componentType": 5126, "count": 27, "max": [1, 1], "min": [0, 0], "type": "VEC2"}, {"bufferView": 15, "componentType": 5123, "count": 54, "max": [26], "min": [0], "type": "SCALAR"}, {"bufferView": 16, "componentType": 5126, "count": 27, "max": [0.025980761274695396, 0.03999999910593033, 0.029999999329447746], "min": [-0.025980761274695396, -0.03999999910593033, -0.029999999329447746], "type": "VEC3"}, {"bufferView": 17, "componentType": 5126, "count": 27, "max": [0.8108848333358765, 0.3511234521865845, 0.936329185962677], "min": [-0.8108848333358765, -1, -0.936329185962677], "type": "VEC3"}, {"bufferView": 18, "componentType": 5126, "count": 27, "max": [1, 1], "min": [0, 0], "type": "VEC2"}, {"bufferView": 19, "componentType": 5123, "count": 54, "max": [26], "min": [0], "type": "SCALAR"}, {"bufferView": 20, "componentType": 5126, "count": 52, "max": [0.03999999910593033, 0.125, 0.03999999910593033], "min": [-0.03999999910593033, -0.125, -0.03999999910593033], "type": "VEC3"}, {"bufferView": 21, "componentType": 5126, "count": 52, "max": [0.9992009401321411, 1, 0.9992009401321411], "min": [-0.9992009401321411, -1, -0.9992009401321411], "type": "VEC3"}, {"bufferView": 22, "componentType": 5126, "count": 52, "max": [1, 1], "min": [0, 0], "type": "VEC2"}, {"bufferView": 23, "componentType": 5123, "count": 96, "max": [51], "min": [0], "type": "SCALAR"}, {"bufferView": 24, "componentType": 5126, "count": 81, "max": [0.05000000074505806, 0.05000000074505806, 0.05000000074505806], "min": [-0.05000000074505806, -0.05000000074505806, -0.05000000074505806], "type": "VEC3"}, {"bufferView": 25, "componentType": 5126, "count": 81, "max": [1, 1, 1], "min": [-1, -1, -1], "type": "VEC3"}, {"bufferView": 26, "componentType": 5126, "count": 81, "max": [1.0625, 1], "min": [-0.0625, 0], "type": "VEC2"}, {"bufferView": 27, "componentType": 5123, "count": 336, "max": [80], "min": [0], "type": "SCALAR"}, {"bufferView": 28, "componentType": 5126, "count": 81, "max": [0.029999999329447746, 0.029999999329447746, 0.029999999329447746], "min": [-0.029999999329447746, -0.029999999329447746, -0.029999999329447746], "type": "VEC3"}, {"bufferView": 29, "componentType": 5126, "count": 81, "max": [1, 1, 1], "min": [-1, -1, -1], "type": "VEC3"}, {"bufferView": 30, "componentType": 5126, "count": 81, "max": [1.0625, 1], "min": [-0.0625, 0], "type": "VEC2"}, {"bufferView": 31, "componentType": 5123, "count": 336, "max": [80], "min": [0], "type": "SCALAR"}, {"bufferView": 32, "componentType": 5126, "count": 81, "max": [0.05000000074505806, 0.05000000074505806, 0.05000000074505806], "min": [-0.05000000074505806, -0.05000000074505806, -0.05000000074505806], "type": "VEC3"}, {"bufferView": 33, "componentType": 5126, "count": 81, "max": [1, 1, 1], "min": [-1, -1, -1], "type": "VEC3"}, {"bufferView": 34, "componentType": 5126, "count": 81, "max": [1.0625, 1], "min": [-0.0625, 0], "type": "VEC2"}, {"bufferView": 35, "componentType": 5123, "count": 336, "max": [80], "min": [0], "type": "SCALAR"}, {"bufferView": 36, "componentType": 5126, "count": 81, "max": [0.029999999329447746, 0.029999999329447746, 0.029999999329447746], "min": [-0.029999999329447746, -0.029999999329447746, -0.029999999329447746], "type": "VEC3"}, {"bufferView": 37, "componentType": 5126, "count": 81, "max": [1, 1, 1], "min": [-1, -1, -1], "type": "VEC3"}, {"bufferView": 38, "componentType": 5126, "count": 81, "max": [1.0625, 1], "min": [-0.0625, 0], "type": "VEC2"}, {"bufferView": 39, "componentType": 5123, "count": 336, "max": [80], "min": [0], "type": "SCALAR"}, {"bufferView": 40, "componentType": 5126, "count": 35, "max": [0.03999999910593033, 0.07500000298023224, 0.03999999910593033], "min": [-0.03999999910593033, -0.07500000298023224, -0.03999999910593033], "type": "VEC3"}, {"bufferView": 41, "componentType": 5126, "count": 35, "max": [0.9662349224090576, 0.25766265392303467, 0.9662349224090576], "min": [-0.9662349224090576, -1, -0.9662349224090576], "type": "VEC3"}, {"bufferView": 42, "componentType": 5126, "count": 35, "max": [1, 1], "min": [0, 0], "type": "VEC2"}, {"bufferView": 43, "componentType": 5123, "count": 72, "max": [34], "min": [0], "type": "SCALAR"}, {"bufferView": 44, "componentType": 5126, "count": 81, "max": [0.02500000037252903, 0.02500000037252903, 0.02500000037252903], "min": [-0.02500000037252903, -0.02500000037252903, -0.02500000037252903], "type": "VEC3"}, {"bufferView": 45, "componentType": 5126, "count": 81, "max": [1, 1, 1], "min": [-1, -1, -1], "type": "VEC3"}, {"bufferView": 46, "componentType": 5126, "count": 81, "max": [1.0625, 1], "min": [-0.0625, 0], "type": "VEC2"}, {"bufferView": 47, "componentType": 5123, "count": 336, "max": [80], "min": [0], "type": "SCALAR"}, {"bufferView": 48, "componentType": 5126, "count": 19, "max": [0.00800000037997961, 0.014999999664723873, 0.00800000037997961], "min": [-0.00800000037997961, -0.014999999664723873, -0.00800000037997961], "type": "VEC3"}, {"bufferView": 49, "componentType": 5126, "count": 19, "max": [0.9662349224090576, 0.25766265392303467, 0.9662349224090576], "min": [-0.9662349224090576, -1, -0.9662349224090576], "type": "VEC3"}, {"bufferView": 50, "componentType": 5126, "count": 19, "max": [1, 1], "min": [0, 0], "type": "VEC2"}, {"bufferView": 51, "componentType": 5123, "count": 36, "max": [18], "min": [0], "type": "SCALAR"}, {"bufferView": 52, "componentType": 5126, "count": 35, "max": [0.03999999910593033, 0.07500000298023224, 0.03999999910593033], "min": [-0.03999999910593033, -0.07500000298023224, -0.03999999910593033], "type": "VEC3"}, {"bufferView": 53, "componentType": 5126, "count": 35, "max": [0.9662349224090576, 0.25766265392303467, 0.9662349224090576], "min": [-0.9662349224090576, -1, -0.9662349224090576], "type": "VEC3"}, {"bufferView": 54, "componentType": 5126, "count": 35, "max": [1, 1], "min": [0, 0], "type": "VEC2"}, {"bufferView": 55, "componentType": 5123, "count": 72, "max": [34], "min": [0], "type": "SCALAR"}, {"bufferView": 56, "componentType": 5126, "count": 81, "max": [0.02500000037252903, 0.02500000037252903, 0.02500000037252903], "min": [-0.02500000037252903, -0.02500000037252903, -0.02500000037252903], "type": "VEC3"}, {"bufferView": 57, "componentType": 5126, "count": 81, "max": [1, 1, 1], "min": [-1, -1, -1], "type": "VEC3"}, {"bufferView": 58, "componentType": 5126, "count": 81, "max": [1.0625, 1], "min": [-0.0625, 0], "type": "VEC2"}, {"bufferView": 59, "componentType": 5123, "count": 336, "max": [80], "min": [0], "type": "SCALAR"}, {"bufferView": 60, "componentType": 5126, "count": 19, "max": [0.00800000037997961, 0.014999999664723873, 0.00800000037997961], "min": [-0.00800000037997961, -0.014999999664723873, -0.00800000037997961], "type": "VEC3"}, {"bufferView": 61, "componentType": 5126, "count": 19, "max": [0.9662349224090576, 0.25766265392303467, 0.9662349224090576], "min": [-0.9662349224090576, -1, -0.9662349224090576], "type": "VEC3"}, {"bufferView": 62, "componentType": 5126, "count": 19, "max": [1, 1], "min": [0, 0], "type": "VEC2"}, {"bufferView": 63, "componentType": 5123, "count": 36, "max": [18], "min": [0], "type": "SCALAR"}], "materials": [{"pbrMetallicRoughness": {"baseColorFactor": [0.8156862745098039, 0.8, 0.7686274509803922, 1], "metallicFactor": 0, "roughnessFactor": 0.75}}, {"pbrMetallicRoughness": {"baseColorFactor": [0.8470588235294118, 0.8313725490196079, 0.8, 1], "metallicFactor": 0, "roughnessFactor": 0.7}}, {"pbrMetallicRoughness": {"baseColorFactor": [0.7843137254901961, 0.7686274509803922, 0.7372549019607844, 1], "metallicFactor": 0, "roughnessFactor": 0.8}}], "meshes": [{"primitives": [{"mode": 4, "attributes": {"POSITION": 0, "NORMAL": 1, "TEXCOORD_0": 2}, "indices": 3, "material": 0}]}, {"primitives": [{"mode": 4, "attributes": {"POSITION": 4, "NORMAL": 5, "TEXCOORD_0": 6}, "indices": 7, "material": 0}]}, {"primitives": [{"mode": 4, "attributes": {"POSITION": 8, "NORMAL": 9, "TEXCOORD_0": 10}, "indices": 11, "material": 0}]}, {"primitives": [{"mode": 4, "attributes": {"POSITION": 12, "NORMAL": 13, "TEXCOORD_0": 14}, "indices": 15, "material": 0}]}, {"primitives": [{"mode": 4, "attributes": {"POSITION": 16, "NORMAL": 17, "TEXCOORD_0": 18}, "indices": 19, "material": 0}]}, {"primitives": [{"mode": 4, "attributes": {"POSITION": 20, "NORMAL": 21, "TEXCOORD_0": 22}, "indices": 23, "material": 0}]}, {"primitives": [{"mode": 4, "attributes": {"POSITION": 24, "NORMAL": 25, "TEXCOORD_0": 26}, "indices": 27, "material": 1}]}, {"primitives": [{"mode": 4, "attributes": {"POSITION": 28, "NORMAL": 29, "TEXCOORD_0": 30}, "indices": 31, "material": 1}]}, {"primitives": [{"mode": 4, "attributes": {"POSITION": 32, "NORMAL": 33, "TEXCOORD_0": 34}, "indices": 35, "material": 1}]}, {"primitives": [{"mode": 4, "attributes": {"POSITION": 36, "NORMAL": 37, "TEXCOORD_0": 38}, "indices": 39, "material": 1}]}, {"primitives": [{"mode": 4, "attributes": {"POSITION": 40, "NORMAL": 41, "TEXCOORD_0": 42}, "indices": 43, "material": 2}]}, {"primitives": [{"mode": 4, "attributes": {"POSITION": 44, "NORMAL": 45, "TEXCOORD_0": 46}, "indices": 47, "material": 2}]}, {"primitives": [{"mode": 4, "attributes": {"POSITION": 48, "NORMAL": 49, "TEXCOORD_0": 50}, "indices": 51, "material": 2}]}, {"primitives": [{"mode": 4, "attributes": {"POSITION": 52, "NORMAL": 53, "TEXCOORD_0": 54}, "indices": 55, "material": 2}]}, {"primitives": [{"mode": 4, "attributes": {"POSITION": 56, "NORMAL": 57, "TEXCOORD_0": 58}, "indices": 59, "material": 2}]}, {"primitives": [{"mode": 4, "attributes": {"POSITION": 60, "NORMAL": 61, "TEXCOORD_0": 62}, "indices": 63, "material": 2}]}]}