{"asset": {"version": "2.0", "generator": "THREE.GLTFExporter", "extras": {"statueName": "The Gardener", "statueDescription": "Hard work rewarded. Simple robes, honest labor, weathered marble.", "statueId": "gardener"}}, "scenes": [{"nodes": [9]}], "scene": 0, "nodes": [{"matrix": [1, 0, 0, 0, 0, 1, 0, 0, 0, 0, 1, 0, 0, 0.45, 0, 1], "mesh": 0}, {"matrix": [1, 0, 0, 0, 0, 0.955336489125606, 0.29552020666133955, 0, 0, -0.29552020666133955, 0.955336489125606, 0, 0.05, 0.95, 0.05, 1], "mesh": 1}, {"matrix": [1, 0, 0, 0, 0, 1, 0, 0, 0, 0, 1, 0, 0.1, 1.22, 0.08, 1], "mesh": 2}, {"matrix": [1, 0, 0, 0, 0, 1, 0, 0, 0, 0, 1, 0, 0.1, 1.32, 0.06, 1], "mesh": 3}, {"matrix": [0.955336489125606, 0.2439033514830719, 0.16686326042747074, 0, -0.29552020666133955, 0.7884732286981353, 0.5394235581444113, 0, -1.3877787807814457e-17, -0.5646424733950353, 0.8253356149096783, 0, -0.15, 0.95, 0.18, 1], "mesh": 4}, {"matrix": [0.9800665778412416, -0.1384142557064306, -0.1425166545207693, 0, 0.19866933079506124, 0.6828189603889089, 0.7030567291014661, 0, 0, -0.717356090899523, 0.6967067093471653, 0, 0.15, 0.85, 0.2, 1], "mesh": 5}, {"matrix": [1, 0, 0, 0, 0, 0.9210609940028851, 0.38941834230865047, 0, 0, -0.38941834230865047, 0.9210609940028851, 0, 0.1, 0.6, 0.25, 1], "mesh": 6}, {"matrix": [1, 0, 0, 0, 0, 0.9210609940028851, 0.38941834230865047, 0, 0, -0.38941834230865047, 0.9210609940028851, 0, 0.1, 0.15, 0.35, 1], "mesh": 7}, {"matrix": [1.5, 0, 0, 0, 0, 0.4, 0, 0, 0, 0, 1, 0, 0.15, 0.05, 0.3, 1], "mesh": 8}, {"children": [0, 1, 2, 3, 4, 5, 6, 7, 8]}], "bufferViews": [{"buffer": 0, "byteOffset": 0, "byteLength": 612, "target": 34962, "byteStride": 12}, {"buffer": 0, "byteOffset": 612, "byteLength": 612, "target": 34962, "byteStride": 12}, {"buffer": 0, "byteOffset": 1224, "byteLength": 408, "target": 34962, "byteStride": 8}, {"buffer": 0, "byteOffset": 1632, "byteLength": 216, "target": 34963}, {"buffer": 0, "byteOffset": 1848, "byteLength": 912, "target": 34962, "byteStride": 12}, {"buffer": 0, "byteOffset": 2760, "byteLength": 912, "target": 34962, "byteStride": 12}, {"buffer": 0, "byteOffset": 3672, "byteLength": 608, "target": 34962, "byteStride": 8}, {"buffer": 0, "byteOffset": 4280, "byteLength": 288, "target": 34963}, {"buffer": 0, "byteOffset": 4568, "byteLength": 2028, "target": 34962, "byteStride": 12}, {"buffer": 0, "byteOffset": 6596, "byteLength": 2028, "target": 34962, "byteStride": 12}, {"buffer": 0, "byteOffset": 8624, "byteLength": 1352, "target": 34962, "byteStride": 8}, {"buffer": 0, "byteOffset": 9976, "byteLength": 1584, "target": 34963}, {"buffer": 0, "byteOffset": 11560, "byteLength": 768, "target": 34962, "byteStride": 12}, {"buffer": 0, "byteOffset": 12328, "byteLength": 768, "target": 34962, "byteStride": 12}, {"buffer": 0, "byteOffset": 13096, "byteLength": 512, "target": 34962, "byteStride": 8}, {"buffer": 0, "byteOffset": 13608, "byteLength": 240, "target": 34963}, {"buffer": 0, "byteOffset": 13848, "byteLength": 768, "target": 34962, "byteStride": 12}, {"buffer": 0, "byteOffset": 14616, "byteLength": 768, "target": 34962, "byteStride": 12}, {"buffer": 0, "byteOffset": 15384, "byteLength": 512, "target": 34962, "byteStride": 8}, {"buffer": 0, "byteOffset": 15896, "byteLength": 240, "target": 34963}, {"buffer": 0, "byteOffset": 16136, "byteLength": 768, "target": 34962, "byteStride": 12}, {"buffer": 0, "byteOffset": 16904, "byteLength": 768, "target": 34962, "byteStride": 12}, {"buffer": 0, "byteOffset": 17672, "byteLength": 512, "target": 34962, "byteStride": 8}, {"buffer": 0, "byteOffset": 18184, "byteLength": 240, "target": 34963}, {"buffer": 0, "byteOffset": 18424, "byteLength": 624, "target": 34962, "byteStride": 12}, {"buffer": 0, "byteOffset": 19048, "byteLength": 624, "target": 34962, "byteStride": 12}, {"buffer": 0, "byteOffset": 19672, "byteLength": 416, "target": 34962, "byteStride": 8}, {"buffer": 0, "byteOffset": 20088, "byteLength": 192, "target": 34963}, {"buffer": 0, "byteOffset": 20280, "byteLength": 288, "target": 34962, "byteStride": 12}, {"buffer": 0, "byteOffset": 20568, "byteLength": 288, "target": 34962, "byteStride": 12}, {"buffer": 0, "byteOffset": 20856, "byteLength": 192, "target": 34962, "byteStride": 8}, {"buffer": 0, "byteOffset": 21048, "byteLength": 72, "target": 34963}, {"buffer": 0, "byteOffset": 21120, "byteLength": 1452, "target": 34962, "byteStride": 12}, {"buffer": 0, "byteOffset": 22572, "byteLength": 1452, "target": 34962, "byteStride": 12}, {"buffer": 0, "byteOffset": 24024, "byteLength": 968, "target": 34962, "byteStride": 8}, {"buffer": 0, "byteOffset": 24992, "byteLength": 1080, "target": 34963}], "buffers": [{"byteLength": 26072, "uri": "data:application/octet-stream;base64,"}], "accessors": [{"bufferView": 0, "componentType": 5126, "count": 51, "max": [0.2800000011920929, 0.44999998807907104, 0.2800000011920929], "min": [-0.2800000011920929, -0.44999998807907104, -0.2800000011920929], "type": "VEC3"}, {"bufferView": 1, "componentType": 5126, "count": 51, "max": [0.9548567533493042, 0.2970665395259857, 0.9548567533493042], "min": [-0.9548567533493042, -1, -0.9548567533493042], "type": "VEC3"}, {"bufferView": 2, "componentType": 5126, "count": 51, "max": [1, 1], "min": [0, 0], "type": "VEC2"}, {"bufferView": 3, "componentType": 5123, "count": 108, "max": [50], "min": [0], "type": "SCALAR"}, {"bufferView": 4, "componentType": 5126, "count": 76, "max": [0.18000000715255737, 0.17499999701976776, 0.18000000715255737], "min": [-0.18000000715255737, -0.17499999701976776, -0.18000000715255737], "type": "VEC3"}, {"bufferView": 5, "componentType": 5126, "count": 76, "max": [0.993532657623291, 1, 0.993532657623291], "min": [-0.993532657623291, -1, -0.993532657623291], "type": "VEC3"}, {"bufferView": 6, "componentType": 5126, "count": 76, "max": [1, 1], "min": [0, 0], "type": "VEC2"}, {"bufferView": 7, "componentType": 5123, "count": 144, "max": [75], "min": [0], "type": "SCALAR"}, {"bufferView": 8, "componentType": 5126, "count": 169, "max": [0.10999999940395355, 0.10999999940395355, 0.10999999940395355], "min": [-0.10999999940395355, -0.10999999940395355, -0.10999999940395355], "type": "VEC3"}, {"bufferView": 9, "componentType": 5126, "count": 169, "max": [1, 1, 1], "min": [-1, -1, -1], "type": "VEC3"}, {"bufferView": 10, "componentType": 5126, "count": 169, "max": [1.0416666269302368, 1], "min": [-0.0416666679084301, 0], "type": "VEC2"}, {"bufferView": 11, "componentType": 5123, "count": 792, "max": [168], "min": [0], "type": "SCALAR"}, {"bufferView": 12, "componentType": 5126, "count": 64, "max": [0.1141267791390419, 0.029999999329447746, 0.11999999731779099], "min": [-0.1141267791390419, -0.029999999329447746, -0.11999999731779099], "type": "VEC3"}, {"bufferView": 13, "componentType": 5126, "count": 64, "max": [0.7913268804550171, 1, 0.8320503234863281], "min": [-0.7913268804550171, -1, -0.8320503234863281], "type": "VEC3"}, {"bufferView": 14, "componentType": 5126, "count": 64, "max": [1, 1], "min": [0, 0], "type": "VEC2"}, {"bufferView": 15, "componentType": 5123, "count": 120, "max": [63], "min": [0], "type": "SCALAR"}, {"bufferView": 16, "componentType": 5126, "count": 64, "max": [0.04755282402038574, 0.17499999701976776, 0.05000000074505806], "min": [-0.04755282402038574, -0.17499999701976776, -0.05000000074505806], "type": "VEC3"}, {"bufferView": 17, "componentType": 5126, "count": 64, "max": [0.9506685733795166, 1, 0.9995920658111572], "min": [-0.9506685733795166, -1, -0.9995920658111572], "type": "VEC3"}, {"bufferView": 18, "componentType": 5126, "count": 64, "max": [1, 1], "min": [0, 0], "type": "VEC2"}, {"bufferView": 19, "componentType": 5123, "count": 120, "max": [63], "min": [0], "type": "SCALAR"}, {"bufferView": 20, "componentType": 5126, "count": 64, "max": [0.04755282402038574, 0.17499999701976776, 0.05000000074505806], "min": [-0.04755282402038574, -0.17499999701976776, -0.05000000074505806], "type": "VEC3"}, {"bufferView": 21, "componentType": 5126, "count": 64, "max": [0.9506685733795166, 1, 0.9995920658111572], "min": [-0.9506685733795166, -1, -0.9995920658111572], "type": "VEC3"}, {"bufferView": 22, "componentType": 5126, "count": 64, "max": [1, 1], "min": [0, 0], "type": "VEC2"}, {"bufferView": 23, "componentType": 5123, "count": 120, "max": [63], "min": [0], "type": "SCALAR"}, {"bufferView": 24, "componentType": 5126, "count": 52, "max": [0.019999999552965164, 0.4000000059604645, 0.019999999552965164], "min": [-0.019999999552965164, -0.4000000059604645, -0.019999999552965164], "type": "VEC3"}, {"bufferView": 25, "componentType": 5126, "count": 52, "max": [1, 1, 1], "min": [-1, -1, -1], "type": "VEC3"}, {"bufferView": 26, "componentType": 5126, "count": 52, "max": [1, 1], "min": [0, 0], "type": "VEC2"}, {"bufferView": 27, "componentType": 5123, "count": 96, "max": [51], "min": [0], "type": "SCALAR"}, {"bufferView": 28, "componentType": 5126, "count": 24, "max": [0.07500000298023224, 0.10000000149011612, 0.009999999776482582], "min": [-0.07500000298023224, -0.10000000149011612, -0.009999999776482582], "type": "VEC3"}, {"bufferView": 29, "componentType": 5126, "count": 24, "max": [1, 1, 1], "min": [-1, -1, -1], "type": "VEC3"}, {"bufferView": 30, "componentType": 5126, "count": 24, "max": [1, 1], "min": [0, 0], "type": "VEC2"}, {"bufferView": 31, "componentType": 5123, "count": 36, "max": [23], "min": [0], "type": "SCALAR"}, {"bufferView": 32, "componentType": 5126, "count": 121, "max": [0.20000000298023224, 0.20000000298023224, 0.19021129608154297], "min": [-0.20000000298023224, -0.20000000298023224, -0.19021129608154297], "type": "VEC3"}, {"bufferView": 33, "componentType": 5126, "count": 121, "max": [1, 1, 0.9510565400123596], "min": [-1, -1, -0.9510565400123596], "type": "VEC3"}, {"bufferView": 34, "componentType": 5126, "count": 121, "max": [1.0499999523162842, 1], "min": [-0.05000000074505806, 0], "type": "VEC2"}, {"bufferView": 35, "componentType": 5123, "count": 540, "max": [120], "min": [0], "type": "SCALAR"}], "materials": [{"pbrMetallicRoughness": {"baseColorFactor": [0.8156862745098039, 0.8, 0.7686274509803922, 1], "metallicFactor": 0, "roughnessFactor": 0.75}}, {"pbrMetallicRoughness": {"baseColorFactor": [0.7843137254901961, 0.7686274509803922, 0.7372549019607844, 1], "metallicFactor": 0, "roughnessFactor": 0.8}}], "meshes": [{"primitives": [{"mode": 4, "attributes": {"POSITION": 0, "NORMAL": 1, "TEXCOORD_0": 2}, "indices": 3, "material": 0}]}, {"primitives": [{"mode": 4, "attributes": {"POSITION": 4, "NORMAL": 5, "TEXCOORD_0": 6}, "indices": 7, "material": 0}]}, {"primitives": [{"mode": 4, "attributes": {"POSITION": 8, "NORMAL": 9, "TEXCOORD_0": 10}, "indices": 11, "material": 0}]}, {"primitives": [{"mode": 4, "attributes": {"POSITION": 12, "NORMAL": 13, "TEXCOORD_0": 14}, "indices": 15, "material": 1}]}, {"primitives": [{"mode": 4, "attributes": {"POSITION": 16, "NORMAL": 17, "TEXCOORD_0": 18}, "indices": 19, "material": 0}]}, {"primitives": [{"mode": 4, "attributes": {"POSITION": 20, "NORMAL": 21, "TEXCOORD_0": 22}, "indices": 23, "material": 0}]}, {"primitives": [{"mode": 4, "attributes": {"POSITION": 24, "NORMAL": 25, "TEXCOORD_0": 26}, "indices": 27, "material": 1}]}, {"primitives": [{"mode": 4, "attributes": {"POSITION": 28, "NORMAL": 29, "TEXCOORD_0": 30}, "indices": 31, "material": 1}]}, {"primitives": [{"mode": 4, "attributes": {"POSITION": 32, "NORMAL": 33, "TEXCOORD_0": 34}, "indices": 35, "material": 1}]}]}