{"asset": {"version": "2.0", "generator": "THREE.GLTFExporter", "extras": {"statueName": "Sack of Grain Devoured by Mice", "statueDescription": "Diminish, erode, fade - the loss of something precious. The mice are numerous, the sack torn open.", "statueId": "grain_mice"}}, "scenes": [{"nodes": [16]}], "scene": 0, "nodes": [{"matrix": [1, 0, 0, 0, 0, 0.8, 0, 0, 0, 0, 0.9, 0, 0, 0.25, 0, 1], "mesh": 0}, {"matrix": [1, 0, 0, 0, 0, 1, 0, 0, 0, 0, 1, 0, 0, 0.55, 0, 1], "mesh": 1}, {"matrix": [0.9362933635841992, 0.3132045085944425, -0.15892662805301155, 0, -0.1897960609786874, 0.8319418804810998, 0.5213925227106212, 0, 0.2955202066613396, -0.458012710847292, 0.8383866435942036, 0, 0.15, 0.35, 0.2, 1], "mesh": 2}, {"matrix": [1.2, 0, 0, 0, 0, 0.4, 0, 0, 0, 0, 1, 0, 0.25, 0.08, 0.2, 1], "mesh": 3}, {"matrix": [1.4, 0, 0, 0, 0, 0.8, 0, 0, 0, 0, 0.9, 0, 0.2, 0.3, 0.25, 1], "mesh": 4}, {"matrix": [1, 0, 0, 0, 0, 1, 0, 0, 0, 0, 1, 0, 0.2, 0.31, 0.29, 1], "mesh": 5}, {"matrix": [0.6350345699958081, 0, -1.2476903040860094, 0, 0, 0.8, 0, 0, 0.8020866240552919, 0, 0.4082365092830195, 0, -0.15, 0.2, 0.28, 1], "mesh": 6}, {"matrix": [1, 0, 0, 0, 0, 1, 0, 0, 0, 0, 1, 0, -0.11435170559754257, 0.21000000000000002, 0.2981438448570231, 1], "mesh": 7}, {"matrix": [-0.8239015641574844, 0, -1.131894965347426, 0, 0, 0.8, 0, 0, 0.7276467634376311, 0, -0.5296510055298115, 0, 0.3, 0.1, 0.18, 1], "mesh": 8}, {"matrix": [1, 0, 0, 0, 0, 1, 0, 0, 0, 0, 1, 0, 0.3323398561527836, 0.11, 0.15645995530978615, 1], "mesh": 9}, {"matrix": [-1.382471677872411, 0, 0.2208439718005481, 0, 0, 0.8, 0, 0, -0.1419711247289238, 0, -0.8887317929179787, 0, 0.15, 0.05, 0.3, 1], "mesh": 10}, {"matrix": [1, 0, 0, 0, 0, 1, 0, 0, 0, 0, 1, 0, 0.14369017223427005, 0.060000000000000005, 0.2605008092036454, 1], "mesh": 11}, {"matrix": [-0.43026601796978725, 0, 1.3322429034453223, 0, 0, 0.8, 0, 0, -0.8564418665005644, 0, -0.2765995829805775, 0, -0.2, 0.15, 0.22, 1], "mesh": 12}, {"matrix": [1, 0, 0, 0, 0, 1, 0, 0, 0, 0, 1, 0, -0.23806408295558065, 0.16, 0.20770668520086322, 1], "mesh": 13}, {"matrix": [0.9921376840077639, 0, 0.9877564557985486, 0, 0, 0.8, 0, 0, -0.6349862930133527, 0, 0.637802796862134, 0, 0.05, 0.45, 0.18, 1], "mesh": 14}, {"matrix": [1, 0, 0, 0, 0, 1, 0, 0, 0, 0, 1, 0, 0.021778386977184327, 0.46, 0.2083467909716504, 1], "mesh": 15}, {"children": [0, 1, 2, 3, 4, 5, 6, 7, 8, 9, 10, 11, 12, 13, 14, 15]}], "bufferViews": [{"buffer": 0, "byteOffset": 0, "byteLength": 2028, "target": 34962, "byteStride": 12}, {"buffer": 0, "byteOffset": 2028, "byteLength": 2028, "target": 34962, "byteStride": 12}, {"buffer": 0, "byteOffset": 4056, "byteLength": 1352, "target": 34962, "byteStride": 8}, {"buffer": 0, "byteOffset": 5408, "byteLength": 1584, "target": 34963}, {"buffer": 0, "byteOffset": 6992, "byteLength": 768, "target": 34962, "byteStride": 12}, {"buffer": 0, "byteOffset": 7760, "byteLength": 768, "target": 34962, "byteStride": 12}, {"buffer": 0, "byteOffset": 8528, "byteLength": 512, "target": 34962, "byteStride": 8}, {"buffer": 0, "byteOffset": 9040, "byteLength": 240, "target": 34963}, {"buffer": 0, "byteOffset": 9280, "byteLength": 1404, "target": 34962, "byteStride": 12}, {"buffer": 0, "byteOffset": 10684, "byteLength": 1404, "target": 34962, "byteStride": 12}, {"buffer": 0, "byteOffset": 12088, "byteLength": 936, "target": 34962, "byteStride": 8}, {"buffer": 0, "byteOffset": 13024, "byteLength": 1152, "target": 34963}, {"buffer": 0, "byteOffset": 14176, "byteLength": 1452, "target": 34962, "byteStride": 12}, {"buffer": 0, "byteOffset": 15628, "byteLength": 1452, "target": 34962, "byteStride": 12}, {"buffer": 0, "byteOffset": 17080, "byteLength": 968, "target": 34962, "byteStride": 8}, {"buffer": 0, "byteOffset": 18048, "byteLength": 1080, "target": 34963}, {"buffer": 0, "byteOffset": 19128, "byteLength": 972, "target": 34962, "byteStride": 12}, {"buffer": 0, "byteOffset": 20100, "byteLength": 972, "target": 34962, "byteStride": 12}, {"buffer": 0, "byteOffset": 21072, "byteLength": 648, "target": 34962, "byteStride": 8}, {"buffer": 0, "byteOffset": 21720, "byteLength": 672, "target": 34963}, {"buffer": 0, "byteOffset": 22392, "byteLength": 972, "target": 34962, "byteStride": 12}, {"buffer": 0, "byteOffset": 23364, "byteLength": 972, "target": 34962, "byteStride": 12}, {"buffer": 0, "byteOffset": 24336, "byteLength": 648, "target": 34962, "byteStride": 8}, {"buffer": 0, "byteOffset": 24984, "byteLength": 672, "target": 34963}, {"buffer": 0, "byteOffset": 25656, "byteLength": 972, "target": 34962, "byteStride": 12}, {"buffer": 0, "byteOffset": 26628, "byteLength": 972, "target": 34962, "byteStride": 12}, {"buffer": 0, "byteOffset": 27600, "byteLength": 648, "target": 34962, "byteStride": 8}, {"buffer": 0, "byteOffset": 28248, "byteLength": 672, "target": 34963}, {"buffer": 0, "byteOffset": 28920, "byteLength": 972, "target": 34962, "byteStride": 12}, {"buffer": 0, "byteOffset": 29892, "byteLength": 972, "target": 34962, "byteStride": 12}, {"buffer": 0, "byteOffset": 30864, "byteLength": 648, "target": 34962, "byteStride": 8}, {"buffer": 0, "byteOffset": 31512, "byteLength": 672, "target": 34963}, {"buffer": 0, "byteOffset": 32184, "byteLength": 972, "target": 34962, "byteStride": 12}, {"buffer": 0, "byteOffset": 33156, "byteLength": 972, "target": 34962, "byteStride": 12}, {"buffer": 0, "byteOffset": 34128, "byteLength": 648, "target": 34962, "byteStride": 8}, {"buffer": 0, "byteOffset": 34776, "byteLength": 672, "target": 34963}, {"buffer": 0, "byteOffset": 35448, "byteLength": 972, "target": 34962, "byteStride": 12}, {"buffer": 0, "byteOffset": 36420, "byteLength": 972, "target": 34962, "byteStride": 12}, {"buffer": 0, "byteOffset": 37392, "byteLength": 648, "target": 34962, "byteStride": 8}, {"buffer": 0, "byteOffset": 38040, "byteLength": 672, "target": 34963}, {"buffer": 0, "byteOffset": 38712, "byteLength": 972, "target": 34962, "byteStride": 12}, {"buffer": 0, "byteOffset": 39684, "byteLength": 972, "target": 34962, "byteStride": 12}, {"buffer": 0, "byteOffset": 40656, "byteLength": 648, "target": 34962, "byteStride": 8}, {"buffer": 0, "byteOffset": 41304, "byteLength": 672, "target": 34963}, {"buffer": 0, "byteOffset": 41976, "byteLength": 972, "target": 34962, "byteStride": 12}, {"buffer": 0, "byteOffset": 42948, "byteLength": 972, "target": 34962, "byteStride": 12}, {"buffer": 0, "byteOffset": 43920, "byteLength": 648, "target": 34962, "byteStride": 8}, {"buffer": 0, "byteOffset": 44568, "byteLength": 672, "target": 34963}, {"buffer": 0, "byteOffset": 45240, "byteLength": 972, "target": 34962, "byteStride": 12}, {"buffer": 0, "byteOffset": 46212, "byteLength": 972, "target": 34962, "byteStride": 12}, {"buffer": 0, "byteOffset": 47184, "byteLength": 648, "target": 34962, "byteStride": 8}, {"buffer": 0, "byteOffset": 47832, "byteLength": 672, "target": 34963}, {"buffer": 0, "byteOffset": 48504, "byteLength": 972, "target": 34962, "byteStride": 12}, {"buffer": 0, "byteOffset": 49476, "byteLength": 972, "target": 34962, "byteStride": 12}, {"buffer": 0, "byteOffset": 50448, "byteLength": 648, "target": 34962, "byteStride": 8}, {"buffer": 0, "byteOffset": 51096, "byteLength": 672, "target": 34963}, {"buffer": 0, "byteOffset": 51768, "byteLength": 972, "target": 34962, "byteStride": 12}, {"buffer": 0, "byteOffset": 52740, "byteLength": 972, "target": 34962, "byteStride": 12}, {"buffer": 0, "byteOffset": 53712, "byteLength": 648, "target": 34962, "byteStride": 8}, {"buffer": 0, "byteOffset": 54360, "byteLength": 672, "target": 34963}, {"buffer": 0, "byteOffset": 55032, "byteLength": 972, "target": 34962, "byteStride": 12}, {"buffer": 0, "byteOffset": 56004, "byteLength": 972, "target": 34962, "byteStride": 12}, {"buffer": 0, "byteOffset": 56976, "byteLength": 648, "target": 34962, "byteStride": 8}, {"buffer": 0, "byteOffset": 57624, "byteLength": 672, "target": 34963}], "buffers": [{"byteLength": 58296, "uri": "data:application/octet-stream;base64,"}], "accessors": [{"bufferView": 0, "componentType": 5126, "count": 169, "max": [0.3499999940395355, 0.3499999940395355, 0.3499999940395355], "min": [-0.3499999940395355, -0.3499999940395355, -0.3499999940395355], "type": "VEC3"}, {"bufferView": 1, "componentType": 5126, "count": 169, "max": [1, 1, 1], "min": [-1, -1, -1], "type": "VEC3"}, {"bufferView": 2, "componentType": 5126, "count": 169, "max": [1.0416666269302368, 1], "min": [-0.0416666679084301, 0], "type": "VEC2"}, {"bufferView": 3, "componentType": 5123, "count": 792, "max": [168], "min": [0], "type": "SCALAR"}, {"bufferView": 4, "componentType": 5126, "count": 64, "max": [0.2377641350030899, 0.15000000596046448, 0.25], "min": [-0.2377641350030899, -0.15000000596046448, -0.25], "type": "VEC3"}, {"bufferView": 5, "componentType": 5126, "count": 64, "max": [0.9022514224052429, 1, 0.9486833214759827], "min": [-0.9022514224052429, -1, -0.9486833214759827], "type": "VEC3"}, {"bufferView": 6, "componentType": 5126, "count": 64, "max": [1, 1], "min": [0, 0], "type": "VEC2"}, {"bufferView": 7, "componentType": 5123, "count": 120, "max": [63], "min": [0], "type": "SCALAR"}, {"bufferView": 8, "componentType": 5126, "count": 117, "max": [0.15000000596046448, 0.15000000596046448, 0.029999999329447746], "min": [-0.15000000596046448, 0, -0.029999999329447746], "type": "VEC3"}, {"bufferView": 9, "componentType": 5126, "count": 117, "max": [1, 1, 1], "min": [-1, -1, -1], "type": "VEC3"}, {"bufferView": 10, "componentType": 5126, "count": 117, "max": [1, 1], "min": [0, 0], "type": "VEC2"}, {"bufferView": 11, "componentType": 5123, "count": 576, "max": [116], "min": [0], "type": "SCALAR"}, {"bufferView": 12, "componentType": 5126, "count": 121, "max": [0.20000000298023224, 0.20000000298023224, 0.19021129608154297], "min": [-0.20000000298023224, -0.20000000298023224, -0.19021129608154297], "type": "VEC3"}, {"bufferView": 13, "componentType": 5126, "count": 121, "max": [1, 1, 0.9510565400123596], "min": [-1, -1, -0.9510565400123596], "type": "VEC3"}, {"bufferView": 14, "componentType": 5126, "count": 121, "max": [1.0499999523162842, 1], "min": [-0.05000000074505806, 0], "type": "VEC2"}, {"bufferView": 15, "componentType": 5123, "count": 540, "max": [120], "min": [0], "type": "SCALAR"}, {"bufferView": 16, "componentType": 5126, "count": 81, "max": [0.03500000014901161, 0.03500000014901161, 0.03500000014901161], "min": [-0.03500000014901161, -0.03500000014901161, -0.03500000014901161], "type": "VEC3"}, {"bufferView": 17, "componentType": 5126, "count": 81, "max": [1, 1, 1], "min": [-1, -1, -1], "type": "VEC3"}, {"bufferView": 18, "componentType": 5126, "count": 81, "max": [1.0625, 1], "min": [-0.0625, 0], "type": "VEC2"}, {"bufferView": 19, "componentType": 5123, "count": 336, "max": [80], "min": [0], "type": "SCALAR"}, {"bufferView": 20, "componentType": 5126, "count": 81, "max": [0.019999999552965164, 0.019999999552965164, 0.019999999552965164], "min": [-0.019999999552965164, -0.019999999552965164, -0.019999999552965164], "type": "VEC3"}, {"bufferView": 21, "componentType": 5126, "count": 81, "max": [1, 1, 1], "min": [-1, -1, -1], "type": "VEC3"}, {"bufferView": 22, "componentType": 5126, "count": 81, "max": [1.0625, 1], "min": [-0.0625, 0], "type": "VEC2"}, {"bufferView": 23, "componentType": 5123, "count": 336, "max": [80], "min": [0], "type": "SCALAR"}, {"bufferView": 24, "componentType": 5126, "count": 81, "max": [0.03500000014901161, 0.03500000014901161, 0.03500000014901161], "min": [-0.03500000014901161, -0.03500000014901161, -0.03500000014901161], "type": "VEC3"}, {"bufferView": 25, "componentType": 5126, "count": 81, "max": [1, 1, 1], "min": [-1, -1, -1], "type": "VEC3"}, {"bufferView": 26, "componentType": 5126, "count": 81, "max": [1.0625, 1], "min": [-0.0625, 0], "type": "VEC2"}, {"bufferView": 27, "componentType": 5123, "count": 336, "max": [80], "min": [0], "type": "SCALAR"}, {"bufferView": 28, "componentType": 5126, "count": 81, "max": [0.019999999552965164, 0.019999999552965164, 0.019999999552965164], "min": [-0.019999999552965164, -0.019999999552965164, -0.019999999552965164], "type": "VEC3"}, {"bufferView": 29, "componentType": 5126, "count": 81, "max": [1, 1, 1], "min": [-1, -1, -1], "type": "VEC3"}, {"bufferView": 30, "componentType": 5126, "count": 81, "max": [1.0625, 1], "min": [-0.0625, 0], "type": "VEC2"}, {"bufferView": 31, "componentType": 5123, "count": 336, "max": [80], "min": [0], "type": "SCALAR"}, {"bufferView": 32, "componentType": 5126, "count": 81, "max": [0.03500000014901161, 0.03500000014901161, 0.03500000014901161], "min": [-0.03500000014901161, -0.03500000014901161, -0.03500000014901161], "type": "VEC3"}, {"bufferView": 33, "componentType": 5126, "count": 81, "max": [1, 1, 1], "min": [-1, -1, -1], "type": "VEC3"}, {"bufferView": 34, "componentType": 5126, "count": 81, "max": [1.0625, 1], "min": [-0.0625, 0], "type": "VEC2"}, {"bufferView": 35, "componentType": 5123, "count": 336, "max": [80], "min": [0], "type": "SCALAR"}, {"bufferView": 36, "componentType": 5126, "count": 81, "max": [0.019999999552965164, 0.019999999552965164, 0.019999999552965164], "min": [-0.019999999552965164, -0.019999999552965164, -0.019999999552965164], "type": "VEC3"}, {"bufferView": 37, "componentType": 5126, "count": 81, "max": [1, 1, 1], "min": [-1, -1, -1], "type": "VEC3"}, {"bufferView": 38, "componentType": 5126, "count": 81, "max": [1.0625, 1], "min": [-0.0625, 0], "type": "VEC2"}, {"bufferView": 39, "componentType": 5123, "count": 336, "max": [80], "min": [0], "type": "SCALAR"}, {"bufferView": 40, "componentType": 5126, "count": 81, "max": [0.03500000014901161, 0.03500000014901161, 0.03500000014901161], "min": [-0.03500000014901161, -0.03500000014901161, -0.03500000014901161], "type": "VEC3"}, {"bufferView": 41, "componentType": 5126, "count": 81, "max": [1, 1, 1], "min": [-1, -1, -1], "type": "VEC3"}, {"bufferView": 42, "componentType": 5126, "count": 81, "max": [1.0625, 1], "min": [-0.0625, 0], "type": "VEC2"}, {"bufferView": 43, "componentType": 5123, "count": 336, "max": [80], "min": [0], "type": "SCALAR"}, {"bufferView": 44, "componentType": 5126, "count": 81, "max": [0.019999999552965164, 0.019999999552965164, 0.019999999552965164], "min": [-0.019999999552965164, -0.019999999552965164, -0.019999999552965164], "type": "VEC3"}, {"bufferView": 45, "componentType": 5126, "count": 81, "max": [1, 1, 1], "min": [-1, -1, -1], "type": "VEC3"}, {"bufferView": 46, "componentType": 5126, "count": 81, "max": [1.0625, 1], "min": [-0.0625, 0], "type": "VEC2"}, {"bufferView": 47, "componentType": 5123, "count": 336, "max": [80], "min": [0], "type": "SCALAR"}, {"bufferView": 48, "componentType": 5126, "count": 81, "max": [0.03500000014901161, 0.03500000014901161, 0.03500000014901161], "min": [-0.03500000014901161, -0.03500000014901161, -0.03500000014901161], "type": "VEC3"}, {"bufferView": 49, "componentType": 5126, "count": 81, "max": [1, 1, 1], "min": [-1, -1, -1], "type": "VEC3"}, {"bufferView": 50, "componentType": 5126, "count": 81, "max": [1.0625, 1], "min": [-0.0625, 0], "type": "VEC2"}, {"bufferView": 51, "componentType": 5123, "count": 336, "max": [80], "min": [0], "type": "SCALAR"}, {"bufferView": 52, "componentType": 5126, "count": 81, "max": [0.019999999552965164, 0.019999999552965164, 0.019999999552965164], "min": [-0.019999999552965164, -0.019999999552965164, -0.019999999552965164], "type": "VEC3"}, {"bufferView": 53, "componentType": 5126, "count": 81, "max": [1, 1, 1], "min": [-1, -1, -1], "type": "VEC3"}, {"bufferView": 54, "componentType": 5126, "count": 81, "max": [1.0625, 1], "min": [-0.0625, 0], "type": "VEC2"}, {"bufferView": 55, "componentType": 5123, "count": 336, "max": [80], "min": [0], "type": "SCALAR"}, {"bufferView": 56, "componentType": 5126, "count": 81, "max": [0.03500000014901161, 0.03500000014901161, 0.03500000014901161], "min": [-0.03500000014901161, -0.03500000014901161, -0.03500000014901161], "type": "VEC3"}, {"bufferView": 57, "componentType": 5126, "count": 81, "max": [1, 1, 1], "min": [-1, -1, -1], "type": "VEC3"}, {"bufferView": 58, "componentType": 5126, "count": 81, "max": [1.0625, 1], "min": [-0.0625, 0], "type": "VEC2"}, {"bufferView": 59, "componentType": 5123, "count": 336, "max": [80], "min": [0], "type": "SCALAR"}, {"bufferView": 60, "componentType": 5126, "count": 81, "max": [0.019999999552965164, 0.019999999552965164, 0.019999999552965164], "min": [-0.019999999552965164, -0.019999999552965164, -0.019999999552965164], "type": "VEC3"}, {"bufferView": 61, "componentType": 5126, "count": 81, "max": [1, 1, 1], "min": [-1, -1, -1], "type": "VEC3"}, {"bufferView": 62, "componentType": 5126, "count": 81, "max": [1.0625, 1], "min": [-0.0625, 0], "type": "VEC2"}, {"bufferView": 63, "componentType": 5123, "count": 336, "max": [80], "min": [0], "type": "SCALAR"}], "materials": [{"pbrMetallicRoughness": {"baseColorFactor": [0.8156862745098039, 0.8, 0.7686274509803922, 1], "metallicFactor": 0, "roughnessFactor": 0.75}}, {"pbrMetallicRoughness": {"baseColorFactor": [0.7843137254901961, 0.7686274509803922, 0.7372549019607844, 1], "metallicFactor": 0, "roughnessFactor": 0.8}}, {"pbrMetallicRoughness": {"baseColorFactor": [0.8470588235294118, 0.8313725490196079, 0.8, 1], "metallicFactor": 0, "roughnessFactor": 0.7}}], "meshes": [{"primitives": [{"mode": 4, "attributes": {"POSITION": 0, "NORMAL": 1, "TEXCOORD_0": 2}, "indices": 3, "material": 0}]}, {"primitives": [{"mode": 4, "attributes": {"POSITION": 4, "NORMAL": 5, "TEXCOORD_0": 6}, "indices": 7, "material": 0}]}, {"primitives": [{"mode": 4, "attributes": {"POSITION": 8, "NORMAL": 9, "TEXCOORD_0": 10}, "indices": 11, "material": 1}]}, {"primitives": [{"mode": 4, "attributes": {"POSITION": 12, "NORMAL": 13, "TEXCOORD_0": 14}, "indices": 15, "material": 2}]}, {"primitives": [{"mode": 4, "attributes": {"POSITION": 16, "NORMAL": 17, "TEXCOORD_0": 18}, "indices": 19, "material": 1}]}, {"primitives": [{"mode": 4, "attributes": {"POSITION": 20, "NORMAL": 21, "TEXCOORD_0": 22}, "indices": 23, "material": 1}]}, {"primitives": [{"mode": 4, "attributes": {"POSITION": 24, "NORMAL": 25, "TEXCOORD_0": 26}, "indices": 27, "material": 1}]}, {"primitives": [{"mode": 4, "attributes": {"POSITION": 28, "NORMAL": 29, "TEXCOORD_0": 30}, "indices": 31, "material": 1}]}, {"primitives": [{"mode": 4, "attributes": {"POSITION": 32, "NORMAL": 33, "TEXCOORD_0": 34}, "indices": 35, "material": 1}]}, {"primitives": [{"mode": 4, "attributes": {"POSITION": 36, "NORMAL": 37, "TEXCOORD_0": 38}, "indices": 39, "material": 1}]}, {"primitives": [{"mode": 4, "attributes": {"POSITION": 40, "NORMAL": 41, "TEXCOORD_0": 42}, "indices": 43, "material": 1}]}, {"primitives": [{"mode": 4, "attributes": {"POSITION": 44, "NORMAL": 45, "TEXCOORD_0": 46}, "indices": 47, "material": 1}]}, {"primitives": [{"mode": 4, "attributes": {"POSITION": 48, "NORMAL": 49, "TEXCOORD_0": 50}, "indices": 51, "material": 1}]}, {"primitives": [{"mode": 4, "attributes": {"POSITION": 52, "NORMAL": 53, "TEXCOORD_0": 54}, "indices": 55, "material": 1}]}, {"primitives": [{"mode": 4, "attributes": {"POSITION": 56, "NORMAL": 57, "TEXCOORD_0": 58}, "indices": 59, "material": 1}]}, {"primitives": [{"mode": 4, "attributes": {"POSITION": 60, "NORMAL": 61, "TEXCOORD_0": 62}, "indices": 63, "material": 1}]}]}