{"asset": {"version": "2.0", "generator": "THREE.GLTFExporter", "extras": {"statueName": "Fat Heretical Pope on Throne", "statueDescription": "Corruption pleased with itself - bulk overwhelming finery. Self-satisfied despite his heresy.", "statueId": "heretical_pope"}}, "scenes": [{"nodes": [11]}], "scene": 0, "nodes": [{"matrix": [1, 0, 0, 0, 0, 1, 0, 0, 0, 0, 1, 0, 0, 0.4, -0.05, 1], "mesh": 0}, {"matrix": [1, 0, 0, 0, 0, 1, 0, 0, 0, 0, 1, 0, 0, 0.95, -0.22, 1], "mesh": 1}, {"matrix": [1.3, 0, 0, 0, 0, 1.2, 0, 0, 0, 0, 1.1, 0, 0, 0.55, 0.05, 1], "mesh": 2}, {"matrix": [1, 0, 0, 0, 0, 1, 0, 0, 0, 0, 1, 0, 0, 0.95, 0.08, 1], "mesh": 3}, {"matrix": [1, 0, 0, 0, 0, 1, 0, 0, 0, 0, 1, 0, 0, 1.15, 0.06, 1], "mesh": 4}, {"matrix": [1, 0, 0, 0, 0, 1, 0, 0, 0, 0, 1, 0, -0.08, 0.88, 0.12, 1], "mesh": 5}, {"matrix": [1, 0, 0, 0, 0, 1, 0, 0, 0, 0, 1, 0, 0.08, 0.88, 0.12, 1], "mesh": 6}, {"matrix": [0.955336489125606, 0.29552020666133955, 0, 0, -0.29552020666133955, 0.955336489125606, 0, 0, 0, 0, 1, 0, -0.32, 0.55, 0.1, 1], "mesh": 7}, {"matrix": [0.955336489125606, -0.29552020666133955, 0, 0, 0.29552020666133955, 0.955336489125606, 0, 0, 0, 0, 1, 0, 0.32, 0.55, 0.1, 1], "mesh": 8}, {"matrix": [1, 0, 0, 0, 0, 1, 0, 0, 0, 0, 1, 0, -0.28, 0.53, 0.08, 1], "mesh": 9}, {"matrix": [1, 0, 0, 0, 0, 1, 0, 0, 0, 0, 1, 0, 0.28, 0.53, 0.08, 1], "mesh": 10}, {"children": [0, 1, 2, 3, 4, 5, 6, 7, 8, 9, 10]}], "bufferViews": [{"buffer": 0, "byteOffset": 0, "byteLength": 288, "target": 34962, "byteStride": 12}, {"buffer": 0, "byteOffset": 288, "byteLength": 288, "target": 34962, "byteStride": 12}, {"buffer": 0, "byteOffset": 576, "byteLength": 192, "target": 34962, "byteStride": 8}, {"buffer": 0, "byteOffset": 768, "byteLength": 72, "target": 34963}, {"buffer": 0, "byteOffset": 840, "byteLength": 288, "target": 34962, "byteStride": 12}, {"buffer": 0, "byteOffset": 1128, "byteLength": 288, "target": 34962, "byteStride": 12}, {"buffer": 0, "byteOffset": 1416, "byteLength": 192, "target": 34962, "byteStride": 8}, {"buffer": 0, "byteOffset": 1608, "byteLength": 72, "target": 34963}, {"buffer": 0, "byteOffset": 1680, "byteLength": 2700, "target": 34962, "byteStride": 12}, {"buffer": 0, "byteOffset": 4380, "byteLength": 2700, "target": 34962, "byteStride": 12}, {"buffer": 0, "byteOffset": 7080, "byteLength": 1800, "target": 34962, "byteStride": 8}, {"buffer": 0, "byteOffset": 8880, "byteLength": 2184, "target": 34963}, {"buffer": 0, "byteOffset": 11064, "byteLength": 2028, "target": 34962, "byteStride": 12}, {"buffer": 0, "byteOffset": 13092, "byteLength": 2028, "target": 34962, "byteStride": 12}, {"buffer": 0, "byteOffset": 15120, "byteLength": 1352, "target": 34962, "byteStride": 8}, {"buffer": 0, "byteOffset": 16472, "byteLength": 1584, "target": 34963}, {"buffer": 0, "byteOffset": 18056, "byteLength": 420, "target": 34962, "byteStride": 12}, {"buffer": 0, "byteOffset": 18476, "byteLength": 420, "target": 34962, "byteStride": 12}, {"buffer": 0, "byteOffset": 18896, "byteLength": 280, "target": 34962, "byteStride": 8}, {"buffer": 0, "byteOffset": 19176, "byteLength": 144, "target": 34963}, {"buffer": 0, "byteOffset": 19320, "byteLength": 972, "target": 34962, "byteStride": 12}, {"buffer": 0, "byteOffset": 20292, "byteLength": 972, "target": 34962, "byteStride": 12}, {"buffer": 0, "byteOffset": 21264, "byteLength": 648, "target": 34962, "byteStride": 8}, {"buffer": 0, "byteOffset": 21912, "byteLength": 672, "target": 34963}, {"buffer": 0, "byteOffset": 22584, "byteLength": 972, "target": 34962, "byteStride": 12}, {"buffer": 0, "byteOffset": 23556, "byteLength": 972, "target": 34962, "byteStride": 12}, {"buffer": 0, "byteOffset": 24528, "byteLength": 648, "target": 34962, "byteStride": 8}, {"buffer": 0, "byteOffset": 25176, "byteLength": 672, "target": 34963}, {"buffer": 0, "byteOffset": 25848, "byteLength": 768, "target": 34962, "byteStride": 12}, {"buffer": 0, "byteOffset": 26616, "byteLength": 768, "target": 34962, "byteStride": 12}, {"buffer": 0, "byteOffset": 27384, "byteLength": 512, "target": 34962, "byteStride": 8}, {"buffer": 0, "byteOffset": 27896, "byteLength": 240, "target": 34963}, {"buffer": 0, "byteOffset": 28136, "byteLength": 768, "target": 34962, "byteStride": 12}, {"buffer": 0, "byteOffset": 28904, "byteLength": 768, "target": 34962, "byteStride": 12}, {"buffer": 0, "byteOffset": 29672, "byteLength": 512, "target": 34962, "byteStride": 8}, {"buffer": 0, "byteOffset": 30184, "byteLength": 240, "target": 34963}, {"buffer": 0, "byteOffset": 30424, "byteLength": 288, "target": 34962, "byteStride": 12}, {"buffer": 0, "byteOffset": 30712, "byteLength": 288, "target": 34962, "byteStride": 12}, {"buffer": 0, "byteOffset": 31000, "byteLength": 192, "target": 34962, "byteStride": 8}, {"buffer": 0, "byteOffset": 31192, "byteLength": 72, "target": 34963}, {"buffer": 0, "byteOffset": 31264, "byteLength": 288, "target": 34962, "byteStride": 12}, {"buffer": 0, "byteOffset": 31552, "byteLength": 288, "target": 34962, "byteStride": 12}, {"buffer": 0, "byteOffset": 31840, "byteLength": 192, "target": 34962, "byteStride": 8}, {"buffer": 0, "byteOffset": 32032, "byteLength": 72, "target": 34963}], "buffers": [{"byteLength": 32104, "uri": "data:application/octet-stream;base64,"}], "accessors": [{"bufferView": 0, "componentType": 5126, "count": 24, "max": [0.2750000059604645, 0.4000000059604645, 0.22499999403953552], "min": [-0.2750000059604645, -0.4000000059604645, -0.22499999403953552], "type": "VEC3"}, {"bufferView": 1, "componentType": 5126, "count": 24, "max": [1, 1, 1], "min": [-1, -1, -1], "type": "VEC3"}, {"bufferView": 2, "componentType": 5126, "count": 24, "max": [1, 1], "min": [0, 0], "type": "VEC2"}, {"bufferView": 3, "componentType": 5123, "count": 36, "max": [23], "min": [0], "type": "SCALAR"}, {"bufferView": 4, "componentType": 5126, "count": 24, "max": [0.2750000059604645, 0.25, 0.03999999910593033], "min": [-0.2750000059604645, -0.25, -0.03999999910593033], "type": "VEC3"}, {"bufferView": 5, "componentType": 5126, "count": 24, "max": [1, 1, 1], "min": [-1, -1, -1], "type": "VEC3"}, {"bufferView": 6, "componentType": 5126, "count": 24, "max": [1, 1], "min": [0, 0], "type": "VEC2"}, {"bufferView": 7, "componentType": 5123, "count": 36, "max": [23], "min": [0], "type": "SCALAR"}, {"bufferView": 8, "componentType": 5126, "count": 225, "max": [0.30000001192092896, 0.30000001192092896, 0.29247838258743286], "min": [-0.30000001192092896, -0.30000001192092896, -0.29247838258743286], "type": "VEC3"}, {"bufferView": 9, "componentType": 5126, "count": 225, "max": [1, 1, 0.9749279022216797], "min": [-1, -1, -0.9749279022216797], "type": "VEC3"}, {"bufferView": 10, "componentType": 5126, "count": 225, "max": [1.0357142686843872, 1], "min": [-0.0357142873108387, 0], "type": "VEC2"}, {"bufferView": 11, "componentType": 5123, "count": 1092, "max": [224], "min": [0], "type": "SCALAR"}, {"bufferView": 12, "componentType": 5126, "count": 169, "max": [0.11999999731779099, 0.11999999731779099, 0.11999999731779099], "min": [-0.11999999731779099, -0.11999999731779099, -0.11999999731779099], "type": "VEC3"}, {"bufferView": 13, "componentType": 5126, "count": 169, "max": [1, 1, 1], "min": [-1, -1, -1], "type": "VEC3"}, {"bufferView": 14, "componentType": 5126, "count": 169, "max": [1.0416666269302368, 1], "min": [-0.0416666679084301, 0], "type": "VEC2"}, {"bufferView": 15, "componentType": 5123, "count": 792, "max": [168], "min": [0], "type": "SCALAR"}, {"bufferView": 16, "componentType": 5126, "count": 35, "max": [0.07999999821186066, 0.10000000149011612, 0.07999999821186066], "min": [-0.07999999821186066, -0.10000000149011612, -0.07999999821186066], "type": "VEC3"}, {"bufferView": 17, "componentType": 5126, "count": 35, "max": [0.9284766912460327, 0.3713906705379486, 0.9284766912460327], "min": [-0.9284766912460327, -1, -0.9284766912460327], "type": "VEC3"}, {"bufferView": 18, "componentType": 5126, "count": 35, "max": [1, 1], "min": [0, 0], "type": "VEC2"}, {"bufferView": 19, "componentType": 5123, "count": 72, "max": [34], "min": [0], "type": "SCALAR"}, {"bufferView": 20, "componentType": 5126, "count": 81, "max": [0.05000000074505806, 0.05000000074505806, 0.05000000074505806], "min": [-0.05000000074505806, -0.05000000074505806, -0.05000000074505806], "type": "VEC3"}, {"bufferView": 21, "componentType": 5126, "count": 81, "max": [1, 1, 1], "min": [-1, -1, -1], "type": "VEC3"}, {"bufferView": 22, "componentType": 5126, "count": 81, "max": [1.0625, 1], "min": [-0.0625, 0], "type": "VEC2"}, {"bufferView": 23, "componentType": 5123, "count": 336, "max": [80], "min": [0], "type": "SCALAR"}, {"bufferView": 24, "componentType": 5126, "count": 81, "max": [0.05000000074505806, 0.05000000074505806, 0.05000000074505806], "min": [-0.05000000074505806, -0.05000000074505806, -0.05000000074505806], "type": "VEC3"}, {"bufferView": 25, "componentType": 5126, "count": 81, "max": [1, 1, 1], "min": [-1, -1, -1], "type": "VEC3"}, {"bufferView": 26, "componentType": 5126, "count": 81, "max": [1.0625, 1], "min": [-0.0625, 0], "type": "VEC2"}, {"bufferView": 27, "componentType": 5123, "count": 336, "max": [80], "min": [0], "type": "SCALAR"}, {"bufferView": 28, "componentType": 5126, "count": 64, "max": [0.06657395511865616, 0.15000000596046448, 0.07000000029802322], "min": [-0.06657395511865616, -0.15000000596046448, -0.07000000029802322], "type": "VEC3"}, {"bufferView": 29, "componentType": 5126, "count": 64, "max": [0.9505285620689392, 1, 0.9994449019432068], "min": [-0.9505285620689392, -1, -0.9994449019432068], "type": "VEC3"}, {"bufferView": 30, "componentType": 5126, "count": 64, "max": [1, 1], "min": [0, 0], "type": "VEC2"}, {"bufferView": 31, "componentType": 5123, "count": 120, "max": [63], "min": [0], "type": "SCALAR"}, {"bufferView": 32, "componentType": 5126, "count": 64, "max": [0.06657395511865616, 0.15000000596046448, 0.07000000029802322], "min": [-0.06657395511865616, -0.15000000596046448, -0.07000000029802322], "type": "VEC3"}, {"bufferView": 33, "componentType": 5126, "count": 64, "max": [0.9505285620689392, 1, 0.9994449019432068], "min": [-0.9505285620689392, -1, -0.9994449019432068], "type": "VEC3"}, {"bufferView": 34, "componentType": 5126, "count": 64, "max": [1, 1], "min": [0, 0], "type": "VEC2"}, {"bufferView": 35, "componentType": 5123, "count": 120, "max": [63], "min": [0], "type": "SCALAR"}, {"bufferView": 36, "componentType": 5126, "count": 24, "max": [0.03999999910593033, 0.029999999329447746, 0.17499999701976776], "min": [-0.03999999910593033, -0.029999999329447746, -0.17499999701976776], "type": "VEC3"}, {"bufferView": 37, "componentType": 5126, "count": 24, "max": [1, 1, 1], "min": [-1, -1, -1], "type": "VEC3"}, {"bufferView": 38, "componentType": 5126, "count": 24, "max": [1, 1], "min": [0, 0], "type": "VEC2"}, {"bufferView": 39, "componentType": 5123, "count": 36, "max": [23], "min": [0], "type": "SCALAR"}, {"bufferView": 40, "componentType": 5126, "count": 24, "max": [0.03999999910593033, 0.029999999329447746, 0.17499999701976776], "min": [-0.03999999910593033, -0.029999999329447746, -0.17499999701976776], "type": "VEC3"}, {"bufferView": 41, "componentType": 5126, "count": 24, "max": [1, 1, 1], "min": [-1, -1, -1], "type": "VEC3"}, {"bufferView": 42, "componentType": 5126, "count": 24, "max": [1, 1], "min": [0, 0], "type": "VEC2"}, {"bufferView": 43, "componentType": 5123, "count": 36, "max": [23], "min": [0], "type": "SCALAR"}], "materials": [{"pbrMetallicRoughness": {"baseColorFactor": [0.7843137254901961, 0.7686274509803922, 0.7372549019607844, 1], "metallicFactor": 0, "roughnessFactor": 0.8}}, {"pbrMetallicRoughness": {"baseColorFactor": [0.8156862745098039, 0.8, 0.7686274509803922, 1], "metallicFactor": 0, "roughnessFactor": 0.75}}, {"pbrMetallicRoughness": {"baseColorFactor": [0.8470588235294118, 0.8313725490196079, 0.8, 1], "metallicFactor": 0, "roughnessFactor": 0.7}}], "meshes": [{"primitives": [{"mode": 4, "attributes": {"POSITION": 0, "NORMAL": 1, "TEXCOORD_0": 2}, "indices": 3, "material": 0}]}, {"primitives": [{"mode": 4, "attributes": {"POSITION": 4, "NORMAL": 5, "TEXCOORD_0": 6}, "indices": 7, "material": 0}]}, {"primitives": [{"mode": 4, "attributes": {"POSITION": 8, "NORMAL": 9, "TEXCOORD_0": 10}, "indices": 11, "material": 1}]}, {"primitives": [{"mode": 4, "attributes": {"POSITION": 12, "NORMAL": 13, "TEXCOORD_0": 14}, "indices": 15, "material": 1}]}, {"primitives": [{"mode": 4, "attributes": {"POSITION": 16, "NORMAL": 17, "TEXCOORD_0": 18}, "indices": 19, "material": 2}]}, {"primitives": [{"mode": 4, "attributes": {"POSITION": 20, "NORMAL": 21, "TEXCOORD_0": 22}, "indices": 23, "material": 1}]}, {"primitives": [{"mode": 4, "attributes": {"POSITION": 24, "NORMAL": 25, "TEXCOORD_0": 26}, "indices": 27, "material": 1}]}, {"primitives": [{"mode": 4, "attributes": {"POSITION": 28, "NORMAL": 29, "TEXCOORD_0": 30}, "indices": 31, "material": 1}]}, {"primitives": [{"mode": 4, "attributes": {"POSITION": 32, "NORMAL": 33, "TEXCOORD_0": 34}, "indices": 35, "material": 1}]}, {"primitives": [{"mode": 4, "attributes": {"POSITION": 36, "NORMAL": 37, "TEXCOORD_0": 38}, "indices": 39, "material": 0}]}, {"primitives": [{"mode": 4, "attributes": {"POSITION": 40, "NORMAL": 41, "TEXCOORD_0": 42}, "indices": 43, "material": 0}]}]}