{"asset": {"version": "2.0", "generator": "THREE.GLTFExporter", "extras": {"statueName": "Androgynous Figure with Lantern", "statueDescription": "The Hermit - seeking, illuminating the path forward. Face obscured by hood.", "statueId": "hermit_lantern"}}, "scenes": [{"nodes": [10]}], "scene": 0, "nodes": [{"matrix": [1, 0, 0, 0, 0, 1, 0, 0, 0, 0, 1, 0, 0, 0.58, 0, 1], "mesh": 0}, {"matrix": [1, 0, 0, 0, 0, 1, 0, 0, 0, 0, 1, 0, 0, 1.25, 0, 1], "mesh": 1}, {"matrix": [1, 0, 0, 0, 0, 0.9, 0, 0, 0, 0, 0.6, 0, 0, 1.22, 0.08, 1], "mesh": 2}, {"matrix": [1, 0, 0, 0, 0, 1, 0, 0, 0, 0, 1, 0, 0, 1.2, 0.08, 1], "mesh": 3}, {"matrix": [0.6967067093471655, -0.6853164493328191, -0.21199322023239767, 0, 0.7173560908995228, 0.665589341657975, 0.2058909107286162, 0, 0, -0.2955202066613396, 0.955336489125606, 0, 0.22, 1.15, 0.15, 1], "mesh": 4}, {"matrix": [1, 0, 0, 0, 0, 1, 0, 0, 0, 0, 1, 0, 0.4, 1.35, 0.22, 1], "mesh": 5}, {"matrix": [1, 0, 0, 0, 0, 1, 0, 0, 0, 0, 1, 0, 0.4, 1.46, 0.22, 1], "mesh": 6}, {"matrix": [1, 0, 0, 0, 0, 2.220446049250313e-16, 1, 0, 0, -1, 2.220446049250313e-16, 0, 0.4, 1.52, 0.22, 1], "mesh": 7}, {"matrix": [1, 0, 0, 0, 0, 1, 0, 0, 0, 0, 1, 0, 0.4, 1.35, 0.22, 1], "mesh": 8}, {"matrix": [0.9950041652780258, 0.09983341664682815, 0, 0, -0.09983341664682815, 0.9950041652780258, 0, 0, 0, 0, 1, 0, -0.2, 0.6, 0.1, 1], "mesh": 9}, {"children": [0, 1, 2, 3, 4, 5, 6, 7, 8, 9]}], "bufferViews": [{"buffer": 0, "byteOffset": 0, "byteLength": 612, "target": 34962, "byteStride": 12}, {"buffer": 0, "byteOffset": 612, "byteLength": 612, "target": 34962, "byteStride": 12}, {"buffer": 0, "byteOffset": 1224, "byteLength": 408, "target": 34962, "byteStride": 8}, {"buffer": 0, "byteOffset": 1632, "byteLength": 216, "target": 34963}, {"buffer": 0, "byteOffset": 1848, "byteLength": 2028, "target": 34962, "byteStride": 12}, {"buffer": 0, "byteOffset": 3876, "byteLength": 2028, "target": 34962, "byteStride": 12}, {"buffer": 0, "byteOffset": 5904, "byteLength": 1352, "target": 34962, "byteStride": 8}, {"buffer": 0, "byteOffset": 7256, "byteLength": 1584, "target": 34963}, {"buffer": 0, "byteOffset": 8840, "byteLength": 1452, "target": 34962, "byteStride": 12}, {"buffer": 0, "byteOffset": 10292, "byteLength": 1452, "target": 34962, "byteStride": 12}, {"buffer": 0, "byteOffset": 11744, "byteLength": 968, "target": 34962, "byteStride": 8}, {"buffer": 0, "byteOffset": 12712, "byteLength": 1080, "target": 34963}, {"buffer": 0, "byteOffset": 13792, "byteLength": 972, "target": 34962, "byteStride": 12}, {"buffer": 0, "byteOffset": 14764, "byteLength": 972, "target": 34962, "byteStride": 12}, {"buffer": 0, "byteOffset": 15736, "byteLength": 648, "target": 34962, "byteStride": 8}, {"buffer": 0, "byteOffset": 16384, "byteLength": 672, "target": 34963}, {"buffer": 0, "byteOffset": 17056, "byteLength": 768, "target": 34962, "byteStride": 12}, {"buffer": 0, "byteOffset": 17824, "byteLength": 768, "target": 34962, "byteStride": 12}, {"buffer": 0, "byteOffset": 18592, "byteLength": 512, "target": 34962, "byteStride": 8}, {"buffer": 0, "byteOffset": 19104, "byteLength": 240, "target": 34963}, {"buffer": 0, "byteOffset": 19344, "byteLength": 288, "target": 34962, "byteStride": 12}, {"buffer": 0, "byteOffset": 19632, "byteLength": 288, "target": 34962, "byteStride": 12}, {"buffer": 0, "byteOffset": 19920, "byteLength": 192, "target": 34962, "byteStride": 8}, {"buffer": 0, "byteOffset": 20112, "byteLength": 72, "target": 34963}, {"buffer": 0, "byteOffset": 20184, "byteLength": 324, "target": 34962, "byteStride": 12}, {"buffer": 0, "byteOffset": 20508, "byteLength": 324, "target": 34962, "byteStride": 12}, {"buffer": 0, "byteOffset": 20832, "byteLength": 216, "target": 34962, "byteStride": 8}, {"buffer": 0, "byteOffset": 21048, "byteLength": 108, "target": 34963}, {"buffer": 0, "byteOffset": 21156, "byteLength": 1092, "target": 34962, "byteStride": 12}, {"buffer": 0, "byteOffset": 22248, "byteLength": 1092, "target": 34962, "byteStride": 12}, {"buffer": 0, "byteOffset": 23340, "byteLength": 728, "target": 34962, "byteStride": 8}, {"buffer": 0, "byteOffset": 24068, "byteLength": 864, "target": 34963}, {"buffer": 0, "byteOffset": 24932, "byteLength": 624, "target": 34962, "byteStride": 12}, {"buffer": 0, "byteOffset": 25556, "byteLength": 624, "target": 34962, "byteStride": 12}, {"buffer": 0, "byteOffset": 26180, "byteLength": 416, "target": 34962, "byteStride": 8}, {"buffer": 0, "byteOffset": 26596, "byteLength": 192, "target": 34963}, {"buffer": 0, "byteOffset": 26788, "byteLength": 624, "target": 34962, "byteStride": 12}, {"buffer": 0, "byteOffset": 27412, "byteLength": 624, "target": 34962, "byteStride": 12}, {"buffer": 0, "byteOffset": 28036, "byteLength": 416, "target": 34962, "byteStride": 8}, {"buffer": 0, "byteOffset": 28452, "byteLength": 192, "target": 34963}], "buffers": [{"byteLength": 28644, "uri": "data:application/octet-stream;base64,"}], "accessors": [{"bufferView": 0, "componentType": 5126, "count": 51, "max": [0.3499999940395355, 0.574999988079071, 0.3499999940395355], "min": [-0.3499999940395355, -0.574999988079071, -0.3499999940395355], "type": "VEC3"}, {"bufferView": 1, "componentType": 5126, "count": 51, "max": [0.9566738605499268, 0.2911616265773773, 0.9566738605499268], "min": [-0.9566738605499268, -1, -0.9566738605499268], "type": "VEC3"}, {"bufferView": 2, "componentType": 5126, "count": 51, "max": [1, 1], "min": [0, 0], "type": "VEC2"}, {"bufferView": 3, "componentType": 5123, "count": 108, "max": [50], "min": [0], "type": "SCALAR"}, {"bufferView": 4, "componentType": 5126, "count": 169, "max": [0.15000000596046448, 0.15000000596046448, 0.15000000596046448], "min": [-0.15000000596046448, -0.15000000596046448, -0.15000000596046448], "type": "VEC3"}, {"bufferView": 5, "componentType": 5126, "count": 169, "max": [1, 1, 1], "min": [-1, -1, -1], "type": "VEC3"}, {"bufferView": 6, "componentType": 5126, "count": 169, "max": [1.0416666269302368, 1], "min": [-0.0416666679084301, 0], "type": "VEC2"}, {"bufferView": 7, "componentType": 5123, "count": 792, "max": [168], "min": [0], "type": "SCALAR"}, {"bufferView": 8, "componentType": 5126, "count": 121, "max": [0.11999999731779099, 0.11999999731779099, 0.1141267791390419], "min": [-0.11999999731779099, -0.11999999731779099, -0.1141267791390419], "type": "VEC3"}, {"bufferView": 9, "componentType": 5126, "count": 121, "max": [1, 1, 0.9510565400123596], "min": [-1, -1, -0.9510565400123596], "type": "VEC3"}, {"bufferView": 10, "componentType": 5126, "count": 121, "max": [1.0499999523162842, 1], "min": [-0.05000000074505806, 0], "type": "VEC2"}, {"bufferView": 11, "componentType": 5123, "count": 540, "max": [120], "min": [0], "type": "SCALAR"}, {"bufferView": 12, "componentType": 5126, "count": 81, "max": [0.05999999865889549, 0.05999999865889549, 0.05999999865889549], "min": [-0.05999999865889549, -0.05999999865889549, -0.05999999865889549], "type": "VEC3"}, {"bufferView": 13, "componentType": 5126, "count": 81, "max": [1, 1, 1], "min": [-1, -1, -1], "type": "VEC3"}, {"bufferView": 14, "componentType": 5126, "count": 81, "max": [1.0625, 1], "min": [-0.0625, 0], "type": "VEC2"}, {"bufferView": 15, "componentType": 5123, "count": 336, "max": [80], "min": [0], "type": "SCALAR"}, {"bufferView": 16, "componentType": 5126, "count": 64, "max": [0.04755282402038574, 0.22499999403953552, 0.05000000074505806], "min": [-0.04755282402038574, -0.22499999403953552, -0.05000000074505806], "type": "VEC3"}, {"bufferView": 17, "componentType": 5126, "count": 64, "max": [0.9508217573165894, 1, 0.9997531771659851], "min": [-0.9508217573165894, -1, -0.9997531771659851], "type": "VEC3"}, {"bufferView": 18, "componentType": 5126, "count": 64, "max": [1, 1], "min": [0, 0], "type": "VEC2"}, {"bufferView": 19, "componentType": 5123, "count": 120, "max": [63], "min": [0], "type": "SCALAR"}, {"bufferView": 20, "componentType": 5126, "count": 24, "max": [0.05000000074505806, 0.07500000298023224, 0.05000000074505806], "min": [-0.05000000074505806, -0.07500000298023224, -0.05000000074505806], "type": "VEC3"}, {"bufferView": 21, "componentType": 5126, "count": 24, "max": [1, 1, 1], "min": [-1, -1, -1], "type": "VEC3"}, {"bufferView": 22, "componentType": 5126, "count": 24, "max": [1, 1], "min": [0, 0], "type": "VEC2"}, {"bufferView": 23, "componentType": 5123, "count": 36, "max": [23], "min": [0], "type": "SCALAR"}, {"bufferView": 24, "componentType": 5126, "count": 27, "max": [0.05196152254939079, 0.03999999910593033, 0.05999999865889549], "min": [-0.05196152254939079, -0.03999999910593033, -0.05999999865889549], "type": "VEC3"}, {"bufferView": 25, "componentType": 5126, "count": 27, "max": [0.6928203105926514, 0.6000000238418579, 0.800000011920929], "min": [-0.6928203105926514, -1, -0.800000011920929], "type": "VEC3"}, {"bufferView": 26, "componentType": 5126, "count": 27, "max": [1, 1], "min": [0, 0], "type": "VEC2"}, {"bufferView": 27, "componentType": 5123, "count": 54, "max": [26], "min": [0], "type": "SCALAR"}, {"bufferView": 28, "componentType": 5126, "count": 91, "max": [0.04800000041723251, 0.04800000041723251, 0.006928203161805868], "min": [-0.04800000041723251, -0.04800000041723251, -0.006928203161805868], "type": "VEC3"}, {"bufferView": 29, "componentType": 5126, "count": 91, "max": [1, 1, 0.8660253882408142], "min": [-1, -1, -0.8660253882408142], "type": "VEC3"}, {"bufferView": 30, "componentType": 5126, "count": 91, "max": [1, 1], "min": [0, 0], "type": "VEC2"}, {"bufferView": 31, "componentType": 5123, "count": 432, "max": [90], "min": [0], "type": "SCALAR"}, {"bufferView": 32, "componentType": 5126, "count": 52, "max": [0.03999999910593033, 0.05999999865889549, 0.03999999910593033], "min": [-0.03999999910593033, -0.05999999865889549, -0.03999999910593033], "type": "VEC3"}, {"bufferView": 33, "componentType": 5126, "count": 52, "max": [1, 1, 1], "min": [-1, -1, -1], "type": "VEC3"}, {"bufferView": 34, "componentType": 5126, "count": 52, "max": [1, 1], "min": [0, 0], "type": "VEC2"}, {"bufferView": 35, "componentType": 5123, "count": 96, "max": [51], "min": [0], "type": "SCALAR"}, {"bufferView": 36, "componentType": 5126, "count": 52, "max": [0.019999999552965164, 0.44999998807907104, 0.019999999552965164], "min": [-0.019999999552965164, -0.44999998807907104, -0.019999999552965164], "type": "VEC3"}, {"bufferView": 37, "componentType": 5126, "count": 52, "max": [0.9999845623970032, 1, 0.9999845623970032], "min": [-0.9999845623970032, -1, -0.9999845623970032], "type": "VEC3"}, {"bufferView": 38, "componentType": 5126, "count": 52, "max": [1, 1], "min": [0, 0], "type": "VEC2"}, {"bufferView": 39, "componentType": 5123, "count": 96, "max": [51], "min": [0], "type": "SCALAR"}], "materials": [{"pbrMetallicRoughness": {"baseColorFactor": [0.8156862745098039, 0.8, 0.7686274509803922, 1], "metallicFactor": 0, "roughnessFactor": 0.75}}, {"pbrMetallicRoughness": {"baseColorFactor": [0.7843137254901961, 0.7686274509803922, 0.7372549019607844, 1], "metallicFactor": 0, "roughnessFactor": 0.8}}, {"pbrMetallicRoughness": {"baseColorFactor": [0.8470588235294118, 0.8313725490196079, 0.8, 1], "metallicFactor": 0, "roughnessFactor": 0.7}}], "meshes": [{"primitives": [{"mode": 4, "attributes": {"POSITION": 0, "NORMAL": 1, "TEXCOORD_0": 2}, "indices": 3, "material": 0}]}, {"primitives": [{"mode": 4, "attributes": {"POSITION": 4, "NORMAL": 5, "TEXCOORD_0": 6}, "indices": 7, "material": 0}]}, {"primitives": [{"mode": 4, "attributes": {"POSITION": 8, "NORMAL": 9, "TEXCOORD_0": 10}, "indices": 11, "material": 0}]}, {"primitives": [{"mode": 4, "attributes": {"POSITION": 12, "NORMAL": 13, "TEXCOORD_0": 14}, "indices": 15, "material": 1}]}, {"primitives": [{"mode": 4, "attributes": {"POSITION": 16, "NORMAL": 17, "TEXCOORD_0": 18}, "indices": 19, "material": 0}]}, {"primitives": [{"mode": 4, "attributes": {"POSITION": 20, "NORMAL": 21, "TEXCOORD_0": 22}, "indices": 23, "material": 1}]}, {"primitives": [{"mode": 4, "attributes": {"POSITION": 24, "NORMAL": 25, "TEXCOORD_0": 26}, "indices": 27, "material": 1}]}, {"primitives": [{"mode": 4, "attributes": {"POSITION": 28, "NORMAL": 29, "TEXCOORD_0": 30}, "indices": 31, "material": 1}]}, {"primitives": [{"mode": 4, "attributes": {"POSITION": 32, "NORMAL": 33, "TEXCOORD_0": 34}, "indices": 35, "material": 2}]}, {"primitives": [{"mode": 4, "attributes": {"POSITION": 36, "NORMAL": 37, "TEXCOORD_0": 38}, "indices": 39, "material": 1}]}]}