{"asset":{"version":"2.0","generator":"THREE.GLTFExporter"},"scenes":[{"nodes":[18]}],"scene":0,"nodes":[{"matrix":[1,0,0,0,0,0.9887710779360422,0.14943813247359922,0,0,-0.14943813247359922,0.9887710779360422,0,0,0.45,0,1],"mesh":0},{"matrix":[1,0,0,0,0,1,0,0,0,0,1,0,-0.08,0.15,0,1],"mesh":1},{"matrix":[1,0,0,0,0,1,0,0,0,0,1,0,0.08,0.15,0,1],"mesh":2},{"matrix":[1.1,0,0,0,0,0.8,0,0,0,0,0.9,0,0,0.85,0.02,1],"mesh":3},{"matrix":[1,0,0,0,0,1,0,0,0,0,1,0,0,1.1,0.05,1],"mesh":4},{"matrix":[1,0,0,0,0,0.9800665778412416,-0.19866933079506124,0,0,0.19866933079506124,0.9800665778412416,0,0,1.18,0.08,1],"mesh":5},{"matrix":[1,0,0,0,0,0.4,0,0,0,0,1,0,0,1.2,0.03,1],"mesh":6},{"matrix":[0.9210609940028851,0.27131037182928797,0.27935161976310574,0,-0.3894183423086506,0.6417093742397793,0.6607287141379384,0,-2.7755575615628914e-17,-0.7173560908995228,0.6967067093471654,0,-0.18,0.7,0.12,1],"mesh":7},{"matrix":[0.9210609940028851,-0.27131037182928797,-0.27935161976310574,0,0.3894183423086506,0.6417093742397793,0.6607287141379384,0,2.7755575615628914e-17,-0.7173560908995228,0.6967067093471654,0,0.18,0.7,0.12,1],"mesh":8},{"matrix":[1,0,0,0,0,1,0,0,0,0,1,0,0,0.65,0.18,1],"mesh":9},{"matrix":[1,0,0,0,0,1,0,0,0,0,1,0,0,0.82,0.18,1],"mesh":10},{"matrix":[1,0,0,0,0,1,0,0,0,0,1,0,0,0.86,0.18,1],"mesh":11},{"matrix":[1.7773605837058757,-0.2845862883005944,0,0,0.07905174675016512,0.4937112732516321,0,0,0,0,0.6,0,0.03,0.6,0.2,1],"mesh":12},{"matrix":[1.7454705520643072,-0.4396959766433199,0,0,0.12213777128981107,0.4848529311289742,0,0,0,0,0.6,0,-0.04,0.68,0.16,1],"mesh":13},{"matrix":[1.7944212356997555,-0.14160659896262684,0,0,0.03933516637850745,0.4984503432499321,0,0,0,0,0.6,0,0.02,0.72,0.22,1],"mesh":14},{"matrix":[1,0,0,0,0,1,0,0,0,0,1,0,0,0.55,0.17,1],"mesh":15},{"matrix":[1,0,0,0,0,1,0,0,0,0,1,0,0,0.67,0.17,1],"mesh":16},{"matrix":[1,0,0,0,0,1,0,0,0,0,1,0,0,0.79,0.17,1],"mesh":17},{"children":[0,1,2,3,4,5,6,7,8,9,10,11,12,13,14,15,16,17]}],"bufferViews":[{"buffer":0,"byteOffset":0,"byteLength":912,"target":34962,"byteStride":12},{"buffer":0,"byteOffset":912,"byteLength":912,"target":34962,"byteStride":12},{"buffer":0,"byteOffset":1824,"byteLength":608,"target":34962,"byteStride":8},{"buffer":0,"byteOffset":2432,"byteLength":288,"target":34963},{"buffer":0,"byteOffset":2720,"byteLength":768,"target":34962,"byteStride":12},{"buffer":0,"byteOffset":3488,"byteLength":768,"target":34962,"byteStride":12},{"buffer":0,"byteOffset":4256,"byteLength":512,"target":34962,"byteStride":8},{"buffer":0,"byteOffset":4768,"byteLength":240,"target":34963},{"buffer":0,"byteOffset":5008,"byteLength":768,"target":34962,"byteStride":12},{"buffer":0,"byteOffset":5776,"byteLength":768,"target":34962,"byteStride":12},{"buffer":0,"byteOffset":6544,"byteLength":512,"target":34962,"byteStride":8},{"buffer":0,"byteOffset":7056,"byteLength":240,"target":34963},{"buffer":0,"byteOffset":7296,"byteLength":2028,"target":34962,"byteStride":12},{"buffer":0,"byteOffset":9324,"byteLength":2028,"target":34962,"byteStride":12},{"buffer":0,"byteOffset":11352,"byteLength":1352,"target":34962,"byteStride":8},{"buffer":0,"byteOffset":12704,"byteLength":1584,"target":34963},{"buffer":0,"byteOffset":14288,"byteLength":2028,"target":34962,"byteStride":12},{"buffer":0,"byteOffset":16316,"byteLength":2028,"target":34962,"byteStride":12},{"buffer":0,"byteOffset":18344,"byteLength":1352,"target":34962,"byteStride":8},{"buffer":0,"byteOffset":19696,"byteLength":1584,"target":34963},{"buffer":0,"byteOffset":21280,"byteLength":912,"target":34962,"byteStride":12},{"buffer":0,"byteOffset":22192,"byteLength":912,"target":34962,"byteStride":12},{"buffer":0,"byteOffset":23104,"byteLength":608,"target":34962,"byteStride":8},{"buffer":0,"byteOffset":23712,"byteLength":288,"target":34963},{"buffer":0,"byteOffset":24000,"byteLength":1452,"target":34962,"byteStride":12},{"buffer":0,"byteOffset":25452,"byteLength":1452,"target":34962,"byteStride":12},{"buffer":0,"byteOffset":26904,"byteLength":968,"target":34962,"byteStride":8},{"buffer":0,"byteOffset":27872,"byteLength":1080,"target":34963},{"buffer":0,"byteOffset":28952,"byteLength":768,"target":34962,"byteStride":12},{"buffer":0,"byteOffset":29720,"byteLength":768,"target":34962,"byteStride":12},{"buffer":0,"byteOffset":30488,"byteLength":512,"target":34962,"byteStride":8},{"buffer":0,"byteOffset":31000,"byteLength":240,"target":34963},{"buffer":0,"byteOffset":31240,"byteLength":768,"target":34962,"byteStride":12},{"buffer":0,"byteOffset":32008,"byteLength":768,"target":34962,"byteStride":12},{"buffer":0,"byteOffset":32776,"byteLength":512,"target":34962,"byteStride":8},{"buffer":0,"byteOffset":33288,"byteLength":240,"target":34963},{"buffer":0,"byteOffset":33528,"byteLength":1200,"target":34962,"byteStride":12},{"buffer":0,"byteOffset":34728,"byteLength":1200,"target":34962,"byteStride":12},{"buffer":0,"byteOffset":35928,"byteLength":800,"target":34962,"byteStride":8},{"buffer":0,"byteOffset":36728,"byteLength":384,"target":34963},{"buffer":0,"byteOffset":37112,"byteLength":912,"target":34962,"byteStride":12},{"buffer":0,"byteOffset":38024,"byteLength":912,"target":34962,"byteStride":12},{"buffer":0,"byteOffset":38936,"byteLength":608,"target":34962,"byteStride":8},{"buffer":0,"byteOffset":39544,"byteLength":288,"target":34963},{"buffer":0,"byteOffset":39832,"byteLength":972,"target":34962,"byteStride":12},{"buffer":0,"byteOffset":40804,"byteLength":972,"target":34962,"byteStride":12},{"buffer":0,"byteOffset":41776,"byteLength":648,"target":34962,"byteStride":8},{"buffer":0,"byteOffset":42424,"byteLength":672,"target":34963},{"buffer":0,"byteOffset":43096,"byteLength":972,"target":34962,"byteStride":12},{"buffer":0,"byteOffset":44068,"byteLength":972,"target":34962,"byteStride":12},{"buffer":0,"byteOffset":45040,"byteLength":648,"target":34962,"byteStride":8},{"buffer":0,"byteOffset":45688,"byteLength":672,"target":34963},{"buffer":0,"byteOffset":46360,"byteLength":972,"target":34962,"byteStride":12},{"buffer":0,"byteOffset":47332,"byteLength":972,"target":34962,"byteStride":12},{"buffer":0,"byteOffset":48304,"byteLength":648,"target":34962,"byteStride":8},{"buffer":0,"byteOffset":48952,"byteLength":672,"target":34963},{"buffer":0,"byteOffset":49624,"byteLength":972,"target":34962,"byteStride":12},{"buffer":0,"byteOffset":50596,"byteLength":972,"target":34962,"byteStride":12},{"buffer":0,"byteOffset":51568,"byteLength":648,"target":34962,"byteStride":8},{"buffer":0,"byteOffset":52216,"byteLength":672,"target":34963},{"buffer":0,"byteOffset":52888,"byteLength":588,"target":34962,"byteStride":12},{"buffer":0,"byteOffset":53476,"byteLength":588,"target":34962,"byteStride":12},{"buffer":0,"byteOffset":54064,"byteLength":392,"target":34962,"byteStride":8},{"buffer":0,"byteOffset":54456,"byteLength":360,"target":34963},{"buffer":0,"byteOffset":54816,"byteLength":588,"target":34962,"byteStride":12},{"buffer":0,"byteOffset":55404,"byteLength":588,"target":34962,"byteStride":12},{"buffer":0,"byteOffset":55992,"byteLength":392,"target":34962,"byteStride":8},{"buffer":0,"byteOffset":56384,"byteLength":360,"target":34963},{"buffer":0,"byteOffset":56744,"byteLength":588,"target":34962,"byteStride":12},{"buffer":0,"byteOffset":57332,"byteLength":588,"target":34962,"byteStride":12},{"buffer":0,"byteOffset":57920,"byteLength":392,"target":34962,"byteStride":8},{"buffer":0,"byteOffset":58312,"byteLength":360,"target":34963}],"buffers":[{"byteLength":58672,"uri":"data:application/octet-stream;base64,"}],"accessors":[{"bufferView":0,"componentType":5126,"count":76,"max":[0.2199999988079071,0.3499999940395355,0.2199999988079071],"min":[-0.2199999988079071,-0.3499999940395355,-0.2199999988079071],"type":"VEC3"},{"bufferView":1,"componentType":5126,"count":76,"max":[0.9983713626861572,1,0.9983713626861572],"min":[-0.9983713626861572,-1,-0.9983713626861572],"type":"VEC3"},{"bufferView":2,"componentType":5126,"count":76,"max":[1,1],"min":[0,0],"type":"VEC2"},{"bufferView":3,"componentType":5123,"count":144,"max":[75],"min":[0],"type":"SCALAR"},{"bufferView":4,"componentType":5126,"count":64,"max":[0.06657395511865616,0.25,0.07000000029802322],"min":[-0.06657395511865616,-0.25,-0.07000000029802322],"type":"VEC3"},{"bufferView":5,"componentType":5126,"count":64,"max":[0.9508663415908813,1,0.9998000860214233],"min":[-0.9508663415908813,-1,-0.9998000860214233],"type":"VEC3"},{"bufferView":6,"componentType":5126,"count":64,"max":[1,1],"min":[0,0],"type":"VEC2"},{"bufferView":7,"componentType":5123,"count":120,"max":[63],"min":[0],"type":"SCALAR"},{"bufferView":8,"componentType":5126,"count":64,"max":[0.06657395511865616,0.25,0.07000000029802322],"min":[-0.06657395511865616,-0.25,-0.07000000029802322],"type":"VEC3"},{"bufferView":9,"componentType":5126,"count":64,"max":[0.9508663415908813,1,0.9998000860214233],"min":[-0.9508663415908813,-1,-0.9998000860214233],"type":"VEC3"},{"bufferView":10,"componentType":5126,"count":64,"max":[1,1],"min":[0,0],"type":"VEC2"},{"bufferView":11,"componentType":5123,"count":120,"max":[63],"min":[0],"type":"SCALAR"},{"bufferView":12,"componentType":5126,"count":169,"max":[0.20000000298023224,0.20000000298023224,0.20000000298023224],"min":[-0.20000000298023224,-0.20000000298023224,-0.20000000298023224],"type":"VEC3"},{"bufferView":13,"componentType":5126,"count":169,"max":[1,1,1],"min":[-1,-1,-1],"type":"VEC3"},{"bufferView":14,"componentType":5126,"count":169,"max":[1.0416666269302368,1],"min":[-0.0416666679084301,0],"type":"VEC2"},{"bufferView":15,"componentType":5123,"count":792,"max":[168],"min":[0],"type":"SCALAR"},{"bufferView":16,"componentType":5126,"count":169,"max":[0.11999999731779099,0.11999999731779099,0.11999999731779099],"min":[-0.11999999731779099,-0.11999999731779099,-0.11999999731779099],"type":"VEC3"},{"bufferView":17,"componentType":5126,"count":169,"max":[1,1,1],"min":[-1,-1,-1],"type":"VEC3"},{"bufferView":18,"componentType":5126,"count":169,"max":[1.0416666269302368,1],"min":[-0.0416666679084301,0],"type":"VEC2"},{"bufferView":19,"componentType":5123,"count":792,"max":[168],"min":[0],"type":"SCALAR"},{"bufferView":20,"componentType":5126,"count":76,"max":[0.14000000059604645,0.009999999776482582,0.14000000059604645],"min":[-0.14000000059604645,-0.009999999776482582,-0.14000000059604645],"type":"VEC3"},{"bufferView":21,"componentType":5126,"count":76,"max":[1,1,1],"min":[-1,-1,-1],"type":"VEC3"},{"bufferView":22,"componentType":5126,"count":76,"max":[1,1],"min":[0,0],"type":"VEC2"},{"bufferView":23,"componentType":5123,"count":144,"max":[75],"min":[0],"type":"SCALAR"},{"bufferView":24,"componentType":5126,"count":121,"max":[0.10999999940395355,0.10999999940395355,0.10461621731519699],"min":[-0.10999999940395355,-0.10999999940395355,-0.10461621731519699],"type":"VEC3"},{"bufferView":25,"componentType":5126,"count":121,"max":[1,1,0.9510565400123596],"min":[-1,-1,-0.9510565400123596],"type":"VEC3"},{"bufferView":26,"componentType":5126,"count":121,"max":[1.0499999523162842,1],"min":[-0.05000000074505806,0],"type":"VEC2"},{"bufferView":27,"componentType":5123,"count":540,"max":[120],"min":[0],"type":"SCALAR"},{"bufferView":28,"componentType":5126,"count":64,"max":[0.04755282402038574,0.17499999701976776,0.05000000074505806],"min":[-0.04755282402038574,-0.17499999701976776,-0.05000000074505806],"type":"VEC3"},{"bufferView":29,"componentType":5126,"count":64,"max":[0.9506685733795166,1,0.9995920658111572],"min":[-0.9506685733795166,-1,-0.9995920658111572],"type":"VEC3"},{"bufferView":30,"componentType":5126,"count":64,"max":[1,1],"min":[0,0],"type":"VEC2"},{"bufferView":31,"componentType":5123,"count":120,"max":[63],"min":[0],"type":"SCALAR"},{"bufferView":32,"componentType":5126,"count":64,"max":[0.04755282402038574,0.17499999701976776,0.05000000074505806],"min":[-0.04755282402038574,-0.17499999701976776,-0.05000000074505806],"type":"VEC3"},{"bufferView":33,"componentType":5126,"count":64,"max":[0.9506685733795166,1,0.9995920658111572],"min":[-0.9506685733795166,-1,-0.9995920658111572],"type":"VEC3"},{"bufferView":34,"componentType":5126,"count":64,"max":[1,1],"min":[0,0],"type":"VEC2"},{"bufferView":35,"componentType":5123,"count":120,"max":[63],"min":[0],"type":"SCALAR"},{"bufferView":36,"componentType":5126,"count":100,"max":[0.11999999731779099,0.15000000596046448,0.11999999731779099],"min":[-0.11999999731779099,-0.15000000596046448,-0.11999999731779099],"type":"VEC3"},{"bufferView":37,"componentType":5126,"count":100,"max":[0.9977851510047913,1,0.9977851510047913],"min":[-0.9977851510047913,-1,-0.9977851510047913],"type":"VEC3"},{"bufferView":38,"componentType":5126,"count":100,"max":[1,1],"min":[0,0],"type":"VEC2"},{"bufferView":39,"componentType":5123,"count":192,"max":[99],"min":[0],"type":"SCALAR"},{"bufferView":40,"componentType":5126,"count":76,"max":[0.10000000149011612,0.019999999552965164,0.10000000149011612],"min":[-0.10000000149011612,-0.019999999552965164,-0.10000000149011612],"type":"VEC3"},{"bufferView":41,"componentType":5126,"count":76,"max":[0.8944271802902222,1,0.8944271802902222],"min":[-0.8944271802902222,-1,-0.8944271802902222],"type":"VEC3"},{"bufferView":42,"componentType":5126,"count":76,"max":[1,1],"min":[0,0],"type":"VEC2"},{"bufferView":43,"componentType":5123,"count":144,"max":[75],"min":[0],"type":"SCALAR"},{"bufferView":44,"componentType":5126,"count":81,"max":[0.03999999910593033,0.03999999910593033,0.03999999910593033],"min":[-0.03999999910593033,-0.03999999910593033,-0.03999999910593033],"type":"VEC3"},{"bufferView":45,"componentType":5126,"count":81,"max":[1,1,1],"min":[-1,-1,-1],"type":"VEC3"},{"bufferView":46,"componentType":5126,"count":81,"max":[1.0625,1],"min":[-0.0625,0],"type":"VEC2"},{"bufferView":47,"componentType":5123,"count":336,"max":[80],"min":[0],"type":"SCALAR"},{"bufferView":48,"componentType":5126,"count":81,"max":[0.029999999329447746,0.029999999329447746,0.029999999329447746],"min":[-0.029999999329447746,-0.029999999329447746,-0.029999999329447746],"type":"VEC3"},{"bufferView":49,"componentType":5126,"count":81,"max":[1,1,1],"min":[-1,-1,-1],"type":"VEC3"},{"bufferView":50,"componentType":5126,"count":81,"max":[1.0625,1],"min":[-0.0625,0],"type":"VEC2"},{"bufferView":51,"componentType":5123,"count":336,"max":[80],"min":[0],"type":"SCALAR"},{"bufferView":52,"componentType":5126,"count":81,"max":[0.029999999329447746,0.029999999329447746,0.029999999329447746],"min":[-0.029999999329447746,-0.029999999329447746,-0.029999999329447746],"type":"VEC3"},{"bufferView":53,"componentType":5126,"count":81,"max":[1,1,1],"min":[-1,-1,-1],"type":"VEC3"},{"bufferView":54,"componentType":5126,"count":81,"max":[1.0625,1],"min":[-0.0625,0],"type":"VEC2"},{"bufferView":55,"componentType":5123,"count":336,"max":[80],"min":[0],"type":"SCALAR"},{"bufferView":56,"componentType":5126,"count":81,"max":[0.029999999329447746,0.029999999329447746,0.029999999329447746],"min":[-0.029999999329447746,-0.029999999329447746,-0.029999999329447746],"type":"VEC3"},{"bufferView":57,"componentType":5126,"count":81,"max":[1,1,1],"min":[-1,-1,-1],"type":"VEC3"},{"bufferView":58,"componentType":5126,"count":81,"max":[1.0625,1],"min":[-0.0625,0],"type":"VEC2"},{"bufferView":59,"componentType":5123,"count":336,"max":[80],"min":[0],"type":"SCALAR"},{"bufferView":60,"componentType":5126,"count":49,"max":[0.014999999664723873,0.014999999664723873,0.012990380637347698],"min":[-0.014999999664723873,-0.014999999664723873,-0.012990380637347698],"type":"VEC3"},{"bufferView":61,"componentType":5126,"count":49,"max":[1,1,0.8660253882408142],"min":[-1,-1,-0.8660253882408142],"type":"VEC3"},{"bufferView":62,"componentType":5126,"count":49,"max":[1.0833333730697632,1],"min":[-0.0833333358168602,0],"type":"VEC2"},{"bufferView":63,"componentType":5123,"count":180,"max":[48],"min":[0],"type":"SCALAR"},{"bufferView":64,"componentType":5126,"count":49,"max":[0.014999999664723873,0.014999999664723873,0.012990380637347698],"min":[-0.014999999664723873,-0.014999999664723873,-0.012990380637347698],"type":"VEC3"},{"bufferView":65,"componentType":5126,"count":49,"max":[1,1,0.8660253882408142],"min":[-1,-1,-0.8660253882408142],"type":"VEC3"},{"bufferView":66,"componentType":5126,"count":49,"max":[1.0833333730697632,1],"min":[-0.0833333358168602,0],"type":"VEC2"},{"bufferView":67,"componentType":5123,"count":180,"max":[48],"min":[0],"type":"SCALAR"},{"bufferView":68,"componentType":5126,"count":49,"max":[0.014999999664723873,0.014999999664723873,0.012990380637347698],"min":[-0.014999999664723873,-0.014999999664723873,-0.012990380637347698],"type":"VEC3"},{"bufferView":69,"componentType":5126,"count":49,"max":[1,1,0.8660253882408142],"min":[-1,-1,-0.8660253882408142],"type":"VEC3"},{"bufferView":70,"componentType":5126,"count":49,"max":[1.0833333730697632,1],"min":[-0.0833333358168602,0],"type":"VEC2"},{"bufferView":71,"componentType":5123,"count":180,"max":[48],"min":[0],"type":"SCALAR"}],"materials":[{"pbrMetallicRoughness":{"baseColorFactor":[0.8156862745098039,0.8,0.7686274509803922,1],"metallicFactor":0,"roughnessFactor":0.75}},{"pbrMetallicRoughness":{"baseColorFactor":[0.7843137254901961,0.7686274509803922,0.7372549019607844,1],"metallicFactor":0,"roughnessFactor":0.8}},{"pbrMetallicRoughness":{"baseColorFactor":[0.8470588235294118,0.8313725490196079,0.8,1],"metallicFactor":0,"roughnessFactor":0.7}}],"meshes":[{"primitives":[{"mode":4,"attributes":{"POSITION":0,"NORMAL":1,"TEXCOORD_0":2},"indices":3,"material":0}]},{"primitives":[{"mode":4,"attributes":{"POSITION":4,"NORMAL":5,"TEXCOORD_0":6},"indices":7,"material":0}]},{"primitives":[{"mode":4,"attributes":{"POSITION":8,"NORMAL":9,"TEXCOORD_0":10},"indices":11,"material":0}]},{"primitives":[{"mode":4,"attributes":{"POSITION":12,"NORMAL":13,"TEXCOORD_0":14},"indices":15,"material":0}]},{"primitives":[{"mode":4,"attributes":{"POSITION":16,"NORMAL":17,"TEXCOORD_0":18},"indices":19,"material":0}]},{"primitives":[{"mode":4,"attributes":{"POSITION":20,"NORMAL":21,"TEXCOORD_0":22},"indices":23,"material":1}]},{"primitives":[{"mode":4,"attributes":{"POSITION":24,"NORMAL":25,"TEXCOORD_0":26},"indices":27,"material":1}]},{"primitives":[{"mode":4,"attributes":{"POSITION":28,"NORMAL":29,"TEXCOORD_0":30},"indices":31,"material":0}]},{"primitives":[{"mode":4,"attributes":{"POSITION":32,"NORMAL":33,"TEXCOORD_0":34},"indices":35,"material":0}]},{"primitives":[{"mode":4,"attributes":{"POSITION":36,"NORMAL":37,"TEXCOORD_0":38},"indices":39,"material":2}]},{"primitives":[{"mode":4,"attributes":{"POSITION":40,"NORMAL":41,"TEXCOORD_0":42},"indices":43,"material":1}]},{"primitives":[{"mode":4,"attributes":{"POSITION":44,"NORMAL":45,"TEXCOORD_0":46},"indices":47,"material":0}]},{"primitives":[{"mode":4,"attributes":{"POSITION":48,"NORMAL":49,"TEXCOORD_0":50},"indices":51,"material":1}]},{"primitives":[{"mode":4,"attributes":{"POSITION":52,"NORMAL":53,"TEXCOORD_0":54},"indices":55,"material":1}]},{"primitives":[{"mode":4,"attributes":{"POSITION":56,"NORMAL":57,"TEXCOORD_0":58},"indices":59,"material":1}]},{"primitives":[{"mode":4,"attributes":{"POSITION":60,"NORMAL":61,"TEXCOORD_0":62},"indices":63,"material":1}]},{"primitives":[{"mode":4,"attributes":{"POSITION":64,"NORMAL":65,"TEXCOORD_0":66},"indices":67,"material":1}]},{"primitives":[{"mode":4,"attributes":{"POSITION":68,"NORMAL":69,"TEXCOORD_0":70},"indices":71,"material":1}]}]}