{"asset": {"version": "2.0", "generator": "THREE.GLTFExporter", "extras": {"statueName": "Imana Turning Away", "statueDescription": "The Rwandan creator god departing from humanity. Sorrow in his glance over the shoulder.", "statueId": "imana_turning"}}, "scenes": [{"nodes": [9]}], "scene": 0, "nodes": [{"matrix": [1, 0, 0, 0, 0, 1, 0, 0, 0, 0, 1, 0, 0, 0.58, 0, 1], "mesh": 0}, {"matrix": [0.8775825618903728, 0, -0.479425538604203, 0, 0, 1, 0, 0, 0.479425538604203, 0, 0.8775825618903728, 0, 0, 1.2, 0, 1], "mesh": 1}, {"matrix": [0.6967067093471654, 0, -0.7173560908995228, 0, 0, 1, 0, 0, 0.7173560908995228, 0, 0.6967067093471654, 0, -0.05, 1.52, -0.08, 1], "mesh": 2}, {"matrix": [1, 0, 0, 0, 0, 0.8, 0, 0, 0, 0, 1, 0, -0.08, 1.58, -0.12, 1], "mesh": 3}, {"matrix": [1, 0, 0, 0, 0, 1, 0, 0, 0, 0, 1, 0, -0.2, 1.32, 0, 1], "mesh": 4}, {"matrix": [1, 0, 0, 0, 0, 1, 0, 0, 0, 0, 1, 0, 0.18, 1.3, -0.08, 1], "mesh": 5}, {"matrix": [0.6417093742397793, -0.7654941464851752, 0.04719947785435699, 0, 0.6607287141379385, 0.5830352932544021, 0.47276570638465276, 0, -0.38941834230865047, -0.2721921352954314, 0.8799231762812572, 0, 0.3, 1.1, 0.15, 1], "mesh": 6}, {"matrix": [1, 0, 0, 0, 0, 1, 0, 0, 0, 0, 1, 0, 0.45, 0.95, 0.28, 1], "mesh": 7}, {"matrix": [1, 0, 0, 0, 0, 0.9950041652780258, 0.09983341664682815, 0, 0, -0.09983341664682815, 0.9950041652780258, 0, 0.15, 0.5, 0.22, 1], "mesh": 8}, {"children": [0, 1, 2, 3, 4, 5, 6, 7, 8]}], "bufferViews": [{"buffer": 0, "byteOffset": 0, "byteLength": 612, "target": 34962, "byteStride": 12}, {"buffer": 0, "byteOffset": 612, "byteLength": 612, "target": 34962, "byteStride": 12}, {"buffer": 0, "byteOffset": 1224, "byteLength": 408, "target": 34962, "byteStride": 8}, {"buffer": 0, "byteOffset": 1632, "byteLength": 216, "target": 34963}, {"buffer": 0, "byteOffset": 1848, "byteLength": 912, "target": 34962, "byteStride": 12}, {"buffer": 0, "byteOffset": 2760, "byteLength": 912, "target": 34962, "byteStride": 12}, {"buffer": 0, "byteOffset": 3672, "byteLength": 608, "target": 34962, "byteStride": 8}, {"buffer": 0, "byteOffset": 4280, "byteLength": 288, "target": 34963}, {"buffer": 0, "byteOffset": 4568, "byteLength": 2028, "target": 34962, "byteStride": 12}, {"buffer": 0, "byteOffset": 6596, "byteLength": 2028, "target": 34962, "byteStride": 12}, {"buffer": 0, "byteOffset": 8624, "byteLength": 1352, "target": 34962, "byteStride": 8}, {"buffer": 0, "byteOffset": 9976, "byteLength": 1584, "target": 34963}, {"buffer": 0, "byteOffset": 11560, "byteLength": 1452, "target": 34962, "byteStride": 12}, {"buffer": 0, "byteOffset": 13012, "byteLength": 1452, "target": 34962, "byteStride": 12}, {"buffer": 0, "byteOffset": 14464, "byteLength": 968, "target": 34962, "byteStride": 8}, {"buffer": 0, "byteOffset": 15432, "byteLength": 1080, "target": 34963}, {"buffer": 0, "byteOffset": 16512, "byteLength": 1452, "target": 34962, "byteStride": 12}, {"buffer": 0, "byteOffset": 17964, "byteLength": 1452, "target": 34962, "byteStride": 12}, {"buffer": 0, "byteOffset": 19416, "byteLength": 968, "target": 34962, "byteStride": 8}, {"buffer": 0, "byteOffset": 20384, "byteLength": 1080, "target": 34963}, {"buffer": 0, "byteOffset": 21464, "byteLength": 1452, "target": 34962, "byteStride": 12}, {"buffer": 0, "byteOffset": 22916, "byteLength": 1452, "target": 34962, "byteStride": 12}, {"buffer": 0, "byteOffset": 24368, "byteLength": 968, "target": 34962, "byteStride": 8}, {"buffer": 0, "byteOffset": 25336, "byteLength": 1080, "target": 34963}, {"buffer": 0, "byteOffset": 26416, "byteLength": 768, "target": 34962, "byteStride": 12}, {"buffer": 0, "byteOffset": 27184, "byteLength": 768, "target": 34962, "byteStride": 12}, {"buffer": 0, "byteOffset": 27952, "byteLength": 512, "target": 34962, "byteStride": 8}, {"buffer": 0, "byteOffset": 28464, "byteLength": 240, "target": 34963}, {"buffer": 0, "byteOffset": 28704, "byteLength": 972, "target": 34962, "byteStride": 12}, {"buffer": 0, "byteOffset": 29676, "byteLength": 972, "target": 34962, "byteStride": 12}, {"buffer": 0, "byteOffset": 30648, "byteLength": 648, "target": 34962, "byteStride": 8}, {"buffer": 0, "byteOffset": 31296, "byteLength": 672, "target": 34963}, {"buffer": 0, "byteOffset": 31968, "byteLength": 624, "target": 34962, "byteStride": 12}, {"buffer": 0, "byteOffset": 32592, "byteLength": 624, "target": 34962, "byteStride": 12}, {"buffer": 0, "byteOffset": 33216, "byteLength": 416, "target": 34962, "byteStride": 8}, {"buffer": 0, "byteOffset": 33632, "byteLength": 192, "target": 34963}], "buffers": [{"byteLength": 33824, "uri": "data:application/octet-stream;base64,"}], "accessors": [{"bufferView": 0, "componentType": 5126, "count": 51, "max": [0.3499999940395355, 0.574999988079071, 0.3499999940395355], "min": [-0.3499999940395355, -0.574999988079071, -0.3499999940395355], "type": "VEC3"}, {"bufferView": 1, "componentType": 5126, "count": 51, "max": [0.9566738605499268, 0.2911616265773773, 0.9566738605499268], "min": [-0.9566738605499268, -1, -0.9566738605499268], "type": "VEC3"}, {"bufferView": 2, "componentType": 5126, "count": 51, "max": [1, 1], "min": [0, 0], "type": "VEC2"}, {"bufferView": 3, "componentType": 5123, "count": 108, "max": [50], "min": [0], "type": "SCALAR"}, {"bufferView": 4, "componentType": 5126, "count": 76, "max": [0.2199999988079071, 0.22499999403953552, 0.2199999988079071], "min": [-0.2199999988079071, -0.22499999403953552, -0.2199999988079071], "type": "VEC3"}, {"bufferView": 5, "componentType": 5126, "count": 76, "max": [0.988116443157196, 1, 0.988116443157196], "min": [-0.988116443157196, -1, -0.988116443157196], "type": "VEC3"}, {"bufferView": 6, "componentType": 5126, "count": 76, "max": [1, 1], "min": [0, 0], "type": "VEC2"}, {"bufferView": 7, "componentType": 5123, "count": 144, "max": [75], "min": [0], "type": "SCALAR"}, {"bufferView": 8, "componentType": 5126, "count": 169, "max": [0.11999999731779099, 0.11999999731779099, 0.11999999731779099], "min": [-0.11999999731779099, -0.11999999731779099, -0.11999999731779099], "type": "VEC3"}, {"bufferView": 9, "componentType": 5126, "count": 169, "max": [1, 1, 1], "min": [-1, -1, -1], "type": "VEC3"}, {"bufferView": 10, "componentType": 5126, "count": 169, "max": [1.0416666269302368, 1], "min": [-0.0416666679084301, 0], "type": "VEC2"}, {"bufferView": 11, "componentType": 5123, "count": 792, "max": [168], "min": [0], "type": "SCALAR"}, {"bufferView": 12, "componentType": 5126, "count": 121, "max": [0.12999999523162842, 0.12999999523162842, 0.12363734841346741], "min": [-0.12999999523162842, -0.12999999523162842, -0.12363734841346741], "type": "VEC3"}, {"bufferView": 13, "componentType": 5126, "count": 121, "max": [1, 1, 0.9510565400123596], "min": [-1, -1, -0.9510565400123596], "type": "VEC3"}, {"bufferView": 14, "componentType": 5126, "count": 121, "max": [1.0499999523162842, 1], "min": [-0.05000000074505806, 0], "type": "VEC2"}, {"bufferView": 15, "componentType": 5123, "count": 540, "max": [120], "min": [0], "type": "SCALAR"}, {"bufferView": 16, "componentType": 5126, "count": 121, "max": [0.07999999821186066, 0.07999999821186066, 0.07608452439308167], "min": [-0.07999999821186066, -0.07999999821186066, -0.07608452439308167], "type": "VEC3"}, {"bufferView": 17, "componentType": 5126, "count": 121, "max": [1, 1, 0.9510565400123596], "min": [-1, -1, -0.9510565400123596], "type": "VEC3"}, {"bufferView": 18, "componentType": 5126, "count": 121, "max": [1.0499999523162842, 1], "min": [-0.05000000074505806, 0], "type": "VEC2"}, {"bufferView": 19, "componentType": 5123, "count": 540, "max": [120], "min": [0], "type": "SCALAR"}, {"bufferView": 20, "componentType": 5126, "count": 121, "max": [0.07999999821186066, 0.07999999821186066, 0.07608452439308167], "min": [-0.07999999821186066, -0.07999999821186066, -0.07608452439308167], "type": "VEC3"}, {"bufferView": 21, "componentType": 5126, "count": 121, "max": [1, 1, 0.9510565400123596], "min": [-1, -1, -0.9510565400123596], "type": "VEC3"}, {"bufferView": 22, "componentType": 5126, "count": 121, "max": [1.0499999523162842, 1], "min": [-0.05000000074505806, 0], "type": "VEC2"}, {"bufferView": 23, "componentType": 5123, "count": 540, "max": [120], "min": [0], "type": "SCALAR"}, {"bufferView": 24, "componentType": 5126, "count": 64, "max": [0.04755282402038574, 0.20000000298023224, 0.05000000074505806], "min": [-0.04755282402038574, -0.20000000298023224, -0.05000000074505806], "type": "VEC3"}, {"bufferView": 25, "componentType": 5126, "count": 64, "max": [0.9507594704627991, 1, 0.999687671661377], "min": [-0.9507594704627991, -1, -0.999687671661377], "type": "VEC3"}, {"bufferView": 26, "componentType": 5126, "count": 64, "max": [1, 1], "min": [0, 0], "type": "VEC2"}, {"bufferView": 27, "componentType": 5123, "count": 120, "max": [63], "min": [0], "type": "SCALAR"}, {"bufferView": 28, "componentType": 5126, "count": 81, "max": [0.03999999910593033, 0.03999999910593033, 0.03999999910593033], "min": [-0.03999999910593033, -0.03999999910593033, -0.03999999910593033], "type": "VEC3"}, {"bufferView": 29, "componentType": 5126, "count": 81, "max": [1, 1, 1], "min": [-1, -1, -1], "type": "VEC3"}, {"bufferView": 30, "componentType": 5126, "count": 81, "max": [1.0625, 1], "min": [-0.0625, 0], "type": "VEC2"}, {"bufferView": 31, "componentType": 5123, "count": 336, "max": [80], "min": [0], "type": "SCALAR"}, {"bufferView": 32, "componentType": 5126, "count": 52, "max": [0.03999999910593033, 0.25, 0.03999999910593033], "min": [-0.03999999910593033, -0.25, -0.03999999910593033], "type": "VEC3"}, {"bufferView": 33, "componentType": 5126, "count": 52, "max": [0.9992009401321411, 1, 0.9992009401321411], "min": [-0.9992009401321411, -1, -0.9992009401321411], "type": "VEC3"}, {"bufferView": 34, "componentType": 5126, "count": 52, "max": [1, 1], "min": [0, 0], "type": "VEC2"}, {"bufferView": 35, "componentType": 5123, "count": 96, "max": [51], "min": [0], "type": "SCALAR"}], "materials": [{"pbrMetallicRoughness": {"baseColorFactor": [0.8156862745098039, 0.8, 0.7686274509803922, 1], "metallicFactor": 0, "roughnessFactor": 0.75}}, {"pbrMetallicRoughness": {"baseColorFactor": [0.7843137254901961, 0.7686274509803922, 0.7372549019607844, 1], "metallicFactor": 0, "roughnessFactor": 0.8}}], "meshes": [{"primitives": [{"mode": 4, "attributes": {"POSITION": 0, "NORMAL": 1, "TEXCOORD_0": 2}, "indices": 3, "material": 0}]}, {"primitives": [{"mode": 4, "attributes": {"POSITION": 4, "NORMAL": 5, "TEXCOORD_0": 6}, "indices": 7, "material": 0}]}, {"primitives": [{"mode": 4, "attributes": {"POSITION": 8, "NORMAL": 9, "TEXCOORD_0": 10}, "indices": 11, "material": 0}]}, {"primitives": [{"mode": 4, "attributes": {"POSITION": 12, "NORMAL": 13, "TEXCOORD_0": 14}, "indices": 15, "material": 0}]}, {"primitives": [{"mode": 4, "attributes": {"POSITION": 16, "NORMAL": 17, "TEXCOORD_0": 18}, "indices": 19, "material": 0}]}, {"primitives": [{"mode": 4, "attributes": {"POSITION": 20, "NORMAL": 21, "TEXCOORD_0": 22}, "indices": 23, "material": 0}]}, {"primitives": [{"mode": 4, "attributes": {"POSITION": 24, "NORMAL": 25, "TEXCOORD_0": 26}, "indices": 27, "material": 0}]}, {"primitives": [{"mode": 4, "attributes": {"POSITION": 28, "NORMAL": 29, "TEXCOORD_0": 30}, "indices": 31, "material": 0}]}, {"primitives": [{"mode": 4, "attributes": {"POSITION": 32, "NORMAL": 33, "TEXCOORD_0": 34}, "indices": 35, "material": 1}]}]}