{"asset": {"version": "2.0", "generator": "THREE.GLTFExporter", "extras": {"statueName": "The Kalumba Deceiver with Baskets", "statueDescription": "The Luba trickster with baskets of life and death. A sly, ambiguous smile.", "statueId": "kalumba_baskets"}}, "scenes": [{"nodes": [11]}], "scene": 0, "nodes": [{"matrix": [1, 0, 0, 0, 0, 1, 0, 0, 0, 0, 1, 0, 0, 0.55, 0, 1], "mesh": 0}, {"matrix": [1, 0, 0, 0, 0, 1, 0, 0, 0, 0, 1, 0, 0, 1.02, 0, 1], "mesh": 1}, {"matrix": [1, 0, 0, 0, 0, -1, 1.2246467991473532e-16, 0, 0, -1.2246467991473532e-16, -1, 0, 0, 0.98, 0.1, 1], "mesh": 2}, {"matrix": [0.5403023058681398, 0.8414709848078965, 0, 0, -0.8414709848078965, 0.5403023058681398, 0, 0, 0, 0, 1, 0, -0.25, 1, 0, 1], "mesh": 3}, {"matrix": [0.8253356149096783, -0.5646424733950353, 0, 0, 0.5646424733950353, 0.8253356149096783, 0, 0, 0, 0, 1, 0, 0.22, 0.8, 0, 1], "mesh": 4}, {"matrix": [1, 0, 0, 0, 0, 1, 0, 0, 0, 0, 1, 0, -0.42, 1.25, 0, 1], "mesh": 5}, {"matrix": [1, 0, 0, 0, 0, 1, 0, 0, 0, 0, 1, 0, -0.42, 1.3, 0, 1], "mesh": 6}, {"matrix": [1, 0, 0, 0, 0, 1, 0, 0, 0, 0, 1, 0, -0.45, 1.32, 0.03, 1], "mesh": 7}, {"matrix": [0.955336489125606, 0.29552020666133955, 0, 0, -0.29552020666133955, 0.955336489125606, 0, 0, 0, 0, 1, 0, 0.35, 0.65, 0, 1], "mesh": 8}, {"matrix": [0.8775825618903728, 0.479425538604203, 0, 0, -0.479425538604203, 0.8775825618903728, 0, 0, 0, 0, 1, 0, 0.38, 0.68, 0.05, 1], "mesh": 9}, {"matrix": [1, 0, 0, 0, 0, 1, 0, 0, 0, 0, 1, 0, 0.32, 0.7, -0.02, 1], "mesh": 10}, {"children": [0, 1, 2, 3, 4, 5, 6, 7, 8, 9, 10]}], "bufferViews": [{"buffer": 0, "byteOffset": 0, "byteLength": 912, "target": 34962, "byteStride": 12}, {"buffer": 0, "byteOffset": 912, "byteLength": 912, "target": 34962, "byteStride": 12}, {"buffer": 0, "byteOffset": 1824, "byteLength": 608, "target": 34962, "byteStride": 8}, {"buffer": 0, "byteOffset": 2432, "byteLength": 288, "target": 34963}, {"buffer": 0, "byteOffset": 2720, "byteLength": 2028, "target": 34962, "byteStride": 12}, {"buffer": 0, "byteOffset": 4748, "byteLength": 2028, "target": 34962, "byteStride": 12}, {"buffer": 0, "byteOffset": 6776, "byteLength": 1352, "target": 34962, "byteStride": 8}, {"buffer": 0, "byteOffset": 8128, "byteLength": 1584, "target": 34963}, {"buffer": 0, "byteOffset": 9712, "byteLength": 924, "target": 34962, "byteStride": 12}, {"buffer": 0, "byteOffset": 10636, "byteLength": 924, "target": 34962, "byteStride": 12}, {"buffer": 0, "byteOffset": 11560, "byteLength": 616, "target": 34962, "byteStride": 8}, {"buffer": 0, "byteOffset": 12176, "byteLength": 720, "target": 34963}, {"buffer": 0, "byteOffset": 12896, "byteLength": 768, "target": 34962, "byteStride": 12}, {"buffer": 0, "byteOffset": 13664, "byteLength": 768, "target": 34962, "byteStride": 12}, {"buffer": 0, "byteOffset": 14432, "byteLength": 512, "target": 34962, "byteStride": 8}, {"buffer": 0, "byteOffset": 14944, "byteLength": 240, "target": 34963}, {"buffer": 0, "byteOffset": 15184, "byteLength": 768, "target": 34962, "byteStride": 12}, {"buffer": 0, "byteOffset": 15952, "byteLength": 768, "target": 34962, "byteStride": 12}, {"buffer": 0, "byteOffset": 16720, "byteLength": 512, "target": 34962, "byteStride": 8}, {"buffer": 0, "byteOffset": 17232, "byteLength": 240, "target": 34963}, {"buffer": 0, "byteOffset": 17472, "byteLength": 768, "target": 34962, "byteStride": 12}, {"buffer": 0, "byteOffset": 18240, "byteLength": 768, "target": 34962, "byteStride": 12}, {"buffer": 0, "byteOffset": 19008, "byteLength": 512, "target": 34962, "byteStride": 8}, {"buffer": 0, "byteOffset": 19520, "byteLength": 240, "target": 34963}, {"buffer": 0, "byteOffset": 19760, "byteLength": 588, "target": 34962, "byteStride": 12}, {"buffer": 0, "byteOffset": 20348, "byteLength": 588, "target": 34962, "byteStride": 12}, {"buffer": 0, "byteOffset": 20936, "byteLength": 392, "target": 34962, "byteStride": 8}, {"buffer": 0, "byteOffset": 21328, "byteLength": 360, "target": 34963}, {"buffer": 0, "byteOffset": 21688, "byteLength": 972, "target": 34962, "byteStride": 12}, {"buffer": 0, "byteOffset": 22660, "byteLength": 972, "target": 34962, "byteStride": 12}, {"buffer": 0, "byteOffset": 23632, "byteLength": 648, "target": 34962, "byteStride": 8}, {"buffer": 0, "byteOffset": 24280, "byteLength": 672, "target": 34963}, {"buffer": 0, "byteOffset": 24952, "byteLength": 768, "target": 34962, "byteStride": 12}, {"buffer": 0, "byteOffset": 25720, "byteLength": 768, "target": 34962, "byteStride": 12}, {"buffer": 0, "byteOffset": 26488, "byteLength": 512, "target": 34962, "byteStride": 8}, {"buffer": 0, "byteOffset": 27000, "byteLength": 240, "target": 34963}, {"buffer": 0, "byteOffset": 27240, "byteLength": 480, "target": 34962, "byteStride": 12}, {"buffer": 0, "byteOffset": 27720, "byteLength": 480, "target": 34962, "byteStride": 12}, {"buffer": 0, "byteOffset": 28200, "byteLength": 320, "target": 34962, "byteStride": 8}, {"buffer": 0, "byteOffset": 28520, "byteLength": 144, "target": 34963}, {"buffer": 0, "byteOffset": 28664, "byteLength": 972, "target": 34962, "byteStride": 12}, {"buffer": 0, "byteOffset": 29636, "byteLength": 972, "target": 34962, "byteStride": 12}, {"buffer": 0, "byteOffset": 30608, "byteLength": 648, "target": 34962, "byteStride": 8}, {"buffer": 0, "byteOffset": 31256, "byteLength": 672, "target": 34963}], "buffers": [{"byteLength": 31928, "uri": "data:application/octet-stream;base64,"}], "accessors": [{"bufferView": 0, "componentType": 5126, "count": 76, "max": [0.18000000715255737, 0.3499999940395355, 0.18000000715255737], "min": [-0.18000000715255737, -0.3499999940395355, -0.18000000715255737], "type": "VEC3"}, {"bufferView": 1, "componentType": 5126, "count": 76, "max": [0.9983713626861572, 1, 0.9983713626861572], "min": [-0.9983713626861572, -1, -0.9983713626861572], "type": "VEC3"}, {"bufferView": 2, "componentType": 5126, "count": 76, "max": [1, 1], "min": [0, 0], "type": "VEC2"}, {"bufferView": 3, "componentType": 5123, "count": 144, "max": [75], "min": [0], "type": "SCALAR"}, {"bufferView": 4, "componentType": 5126, "count": 169, "max": [0.10999999940395355, 0.10999999940395355, 0.10999999940395355], "min": [-0.10999999940395355, -0.10999999940395355, -0.10999999940395355], "type": "VEC3"}, {"bufferView": 5, "componentType": 5126, "count": 169, "max": [1, 1, 1], "min": [-1, -1, -1], "type": "VEC3"}, {"bufferView": 6, "componentType": 5126, "count": 169, "max": [1.0416666269302368, 1], "min": [-0.0416666679084301, 0], "type": "VEC2"}, {"bufferView": 7, "componentType": 5123, "count": 792, "max": [168], "min": [0], "type": "SCALAR"}, {"bufferView": 8, "componentType": 5126, "count": 77, "max": [0.04800000041723251, 0.04800000041723251, 0.006928203161805868], "min": [-0.04800000041723251, 0, -0.006928203161805868], "type": "VEC3"}, {"bufferView": 9, "componentType": 5126, "count": 77, "max": [1, 1, 0.8660253882408142], "min": [-1, -1, -0.8660253882408142], "type": "VEC3"}, {"bufferView": 10, "componentType": 5126, "count": 77, "max": [1, 1], "min": [0, 0], "type": "VEC2"}, {"bufferView": 11, "componentType": 5123, "count": 360, "max": [76], "min": [0], "type": "SCALAR"}, {"bufferView": 12, "componentType": 5126, "count": 64, "max": [0.04279754310846329, 0.20000000298023224, 0.04500000178813934], "min": [-0.04279754310846329, -0.20000000298023224, -0.04500000178813934], "type": "VEC3"}, {"bufferView": 13, "componentType": 5126, "count": 64, "max": [0.9507594704627991, 1, 0.999687671661377], "min": [-0.9507594704627991, -1, -0.999687671661377], "type": "VEC3"}, {"bufferView": 14, "componentType": 5126, "count": 64, "max": [1, 1], "min": [0, 0], "type": "VEC2"}, {"bufferView": 15, "componentType": 5123, "count": 120, "max": [63], "min": [0], "type": "SCALAR"}, {"bufferView": 16, "componentType": 5126, "count": 64, "max": [0.04279754310846329, 0.17499999701976776, 0.04500000178813934], "min": [-0.04279754310846329, -0.17499999701976776, -0.04500000178813934], "type": "VEC3"}, {"bufferView": 17, "componentType": 5126, "count": 64, "max": [0.9506685733795166, 1, 0.9995920658111572], "min": [-0.9506685733795166, -1, -0.9995920658111572], "type": "VEC3"}, {"bufferView": 18, "componentType": 5126, "count": 64, "max": [1, 1], "min": [0, 0], "type": "VEC2"}, {"bufferView": 19, "componentType": 5123, "count": 120, "max": [63], "min": [0], "type": "SCALAR"}, {"bufferView": 20, "componentType": 5126, "count": 64, "max": [0.09510564804077148, 0.05999999865889549, 0.10000000149011612], "min": [-0.09510564804077148, -0.05999999865889549, -0.10000000149011612], "type": "VEC3"}, {"bufferView": 21, "componentType": 5126, "count": 64, "max": [0.9381163716316223, 1, 0.986393928527832], "min": [-0.9381163716316223, -1, -0.986393928527832], "type": "VEC3"}, {"bufferView": 22, "componentType": 5126, "count": 64, "max": [1, 1], "min": [0, 0], "type": "VEC2"}, {"bufferView": 23, "componentType": 5123, "count": 120, "max": [63], "min": [0], "type": "SCALAR"}, {"bufferView": 24, "componentType": 5126, "count": 49, "max": [0.019999999552965164, 0.019999999552965164, 0.017320508137345314], "min": [-0.019999999552965164, -0.019999999552965164, -0.017320508137345314], "type": "VEC3"}, {"bufferView": 25, "componentType": 5126, "count": 49, "max": [1, 1, 0.8660253882408142], "min": [-1, -1, -0.8660253882408142], "type": "VEC3"}, {"bufferView": 26, "componentType": 5126, "count": 49, "max": [1.0833333730697632, 1], "min": [-0.0833333358168602, 0], "type": "VEC2"}, {"bufferView": 27, "componentType": 5123, "count": 180, "max": [48], "min": [0], "type": "SCALAR"}, {"bufferView": 28, "componentType": 5126, "count": 81, "max": [0.02500000037252903, 0.02500000037252903, 0.02500000037252903], "min": [-0.02500000037252903, -0.02500000037252903, -0.02500000037252903], "type": "VEC3"}, {"bufferView": 29, "componentType": 5126, "count": 81, "max": [1, 1, 1], "min": [-1, -1, -1], "type": "VEC3"}, {"bufferView": 30, "componentType": 5126, "count": 81, "max": [1.0625, 1], "min": [-0.0625, 0], "type": "VEC2"}, {"bufferView": 31, "componentType": 5123, "count": 336, "max": [80], "min": [0], "type": "SCALAR"}, {"bufferView": 32, "componentType": 5126, "count": 64, "max": [0.09510564804077148, 0.05999999865889549, 0.10000000149011612], "min": [-0.09510564804077148, -0.05999999865889549, -0.10000000149011612], "type": "VEC3"}, {"bufferView": 33, "componentType": 5126, "count": 64, "max": [0.9381163716316223, 1, 0.986393928527832], "min": [-0.9381163716316223, -1, -0.986393928527832], "type": "VEC3"}, {"bufferView": 34, "componentType": 5126, "count": 64, "max": [1, 1], "min": [0, 0], "type": "VEC2"}, {"bufferView": 35, "componentType": 5123, "count": 120, "max": [63], "min": [0], "type": "SCALAR"}, {"bufferView": 36, "componentType": 5126, "count": 40, "max": [0.012990380637347698, 0.029999999329447746, 0.014999999664723873], "min": [-0.012990380637347698, -0.029999999329447746, -0.014999999664723873], "type": "VEC3"}, {"bufferView": 37, "componentType": 5126, "count": 40, "max": [0.8630339503288269, 1, 0.9965457320213318], "min": [-0.8630339503288269, -1, -0.9965457320213318], "type": "VEC3"}, {"bufferView": 38, "componentType": 5126, "count": 40, "max": [1, 1], "min": [0, 0], "type": "VEC2"}, {"bufferView": 39, "componentType": 5123, "count": 72, "max": [39], "min": [0], "type": "SCALAR"}, {"bufferView": 40, "componentType": 5126, "count": 81, "max": [0.019999999552965164, 0.019999999552965164, 0.019999999552965164], "min": [-0.019999999552965164, -0.019999999552965164, -0.019999999552965164], "type": "VEC3"}, {"bufferView": 41, "componentType": 5126, "count": 81, "max": [1, 1, 1], "min": [-1, -1, -1], "type": "VEC3"}, {"bufferView": 42, "componentType": 5126, "count": 81, "max": [1.0625, 1], "min": [-0.0625, 0], "type": "VEC2"}, {"bufferView": 43, "componentType": 5123, "count": 336, "max": [80], "min": [0], "type": "SCALAR"}], "materials": [{"pbrMetallicRoughness": {"baseColorFactor": [0.8156862745098039, 0.8, 0.7686274509803922, 1], "metallicFactor": 0, "roughnessFactor": 0.75}}, {"pbrMetallicRoughness": {"baseColorFactor": [0.7843137254901961, 0.7686274509803922, 0.7372549019607844, 1], "metallicFactor": 0, "roughnessFactor": 0.8}}, {"pbrMetallicRoughness": {"baseColorFactor": [0.8470588235294118, 0.8313725490196079, 0.8, 1], "metallicFactor": 0, "roughnessFactor": 0.7}}], "meshes": [{"primitives": [{"mode": 4, "attributes": {"POSITION": 0, "NORMAL": 1, "TEXCOORD_0": 2}, "indices": 3, "material": 0}]}, {"primitives": [{"mode": 4, "attributes": {"POSITION": 4, "NORMAL": 5, "TEXCOORD_0": 6}, "indices": 7, "material": 0}]}, {"primitives": [{"mode": 4, "attributes": {"POSITION": 8, "NORMAL": 9, "TEXCOORD_0": 10}, "indices": 11, "material": 1}]}, {"primitives": [{"mode": 4, "attributes": {"POSITION": 12, "NORMAL": 13, "TEXCOORD_0": 14}, "indices": 15, "material": 0}]}, {"primitives": [{"mode": 4, "attributes": {"POSITION": 16, "NORMAL": 17, "TEXCOORD_0": 18}, "indices": 19, "material": 0}]}, {"primitives": [{"mode": 4, "attributes": {"POSITION": 20, "NORMAL": 21, "TEXCOORD_0": 22}, "indices": 23, "material": 2}]}, {"primitives": [{"mode": 4, "attributes": {"POSITION": 24, "NORMAL": 25, "TEXCOORD_0": 26}, "indices": 27, "material": 0}]}, {"primitives": [{"mode": 4, "attributes": {"POSITION": 28, "NORMAL": 29, "TEXCOORD_0": 30}, "indices": 31, "material": 2}]}, {"primitives": [{"mode": 4, "attributes": {"POSITION": 32, "NORMAL": 33, "TEXCOORD_0": 34}, "indices": 35, "material": 1}]}, {"primitives": [{"mode": 4, "attributes": {"POSITION": 36, "NORMAL": 37, "TEXCOORD_0": 38}, "indices": 39, "material": 2}]}, {"primitives": [{"mode": 4, "attributes": {"POSITION": 40, "NORMAL": 41, "TEXCOORD_0": 42}, "indices": 43, "material": 2}]}]}