{"asset": {"version": "2.0", "generator": "THREE.GLTFExporter", "extras": {"statueName": "Man Trampled by Centaur", "statueDescription": "Warning of downfall and pain, misfortune wrought by one's own hand. The man's expression shows rage or agony.", "statueId": "man_centaur"}}, "scenes": [{"nodes": [11]}], "scene": 0, "nodes": [{"matrix": [1.5, 0, 0, 0, 0, 0.9, 0, 0, 0, 0, 0.9, 0, 0, 0.6, 0, 1], "mesh": 0}, {"matrix": [1, 0, 0, 0, 0, 1, 0, 0, 0, 0, 1, 0, -0.4, 0.55, 0, 1], "mesh": 1}, {"matrix": [0.6967067093471654, -0.7173560908995228, 0, 0, 0.7173560908995228, 0.6967067093471654, 0, 0, 0, 0, 1, 0, 0.35, 0.65, 0.12, 1], "mesh": 2}, {"matrix": [0.6967067093471654, -0.7173560908995228, 0, 0, 0.7173560908995228, 0.6967067093471654, 0, 0, 0, 0, 1, 0, 0.35, 0.65, -0.12, 1], "mesh": 3}, {"matrix": [1, 0, 0, 0, 0, 1, 0, 0, 0, 0, 1, 0, -0.45, 0.28, 0.15, 1], "mesh": 4}, {"matrix": [1, 0, 0, 0, 0, 1, 0, 0, 0, 0, 1, 0, -0.45, 0.28, -0.15, 1], "mesh": 5}, {"matrix": [0.9800665778412416, -0.19866933079506124, 0, 0, 0.19866933079506124, 0.9800665778412416, 0, 0, 0, 0, 1, 0, 0.25, 1, 0, 1], "mesh": 6}, {"matrix": [1, 0, 0, 0, 0, 1, 0, 0, 0, 0, 1, 0, 0.3, 1.28, 0, 1], "mesh": 7}, {"matrix": [2.220446049250313e-16, 1, 0, 0, -1, 2.220446049250313e-16, 0, 0, 0, 0, 1, 0, 0.45, 0.1, 0, 1], "mesh": 8}, {"matrix": [1, 0, 0, 0, 0, 1, 0, 0, 0, 0, 1, 0, 0.7, 0.1, 0, 1], "mesh": 9}, {"matrix": [0.8775825618903728, -0.479425538604203, 0, 0, 0.479425538604203, 0.8775825618903728, 0, 0, 0, 0, 1, 0, 0.5, 0.25, 0, 1], "mesh": 10}, {"children": [0, 1, 2, 3, 4, 5, 6, 7, 8, 9, 10]}], "bufferViews": [{"buffer": 0, "byteOffset": 0, "byteLength": 2700, "target": 34962, "byteStride": 12}, {"buffer": 0, "byteOffset": 2700, "byteLength": 2700, "target": 34962, "byteStride": 12}, {"buffer": 0, "byteOffset": 5400, "byteLength": 1800, "target": 34962, "byteStride": 8}, {"buffer": 0, "byteOffset": 7200, "byteLength": 2184, "target": 34963}, {"buffer": 0, "byteOffset": 9384, "byteLength": 2028, "target": 34962, "byteStride": 12}, {"buffer": 0, "byteOffset": 11412, "byteLength": 2028, "target": 34962, "byteStride": 12}, {"buffer": 0, "byteOffset": 13440, "byteLength": 1352, "target": 34962, "byteStride": 8}, {"buffer": 0, "byteOffset": 14792, "byteLength": 1584, "target": 34963}, {"buffer": 0, "byteOffset": 16376, "byteLength": 768, "target": 34962, "byteStride": 12}, {"buffer": 0, "byteOffset": 17144, "byteLength": 768, "target": 34962, "byteStride": 12}, {"buffer": 0, "byteOffset": 17912, "byteLength": 512, "target": 34962, "byteStride": 8}, {"buffer": 0, "byteOffset": 18424, "byteLength": 240, "target": 34963}, {"buffer": 0, "byteOffset": 18664, "byteLength": 768, "target": 34962, "byteStride": 12}, {"buffer": 0, "byteOffset": 19432, "byteLength": 768, "target": 34962, "byteStride": 12}, {"buffer": 0, "byteOffset": 20200, "byteLength": 512, "target": 34962, "byteStride": 8}, {"buffer": 0, "byteOffset": 20712, "byteLength": 240, "target": 34963}, {"buffer": 0, "byteOffset": 20952, "byteLength": 768, "target": 34962, "byteStride": 12}, {"buffer": 0, "byteOffset": 21720, "byteLength": 768, "target": 34962, "byteStride": 12}, {"buffer": 0, "byteOffset": 22488, "byteLength": 512, "target": 34962, "byteStride": 8}, {"buffer": 0, "byteOffset": 23000, "byteLength": 240, "target": 34963}, {"buffer": 0, "byteOffset": 23240, "byteLength": 768, "target": 34962, "byteStride": 12}, {"buffer": 0, "byteOffset": 24008, "byteLength": 768, "target": 34962, "byteStride": 12}, {"buffer": 0, "byteOffset": 24776, "byteLength": 512, "target": 34962, "byteStride": 8}, {"buffer": 0, "byteOffset": 25288, "byteLength": 240, "target": 34963}, {"buffer": 0, "byteOffset": 25528, "byteLength": 912, "target": 34962, "byteStride": 12}, {"buffer": 0, "byteOffset": 26440, "byteLength": 912, "target": 34962, "byteStride": 12}, {"buffer": 0, "byteOffset": 27352, "byteLength": 608, "target": 34962, "byteStride": 8}, {"buffer": 0, "byteOffset": 27960, "byteLength": 288, "target": 34963}, {"buffer": 0, "byteOffset": 28248, "byteLength": 2028, "target": 34962, "byteStride": 12}, {"buffer": 0, "byteOffset": 30276, "byteLength": 2028, "target": 34962, "byteStride": 12}, {"buffer": 0, "byteOffset": 32304, "byteLength": 1352, "target": 34962, "byteStride": 8}, {"buffer": 0, "byteOffset": 33656, "byteLength": 1584, "target": 34963}, {"buffer": 0, "byteOffset": 35240, "byteLength": 768, "target": 34962, "byteStride": 12}, {"buffer": 0, "byteOffset": 36008, "byteLength": 768, "target": 34962, "byteStride": 12}, {"buffer": 0, "byteOffset": 36776, "byteLength": 512, "target": 34962, "byteStride": 8}, {"buffer": 0, "byteOffset": 37288, "byteLength": 240, "target": 34963}, {"buffer": 0, "byteOffset": 37528, "byteLength": 1452, "target": 34962, "byteStride": 12}, {"buffer": 0, "byteOffset": 38980, "byteLength": 1452, "target": 34962, "byteStride": 12}, {"buffer": 0, "byteOffset": 40432, "byteLength": 968, "target": 34962, "byteStride": 8}, {"buffer": 0, "byteOffset": 41400, "byteLength": 1080, "target": 34963}, {"buffer": 0, "byteOffset": 42480, "byteLength": 624, "target": 34962, "byteStride": 12}, {"buffer": 0, "byteOffset": 43104, "byteLength": 624, "target": 34962, "byteStride": 12}, {"buffer": 0, "byteOffset": 43728, "byteLength": 416, "target": 34962, "byteStride": 8}, {"buffer": 0, "byteOffset": 44144, "byteLength": 192, "target": 34963}], "buffers": [{"byteLength": 44336, "uri": "data:application/octet-stream;base64,"}], "accessors": [{"bufferView": 0, "componentType": 5126, "count": 225, "max": [0.3499999940395355, 0.3499999940395355, 0.3412247598171234], "min": [-0.3499999940395355, -0.3499999940395355, -0.3412247598171234], "type": "VEC3"}, {"bufferView": 1, "componentType": 5126, "count": 225, "max": [1, 1, 0.9749279022216797], "min": [-1, -1, -0.9749279022216797], "type": "VEC3"}, {"bufferView": 2, "componentType": 5126, "count": 225, "max": [1.0357142686843872, 1], "min": [-0.0357142873108387, 0], "type": "VEC2"}, {"bufferView": 3, "componentType": 5123, "count": 1092, "max": [224], "min": [0], "type": "SCALAR"}, {"bufferView": 4, "componentType": 5126, "count": 169, "max": [0.2800000011920929, 0.2800000011920929, 0.2800000011920929], "min": [-0.2800000011920929, -0.2800000011920929, -0.2800000011920929], "type": "VEC3"}, {"bufferView": 5, "componentType": 5126, "count": 169, "max": [1, 1, 1], "min": [-1, -1, -1], "type": "VEC3"}, {"bufferView": 6, "componentType": 5126, "count": 169, "max": [1.0416666269302368, 1], "min": [-0.0416666679084301, 0], "type": "VEC2"}, {"bufferView": 7, "componentType": 5123, "count": 792, "max": [168], "min": [0], "type": "SCALAR"}, {"bufferView": 8, "componentType": 5126, "count": 64, "max": [0.05706338956952095, 0.25, 0.05999999865889549], "min": [-0.05706338956952095, -0.25, -0.05999999865889549], "type": "VEC3"}, {"bufferView": 9, "componentType": 5126, "count": 64, "max": [0.9508663415908813, 1, 0.9998000860214233], "min": [-0.9508663415908813, -1, -0.9998000860214233], "type": "VEC3"}, {"bufferView": 10, "componentType": 5126, "count": 64, "max": [1, 1], "min": [0, 0], "type": "VEC2"}, {"bufferView": 11, "componentType": 5123, "count": 120, "max": [63], "min": [0], "type": "SCALAR"}, {"bufferView": 12, "componentType": 5126, "count": 64, "max": [0.05706338956952095, 0.25, 0.05999999865889549], "min": [-0.05706338956952095, -0.25, -0.05999999865889549], "type": "VEC3"}, {"bufferView": 13, "componentType": 5126, "count": 64, "max": [0.9508663415908813, 1, 0.9998000860214233], "min": [-0.9508663415908813, -1, -0.9998000860214233], "type": "VEC3"}, {"bufferView": 14, "componentType": 5126, "count": 64, "max": [1, 1], "min": [0, 0], "type": "VEC2"}, {"bufferView": 15, "componentType": 5123, "count": 120, "max": [63], "min": [0], "type": "SCALAR"}, {"bufferView": 16, "componentType": 5126, "count": 64, "max": [0.05706338956952095, 0.2750000059604645, 0.05999999865889549], "min": [-0.05706338956952095, -0.2750000059604645, -0.05999999865889549], "type": "VEC3"}, {"bufferView": 17, "componentType": 5126, "count": 64, "max": [0.9508993625640869, 1, 0.9998347759246826], "min": [-0.9508993625640869, -1, -0.9998347759246826], "type": "VEC3"}, {"bufferView": 18, "componentType": 5126, "count": 64, "max": [1, 1], "min": [0, 0], "type": "VEC2"}, {"bufferView": 19, "componentType": 5123, "count": 120, "max": [63], "min": [0], "type": "SCALAR"}, {"bufferView": 20, "componentType": 5126, "count": 64, "max": [0.05706338956952095, 0.2750000059604645, 0.05999999865889549], "min": [-0.05706338956952095, -0.2750000059604645, -0.05999999865889549], "type": "VEC3"}, {"bufferView": 21, "componentType": 5126, "count": 64, "max": [0.9508993625640869, 1, 0.9998347759246826], "min": [-0.9508993625640869, -1, -0.9998347759246826], "type": "VEC3"}, {"bufferView": 22, "componentType": 5126, "count": 64, "max": [1, 1], "min": [0, 0], "type": "VEC2"}, {"bufferView": 23, "componentType": 5123, "count": 120, "max": [63], "min": [0], "type": "SCALAR"}, {"bufferView": 24, "componentType": 5126, "count": 76, "max": [0.15000000596046448, 0.20000000298023224, 0.15000000596046448], "min": [-0.15000000596046448, -0.20000000298023224, -0.15000000596046448], "type": "VEC3"}, {"bufferView": 25, "componentType": 5126, "count": 76, "max": [0.997199296951294, 1, 0.997199296951294], "min": [-0.997199296951294, -1, -0.997199296951294], "type": "VEC3"}, {"bufferView": 26, "componentType": 5126, "count": 76, "max": [1, 1], "min": [0, 0], "type": "VEC2"}, {"bufferView": 27, "componentType": 5123, "count": 144, "max": [75], "min": [0], "type": "SCALAR"}, {"bufferView": 28, "componentType": 5126, "count": 169, "max": [0.10000000149011612, 0.10000000149011612, 0.10000000149011612], "min": [-0.10000000149011612, -0.10000000149011612, -0.10000000149011612], "type": "VEC3"}, {"bufferView": 29, "componentType": 5126, "count": 169, "max": [1, 1, 1], "min": [-1, -1, -1], "type": "VEC3"}, {"bufferView": 30, "componentType": 5126, "count": 169, "max": [1.0416666269302368, 1], "min": [-0.0416666679084301, 0], "type": "VEC2"}, {"bufferView": 31, "componentType": 5123, "count": 792, "max": [168], "min": [0], "type": "SCALAR"}, {"bufferView": 32, "componentType": 5126, "count": 64, "max": [0.1141267791390419, 0.25, 0.11999999731779099], "min": [-0.1141267791390419, -0.25, -0.11999999731779099], "type": "VEC3"}, {"bufferView": 33, "componentType": 5126, "count": 64, "max": [0.9502965807914734, 1, 0.9992009401321411], "min": [-0.9502965807914734, -1, -0.9992009401321411], "type": "VEC3"}, {"bufferView": 34, "componentType": 5126, "count": 64, "max": [1, 1], "min": [0, 0], "type": "VEC2"}, {"bufferView": 35, "componentType": 5123, "count": 120, "max": [63], "min": [0], "type": "SCALAR"}, {"bufferView": 36, "componentType": 5126, "count": 121, "max": [0.07999999821186066, 0.07999999821186066, 0.07608452439308167], "min": [-0.07999999821186066, -0.07999999821186066, -0.07608452439308167], "type": "VEC3"}, {"bufferView": 37, "componentType": 5126, "count": 121, "max": [1, 1, 0.9510565400123596], "min": [-1, -1, -0.9510565400123596], "type": "VEC3"}, {"bufferView": 38, "componentType": 5126, "count": 121, "max": [1.0499999523162842, 1], "min": [-0.05000000074505806, 0], "type": "VEC2"}, {"bufferView": 39, "componentType": 5123, "count": 540, "max": [120], "min": [0], "type": "SCALAR"}, {"bufferView": 40, "componentType": 5126, "count": 52, "max": [0.03999999910593033, 0.125, 0.03999999910593033], "min": [-0.03999999910593033, -0.125, -0.03999999910593033], "type": "VEC3"}, {"bufferView": 41, "componentType": 5126, "count": 52, "max": [0.9992009401321411, 1, 0.9992009401321411], "min": [-0.9992009401321411, -1, -0.9992009401321411], "type": "VEC3"}, {"bufferView": 42, "componentType": 5126, "count": 52, "max": [1, 1], "min": [0, 0], "type": "VEC2"}, {"bufferView": 43, "componentType": 5123, "count": 96, "max": [51], "min": [0], "type": "SCALAR"}], "materials": [{"pbrMetallicRoughness": {"baseColorFactor": [0.8156862745098039, 0.8, 0.7686274509803922, 1], "metallicFactor": 0, "roughnessFactor": 0.75}}, {"pbrMetallicRoughness": {"baseColorFactor": [0.7843137254901961, 0.7686274509803922, 0.7372549019607844, 1], "metallicFactor": 0, "roughnessFactor": 0.8}}], "meshes": [{"primitives": [{"mode": 4, "attributes": {"POSITION": 0, "NORMAL": 1, "TEXCOORD_0": 2}, "indices": 3, "material": 0}]}, {"primitives": [{"mode": 4, "attributes": {"POSITION": 4, "NORMAL": 5, "TEXCOORD_0": 6}, "indices": 7, "material": 0}]}, {"primitives": [{"mode": 4, "attributes": {"POSITION": 8, "NORMAL": 9, "TEXCOORD_0": 10}, "indices": 11, "material": 0}]}, {"primitives": [{"mode": 4, "attributes": {"POSITION": 12, "NORMAL": 13, "TEXCOORD_0": 14}, "indices": 15, "material": 0}]}, {"primitives": [{"mode": 4, "attributes": {"POSITION": 16, "NORMAL": 17, "TEXCOORD_0": 18}, "indices": 19, "material": 0}]}, {"primitives": [{"mode": 4, "attributes": {"POSITION": 20, "NORMAL": 21, "TEXCOORD_0": 22}, "indices": 23, "material": 0}]}, {"primitives": [{"mode": 4, "attributes": {"POSITION": 24, "NORMAL": 25, "TEXCOORD_0": 26}, "indices": 27, "material": 0}]}, {"primitives": [{"mode": 4, "attributes": {"POSITION": 28, "NORMAL": 29, "TEXCOORD_0": 30}, "indices": 31, "material": 0}]}, {"primitives": [{"mode": 4, "attributes": {"POSITION": 32, "NORMAL": 33, "TEXCOORD_0": 34}, "indices": 35, "material": 1}]}, {"primitives": [{"mode": 4, "attributes": {"POSITION": 36, "NORMAL": 37, "TEXCOORD_0": 38}, "indices": 39, "material": 1}]}, {"primitives": [{"mode": 4, "attributes": {"POSITION": 40, "NORMAL": 41, "TEXCOORD_0": 42}, "indices": 43, "material": 1}]}]}