{"asset": {"version": "2.0", "generator": "THREE.GLTFExporter", "extras": {"statueName": "Minotaur - At Rest", "statueDescription": "Guardian of the vestibule - peace despite fearsome form. Perhaps sleeping.", "statueId": "minotaur_rest"}}, "scenes": [{"nodes": [9]}], "scene": 0, "nodes": [{"matrix": [1, 0, 0, 0, 0, 1, 0, 0, 0, 0, 1, 0, 0, 0.04, 0, 1], "mesh": 0}, {"matrix": [2.220446049250313e-16, 1, 0, 0, -1, 2.220446049250313e-16, 0, 0, 0, 0, 1, 0, 0, 0.25, 0, 1], "mesh": 1}, {"matrix": [1, 0, 0, 0, 0, 0.5000000000000001, 0.8660254037844386, 0, 0, -0.8660254037844386, 0.5000000000000001, 0, -0.25, 0.15, 0.2, 1], "mesh": 2}, {"matrix": [1, 0, 0, 0, 0, 0.7071067811865475, -0.7071067811865476, 0, 0, 0.7071067811865476, 0.7071067811865475, 0, -0.25, 0.15, -0.15, 1], "mesh": 3}, {"matrix": [0.9, 0, 0, 0, 0, 1.1, 0, 0, 0, 0, 1, 0, 0.35, 0.35, 0, 1], "mesh": 4}, {"matrix": [2.220446049250313e-16, 1, 0, 0, -1, 2.220446049250313e-16, 0, 0, 0, 0, 1, 0, 0.45, 0.3, 0, 1], "mesh": 5}, {"matrix": [1, 0, 0, 0, 0, 0.955336489125606, -0.29552020666133955, 0, 0, 0.29552020666133955, 0.955336489125606, 0, 0.35, 0.5, 0.1, 1], "mesh": 6}, {"matrix": [1, 0, 0, 0, 0, 0.955336489125606, 0.29552020666133955, 0, 0, -0.29552020666133955, 0.955336489125606, 0, 0.35, 0.5, -0.1, 1], "mesh": 7}, {"matrix": [1, 0, 0, 0, 0, 0.5000000000000001, 0.8660254037844386, 0, 0, -0.8660254037844386, 0.5000000000000001, 0, 0.15, 0.35, 0.18, 1], "mesh": 8}, {"children": [0, 1, 2, 3, 4, 5, 6, 7, 8]}], "bufferViews": [{"buffer": 0, "byteOffset": 0, "byteLength": 288, "target": 34962, "byteStride": 12}, {"buffer": 0, "byteOffset": 288, "byteLength": 288, "target": 34962, "byteStride": 12}, {"buffer": 0, "byteOffset": 576, "byteLength": 192, "target": 34962, "byteStride": 8}, {"buffer": 0, "byteOffset": 768, "byteLength": 72, "target": 34963}, {"buffer": 0, "byteOffset": 840, "byteLength": 1056, "target": 34962, "byteStride": 12}, {"buffer": 0, "byteOffset": 1896, "byteLength": 1056, "target": 34962, "byteStride": 12}, {"buffer": 0, "byteOffset": 2952, "byteLength": 704, "target": 34962, "byteStride": 8}, {"buffer": 0, "byteOffset": 3656, "byteLength": 336, "target": 34963}, {"buffer": 0, "byteOffset": 3992, "byteLength": 912, "target": 34962, "byteStride": 12}, {"buffer": 0, "byteOffset": 4904, "byteLength": 912, "target": 34962, "byteStride": 12}, {"buffer": 0, "byteOffset": 5816, "byteLength": 608, "target": 34962, "byteStride": 8}, {"buffer": 0, "byteOffset": 6424, "byteLength": 288, "target": 34963}, {"buffer": 0, "byteOffset": 6712, "byteLength": 912, "target": 34962, "byteStride": 12}, {"buffer": 0, "byteOffset": 7624, "byteLength": 912, "target": 34962, "byteStride": 12}, {"buffer": 0, "byteOffset": 8536, "byteLength": 608, "target": 34962, "byteStride": 8}, {"buffer": 0, "byteOffset": 9144, "byteLength": 288, "target": 34963}, {"buffer": 0, "byteOffset": 9432, "byteLength": 2028, "target": 34962, "byteStride": 12}, {"buffer": 0, "byteOffset": 11460, "byteLength": 2028, "target": 34962, "byteStride": 12}, {"buffer": 0, "byteOffset": 13488, "byteLength": 1352, "target": 34962, "byteStride": 8}, {"buffer": 0, "byteOffset": 14840, "byteLength": 1584, "target": 34963}, {"buffer": 0, "byteOffset": 16424, "byteLength": 768, "target": 34962, "byteStride": 12}, {"buffer": 0, "byteOffset": 17192, "byteLength": 768, "target": 34962, "byteStride": 12}, {"buffer": 0, "byteOffset": 17960, "byteLength": 512, "target": 34962, "byteStride": 8}, {"buffer": 0, "byteOffset": 18472, "byteLength": 240, "target": 34963}, {"buffer": 0, "byteOffset": 18712, "byteLength": 420, "target": 34962, "byteStride": 12}, {"buffer": 0, "byteOffset": 19132, "byteLength": 420, "target": 34962, "byteStride": 12}, {"buffer": 0, "byteOffset": 19552, "byteLength": 280, "target": 34962, "byteStride": 8}, {"buffer": 0, "byteOffset": 19832, "byteLength": 144, "target": 34963}, {"buffer": 0, "byteOffset": 19976, "byteLength": 420, "target": 34962, "byteStride": 12}, {"buffer": 0, "byteOffset": 20396, "byteLength": 420, "target": 34962, "byteStride": 12}, {"buffer": 0, "byteOffset": 20816, "byteLength": 280, "target": 34962, "byteStride": 8}, {"buffer": 0, "byteOffset": 21096, "byteLength": 144, "target": 34963}, {"buffer": 0, "byteOffset": 21240, "byteLength": 768, "target": 34962, "byteStride": 12}, {"buffer": 0, "byteOffset": 22008, "byteLength": 768, "target": 34962, "byteStride": 12}, {"buffer": 0, "byteOffset": 22776, "byteLength": 512, "target": 34962, "byteStride": 8}, {"buffer": 0, "byteOffset": 23288, "byteLength": 240, "target": 34963}], "buffers": [{"byteLength": 23528, "uri": "data:application/octet-stream;base64,"}], "accessors": [{"bufferView": 0, "componentType": 5126, "count": 24, "max": [0.4000000059604645, 0.03999999910593033, 0.25], "min": [-0.4000000059604645, -0.03999999910593033, -0.25], "type": "VEC3"}, {"bufferView": 1, "componentType": 5126, "count": 24, "max": [1, 1, 1], "min": [-1, -1, -1], "type": "VEC3"}, {"bufferView": 2, "componentType": 5126, "count": 24, "max": [1, 1], "min": [0, 0], "type": "VEC2"}, {"bufferView": 3, "componentType": 5123, "count": 36, "max": [23], "min": [0], "type": "SCALAR"}, {"bufferView": 4, "componentType": 5126, "count": 88, "max": [0.21448414027690887, 0.3499999940395355, 0.2199999988079071], "min": [-0.21448414027690887, -0.3499999940395355, -0.2199999988079071], "type": "VEC3"}, {"bufferView": 5, "componentType": 5126, "count": 88, "max": [0.9745302200317383, 1, 0.9995920658111572], "min": [-0.9745302200317383, -1, -0.9995920658111572], "type": "VEC3"}, {"bufferView": 6, "componentType": 5126, "count": 88, "max": [1, 1], "min": [0, 0], "type": "VEC2"}, {"bufferView": 7, "componentType": 5123, "count": 168, "max": [87], "min": [0], "type": "SCALAR"}, {"bufferView": 8, "componentType": 5126, "count": 76, "max": [0.10000000149011612, 0.22499999403953552, 0.10000000149011612], "min": [-0.10000000149011612, -0.22499999403953552, -0.10000000149011612], "type": "VEC3"}, {"bufferView": 9, "componentType": 5126, "count": 76, "max": [0.9990137815475464, 1, 0.9990137815475464], "min": [-0.9990137815475464, -1, -0.9990137815475464], "type": "VEC3"}, {"bufferView": 10, "componentType": 5126, "count": 76, "max": [1, 1], "min": [0, 0], "type": "VEC2"}, {"bufferView": 11, "componentType": 5123, "count": 144, "max": [75], "min": [0], "type": "SCALAR"}, {"bufferView": 12, "componentType": 5126, "count": 76, "max": [0.10000000149011612, 0.22499999403953552, 0.10000000149011612], "min": [-0.10000000149011612, -0.22499999403953552, -0.10000000149011612], "type": "VEC3"}, {"bufferView": 13, "componentType": 5126, "count": 76, "max": [0.9990137815475464, 1, 0.9990137815475464], "min": [-0.9990137815475464, -1, -0.9990137815475464], "type": "VEC3"}, {"bufferView": 14, "componentType": 5126, "count": 76, "max": [1, 1], "min": [0, 0], "type": "VEC2"}, {"bufferView": 15, "componentType": 5123, "count": 144, "max": [75], "min": [0], "type": "SCALAR"}, {"bufferView": 16, "componentType": 5126, "count": 169, "max": [0.14000000059604645, 0.14000000059604645, 0.14000000059604645], "min": [-0.14000000059604645, -0.14000000059604645, -0.14000000059604645], "type": "VEC3"}, {"bufferView": 17, "componentType": 5126, "count": 169, "max": [1, 1, 1], "min": [-1, -1, -1], "type": "VEC3"}, {"bufferView": 18, "componentType": 5126, "count": 169, "max": [1.0416666269302368, 1], "min": [-0.0416666679084301, 0], "type": "VEC2"}, {"bufferView": 19, "componentType": 5123, "count": 792, "max": [168], "min": [0], "type": "SCALAR"}, {"bufferView": 20, "componentType": 5126, "count": 64, "max": [0.07132923603057861, 0.05000000074505806, 0.07500000298023224], "min": [-0.07132923603057861, -0.05000000074505806, -0.07500000298023224], "type": "VEC3"}, {"bufferView": 21, "componentType": 5126, "count": 64, "max": [0.9325876235961914, 1, 0.9805806875228882], "min": [-0.9325876235961914, -1, -0.9805806875228882], "type": "VEC3"}, {"bufferView": 22, "componentType": 5126, "count": 64, "max": [1, 1], "min": [0, 0], "type": "VEC2"}, {"bufferView": 23, "componentType": 5123, "count": 120, "max": [63], "min": [0], "type": "SCALAR"}, {"bufferView": 24, "componentType": 5126, "count": 35, "max": [0.02500000037252903, 0.07000000029802322, 0.02500000037252903], "min": [-0.02500000037252903, -0.07000000029802322, -0.02500000037252903], "type": "VEC3"}, {"bufferView": 25, "componentType": 5126, "count": 35, "max": [0.9844275712966919, 0.17579063773155212, 0.9844275712966919], "min": [-0.9844275712966919, -1, -0.9844275712966919], "type": "VEC3"}, {"bufferView": 26, "componentType": 5126, "count": 35, "max": [1, 1], "min": [0, 0], "type": "VEC2"}, {"bufferView": 27, "componentType": 5123, "count": 72, "max": [34], "min": [0], "type": "SCALAR"}, {"bufferView": 28, "componentType": 5126, "count": 35, "max": [0.02500000037252903, 0.07000000029802322, 0.02500000037252903], "min": [-0.02500000037252903, -0.07000000029802322, -0.02500000037252903], "type": "VEC3"}, {"bufferView": 29, "componentType": 5126, "count": 35, "max": [0.9844275712966919, 0.17579063773155212, 0.9844275712966919], "min": [-0.9844275712966919, -1, -0.9844275712966919], "type": "VEC3"}, {"bufferView": 30, "componentType": 5126, "count": 35, "max": [1, 1], "min": [0, 0], "type": "VEC2"}, {"bufferView": 31, "componentType": 5123, "count": 72, "max": [34], "min": [0], "type": "SCALAR"}, {"bufferView": 32, "componentType": 5126, "count": 64, "max": [0.05706338956952095, 0.15000000596046448, 0.05999999865889549], "min": [-0.05706338956952095, -0.15000000596046448, -0.05999999865889549], "type": "VEC3"}, {"bufferView": 33, "componentType": 5126, "count": 64, "max": [0.9505285620689392, 1, 0.9994449019432068], "min": [-0.9505285620689392, -1, -0.9994449019432068], "type": "VEC3"}, {"bufferView": 34, "componentType": 5126, "count": 64, "max": [1, 1], "min": [0, 0], "type": "VEC2"}, {"bufferView": 35, "componentType": 5123, "count": 120, "max": [63], "min": [0], "type": "SCALAR"}], "materials": [{"pbrMetallicRoughness": {"baseColorFactor": [0.7843137254901961, 0.7686274509803922, 0.7372549019607844, 1], "metallicFactor": 0, "roughnessFactor": 0.8}}, {"pbrMetallicRoughness": {"baseColorFactor": [0.8156862745098039, 0.8, 0.7686274509803922, 1], "metallicFactor": 0, "roughnessFactor": 0.75}}, {"pbrMetallicRoughness": {"baseColorFactor": [0.8470588235294118, 0.8313725490196079, 0.8, 1], "metallicFactor": 0, "roughnessFactor": 0.7}}], "meshes": [{"primitives": [{"mode": 4, "attributes": {"POSITION": 0, "NORMAL": 1, "TEXCOORD_0": 2}, "indices": 3, "material": 0}]}, {"primitives": [{"mode": 4, "attributes": {"POSITION": 4, "NORMAL": 5, "TEXCOORD_0": 6}, "indices": 7, "material": 1}]}, {"primitives": [{"mode": 4, "attributes": {"POSITION": 8, "NORMAL": 9, "TEXCOORD_0": 10}, "indices": 11, "material": 1}]}, {"primitives": [{"mode": 4, "attributes": {"POSITION": 12, "NORMAL": 13, "TEXCOORD_0": 14}, "indices": 15, "material": 1}]}, {"primitives": [{"mode": 4, "attributes": {"POSITION": 16, "NORMAL": 17, "TEXCOORD_0": 18}, "indices": 19, "material": 1}]}, {"primitives": [{"mode": 4, "attributes": {"POSITION": 20, "NORMAL": 21, "TEXCOORD_0": 22}, "indices": 23, "material": 1}]}, {"primitives": [{"mode": 4, "attributes": {"POSITION": 24, "NORMAL": 25, "TEXCOORD_0": 26}, "indices": 27, "material": 2}]}, {"primitives": [{"mode": 4, "attributes": {"POSITION": 28, "NORMAL": 29, "TEXCOORD_0": 30}, "indices": 31, "material": 2}]}, {"primitives": [{"mode": 4, "attributes": {"POSITION": 32, "NORMAL": 33, "TEXCOORD_0": 34}, "indices": 35, "material": 1}]}]}