{"asset": {"version": "2.0", "generator": "THREE.GLTFExporter", "extras": {"statueName": "Minotaur - Walking", "statueDescription": "Guardian of the vestibule - purposeful movement. One hoof-like foot forward.", "statueId": "minotaur_walking"}}, "scenes": [{"nodes": [9]}], "scene": 0, "nodes": [{"matrix": [1, 0, 0, 0, 0, 0.955336489125606, -0.29552020666133955, 0, 0, 0.29552020666133955, 0.955336489125606, 0, -0.1, 0.28, 0.15, 1], "mesh": 0}, {"matrix": [1, 0, 0, 0, 0, 0.9689124217106447, 0.24740395925452294, 0, 0, -0.24740395925452294, 0.9689124217106447, 0, 0.1, 0.28, -0.1, 1], "mesh": 1}, {"matrix": [1, 0, 0, 0, 0, 0.9950041652780258, 0.09983341664682815, 0, 0, -0.09983341664682815, 0.9950041652780258, 0, 0, 0.82, 0, 1], "mesh": 2}, {"matrix": [0.9, 0, 0, 0, 0, 1.1, 0, 0, 0, 0, 1, 0, 0, 1.2, 0.05, 1], "mesh": 3}, {"matrix": [1, 0, 0, 0, 0, 2.220446049250313e-16, 1, 0, 0, -1, 2.220446049250313e-16, 0, 0, 1.14, 0.16, 1], "mesh": 4}, {"matrix": [0.955336489125606, 0.29552020666133955, 0, 0, -0.29552020666133955, 0.955336489125606, 0, 0, 0, 0, 1, 0, -0.1, 1.35, 0.02, 1], "mesh": 5}, {"matrix": [0.955336489125606, -0.29552020666133955, 0, 0, 0.29552020666133955, 0.955336489125606, 0, 0, 0, 0, 1, 0, 0.1, 1.35, 0.02, 1], "mesh": 6}, {"matrix": [0.9800665778412416, 0.18979606097868745, -0.05871080169382653, 0, -0.19866933079506122, 0.9362933635841992, -0.2896294776255156, 0, 0, 0.2955202066613396, 0.955336489125606, 0, -0.25, 0.75, -0.05, 1], "mesh": 7}, {"matrix": [0.9800665778412416, -0.18979606097868745, -0.05871080169382653, 0, 0.19866933079506122, 0.9362933635841992, 0.2896294776255156, 0, 0, -0.2955202066613396, 0.955336489125606, 0, 0.25, 0.75, 0.1, 1], "mesh": 8}, {"children": [0, 1, 2, 3, 4, 5, 6, 7, 8]}], "bufferViews": [{"buffer": 0, "byteOffset": 0, "byteLength": 912, "target": 34962, "byteStride": 12}, {"buffer": 0, "byteOffset": 912, "byteLength": 912, "target": 34962, "byteStride": 12}, {"buffer": 0, "byteOffset": 1824, "byteLength": 608, "target": 34962, "byteStride": 8}, {"buffer": 0, "byteOffset": 2432, "byteLength": 288, "target": 34963}, {"buffer": 0, "byteOffset": 2720, "byteLength": 912, "target": 34962, "byteStride": 12}, {"buffer": 0, "byteOffset": 3632, "byteLength": 912, "target": 34962, "byteStride": 12}, {"buffer": 0, "byteOffset": 4544, "byteLength": 608, "target": 34962, "byteStride": 8}, {"buffer": 0, "byteOffset": 5152, "byteLength": 288, "target": 34963}, {"buffer": 0, "byteOffset": 5440, "byteLength": 1056, "target": 34962, "byteStride": 12}, {"buffer": 0, "byteOffset": 6496, "byteLength": 1056, "target": 34962, "byteStride": 12}, {"buffer": 0, "byteOffset": 7552, "byteLength": 704, "target": 34962, "byteStride": 8}, {"buffer": 0, "byteOffset": 8256, "byteLength": 336, "target": 34963}, {"buffer": 0, "byteOffset": 8592, "byteLength": 2028, "target": 34962, "byteStride": 12}, {"buffer": 0, "byteOffset": 10620, "byteLength": 2028, "target": 34962, "byteStride": 12}, {"buffer": 0, "byteOffset": 12648, "byteLength": 1352, "target": 34962, "byteStride": 8}, {"buffer": 0, "byteOffset": 14000, "byteLength": 1584, "target": 34963}, {"buffer": 0, "byteOffset": 15584, "byteLength": 768, "target": 34962, "byteStride": 12}, {"buffer": 0, "byteOffset": 16352, "byteLength": 768, "target": 34962, "byteStride": 12}, {"buffer": 0, "byteOffset": 17120, "byteLength": 512, "target": 34962, "byteStride": 8}, {"buffer": 0, "byteOffset": 17632, "byteLength": 240, "target": 34963}, {"buffer": 0, "byteOffset": 17872, "byteLength": 420, "target": 34962, "byteStride": 12}, {"buffer": 0, "byteOffset": 18292, "byteLength": 420, "target": 34962, "byteStride": 12}, {"buffer": 0, "byteOffset": 18712, "byteLength": 280, "target": 34962, "byteStride": 8}, {"buffer": 0, "byteOffset": 18992, "byteLength": 144, "target": 34963}, {"buffer": 0, "byteOffset": 19136, "byteLength": 420, "target": 34962, "byteStride": 12}, {"buffer": 0, "byteOffset": 19556, "byteLength": 420, "target": 34962, "byteStride": 12}, {"buffer": 0, "byteOffset": 19976, "byteLength": 280, "target": 34962, "byteStride": 8}, {"buffer": 0, "byteOffset": 20256, "byteLength": 144, "target": 34963}, {"buffer": 0, "byteOffset": 20400, "byteLength": 768, "target": 34962, "byteStride": 12}, {"buffer": 0, "byteOffset": 21168, "byteLength": 768, "target": 34962, "byteStride": 12}, {"buffer": 0, "byteOffset": 21936, "byteLength": 512, "target": 34962, "byteStride": 8}, {"buffer": 0, "byteOffset": 22448, "byteLength": 240, "target": 34963}, {"buffer": 0, "byteOffset": 22688, "byteLength": 768, "target": 34962, "byteStride": 12}, {"buffer": 0, "byteOffset": 23456, "byteLength": 768, "target": 34962, "byteStride": 12}, {"buffer": 0, "byteOffset": 24224, "byteLength": 512, "target": 34962, "byteStride": 8}, {"buffer": 0, "byteOffset": 24736, "byteLength": 240, "target": 34963}], "buffers": [{"byteLength": 24976, "uri": "data:application/octet-stream;base64,"}], "accessors": [{"bufferView": 0, "componentType": 5126, "count": 76, "max": [0.10000000149011612, 0.2750000059604645, 0.10000000149011612], "min": [-0.10000000149011612, -0.2750000059604645, -0.10000000149011612], "type": "VEC3"}, {"bufferView": 1, "componentType": 5126, "count": 76, "max": [0.9993395209312439, 1, 0.9993395209312439], "min": [-0.9993395209312439, -1, -0.9993395209312439], "type": "VEC3"}, {"bufferView": 2, "componentType": 5126, "count": 76, "max": [1, 1], "min": [0, 0], "type": "VEC2"}, {"bufferView": 3, "componentType": 5123, "count": 144, "max": [75], "min": [0], "type": "SCALAR"}, {"bufferView": 4, "componentType": 5126, "count": 76, "max": [0.10000000149011612, 0.2750000059604645, 0.10000000149011612], "min": [-0.10000000149011612, -0.2750000059604645, -0.10000000149011612], "type": "VEC3"}, {"bufferView": 5, "componentType": 5126, "count": 76, "max": [0.9993395209312439, 1, 0.9993395209312439], "min": [-0.9993395209312439, -1, -0.9993395209312439], "type": "VEC3"}, {"bufferView": 6, "componentType": 5126, "count": 76, "max": [1, 1], "min": [0, 0], "type": "VEC2"}, {"bufferView": 7, "componentType": 5123, "count": 144, "max": [75], "min": [0], "type": "SCALAR"}, {"bufferView": 8, "componentType": 5126, "count": 88, "max": [0.20473486185073853, 0.23999999463558197, 0.20999999344348907], "min": [-0.20473486185073853, -0.23999999463558197, -0.20999999344348907], "type": "VEC3"}, {"bufferView": 9, "componentType": 5126, "count": 88, "max": [0.9715602993965149, 1, 0.9965457320213318], "min": [-0.9715602993965149, -1, -0.9965457320213318], "type": "VEC3"}, {"bufferView": 10, "componentType": 5126, "count": 88, "max": [1, 1], "min": [0, 0], "type": "VEC2"}, {"bufferView": 11, "componentType": 5123, "count": 168, "max": [87], "min": [0], "type": "SCALAR"}, {"bufferView": 12, "componentType": 5126, "count": 169, "max": [0.12999999523162842, 0.12999999523162842, 0.12999999523162842], "min": [-0.12999999523162842, -0.12999999523162842, -0.12999999523162842], "type": "VEC3"}, {"bufferView": 13, "componentType": 5126, "count": 169, "max": [1, 1, 1], "min": [-1, -1, -1], "type": "VEC3"}, {"bufferView": 14, "componentType": 5126, "count": 169, "max": [1.0416666269302368, 1], "min": [-0.0416666679084301, 0], "type": "VEC2"}, {"bufferView": 15, "componentType": 5123, "count": 792, "max": [168], "min": [0], "type": "SCALAR"}, {"bufferView": 16, "componentType": 5126, "count": 64, "max": [0.07132923603057861, 0.05999999865889549, 0.07500000298023224], "min": [-0.07132923603057861, -0.05999999865889549, -0.07500000298023224], "type": "VEC3"}, {"bufferView": 17, "componentType": 5126, "count": 64, "max": [0.9381163716316223, 1, 0.986393928527832], "min": [-0.9381163716316223, -1, -0.986393928527832], "type": "VEC3"}, {"bufferView": 18, "componentType": 5126, "count": 64, "max": [1, 1], "min": [0, 0], "type": "VEC2"}, {"bufferView": 19, "componentType": 5123, "count": 120, "max": [63], "min": [0], "type": "SCALAR"}, {"bufferView": 20, "componentType": 5126, "count": 35, "max": [0.029999999329447746, 0.09000000357627869, 0.029999999329447746], "min": [-0.029999999329447746, -0.09000000357627869, -0.029999999329447746], "type": "VEC3"}, {"bufferView": 21, "componentType": 5126, "count": 35, "max": [0.986393928527832, 0.16439898312091827, 0.986393928527832], "min": [-0.986393928527832, -1, -0.986393928527832], "type": "VEC3"}, {"bufferView": 22, "componentType": 5126, "count": 35, "max": [1, 1], "min": [0, 0], "type": "VEC2"}, {"bufferView": 23, "componentType": 5123, "count": 72, "max": [34], "min": [0], "type": "SCALAR"}, {"bufferView": 24, "componentType": 5126, "count": 35, "max": [0.029999999329447746, 0.09000000357627869, 0.029999999329447746], "min": [-0.029999999329447746, -0.09000000357627869, -0.029999999329447746], "type": "VEC3"}, {"bufferView": 25, "componentType": 5126, "count": 35, "max": [0.986393928527832, 0.16439898312091827, 0.986393928527832], "min": [-0.986393928527832, -1, -0.986393928527832], "type": "VEC3"}, {"bufferView": 26, "componentType": 5126, "count": 35, "max": [1, 1], "min": [0, 0], "type": "VEC2"}, {"bufferView": 27, "componentType": 5123, "count": 72, "max": [34], "min": [0], "type": "SCALAR"}, {"bufferView": 28, "componentType": 5126, "count": 64, "max": [0.05706338956952095, 0.1899999976158142, 0.05999999865889549], "min": [-0.05706338956952095, -0.1899999976158142, -0.05999999865889549], "type": "VEC3"}, {"bufferView": 29, "componentType": 5126, "count": 64, "max": [0.9507274031639099, 1, 0.9996539354324341], "min": [-0.9507274031639099, -1, -0.9996539354324341], "type": "VEC3"}, {"bufferView": 30, "componentType": 5126, "count": 64, "max": [1, 1], "min": [0, 0], "type": "VEC2"}, {"bufferView": 31, "componentType": 5123, "count": 120, "max": [63], "min": [0], "type": "SCALAR"}, {"bufferView": 32, "componentType": 5126, "count": 64, "max": [0.05706338956952095, 0.1899999976158142, 0.05999999865889549], "min": [-0.05706338956952095, -0.1899999976158142, -0.05999999865889549], "type": "VEC3"}, {"bufferView": 33, "componentType": 5126, "count": 64, "max": [0.9507274031639099, 1, 0.9996539354324341], "min": [-0.9507274031639099, -1, -0.9996539354324341], "type": "VEC3"}, {"bufferView": 34, "componentType": 5126, "count": 64, "max": [1, 1], "min": [0, 0], "type": "VEC2"}, {"bufferView": 35, "componentType": 5123, "count": 120, "max": [63], "min": [0], "type": "SCALAR"}], "materials": [{"pbrMetallicRoughness": {"baseColorFactor": [0.8156862745098039, 0.8, 0.7686274509803922, 1], "metallicFactor": 0, "roughnessFactor": 0.75}}, {"pbrMetallicRoughness": {"baseColorFactor": [0.8470588235294118, 0.8313725490196079, 0.8, 1], "metallicFactor": 0, "roughnessFactor": 0.7}}], "meshes": [{"primitives": [{"mode": 4, "attributes": {"POSITION": 0, "NORMAL": 1, "TEXCOORD_0": 2}, "indices": 3, "material": 0}]}, {"primitives": [{"mode": 4, "attributes": {"POSITION": 4, "NORMAL": 5, "TEXCOORD_0": 6}, "indices": 7, "material": 0}]}, {"primitives": [{"mode": 4, "attributes": {"POSITION": 8, "NORMAL": 9, "TEXCOORD_0": 10}, "indices": 11, "material": 0}]}, {"primitives": [{"mode": 4, "attributes": {"POSITION": 12, "NORMAL": 13, "TEXCOORD_0": 14}, "indices": 15, "material": 0}]}, {"primitives": [{"mode": 4, "attributes": {"POSITION": 16, "NORMAL": 17, "TEXCOORD_0": 18}, "indices": 19, "material": 0}]}, {"primitives": [{"mode": 4, "attributes": {"POSITION": 20, "NORMAL": 21, "TEXCOORD_0": 22}, "indices": 23, "material": 1}]}, {"primitives": [{"mode": 4, "attributes": {"POSITION": 24, "NORMAL": 25, "TEXCOORD_0": 26}, "indices": 27, "material": 1}]}, {"primitives": [{"mode": 4, "attributes": {"POSITION": 28, "NORMAL": 29, "TEXCOORD_0": 30}, "indices": 31, "material": 0}]}, {"primitives": [{"mode": 4, "attributes": {"POSITION": 32, "NORMAL": 33, "TEXCOORD_0": 34}, "indices": 35, "material": 0}]}]}