{"asset":{"version":"2.0","generator":"THREE.GLTFExporter"},"scenes":[{"nodes":[20]}],"scene":0,"nodes":[{"matrix":[1,0,0,0,0,1,0,0,0,0,1,0,0,0.01,0,1],"mesh":0},{"matrix":[0.9800665778412416,0,-0.19866933079506124,0,0,1,0,0,0.19866933079506124,0,0.9800665778412416,0,0,0.06,0,1],"mesh":1},{"matrix":[2.220446049250313e-16,1,0,0,-1,2.220446049250313e-16,0,0,0,0,1,0,-0.18,0.06,0,1],"mesh":2},{"matrix":[1,0,0,0,0,1,0,0,0,0,1,0,0.05,0.08,0.05,1],"mesh":3},{"matrix":[1,0,0,0,0,1,0,0,0,0,1,0,-0.02,0.08,-0.04,1],"mesh":4},{"matrix":[1,0,0,0,0,1,0,0,0,0,1,0,0.12,0.08,0.02,1],"mesh":5},{"matrix":[1.4,0,0,0,0,0.9,0,0,0,0,1,0,0.08,0.1,0.2,1],"mesh":6},{"matrix":[1,0,0,0,0,0.9,0,0,0,0,1.2,0,0.06,0.12,0.1,1],"mesh":7},{"matrix":[1,0,0,0,0,2.220446049250313e-16,1,0,0,-1,2.220446049250313e-16,0,0.05,0.11,0.05,1],"mesh":8},{"matrix":[0.682818960388909,0.6444122398815794,-0.344225409323913,0,-0.7030567291014661,0.7077058928546354,-0.06973955035681753,0,0.19866933079506122,0.2896294776255156,0.9362933635841992,0,0.15,0.1,0.28,1],"mesh":9},{"matrix":[1,0,0,0,0,1,0,0,0,0,1,0,0.03,0.15,0.12,1],"mesh":10},{"matrix":[1,0,0,0,0,1,0,0,0,0,1,0,0.09,0.15,0.12,1],"mesh":10},{"matrix":[1.3,0,0,0,0,0.85,0,0,0,0,1,0,-0.05,0.1,-0.18,1],"mesh":11},{"matrix":[1,0,0,0,0,0.9,0,0,0,0,1.2,0,-0.03,0.11,-0.08,1],"mesh":12},{"matrix":[1,0,0,0,0,2.220446049250313e-16,1,0,0,-1,2.220446049250313e-16,0,-0.02,0.1,-0.04,1],"mesh":13},{"matrix":[0.8383866435942036,-0.5425732322858178,0.05217397291529499,0,0.45801271084729195,0.7531343016414649,0.4722426075581678,0,-0.2955202066613395,-0.3720255519422595,0.8799231762812572,0,-0.1,0.08,-0.26,1],"mesh":14},{"matrix":[1.3,0,0,0,0,0.8,0,0,0,0,0.9,0,0.28,0.08,0.05,1],"mesh":15},{"matrix":[1,0,0,0,0,0.9,0,0,0,0,1.1,0,0.2,0.09,0.04,1],"mesh":16},{"matrix":[0.8253356149096783,0.5646424733950353,0,0,-0.5646424733950353,0.8253356149096783,0,0,0,0,1,0,0.38,0.07,0.06,1],"mesh":17},{"matrix":[1,0,0,0,0,0.955336489125606,0.29552020666133955,0,0,-0.29552020666133955,0.955336489125606,0,0.05,0.1,0.08,1],"mesh":18},{"children":[0,1,2,3,4,5,6,7,8,9,10,11,12,13,14,15,16,17,18,19]}],"bufferViews":[{"buffer":0,"byteOffset":0,"byteLength":1200,"target":34962,"byteStride":12},{"buffer":0,"byteOffset":1200,"byteLength":1200,"target":34962,"byteStride":12},{"buffer":0,"byteOffset":2400,"byteLength":800,"target":34962,"byteStride":8},{"buffer":0,"byteOffset":3200,"byteLength":384,"target":34963},{"buffer":0,"byteOffset":3584,"byteLength":288,"target":34962,"byteStride":12},{"buffer":0,"byteOffset":3872,"byteLength":288,"target":34962,"byteStride":12},{"buffer":0,"byteOffset":4160,"byteLength":192,"target":34962,"byteStride":8},{"buffer":0,"byteOffset":4352,"byteLength":72,"target":34963},{"buffer":0,"byteOffset":4424,"byteLength":624,"target":34962,"byteStride":12},{"buffer":0,"byteOffset":5048,"byteLength":624,"target":34962,"byteStride":12},{"buffer":0,"byteOffset":5672,"byteLength":416,"target":34962,"byteStride":8},{"buffer":0,"byteOffset":6088,"byteLength":192,"target":34963},{"buffer":0,"byteOffset":6280,"byteLength":624,"target":34962,"byteStride":12},{"buffer":0,"byteOffset":6904,"byteLength":624,"target":34962,"byteStride":12},{"buffer":0,"byteOffset":7528,"byteLength":416,"target":34962,"byteStride":8},{"buffer":0,"byteOffset":7944,"byteLength":192,"target":34963},{"buffer":0,"byteOffset":8136,"byteLength":624,"target":34962,"byteStride":12},{"buffer":0,"byteOffset":8760,"byteLength":624,"target":34962,"byteStride":12},{"buffer":0,"byteOffset":9384,"byteLength":416,"target":34962,"byteStride":8},{"buffer":0,"byteOffset":9800,"byteLength":192,"target":34963},{"buffer":0,"byteOffset":9992,"byteLength":624,"target":34962,"byteStride":12},{"buffer":0,"byteOffset":10616,"byteLength":624,"target":34962,"byteStride":12},{"buffer":0,"byteOffset":11240,"byteLength":416,"target":34962,"byteStride":8},{"buffer":0,"byteOffset":11656,"byteLength":192,"target":34963},{"buffer":0,"byteOffset":11848,"byteLength":1452,"target":34962,"byteStride":12},{"buffer":0,"byteOffset":13300,"byteLength":1452,"target":34962,"byteStride":12},{"buffer":0,"byteOffset":14752,"byteLength":968,"target":34962,"byteStride":8},{"buffer":0,"byteOffset":15720,"byteLength":1080,"target":34963},{"buffer":0,"byteOffset":16800,"byteLength":1452,"target":34962,"byteStride":12},{"buffer":0,"byteOffset":18252,"byteLength":1452,"target":34962,"byteStride":12},{"buffer":0,"byteOffset":19704,"byteLength":968,"target":34962,"byteStride":8},{"buffer":0,"byteOffset":20672,"byteLength":1080,"target":34963},{"buffer":0,"byteOffset":21752,"byteLength":420,"target":34962,"byteStride":12},{"buffer":0,"byteOffset":22172,"byteLength":420,"target":34962,"byteStride":12},{"buffer":0,"byteOffset":22592,"byteLength":280,"target":34962,"byteStride":8},{"buffer":0,"byteOffset":22872,"byteLength":144,"target":34963},{"buffer":0,"byteOffset":23016,"byteLength":480,"target":34962,"byteStride":12},{"buffer":0,"byteOffset":23496,"byteLength":480,"target":34962,"byteStride":12},{"buffer":0,"byteOffset":23976,"byteLength":320,"target":34962,"byteStride":8},{"buffer":0,"byteOffset":24296,"byteLength":144,"target":34963},{"buffer":0,"byteOffset":24440,"byteLength":588,"target":34962,"byteStride":12},{"buffer":0,"byteOffset":25028,"byteLength":588,"target":34962,"byteStride":12},{"buffer":0,"byteOffset":25616,"byteLength":392,"target":34962,"byteStride":8},{"buffer":0,"byteOffset":26008,"byteLength":360,"target":34963},{"buffer":0,"byteOffset":26368,"byteLength":1452,"target":34962,"byteStride":12},{"buffer":0,"byteOffset":27820,"byteLength":1452,"target":34962,"byteStride":12},{"buffer":0,"byteOffset":29272,"byteLength":968,"target":34962,"byteStride":8},{"buffer":0,"byteOffset":30240,"byteLength":1080,"target":34963},{"buffer":0,"byteOffset":31320,"byteLength":1452,"target":34962,"byteStride":12},{"buffer":0,"byteOffset":32772,"byteLength":1452,"target":34962,"byteStride":12},{"buffer":0,"byteOffset":34224,"byteLength":968,"target":34962,"byteStride":8},{"buffer":0,"byteOffset":35192,"byteLength":1080,"target":34963},{"buffer":0,"byteOffset":36272,"byteLength":420,"target":34962,"byteStride":12},{"buffer":0,"byteOffset":36692,"byteLength":420,"target":34962,"byteStride":12},{"buffer":0,"byteOffset":37112,"byteLength":280,"target":34962,"byteStride":8},{"buffer":0,"byteOffset":37392,"byteLength":144,"target":34963},{"buffer":0,"byteOffset":37536,"byteLength":480,"target":34962,"byteStride":12},{"buffer":0,"byteOffset":38016,"byteLength":480,"target":34962,"byteStride":12},{"buffer":0,"byteOffset":38496,"byteLength":320,"target":34962,"byteStride":8},{"buffer":0,"byteOffset":38816,"byteLength":144,"target":34963},{"buffer":0,"byteOffset":38960,"byteLength":1452,"target":34962,"byteStride":12},{"buffer":0,"byteOffset":40412,"byteLength":1452,"target":34962,"byteStride":12},{"buffer":0,"byteOffset":41864,"byteLength":968,"target":34962,"byteStride":8},{"buffer":0,"byteOffset":42832,"byteLength":1080,"target":34963},{"buffer":0,"byteOffset":43912,"byteLength":1452,"target":34962,"byteStride":12},{"buffer":0,"byteOffset":45364,"byteLength":1452,"target":34962,"byteStride":12},{"buffer":0,"byteOffset":46816,"byteLength":968,"target":34962,"byteStride":8},{"buffer":0,"byteOffset":47784,"byteLength":1080,"target":34963},{"buffer":0,"byteOffset":48864,"byteLength":480,"target":34962,"byteStride":12},{"buffer":0,"byteOffset":49344,"byteLength":480,"target":34962,"byteStride":12},{"buffer":0,"byteOffset":49824,"byteLength":320,"target":34962,"byteStride":8},{"buffer":0,"byteOffset":50144,"byteLength":144,"target":34963},{"buffer":0,"byteOffset":50288,"byteLength":480,"target":34962,"byteStride":12},{"buffer":0,"byteOffset":50768,"byteLength":480,"target":34962,"byteStride":12},{"buffer":0,"byteOffset":51248,"byteLength":320,"target":34962,"byteStride":8},{"buffer":0,"byteOffset":51568,"byteLength":144,"target":34963}],"buffers":[{"byteLength":51712,"uri":"data:application/octet-stream;base64,"}],"accessors":[{"bufferView":0,"componentType":5126,"count":100,"max":[0.5,0.009999999776482582,0.5],"min":[-0.5,-0.009999999776482582,-0.5],"type":"VEC3"},{"bufferView":1,"componentType":5126,"count":100,"max":[1,1,1],"min":[-1,-1,-1],"type":"VEC3"},{"bufferView":2,"componentType":5126,"count":100,"max":[1,1],"min":[0,0],"type":"VEC2"},{"bufferView":3,"componentType":5123,"count":192,"max":[99],"min":[0],"type":"SCALAR"},{"bufferView":4,"componentType":5126,"count":24,"max":[0.17499999701976776,0.014999999664723873,0.125],"min":[-0.17499999701976776,-0.014999999664723873,-0.125],"type":"VEC3"},{"bufferView":5,"componentType":5126,"count":24,"max":[1,1,1],"min":[-1,-1,-1],"type":"VEC3"},{"bufferView":6,"componentType":5126,"count":24,"max":[1,1],"min":[0,0],"type":"VEC2"},{"bufferView":7,"componentType":5123,"count":36,"max":[23],"min":[0],"type":"SCALAR"},{"bufferView":8,"componentType":5126,"count":52,"max":[0.029999999329447746,0.05999999865889549,0.029999999329447746],"min":[-0.029999999329447746,-0.05999999865889549,-0.029999999329447746],"type":"VEC3"},{"bufferView":9,"componentType":5126,"count":52,"max":[1,1,1],"min":[-1,-1,-1],"type":"VEC3"},{"bufferView":10,"componentType":5126,"count":52,"max":[1,1],"min":[0,0],"type":"VEC2"},{"bufferView":11,"componentType":5123,"count":96,"max":[51],"min":[0],"type":"SCALAR"},{"bufferView":12,"componentType":5126,"count":52,"max":[0.02500000037252903,0.007499999832361937,0.02500000037252903],"min":[-0.02500000037252903,-0.007499999832361937,-0.02500000037252903],"type":"VEC3"},{"bufferView":13,"componentType":5126,"count":52,"max":[1,1,1],"min":[-1,-1,-1],"type":"VEC3"},{"bufferView":14,"componentType":5126,"count":52,"max":[1,1],"min":[0,0],"type":"VEC2"},{"bufferView":15,"componentType":5123,"count":96,"max":[51],"min":[0],"type":"SCALAR"},{"bufferView":16,"componentType":5126,"count":52,"max":[0.02500000037252903,0.007499999832361937,0.02500000037252903],"min":[-0.02500000037252903,-0.007499999832361937,-0.02500000037252903],"type":"VEC3"},{"bufferView":17,"componentType":5126,"count":52,"max":[1,1,1],"min":[-1,-1,-1],"type":"VEC3"},{"bufferView":18,"componentType":5126,"count":52,"max":[1,1],"min":[0,0],"type":"VEC2"},{"bufferView":19,"componentType":5123,"count":96,"max":[51],"min":[0],"type":"SCALAR"},{"bufferView":20,"componentType":5126,"count":52,"max":[0.02500000037252903,0.007499999832361937,0.02500000037252903],"min":[-0.02500000037252903,-0.007499999832361937,-0.02500000037252903],"type":"VEC3"},{"bufferView":21,"componentType":5126,"count":52,"max":[1,1,1],"min":[-1,-1,-1],"type":"VEC3"},{"bufferView":22,"componentType":5126,"count":52,"max":[1,1],"min":[0,0],"type":"VEC2"},{"bufferView":23,"componentType":5123,"count":96,"max":[51],"min":[0],"type":"SCALAR"},{"bufferView":24,"componentType":5126,"count":121,"max":[0.05999999865889549,0.05999999865889549,0.05706338956952095],"min":[-0.05999999865889549,-0.05999999865889549,-0.05706338956952095],"type":"VEC3"},{"bufferView":25,"componentType":5126,"count":121,"max":[1,1,0.9510565400123596],"min":[-1,-1,-0.9510565400123596],"type":"VEC3"},{"bufferView":26,"componentType":5126,"count":121,"max":[1.0499999523162842,1],"min":[-0.05000000074505806,0],"type":"VEC2"},{"bufferView":27,"componentType":5123,"count":540,"max":[120],"min":[0],"type":"SCALAR"},{"bufferView":28,"componentType":5126,"count":121,"max":[0.03999999910593033,0.03999999910593033,0.03804226219654083],"min":[-0.03999999910593033,-0.03999999910593033,-0.03804226219654083],"type":"VEC3"},{"bufferView":29,"componentType":5126,"count":121,"max":[1,1,0.9510565400123596],"min":[-1,-1,-0.9510565400123596],"type":"VEC3"},{"bufferView":30,"componentType":5126,"count":121,"max":[1.0499999523162842,1],"min":[-0.05000000074505806,0],"type":"VEC2"},{"bufferView":31,"componentType":5123,"count":540,"max":[120],"min":[0],"type":"SCALAR"},{"bufferView":32,"componentType":5126,"count":35,"max":[0.019999999552965164,0.019999999552965164,0.019999999552965164],"min":[-0.019999999552965164,-0.019999999552965164,-0.019999999552965164],"type":"VEC3"},{"bufferView":33,"componentType":5126,"count":35,"max":[0.8944271802902222,0.4472135901451111,0.8944271802902222],"min":[-0.8944271802902222,-1,-0.8944271802902222],"type":"VEC3"},{"bufferView":34,"componentType":5126,"count":35,"max":[1,1],"min":[0,0],"type":"VEC2"},{"bufferView":35,"componentType":5123,"count":72,"max":[34],"min":[0],"type":"SCALAR"},{"bufferView":36,"componentType":5126,"count":40,"max":[0.012990380637347698,0.07500000298023224,0.014999999664723873],"min":[-0.012990380637347698,-0.07500000298023224,-0.014999999664723873],"type":"VEC3"},{"bufferView":37,"componentType":5126,"count":40,"max":[0.8650839328765869,1,0.9989128708839417],"min":[-0.8650839328765869,-1,-0.9989128708839417],"type":"VEC3"},{"bufferView":38,"componentType":5126,"count":40,"max":[1,1],"min":[0,0],"type":"VEC2"},{"bufferView":39,"componentType":5123,"count":72,"max":[39],"min":[0],"type":"SCALAR"},{"bufferView":40,"componentType":5126,"count":49,"max":[0.014999999664723873,0.014999999664723873,0.012990380637347698],"min":[-0.014999999664723873,-0.014999999664723873,-0.012990380637347698],"type":"VEC3"},{"bufferView":41,"componentType":5126,"count":49,"max":[1,1,0.8660253882408142],"min":[-1,-1,-0.8660253882408142],"type":"VEC3"},{"bufferView":42,"componentType":5126,"count":49,"max":[1.0833333730697632,1],"min":[-0.0833333358168602,0],"type":"VEC2"},{"bufferView":43,"componentType":5123,"count":180,"max":[48],"min":[0],"type":"SCALAR"},{"bufferView":44,"componentType":5126,"count":121,"max":[0.054999999701976776,0.054999999701976776,0.052308108657598495],"min":[-0.054999999701976776,-0.054999999701976776,-0.052308108657598495],"type":"VEC3"},{"bufferView":45,"componentType":5126,"count":121,"max":[1,1,0.9510565400123596],"min":[-1,-1,-0.9510565400123596],"type":"VEC3"},{"bufferView":46,"componentType":5126,"count":121,"max":[1.0499999523162842,1],"min":[-0.05000000074505806,0],"type":"VEC2"},{"bufferView":47,"componentType":5123,"count":540,"max":[120],"min":[0],"type":"SCALAR"},{"bufferView":48,"componentType":5126,"count":121,"max":[0.03500000014901161,0.03500000014901161,0.03328697755932808],"min":[-0.03500000014901161,-0.03500000014901161,-0.03328697755932808],"type":"VEC3"},{"bufferView":49,"componentType":5126,"count":121,"max":[1,1,0.9510565400123596],"min":[-1,-1,-0.9510565400123596],"type":"VEC3"},{"bufferView":50,"componentType":5126,"count":121,"max":[1.0499999523162842,1],"min":[-0.05000000074505806,0],"type":"VEC2"},{"bufferView":51,"componentType":5123,"count":540,"max":[120],"min":[0],"type":"SCALAR"},{"bufferView":52,"componentType":5126,"count":35,"max":[0.017999999225139618,0.017500000074505806,0.017999999225139618],"min":[-0.017999999225139618,-0.017500000074505806,-0.017999999225139618],"type":"VEC3"},{"bufferView":53,"componentType":5126,"count":35,"max":[0.8892878293991089,0.4573480188846588,0.8892878293991089],"min":[-0.8892878293991089,-1,-0.8892878293991089],"type":"VEC3"},{"bufferView":54,"componentType":5126,"count":35,"max":[1,1],"min":[0,0],"type":"VEC2"},{"bufferView":55,"componentType":5123,"count":72,"max":[34],"min":[0],"type":"SCALAR"},{"bufferView":56,"componentType":5126,"count":40,"max":[0.010392304509878159,0.06499999761581421,0.012000000104308128],"min":[-0.010392304509878159,-0.06499999761581421,-0.012000000104308128],"type":"VEC3"},{"bufferView":57,"componentType":5126,"count":40,"max":[0.8653855919837952,1,0.999261200428009],"min":[-0.8653855919837952,-1,-0.999261200428009],"type":"VEC3"},{"bufferView":58,"componentType":5126,"count":40,"max":[1,1],"min":[0,0],"type":"VEC2"},{"bufferView":59,"componentType":5123,"count":72,"max":[39],"min":[0],"type":"SCALAR"},{"bufferView":60,"componentType":5126,"count":121,"max":[0.05000000074505806,0.05000000074505806,0.04755282402038574],"min":[-0.05000000074505806,-0.05000000074505806,-0.04755282402038574],"type":"VEC3"},{"bufferView":61,"componentType":5126,"count":121,"max":[1,1,0.9510565400123596],"min":[-1,-1,-0.9510565400123596],"type":"VEC3"},{"bufferView":62,"componentType":5126,"count":121,"max":[1.0499999523162842,1],"min":[-0.05000000074505806,0],"type":"VEC2"},{"bufferView":63,"componentType":5123,"count":540,"max":[120],"min":[0],"type":"SCALAR"},{"bufferView":64,"componentType":5126,"count":121,"max":[0.029999999329447746,0.029999999329447746,0.028531694784760475],"min":[-0.029999999329447746,-0.029999999329447746,-0.028531694784760475],"type":"VEC3"},{"bufferView":65,"componentType":5126,"count":121,"max":[1,1,0.9510565400123596],"min":[-1,-1,-0.9510565400123596],"type":"VEC3"},{"bufferView":66,"componentType":5126,"count":121,"max":[1.0499999523162842,1],"min":[-0.05000000074505806,0],"type":"VEC2"},{"bufferView":67,"componentType":5123,"count":540,"max":[120],"min":[0],"type":"SCALAR"},{"bufferView":68,"componentType":5126,"count":40,"max":[0.008660254068672657,0.05999999865889549,0.009999999776482582],"min":[-0.008660254068672657,-0.05999999865889549,-0.009999999776482582],"type":"VEC3"},{"bufferView":69,"componentType":5126,"count":40,"max":[0.8655446767807007,1,0.9994449019432068],"min":[-0.8655446767807007,-1,-0.9994449019432068],"type":"VEC3"},{"bufferView":70,"componentType":5126,"count":40,"max":[1,1],"min":[0,0],"type":"VEC2"},{"bufferView":71,"componentType":5123,"count":72,"max":[39],"min":[0],"type":"SCALAR"},{"bufferView":72,"componentType":5126,"count":40,"max":[0.010392304509878159,0.05999999865889549,0.012000000104308128],"min":[-0.010392304509878159,-0.05999999865889549,-0.012000000104308128],"type":"VEC3"},{"bufferView":73,"componentType":5126,"count":40,"max":[0.8655446767807007,1,0.9994449019432068],"min":[-0.8655446767807007,-1,-0.9994449019432068],"type":"VEC3"},{"bufferView":74,"componentType":5126,"count":40,"max":[1,1],"min":[0,0],"type":"VEC2"},{"bufferView":75,"componentType":5123,"count":72,"max":[39],"min":[0],"type":"SCALAR"}],"materials":[{"pbrMetallicRoughness":{"baseColorFactor":[0.7843137254901961,0.7686274509803922,0.7372549019607844,1],"metallicFactor":0,"roughnessFactor":0.8}},{"pbrMetallicRoughness":{"baseColorFactor":[0.8470588235294118,0.8313725490196079,0.8,1],"metallicFactor":0,"roughnessFactor":0.7}},{"pbrMetallicRoughness":{"baseColorFactor":[0.8156862745098039,0.8,0.7686274509803922,1],"metallicFactor":0,"roughnessFactor":0.75}}],"meshes":[{"primitives":[{"mode":4,"attributes":{"POSITION":0,"NORMAL":1,"TEXCOORD_0":2},"indices":3,"material":0}]},{"primitives":[{"mode":4,"attributes":{"POSITION":4,"NORMAL":5,"TEXCOORD_0":6},"indices":7,"material":1}]},{"primitives":[{"mode":4,"attributes":{"POSITION":8,"NORMAL":9,"TEXCOORD_0":10},"indices":11,"material":2}]},{"primitives":[{"mode":4,"attributes":{"POSITION":12,"NORMAL":13,"TEXCOORD_0":14},"indices":15,"material":0}]},{"primitives":[{"mode":4,"attributes":{"POSITION":16,"NORMAL":17,"TEXCOORD_0":18},"indices":19,"material":0}]},{"primitives":[{"mode":4,"attributes":{"POSITION":20,"NORMAL":21,"TEXCOORD_0":22},"indices":23,"material":0}]},{"primitives":[{"mode":4,"attributes":{"POSITION":24,"NORMAL":25,"TEXCOORD_0":26},"indices":27,"material":2}]},{"primitives":[{"mode":4,"attributes":{"POSITION":28,"NORMAL":29,"TEXCOORD_0":30},"indices":31,"material":2}]},{"primitives":[{"mode":4,"attributes":{"POSITION":32,"NORMAL":33,"TEXCOORD_0":34},"indices":35,"material":2}]},{"primitives":[{"mode":4,"attributes":{"POSITION":36,"NORMAL":37,"TEXCOORD_0":38},"indices":39,"material":2}]},{"primitives":[{"mode":4,"attributes":{"POSITION":40,"NORMAL":41,"TEXCOORD_0":42},"indices":43,"material":1}]},{"primitives":[{"mode":4,"attributes":{"POSITION":44,"NORMAL":45,"TEXCOORD_0":46},"indices":47,"material":2}]},{"primitives":[{"mode":4,"attributes":{"POSITION":48,"NORMAL":49,"TEXCOORD_0":50},"indices":51,"material":2}]},{"primitives":[{"mode":4,"attributes":{"POSITION":52,"NORMAL":53,"TEXCOORD_0":54},"indices":55,"material":2}]},{"primitives":[{"mode":4,"attributes":{"POSITION":56,"NORMAL":57,"TEXCOORD_0":58},"indices":59,"material":2}]},{"primitives":[{"mode":4,"attributes":{"POSITION":60,"NORMAL":61,"TEXCOORD_0":62},"indices":63,"material":0}]},{"primitives":[{"mode":4,"attributes":{"POSITION":64,"NORMAL":65,"TEXCOORD_0":66},"indices":67,"material":0}]},{"primitives":[{"mode":4,"attributes":{"POSITION":68,"NORMAL":69,"TEXCOORD_0":70},"indices":71,"material":0}]},{"primitives":[{"mode":4,"attributes":{"POSITION":72,"NORMAL":73,"TEXCOORD_0":74},"indices":75,"material":1}]}]}