{"asset": {"version": "2.0", "generator": "THREE.GLTFExporter", "extras": {"statueName": "Queen in Chariot", "statueDescription": "Beneficence despite martial appearance - goodness, gentleness, wisdom, protection.", "statueId": "queen_chariot"}}, "scenes": [{"nodes": [20]}], "scene": 0, "nodes": [{"matrix": [1, 0, 0, 0, 0, 1, 0, 0, 0, 0, 1, 0, 0, 0.15, 0, 1], "mesh": 0}, {"matrix": [1, 0, 0, 0, 0, 1, 0, 0, 0, 0, 1, 0, 0, 0.3, 0.15, 1], "mesh": 1}, {"matrix": [2.220446049250313e-16, 0, -1, 0, 0, 1, 0, 0, 1, 0, 2.220446049250313e-16, 0, -0.3, 0.15, 0, 1], "mesh": 2}, {"matrix": [2.220446049250313e-16, 0, -1, 0, 0, 1, 0, 0, 1, 0, 2.220446049250313e-16, 0, 0.3, 0.15, 0, 1], "mesh": 3}, {"matrix": [2.220446049250313e-16, 1, 0, 0, -1, 2.220446049250313e-16, 0, 0, 0, 0, 1, 0, -0.3, 0.15, 0.06, 1], "mesh": 4}, {"matrix": [2.220446049250313e-16, 0.5000000000000001, 0.8660254037844385, 0, -0.9999999999999999, 2.220446049250313e-16, 1.1102230246251565e-16, 0, 0, -0.8660254037844385, 0.5000000000000002, 0, -0.3, 0.2019615242270663, 0.030000000000000006, 1], "mesh": 5}, {"matrix": [0, -0.49999999999999994, 0.8660254037844388, 0, -1, -2.220446049250313e-16, 1.6653345369377348e-16, 0, 0, -0.8660254037844388, -0.5, 0, -0.3, 0.2019615242270663, -0.029999999999999985, 1], "mesh": 6}, {"matrix": [2.220446049250313e-16, -1, 1.2246467991473532e-16, 0, -1, -2.220446049250313e-16, 2.465190328815662e-32, 0, 0, -1.2246467991473532e-16, -1, 0, -0.3, 0.15, -0.06, 1], "mesh": 7}, {"matrix": [4.440892098500626e-16, -0.5000000000000002, -0.8660254037844383, 0, -0.9999999999999998, 2.220446049250313e-16, -1.6653345369377348e-16, 0, 0, 0.8660254037844382, -0.5, 0, -0.3, 0.0980384757729337, -0.030000000000000027, 1], "mesh": 8}, {"matrix": [2.220446049250313e-16, 0.5000000000000001, -0.8660254037844385, 0, -0.9999999999999999, 2.220446049250313e-16, -1.1102230246251565e-16, 0, 0, 0.8660254037844385, 0.5000000000000002, 0, -0.3, 0.09803847577293368, 0.030000000000000006, 1], "mesh": 9}, {"matrix": [2.220446049250313e-16, 1, 0, 0, -1, 2.220446049250313e-16, 0, 0, 0, 0, 1, 0, 0.3, 0.15, 0.06, 1], "mesh": 10}, {"matrix": [2.220446049250313e-16, 0.5000000000000001, 0.8660254037844385, 0, -0.9999999999999999, 2.220446049250313e-16, 1.1102230246251565e-16, 0, 0, -0.8660254037844385, 0.5000000000000002, 0, 0.3, 0.2019615242270663, 0.030000000000000006, 1], "mesh": 11}, {"matrix": [0, -0.49999999999999994, 0.8660254037844388, 0, -1, -2.220446049250313e-16, 1.6653345369377348e-16, 0, 0, -0.8660254037844388, -0.5, 0, 0.3, 0.2019615242270663, -0.029999999999999985, 1], "mesh": 12}, {"matrix": [2.220446049250313e-16, -1, 1.2246467991473532e-16, 0, -1, -2.220446049250313e-16, 2.465190328815662e-32, 0, 0, -1.2246467991473532e-16, -1, 0, 0.3, 0.15, -0.06, 1], "mesh": 13}, {"matrix": [4.440892098500626e-16, -0.5000000000000002, -0.8660254037844383, 0, -0.9999999999999998, 2.220446049250313e-16, -1.6653345369377348e-16, 0, 0, 0.8660254037844382, -0.5, 0, 0.3, 0.0980384757729337, -0.030000000000000027, 1], "mesh": 14}, {"matrix": [2.220446049250313e-16, 0.5000000000000001, -0.8660254037844385, 0, -0.9999999999999999, 2.220446049250313e-16, -1.1102230246251565e-16, 0, 0, 0.8660254037844385, 0.5000000000000002, 0, 0.3, 0.09803847577293368, 0.030000000000000006, 1], "mesh": 15}, {"matrix": [1, 0, 0, 0, 0, 1, 0, 0, 0, 0, 1, 0, 0, 0.48, -0.02, 1], "mesh": 16}, {"matrix": [1, 0, 0, 0, 0, 1, 0, 0, 0, 0, 1, 0, 0, 0.9, -0.02, 1], "mesh": 17}, {"matrix": [1, 0, 0, 0, 0, 1, 0, 0, 0, 0, 1, 0, 0, 1.12, 0, 1], "mesh": 18}, {"matrix": [1, 0, 0, 0, 0, 1, 0, 0, 0, 0, 1, 0, 0, 1.22, 0, 1], "mesh": 19}, {"children": [0, 1, 2, 3, 4, 5, 6, 7, 8, 9, 10, 11, 12, 13, 14, 15, 16, 17, 18, 19]}], "bufferViews": [{"buffer": 0, "byteOffset": 0, "byteLength": 288, "target": 34962, "byteStride": 12}, {"buffer": 0, "byteOffset": 288, "byteLength": 288, "target": 34962, "byteStride": 12}, {"buffer": 0, "byteOffset": 576, "byteLength": 192, "target": 34962, "byteStride": 8}, {"buffer": 0, "byteOffset": 768, "byteLength": 72, "target": 34963}, {"buffer": 0, "byteOffset": 840, "byteLength": 288, "target": 34962, "byteStride": 12}, {"buffer": 0, "byteOffset": 1128, "byteLength": 288, "target": 34962, "byteStride": 12}, {"buffer": 0, "byteOffset": 1416, "byteLength": 192, "target": 34962, "byteStride": 8}, {"buffer": 0, "byteOffset": 1608, "byteLength": 72, "target": 34963}, {"buffer": 0, "byteOffset": 1680, "byteLength": 1836, "target": 34962, "byteStride": 12}, {"buffer": 0, "byteOffset": 3516, "byteLength": 1836, "target": 34962, "byteStride": 12}, {"buffer": 0, "byteOffset": 5352, "byteLength": 1224, "target": 34962, "byteStride": 8}, {"buffer": 0, "byteOffset": 6576, "byteLength": 1536, "target": 34963}, {"buffer": 0, "byteOffset": 8112, "byteLength": 1836, "target": 34962, "byteStride": 12}, {"buffer": 0, "byteOffset": 9948, "byteLength": 1836, "target": 34962, "byteStride": 12}, {"buffer": 0, "byteOffset": 11784, "byteLength": 1224, "target": 34962, "byteStride": 8}, {"buffer": 0, "byteOffset": 13008, "byteLength": 1536, "target": 34963}, {"buffer": 0, "byteOffset": 14544, "byteLength": 480, "target": 34962, "byteStride": 12}, {"buffer": 0, "byteOffset": 15024, "byteLength": 480, "target": 34962, "byteStride": 12}, {"buffer": 0, "byteOffset": 15504, "byteLength": 320, "target": 34962, "byteStride": 8}, {"buffer": 0, "byteOffset": 15824, "byteLength": 144, "target": 34963}, {"buffer": 0, "byteOffset": 15968, "byteLength": 480, "target": 34962, "byteStride": 12}, {"buffer": 0, "byteOffset": 16448, "byteLength": 480, "target": 34962, "byteStride": 12}, {"buffer": 0, "byteOffset": 16928, "byteLength": 320, "target": 34962, "byteStride": 8}, {"buffer": 0, "byteOffset": 17248, "byteLength": 144, "target": 34963}, {"buffer": 0, "byteOffset": 17392, "byteLength": 480, "target": 34962, "byteStride": 12}, {"buffer": 0, "byteOffset": 17872, "byteLength": 480, "target": 34962, "byteStride": 12}, {"buffer": 0, "byteOffset": 18352, "byteLength": 320, "target": 34962, "byteStride": 8}, {"buffer": 0, "byteOffset": 18672, "byteLength": 144, "target": 34963}, {"buffer": 0, "byteOffset": 18816, "byteLength": 480, "target": 34962, "byteStride": 12}, {"buffer": 0, "byteOffset": 19296, "byteLength": 480, "target": 34962, "byteStride": 12}, {"buffer": 0, "byteOffset": 19776, "byteLength": 320, "target": 34962, "byteStride": 8}, {"buffer": 0, "byteOffset": 20096, "byteLength": 144, "target": 34963}, {"buffer": 0, "byteOffset": 20240, "byteLength": 480, "target": 34962, "byteStride": 12}, {"buffer": 0, "byteOffset": 20720, "byteLength": 480, "target": 34962, "byteStride": 12}, {"buffer": 0, "byteOffset": 21200, "byteLength": 320, "target": 34962, "byteStride": 8}, {"buffer": 0, "byteOffset": 21520, "byteLength": 144, "target": 34963}, {"buffer": 0, "byteOffset": 21664, "byteLength": 480, "target": 34962, "byteStride": 12}, {"buffer": 0, "byteOffset": 22144, "byteLength": 480, "target": 34962, "byteStride": 12}, {"buffer": 0, "byteOffset": 22624, "byteLength": 320, "target": 34962, "byteStride": 8}, {"buffer": 0, "byteOffset": 22944, "byteLength": 144, "target": 34963}, {"buffer": 0, "byteOffset": 23088, "byteLength": 480, "target": 34962, "byteStride": 12}, {"buffer": 0, "byteOffset": 23568, "byteLength": 480, "target": 34962, "byteStride": 12}, {"buffer": 0, "byteOffset": 24048, "byteLength": 320, "target": 34962, "byteStride": 8}, {"buffer": 0, "byteOffset": 24368, "byteLength": 144, "target": 34963}, {"buffer": 0, "byteOffset": 24512, "byteLength": 480, "target": 34962, "byteStride": 12}, {"buffer": 0, "byteOffset": 24992, "byteLength": 480, "target": 34962, "byteStride": 12}, {"buffer": 0, "byteOffset": 25472, "byteLength": 320, "target": 34962, "byteStride": 8}, {"buffer": 0, "byteOffset": 25792, "byteLength": 144, "target": 34963}, {"buffer": 0, "byteOffset": 25936, "byteLength": 480, "target": 34962, "byteStride": 12}, {"buffer": 0, "byteOffset": 26416, "byteLength": 480, "target": 34962, "byteStride": 12}, {"buffer": 0, "byteOffset": 26896, "byteLength": 320, "target": 34962, "byteStride": 8}, {"buffer": 0, "byteOffset": 27216, "byteLength": 144, "target": 34963}, {"buffer": 0, "byteOffset": 27360, "byteLength": 480, "target": 34962, "byteStride": 12}, {"buffer": 0, "byteOffset": 27840, "byteLength": 480, "target": 34962, "byteStride": 12}, {"buffer": 0, "byteOffset": 28320, "byteLength": 320, "target": 34962, "byteStride": 8}, {"buffer": 0, "byteOffset": 28640, "byteLength": 144, "target": 34963}, {"buffer": 0, "byteOffset": 28784, "byteLength": 480, "target": 34962, "byteStride": 12}, {"buffer": 0, "byteOffset": 29264, "byteLength": 480, "target": 34962, "byteStride": 12}, {"buffer": 0, "byteOffset": 29744, "byteLength": 320, "target": 34962, "byteStride": 8}, {"buffer": 0, "byteOffset": 30064, "byteLength": 144, "target": 34963}, {"buffer": 0, "byteOffset": 30208, "byteLength": 480, "target": 34962, "byteStride": 12}, {"buffer": 0, "byteOffset": 30688, "byteLength": 480, "target": 34962, "byteStride": 12}, {"buffer": 0, "byteOffset": 31168, "byteLength": 320, "target": 34962, "byteStride": 8}, {"buffer": 0, "byteOffset": 31488, "byteLength": 144, "target": 34963}, {"buffer": 0, "byteOffset": 31632, "byteLength": 612, "target": 34962, "byteStride": 12}, {"buffer": 0, "byteOffset": 32244, "byteLength": 612, "target": 34962, "byteStride": 12}, {"buffer": 0, "byteOffset": 32856, "byteLength": 408, "target": 34962, "byteStride": 8}, {"buffer": 0, "byteOffset": 33264, "byteLength": 216, "target": 34963}, {"buffer": 0, "byteOffset": 33480, "byteLength": 912, "target": 34962, "byteStride": 12}, {"buffer": 0, "byteOffset": 34392, "byteLength": 912, "target": 34962, "byteStride": 12}, {"buffer": 0, "byteOffset": 35304, "byteLength": 608, "target": 34962, "byteStride": 8}, {"buffer": 0, "byteOffset": 35912, "byteLength": 288, "target": 34963}, {"buffer": 0, "byteOffset": 36200, "byteLength": 2028, "target": 34962, "byteStride": 12}, {"buffer": 0, "byteOffset": 38228, "byteLength": 2028, "target": 34962, "byteStride": 12}, {"buffer": 0, "byteOffset": 40256, "byteLength": 1352, "target": 34962, "byteStride": 8}, {"buffer": 0, "byteOffset": 41608, "byteLength": 1584, "target": 34963}, {"buffer": 0, "byteOffset": 43192, "byteLength": 768, "target": 34962, "byteStride": 12}, {"buffer": 0, "byteOffset": 43960, "byteLength": 768, "target": 34962, "byteStride": 12}, {"buffer": 0, "byteOffset": 44728, "byteLength": 512, "target": 34962, "byteStride": 8}, {"buffer": 0, "byteOffset": 45240, "byteLength": 240, "target": 34963}], "buffers": [{"byteLength": 45480, "uri": "data:application/octet-stream;base64,"}], "accessors": [{"bufferView": 0, "componentType": 5126, "count": 24, "max": [0.25, 0.02500000037252903, 0.17499999701976776], "min": [-0.25, -0.02500000037252903, -0.17499999701976776], "type": "VEC3"}, {"bufferView": 1, "componentType": 5126, "count": 24, "max": [1, 1, 1], "min": [-1, -1, -1], "type": "VEC3"}, {"bufferView": 2, "componentType": 5126, "count": 24, "max": [1, 1], "min": [0, 0], "type": "VEC2"}, {"bufferView": 3, "componentType": 5123, "count": 36, "max": [23], "min": [0], "type": "SCALAR"}, {"bufferView": 4, "componentType": 5126, "count": 24, "max": [0.25, 0.15000000596046448, 0.02500000037252903], "min": [-0.25, -0.15000000596046448, -0.02500000037252903], "type": "VEC3"}, {"bufferView": 5, "componentType": 5126, "count": 24, "max": [1, 1, 1], "min": [-1, -1, -1], "type": "VEC3"}, {"bufferView": 6, "componentType": 5126, "count": 24, "max": [1, 1], "min": [0, 0], "type": "VEC2"}, {"bufferView": 7, "componentType": 5123, "count": 36, "max": [23], "min": [0], "type": "SCALAR"}, {"bufferView": 8, "componentType": 5126, "count": 153, "max": [0.18000000715255737, 0.18000000715255737, 0.029999999329447746], "min": [-0.18000000715255737, -0.18000000715255737, -0.029999999329447746], "type": "VEC3"}, {"bufferView": 9, "componentType": 5126, "count": 153, "max": [1, 1, 1], "min": [-1, -1, -1], "type": "VEC3"}, {"bufferView": 10, "componentType": 5126, "count": 153, "max": [1, 1], "min": [0, 0], "type": "VEC2"}, {"bufferView": 11, "componentType": 5123, "count": 768, "max": [152], "min": [0], "type": "SCALAR"}, {"bufferView": 12, "componentType": 5126, "count": 153, "max": [0.18000000715255737, 0.18000000715255737, 0.029999999329447746], "min": [-0.18000000715255737, -0.18000000715255737, -0.029999999329447746], "type": "VEC3"}, {"bufferView": 13, "componentType": 5126, "count": 153, "max": [1, 1, 1], "min": [-1, -1, -1], "type": "VEC3"}, {"bufferView": 14, "componentType": 5126, "count": 153, "max": [1, 1], "min": [0, 0], "type": "VEC2"}, {"bufferView": 15, "componentType": 5123, "count": 768, "max": [152], "min": [0], "type": "SCALAR"}, {"bufferView": 16, "componentType": 5126, "count": 40, "max": [0.006928203161805868, 0.05999999865889549, 0.00800000037997961], "min": [-0.006928203161805868, -0.05999999865889549, -0.00800000037997961], "type": "VEC3"}, {"bufferView": 17, "componentType": 5126, "count": 40, "max": [0.8660253882408142, 1, 1], "min": [-0.8660253882408142, -1, -1], "type": "VEC3"}, {"bufferView": 18, "componentType": 5126, "count": 40, "max": [1, 1], "min": [0, 0], "type": "VEC2"}, {"bufferView": 19, "componentType": 5123, "count": 72, "max": [39], "min": [0], "type": "SCALAR"}, {"bufferView": 20, "componentType": 5126, "count": 40, "max": [0.006928203161805868, 0.05999999865889549, 0.00800000037997961], "min": [-0.006928203161805868, -0.05999999865889549, -0.00800000037997961], "type": "VEC3"}, {"bufferView": 21, "componentType": 5126, "count": 40, "max": [0.8660253882408142, 1, 1], "min": [-0.8660253882408142, -1, -1], "type": "VEC3"}, {"bufferView": 22, "componentType": 5126, "count": 40, "max": [1, 1], "min": [0, 0], "type": "VEC2"}, {"bufferView": 23, "componentType": 5123, "count": 72, "max": [39], "min": [0], "type": "SCALAR"}, {"bufferView": 24, "componentType": 5126, "count": 40, "max": [0.006928203161805868, 0.05999999865889549, 0.00800000037997961], "min": [-0.006928203161805868, -0.05999999865889549, -0.00800000037997961], "type": "VEC3"}, {"bufferView": 25, "componentType": 5126, "count": 40, "max": [0.8660253882408142, 1, 1], "min": [-0.8660253882408142, -1, -1], "type": "VEC3"}, {"bufferView": 26, "componentType": 5126, "count": 40, "max": [1, 1], "min": [0, 0], "type": "VEC2"}, {"bufferView": 27, "componentType": 5123, "count": 72, "max": [39], "min": [0], "type": "SCALAR"}, {"bufferView": 28, "componentType": 5126, "count": 40, "max": [0.006928203161805868, 0.05999999865889549, 0.00800000037997961], "min": [-0.006928203161805868, -0.05999999865889549, -0.00800000037997961], "type": "VEC3"}, {"bufferView": 29, "componentType": 5126, "count": 40, "max": [0.8660253882408142, 1, 1], "min": [-0.8660253882408142, -1, -1], "type": "VEC3"}, {"bufferView": 30, "componentType": 5126, "count": 40, "max": [1, 1], "min": [0, 0], "type": "VEC2"}, {"bufferView": 31, "componentType": 5123, "count": 72, "max": [39], "min": [0], "type": "SCALAR"}, {"bufferView": 32, "componentType": 5126, "count": 40, "max": [0.006928203161805868, 0.05999999865889549, 0.00800000037997961], "min": [-0.006928203161805868, -0.05999999865889549, -0.00800000037997961], "type": "VEC3"}, {"bufferView": 33, "componentType": 5126, "count": 40, "max": [0.8660253882408142, 1, 1], "min": [-0.8660253882408142, -1, -1], "type": "VEC3"}, {"bufferView": 34, "componentType": 5126, "count": 40, "max": [1, 1], "min": [0, 0], "type": "VEC2"}, {"bufferView": 35, "componentType": 5123, "count": 72, "max": [39], "min": [0], "type": "SCALAR"}, {"bufferView": 36, "componentType": 5126, "count": 40, "max": [0.006928203161805868, 0.05999999865889549, 0.00800000037997961], "min": [-0.006928203161805868, -0.05999999865889549, -0.00800000037997961], "type": "VEC3"}, {"bufferView": 37, "componentType": 5126, "count": 40, "max": [0.8660253882408142, 1, 1], "min": [-0.8660253882408142, -1, -1], "type": "VEC3"}, {"bufferView": 38, "componentType": 5126, "count": 40, "max": [1, 1], "min": [0, 0], "type": "VEC2"}, {"bufferView": 39, "componentType": 5123, "count": 72, "max": [39], "min": [0], "type": "SCALAR"}, {"bufferView": 40, "componentType": 5126, "count": 40, "max": [0.006928203161805868, 0.05999999865889549, 0.00800000037997961], "min": [-0.006928203161805868, -0.05999999865889549, -0.00800000037997961], "type": "VEC3"}, {"bufferView": 41, "componentType": 5126, "count": 40, "max": [0.8660253882408142, 1, 1], "min": [-0.8660253882408142, -1, -1], "type": "VEC3"}, {"bufferView": 42, "componentType": 5126, "count": 40, "max": [1, 1], "min": [0, 0], "type": "VEC2"}, {"bufferView": 43, "componentType": 5123, "count": 72, "max": [39], "min": [0], "type": "SCALAR"}, {"bufferView": 44, "componentType": 5126, "count": 40, "max": [0.006928203161805868, 0.05999999865889549, 0.00800000037997961], "min": [-0.006928203161805868, -0.05999999865889549, -0.00800000037997961], "type": "VEC3"}, {"bufferView": 45, "componentType": 5126, "count": 40, "max": [0.8660253882408142, 1, 1], "min": [-0.8660253882408142, -1, -1], "type": "VEC3"}, {"bufferView": 46, "componentType": 5126, "count": 40, "max": [1, 1], "min": [0, 0], "type": "VEC2"}, {"bufferView": 47, "componentType": 5123, "count": 72, "max": [39], "min": [0], "type": "SCALAR"}, {"bufferView": 48, "componentType": 5126, "count": 40, "max": [0.006928203161805868, 0.05999999865889549, 0.00800000037997961], "min": [-0.006928203161805868, -0.05999999865889549, -0.00800000037997961], "type": "VEC3"}, {"bufferView": 49, "componentType": 5126, "count": 40, "max": [0.8660253882408142, 1, 1], "min": [-0.8660253882408142, -1, -1], "type": "VEC3"}, {"bufferView": 50, "componentType": 5126, "count": 40, "max": [1, 1], "min": [0, 0], "type": "VEC2"}, {"bufferView": 51, "componentType": 5123, "count": 72, "max": [39], "min": [0], "type": "SCALAR"}, {"bufferView": 52, "componentType": 5126, "count": 40, "max": [0.006928203161805868, 0.05999999865889549, 0.00800000037997961], "min": [-0.006928203161805868, -0.05999999865889549, -0.00800000037997961], "type": "VEC3"}, {"bufferView": 53, "componentType": 5126, "count": 40, "max": [0.8660253882408142, 1, 1], "min": [-0.8660253882408142, -1, -1], "type": "VEC3"}, {"bufferView": 54, "componentType": 5126, "count": 40, "max": [1, 1], "min": [0, 0], "type": "VEC2"}, {"bufferView": 55, "componentType": 5123, "count": 72, "max": [39], "min": [0], "type": "SCALAR"}, {"bufferView": 56, "componentType": 5126, "count": 40, "max": [0.006928203161805868, 0.05999999865889549, 0.00800000037997961], "min": [-0.006928203161805868, -0.05999999865889549, -0.00800000037997961], "type": "VEC3"}, {"bufferView": 57, "componentType": 5126, "count": 40, "max": [0.8660253882408142, 1, 1], "min": [-0.8660253882408142, -1, -1], "type": "VEC3"}, {"bufferView": 58, "componentType": 5126, "count": 40, "max": [1, 1], "min": [0, 0], "type": "VEC2"}, {"bufferView": 59, "componentType": 5123, "count": 72, "max": [39], "min": [0], "type": "SCALAR"}, {"bufferView": 60, "componentType": 5126, "count": 40, "max": [0.006928203161805868, 0.05999999865889549, 0.00800000037997961], "min": [-0.006928203161805868, -0.05999999865889549, -0.00800000037997961], "type": "VEC3"}, {"bufferView": 61, "componentType": 5126, "count": 40, "max": [0.8660253882408142, 1, 1], "min": [-0.8660253882408142, -1, -1], "type": "VEC3"}, {"bufferView": 62, "componentType": 5126, "count": 40, "max": [1, 1], "min": [0, 0], "type": "VEC2"}, {"bufferView": 63, "componentType": 5123, "count": 72, "max": [39], "min": [0], "type": "SCALAR"}, {"bufferView": 64, "componentType": 5126, "count": 51, "max": [0.18000000715255737, 0.30000001192092896, 0.18000000715255737], "min": [-0.18000000715255737, -0.30000001192092896, -0.18000000715255737], "type": "VEC3"}, {"bufferView": 65, "componentType": 5126, "count": 51, "max": [0.9578262567520142, 0.2873478829860687, 0.9578262567520142], "min": [-0.9578262567520142, -1, -0.9578262567520142], "type": "VEC3"}, {"bufferView": 66, "componentType": 5126, "count": 51, "max": [1, 1], "min": [0, 0], "type": "VEC2"}, {"bufferView": 67, "componentType": 5123, "count": 108, "max": [50], "min": [0], "type": "SCALAR"}, {"bufferView": 68, "componentType": 5126, "count": 76, "max": [0.11999999731779099, 0.125, 0.11999999731779099], "min": [-0.11999999731779099, -0.125, -0.11999999731779099], "type": "VEC3"}, {"bufferView": 69, "componentType": 5126, "count": 76, "max": [0.9968152642250061, 1, 0.9968152642250061], "min": [-0.9968152642250061, -1, -0.9968152642250061], "type": "VEC3"}, {"bufferView": 70, "componentType": 5126, "count": 76, "max": [1, 1], "min": [0, 0], "type": "VEC2"}, {"bufferView": 71, "componentType": 5123, "count": 144, "max": [75], "min": [0], "type": "SCALAR"}, {"bufferView": 72, "componentType": 5126, "count": 169, "max": [0.07999999821186066, 0.07999999821186066, 0.07999999821186066], "min": [-0.07999999821186066, -0.07999999821186066, -0.07999999821186066], "type": "VEC3"}, {"bufferView": 73, "componentType": 5126, "count": 169, "max": [1, 1, 1], "min": [-1, -1, -1], "type": "VEC3"}, {"bufferView": 74, "componentType": 5126, "count": 169, "max": [1.0416666269302368, 1], "min": [-0.0416666679084301, 0], "type": "VEC2"}, {"bufferView": 75, "componentType": 5123, "count": 792, "max": [168], "min": [0], "type": "SCALAR"}, {"bufferView": 76, "componentType": 5126, "count": 64, "max": [0.06657395511865616, 0.029999999329447746, 0.07000000029802322], "min": [-0.06657395511865616, -0.029999999329447746, -0.07000000029802322], "type": "VEC3"}, {"bufferView": 77, "componentType": 5126, "count": 64, "max": [0.9381163716316223, 1, 0.986393928527832], "min": [-0.9381163716316223, -1, -0.986393928527832], "type": "VEC3"}, {"bufferView": 78, "componentType": 5126, "count": 64, "max": [1, 1], "min": [0, 0], "type": "VEC2"}, {"bufferView": 79, "componentType": 5123, "count": 120, "max": [63], "min": [0], "type": "SCALAR"}], "materials": [{"pbrMetallicRoughness": {"baseColorFactor": [0.7843137254901961, 0.7686274509803922, 0.7372549019607844, 1], "metallicFactor": 0, "roughnessFactor": 0.8}}, {"pbrMetallicRoughness": {"baseColorFactor": [0.8156862745098039, 0.8, 0.7686274509803922, 1], "metallicFactor": 0, "roughnessFactor": 0.75}}, {"pbrMetallicRoughness": {"baseColorFactor": [0.8470588235294118, 0.8313725490196079, 0.8, 1], "metallicFactor": 0, "roughnessFactor": 0.7}}], "meshes": [{"primitives": [{"mode": 4, "attributes": {"POSITION": 0, "NORMAL": 1, "TEXCOORD_0": 2}, "indices": 3, "material": 0}]}, {"primitives": [{"mode": 4, "attributes": {"POSITION": 4, "NORMAL": 5, "TEXCOORD_0": 6}, "indices": 7, "material": 0}]}, {"primitives": [{"mode": 4, "attributes": {"POSITION": 8, "NORMAL": 9, "TEXCOORD_0": 10}, "indices": 11, "material": 1}]}, {"primitives": [{"mode": 4, "attributes": {"POSITION": 12, "NORMAL": 13, "TEXCOORD_0": 14}, "indices": 15, "material": 1}]}, {"primitives": [{"mode": 4, "attributes": {"POSITION": 16, "NORMAL": 17, "TEXCOORD_0": 18}, "indices": 19, "material": 1}]}, {"primitives": [{"mode": 4, "attributes": {"POSITION": 20, "NORMAL": 21, "TEXCOORD_0": 22}, "indices": 23, "material": 1}]}, {"primitives": [{"mode": 4, "attributes": {"POSITION": 24, "NORMAL": 25, "TEXCOORD_0": 26}, "indices": 27, "material": 1}]}, {"primitives": [{"mode": 4, "attributes": {"POSITION": 28, "NORMAL": 29, "TEXCOORD_0": 30}, "indices": 31, "material": 1}]}, {"primitives": [{"mode": 4, "attributes": {"POSITION": 32, "NORMAL": 33, "TEXCOORD_0": 34}, "indices": 35, "material": 1}]}, {"primitives": [{"mode": 4, "attributes": {"POSITION": 36, "NORMAL": 37, "TEXCOORD_0": 38}, "indices": 39, "material": 1}]}, {"primitives": [{"mode": 4, "attributes": {"POSITION": 40, "NORMAL": 41, "TEXCOORD_0": 42}, "indices": 43, "material": 1}]}, {"primitives": [{"mode": 4, "attributes": {"POSITION": 44, "NORMAL": 45, "TEXCOORD_0": 46}, "indices": 47, "material": 1}]}, {"primitives": [{"mode": 4, "attributes": {"POSITION": 48, "NORMAL": 49, "TEXCOORD_0": 50}, "indices": 51, "material": 1}]}, {"primitives": [{"mode": 4, "attributes": {"POSITION": 52, "NORMAL": 53, "TEXCOORD_0": 54}, "indices": 55, "material": 1}]}, {"primitives": [{"mode": 4, "attributes": {"POSITION": 56, "NORMAL": 57, "TEXCOORD_0": 58}, "indices": 59, "material": 1}]}, {"primitives": [{"mode": 4, "attributes": {"POSITION": 60, "NORMAL": 61, "TEXCOORD_0": 62}, "indices": 63, "material": 1}]}, {"primitives": [{"mode": 4, "attributes": {"POSITION": 64, "NORMAL": 65, "TEXCOORD_0": 66}, "indices": 67, "material": 1}]}, {"primitives": [{"mode": 4, "attributes": {"POSITION": 68, "NORMAL": 69, "TEXCOORD_0": 70}, "indices": 71, "material": 1}]}, {"primitives": [{"mode": 4, "attributes": {"POSITION": 72, "NORMAL": 73, "TEXCOORD_0": 74}, "indices": 75, "material": 1}]}, {"primitives": [{"mode": 4, "attributes": {"POSITION": 76, "NORMAL": 77, "TEXCOORD_0": 78}, "indices": 79, "material": 2}]}]}