{"asset": {"version": "2.0", "generator": "THREE.GLTFExporter", "extras": {"statueName": "Shepherdess with Lamb", "statueDescription": "Gentle care, pastoral tenderness. She cradles the lamb in her arms.", "statueId": "shepherdess_lamb"}}, "scenes": [{"nodes": [9]}], "scene": 0, "nodes": [{"matrix": [1, 0, 0, 0, 0, 1, 0, 0, 0, 0, 1, 0, 0, 0.5, 0, 1], "mesh": 0}, {"matrix": [1, 0, 0, 0, 0, 1, 0, 0, 0, 0, 1, 0, 0, 1.05, 0, 1], "mesh": 1}, {"matrix": [1, 0, 0, 0, 0, 1, 0, 0, 0, 0, 1, 0, 0, 1.38, 0, 1], "mesh": 2}, {"matrix": [1, 0, 0, 0, 0, 0.75, 0, 0, 0, 0, 0.95, 0, 0, 1.44, -0.02, 1], "mesh": 3}, {"matrix": [0.8775825618903728, 0.4207354924039482, 0.22984884706593015, 0, -0.47942553860420295, 0.7701511529340699, 0.4207354924039482, 0, 0, -0.47942553860420295, 0.8775825618903728, 0, -0.2, 0.95, 0.12, 1], "mesh": 4}, {"matrix": [0.955336489125606, -0.226026321249623, -0.19037934406737267, 0, 0.29552020666133955, 0.7306816499355124, 0.6154446635582734, 0, -2.7755575615628914e-17, -0.6442176872376909, 0.7648421872844884, 0, 0.15, 0.9, 0.15, 1], "mesh": 5}, {"matrix": [1.2, 0, 0, 0, 0, 0.9, 0, 0, 0, 0, 0.8, 0, 0, 0.85, 0.2, 1], "mesh": 6}, {"matrix": [1, 0, 0, 0, 0, 1, 0, 0, 0, 0, 1, 0, 0.1, 0.9, 0.25, 1], "mesh": 7}, {"matrix": [1.5, 0, 0, 0, 0, 0.5, 0, 0, 0, 0, 1, 0, 0.12, 0.94, 0.28, 1], "mesh": 8}, {"children": [0, 1, 2, 3, 4, 5, 6, 7, 8]}], "bufferViews": [{"buffer": 0, "byteOffset": 0, "byteLength": 612, "target": 34962, "byteStride": 12}, {"buffer": 0, "byteOffset": 612, "byteLength": 612, "target": 34962, "byteStride": 12}, {"buffer": 0, "byteOffset": 1224, "byteLength": 408, "target": 34962, "byteStride": 8}, {"buffer": 0, "byteOffset": 1632, "byteLength": 216, "target": 34963}, {"buffer": 0, "byteOffset": 1848, "byteLength": 912, "target": 34962, "byteStride": 12}, {"buffer": 0, "byteOffset": 2760, "byteLength": 912, "target": 34962, "byteStride": 12}, {"buffer": 0, "byteOffset": 3672, "byteLength": 608, "target": 34962, "byteStride": 8}, {"buffer": 0, "byteOffset": 4280, "byteLength": 288, "target": 34963}, {"buffer": 0, "byteOffset": 4568, "byteLength": 2028, "target": 34962, "byteStride": 12}, {"buffer": 0, "byteOffset": 6596, "byteLength": 2028, "target": 34962, "byteStride": 12}, {"buffer": 0, "byteOffset": 8624, "byteLength": 1352, "target": 34962, "byteStride": 8}, {"buffer": 0, "byteOffset": 9976, "byteLength": 1584, "target": 34963}, {"buffer": 0, "byteOffset": 11560, "byteLength": 1452, "target": 34962, "byteStride": 12}, {"buffer": 0, "byteOffset": 13012, "byteLength": 1452, "target": 34962, "byteStride": 12}, {"buffer": 0, "byteOffset": 14464, "byteLength": 968, "target": 34962, "byteStride": 8}, {"buffer": 0, "byteOffset": 15432, "byteLength": 1080, "target": 34963}, {"buffer": 0, "byteOffset": 16512, "byteLength": 768, "target": 34962, "byteStride": 12}, {"buffer": 0, "byteOffset": 17280, "byteLength": 768, "target": 34962, "byteStride": 12}, {"buffer": 0, "byteOffset": 18048, "byteLength": 512, "target": 34962, "byteStride": 8}, {"buffer": 0, "byteOffset": 18560, "byteLength": 240, "target": 34963}, {"buffer": 0, "byteOffset": 18800, "byteLength": 768, "target": 34962, "byteStride": 12}, {"buffer": 0, "byteOffset": 19568, "byteLength": 768, "target": 34962, "byteStride": 12}, {"buffer": 0, "byteOffset": 20336, "byteLength": 512, "target": 34962, "byteStride": 8}, {"buffer": 0, "byteOffset": 20848, "byteLength": 240, "target": 34963}, {"buffer": 0, "byteOffset": 21088, "byteLength": 1452, "target": 34962, "byteStride": 12}, {"buffer": 0, "byteOffset": 22540, "byteLength": 1452, "target": 34962, "byteStride": 12}, {"buffer": 0, "byteOffset": 23992, "byteLength": 968, "target": 34962, "byteStride": 8}, {"buffer": 0, "byteOffset": 24960, "byteLength": 1080, "target": 34963}, {"buffer": 0, "byteOffset": 26040, "byteLength": 1452, "target": 34962, "byteStride": 12}, {"buffer": 0, "byteOffset": 27492, "byteLength": 1452, "target": 34962, "byteStride": 12}, {"buffer": 0, "byteOffset": 28944, "byteLength": 968, "target": 34962, "byteStride": 8}, {"buffer": 0, "byteOffset": 29912, "byteLength": 1080, "target": 34963}, {"buffer": 0, "byteOffset": 30992, "byteLength": 588, "target": 34962, "byteStride": 12}, {"buffer": 0, "byteOffset": 31580, "byteLength": 588, "target": 34962, "byteStride": 12}, {"buffer": 0, "byteOffset": 32168, "byteLength": 392, "target": 34962, "byteStride": 8}, {"buffer": 0, "byteOffset": 32560, "byteLength": 360, "target": 34963}], "buffers": [{"byteLength": 32920, "uri": "data:application/octet-stream;base64,"}], "accessors": [{"bufferView": 0, "componentType": 5126, "count": 51, "max": [0.30000001192092896, 0.5, 0.30000001192092896], "min": [-0.30000001192092896, -0.5, -0.30000001192092896], "type": "VEC3"}, {"bufferView": 1, "componentType": 5126, "count": 51, "max": [0.9578262567520142, 0.2873478829860687, 0.9578262567520142], "min": [-0.9578262567520142, -1, -0.9578262567520142], "type": "VEC3"}, {"bufferView": 2, "componentType": 5126, "count": 51, "max": [1, 1], "min": [0, 0], "type": "VEC2"}, {"bufferView": 3, "componentType": 5123, "count": 108, "max": [50], "min": [0], "type": "SCALAR"}, {"bufferView": 4, "componentType": 5126, "count": 76, "max": [0.1899999976158142, 0.1899999976158142, 0.1899999976158142], "min": [-0.1899999976158142, -0.1899999976158142, -0.1899999976158142], "type": "VEC3"}, {"bufferView": 5, "componentType": 5126, "count": 76, "max": [0.9914543032646179, 1, 0.9914543032646179], "min": [-0.9914543032646179, -1, -0.9914543032646179], "type": "VEC3"}, {"bufferView": 6, "componentType": 5126, "count": 76, "max": [1, 1], "min": [0, 0], "type": "VEC2"}, {"bufferView": 7, "componentType": 5123, "count": 144, "max": [75], "min": [0], "type": "SCALAR"}, {"bufferView": 8, "componentType": 5126, "count": 169, "max": [0.10999999940395355, 0.10999999940395355, 0.10999999940395355], "min": [-0.10999999940395355, -0.10999999940395355, -0.10999999940395355], "type": "VEC3"}, {"bufferView": 9, "componentType": 5126, "count": 169, "max": [1, 1, 1], "min": [-1, -1, -1], "type": "VEC3"}, {"bufferView": 10, "componentType": 5126, "count": 169, "max": [1.0416666269302368, 1], "min": [-0.0416666679084301, 0], "type": "VEC2"}, {"bufferView": 11, "componentType": 5123, "count": 792, "max": [168], "min": [0], "type": "SCALAR"}, {"bufferView": 12, "componentType": 5126, "count": 121, "max": [0.11999999731779099, 0.11999999731779099, 0.1141267791390419], "min": [-0.11999999731779099, -0.11999999731779099, -0.1141267791390419], "type": "VEC3"}, {"bufferView": 13, "componentType": 5126, "count": 121, "max": [1, 1, 0.9510565400123596], "min": [-1, -1, -0.9510565400123596], "type": "VEC3"}, {"bufferView": 14, "componentType": 5126, "count": 121, "max": [1.0499999523162842, 1], "min": [-0.05000000074505806, 0], "type": "VEC2"}, {"bufferView": 15, "componentType": 5123, "count": 540, "max": [120], "min": [0], "type": "SCALAR"}, {"bufferView": 16, "componentType": 5126, "count": 64, "max": [0.04755282402038574, 0.17499999701976776, 0.05000000074505806], "min": [-0.04755282402038574, -0.17499999701976776, -0.05000000074505806], "type": "VEC3"}, {"bufferView": 17, "componentType": 5126, "count": 64, "max": [0.9506685733795166, 1, 0.9995920658111572], "min": [-0.9506685733795166, -1, -0.9995920658111572], "type": "VEC3"}, {"bufferView": 18, "componentType": 5126, "count": 64, "max": [1, 1], "min": [0, 0], "type": "VEC2"}, {"bufferView": 19, "componentType": 5123, "count": 120, "max": [63], "min": [0], "type": "SCALAR"}, {"bufferView": 20, "componentType": 5126, "count": 64, "max": [0.04755282402038574, 0.17499999701976776, 0.05000000074505806], "min": [-0.04755282402038574, -0.17499999701976776, -0.05000000074505806], "type": "VEC3"}, {"bufferView": 21, "componentType": 5126, "count": 64, "max": [0.9506685733795166, 1, 0.9995920658111572], "min": [-0.9506685733795166, -1, -0.9995920658111572], "type": "VEC3"}, {"bufferView": 22, "componentType": 5126, "count": 64, "max": [1, 1], "min": [0, 0], "type": "VEC2"}, {"bufferView": 23, "componentType": 5123, "count": 120, "max": [63], "min": [0], "type": "SCALAR"}, {"bufferView": 24, "componentType": 5126, "count": 121, "max": [0.11999999731779099, 0.11999999731779099, 0.1141267791390419], "min": [-0.11999999731779099, -0.11999999731779099, -0.1141267791390419], "type": "VEC3"}, {"bufferView": 25, "componentType": 5126, "count": 121, "max": [1, 1, 0.9510565400123596], "min": [-1, -1, -0.9510565400123596], "type": "VEC3"}, {"bufferView": 26, "componentType": 5126, "count": 121, "max": [1.0499999523162842, 1], "min": [-0.05000000074505806, 0], "type": "VEC2"}, {"bufferView": 27, "componentType": 5123, "count": 540, "max": [120], "min": [0], "type": "SCALAR"}, {"bufferView": 28, "componentType": 5126, "count": 121, "max": [0.05999999865889549, 0.05999999865889549, 0.05706338956952095], "min": [-0.05999999865889549, -0.05999999865889549, -0.05706338956952095], "type": "VEC3"}, {"bufferView": 29, "componentType": 5126, "count": 121, "max": [1, 1, 0.9510565400123596], "min": [-1, -1, -0.9510565400123596], "type": "VEC3"}, {"bufferView": 30, "componentType": 5126, "count": 121, "max": [1.0499999523162842, 1], "min": [-0.05000000074505806, 0], "type": "VEC2"}, {"bufferView": 31, "componentType": 5123, "count": 540, "max": [120], "min": [0], "type": "SCALAR"}, {"bufferView": 32, "componentType": 5126, "count": 49, "max": [0.019999999552965164, 0.019999999552965164, 0.017320508137345314], "min": [-0.019999999552965164, -0.019999999552965164, -0.017320508137345314], "type": "VEC3"}, {"bufferView": 33, "componentType": 5126, "count": 49, "max": [1, 1, 0.8660253882408142], "min": [-1, -1, -0.8660253882408142], "type": "VEC3"}, {"bufferView": 34, "componentType": 5126, "count": 49, "max": [1.0833333730697632, 1], "min": [-0.0833333358168602, 0], "type": "VEC2"}, {"bufferView": 35, "componentType": 5123, "count": 180, "max": [48], "min": [0], "type": "SCALAR"}], "materials": [{"pbrMetallicRoughness": {"baseColorFactor": [0.8156862745098039, 0.8, 0.7686274509803922, 1], "metallicFactor": 0, "roughnessFactor": 0.75}}, {"pbrMetallicRoughness": {"baseColorFactor": [0.8470588235294118, 0.8313725490196079, 0.8, 1], "metallicFactor": 0, "roughnessFactor": 0.7}}], "meshes": [{"primitives": [{"mode": 4, "attributes": {"POSITION": 0, "NORMAL": 1, "TEXCOORD_0": 2}, "indices": 3, "material": 0}]}, {"primitives": [{"mode": 4, "attributes": {"POSITION": 4, "NORMAL": 5, "TEXCOORD_0": 6}, "indices": 7, "material": 0}]}, {"primitives": [{"mode": 4, "attributes": {"POSITION": 8, "NORMAL": 9, "TEXCOORD_0": 10}, "indices": 11, "material": 0}]}, {"primitives": [{"mode": 4, "attributes": {"POSITION": 12, "NORMAL": 13, "TEXCOORD_0": 14}, "indices": 15, "material": 0}]}, {"primitives": [{"mode": 4, "attributes": {"POSITION": 16, "NORMAL": 17, "TEXCOORD_0": 18}, "indices": 19, "material": 0}]}, {"primitives": [{"mode": 4, "attributes": {"POSITION": 20, "NORMAL": 21, "TEXCOORD_0": 22}, "indices": 23, "material": 0}]}, {"primitives": [{"mode": 4, "attributes": {"POSITION": 24, "NORMAL": 25, "TEXCOORD_0": 26}, "indices": 27, "material": 1}]}, {"primitives": [{"mode": 4, "attributes": {"POSITION": 28, "NORMAL": 29, "TEXCOORD_0": 30}, "indices": 31, "material": 1}]}, {"primitives": [{"mode": 4, "attributes": {"POSITION": 32, "NORMAL": 33, "TEXCOORD_0": 34}, "indices": 35, "material": 1}]}]}