{"asset": {"version": "2.0", "generator": "THREE.GLTFExporter", "extras": {"statueName": "The Ship on Waves", "statueDescription": "The crossing of space, time, or distance. Stylized carved waves carry the vessel eternally onward.", "statueId": "ship_waves"}}, "scenes": [{"nodes": [11]}], "scene": 0, "nodes": [{"matrix": [1, 0, 0, 0, 0, 2.220446049250313e-16, -1, 0, 0, 1, 2.220446049250313e-16, 0, -0.15, 0.1, 0, 1], "mesh": 0}, {"matrix": [0.9950041652780257, 1.3877787807814457e-17, -0.09983341664682815, 0, -0.09983341664682815, 2.220446049250313e-16, -0.9950041652780257, 0, 0, 1, 2.220446049250313e-16, 0, -0.06999999999999999, 0.13, 0, 1], "mesh": 1}, {"matrix": [0.9800665778412416, 4.163336342344337e-17, -0.19866933079506124, 0, -0.19866933079506122, 1.1102230246251565e-16, -0.9800665778412417, 0, 0, 1, 1.1102230246251565e-16, 0, 0.010000000000000009, 0.16, 0, 1], "mesh": 2}, {"matrix": [0.955336489125606, 2.7755575615628914e-17, -0.2955202066613396, 0, -0.2955202066613396, 3.3306690738754696e-16, -0.9553364891256058, 0, 2.7755575615628914e-17, 0.9999999999999998, 3.3306690738754696e-16, 0, 0.09, 0.19, 0, 1], "mesh": 3}, {"matrix": [0.9210609940028851, 5.551115123125783e-17, -0.3894183423086505, 0, -0.3894183423086505, 1.1102230246251565e-16, -0.9210609940028852, 0, 0, 1.0000000000000002, 1.1102230246251565e-16, 0, 0.17, 0.22, 0, 1], "mesh": 4}, {"matrix": [1.3322676295501878e-16, 0.6, 0, 0, -1, 2.220446049250313e-16, 0, 0, 0, 0, 0.8, 0, 0, 0.4, 0, 1], "mesh": 5}, {"matrix": [1, 0, 0, 0, 0, 1, 0, 0, 0, 0, 1, 0, 0, 0.48, 0, 1], "mesh": 6}, {"matrix": [1, 0, 0, 0, 0, 1, 0, 0, 0, 0, 1, 0, 0, 0.8, 0, 1], "mesh": 7}, {"matrix": [0.9950041652780258, 0, -0.09983341664682815, 0, 0, 1, 0, 0, 0.09983341664682815, 0, 0.9950041652780258, 0, 0, 0.85, 0.08, 1], "mesh": 8}, {"matrix": [2.220446049250313e-16, -1, 0, 0, 1, 2.220446049250313e-16, 0, 0, 0, 0, 1, 0, 0.35, 0.4, 0, 1], "mesh": 9}, {"matrix": [1, 0, 0, 0, 0, 1, 0, 0, 0, 0, 1, 0, -0.28, 0.45, 0, 1], "mesh": 10}, {"children": [0, 1, 2, 3, 4, 5, 6, 7, 8, 9, 10]}], "bufferViews": [{"buffer": 0, "byteOffset": 0, "byteLength": 1836, "target": 34962, "byteStride": 12}, {"buffer": 0, "byteOffset": 1836, "byteLength": 1836, "target": 34962, "byteStride": 12}, {"buffer": 0, "byteOffset": 3672, "byteLength": 1224, "target": 34962, "byteStride": 8}, {"buffer": 0, "byteOffset": 4896, "byteLength": 1536, "target": 34963}, {"buffer": 0, "byteOffset": 6432, "byteLength": 1836, "target": 34962, "byteStride": 12}, {"buffer": 0, "byteOffset": 8268, "byteLength": 1836, "target": 34962, "byteStride": 12}, {"buffer": 0, "byteOffset": 10104, "byteLength": 1224, "target": 34962, "byteStride": 8}, {"buffer": 0, "byteOffset": 11328, "byteLength": 1536, "target": 34963}, {"buffer": 0, "byteOffset": 12864, "byteLength": 1836, "target": 34962, "byteStride": 12}, {"buffer": 0, "byteOffset": 14700, "byteLength": 1836, "target": 34962, "byteStride": 12}, {"buffer": 0, "byteOffset": 16536, "byteLength": 1224, "target": 34962, "byteStride": 8}, {"buffer": 0, "byteOffset": 17760, "byteLength": 1536, "target": 34963}, {"buffer": 0, "byteOffset": 19296, "byteLength": 1836, "target": 34962, "byteStride": 12}, {"buffer": 0, "byteOffset": 21132, "byteLength": 1836, "target": 34962, "byteStride": 12}, {"buffer": 0, "byteOffset": 22968, "byteLength": 1224, "target": 34962, "byteStride": 8}, {"buffer": 0, "byteOffset": 24192, "byteLength": 1536, "target": 34963}, {"buffer": 0, "byteOffset": 25728, "byteLength": 1836, "target": 34962, "byteStride": 12}, {"buffer": 0, "byteOffset": 27564, "byteLength": 1836, "target": 34962, "byteStride": 12}, {"buffer": 0, "byteOffset": 29400, "byteLength": 1224, "target": 34962, "byteStride": 8}, {"buffer": 0, "byteOffset": 30624, "byteLength": 1536, "target": 34963}, {"buffer": 0, "byteOffset": 32160, "byteLength": 912, "target": 34962, "byteStride": 12}, {"buffer": 0, "byteOffset": 33072, "byteLength": 912, "target": 34962, "byteStride": 12}, {"buffer": 0, "byteOffset": 33984, "byteLength": 608, "target": 34962, "byteStride": 8}, {"buffer": 0, "byteOffset": 34592, "byteLength": 288, "target": 34963}, {"buffer": 0, "byteOffset": 34880, "byteLength": 288, "target": 34962, "byteStride": 12}, {"buffer": 0, "byteOffset": 35168, "byteLength": 288, "target": 34962, "byteStride": 12}, {"buffer": 0, "byteOffset": 35456, "byteLength": 192, "target": 34962, "byteStride": 8}, {"buffer": 0, "byteOffset": 35648, "byteLength": 72, "target": 34963}, {"buffer": 0, "byteOffset": 35720, "byteLength": 624, "target": 34962, "byteStride": 12}, {"buffer": 0, "byteOffset": 36344, "byteLength": 624, "target": 34962, "byteStride": 12}, {"buffer": 0, "byteOffset": 36968, "byteLength": 416, "target": 34962, "byteStride": 8}, {"buffer": 0, "byteOffset": 37384, "byteLength": 192, "target": 34963}, {"buffer": 0, "byteOffset": 37576, "byteLength": 288, "target": 34962, "byteStride": 12}, {"buffer": 0, "byteOffset": 37864, "byteLength": 288, "target": 34962, "byteStride": 12}, {"buffer": 0, "byteOffset": 38152, "byteLength": 192, "target": 34962, "byteStride": 8}, {"buffer": 0, "byteOffset": 38344, "byteLength": 72, "target": 34963}, {"buffer": 0, "byteOffset": 38416, "byteLength": 420, "target": 34962, "byteStride": 12}, {"buffer": 0, "byteOffset": 38836, "byteLength": 420, "target": 34962, "byteStride": 12}, {"buffer": 0, "byteOffset": 39256, "byteLength": 280, "target": 34962, "byteStride": 8}, {"buffer": 0, "byteOffset": 39536, "byteLength": 144, "target": 34963}, {"buffer": 0, "byteOffset": 39680, "byteLength": 288, "target": 34962, "byteStride": 12}, {"buffer": 0, "byteOffset": 39968, "byteLength": 288, "target": 34962, "byteStride": 12}, {"buffer": 0, "byteOffset": 40256, "byteLength": 192, "target": 34962, "byteStride": 8}, {"buffer": 0, "byteOffset": 40448, "byteLength": 72, "target": 34963}], "buffers": [{"byteLength": 40520, "uri": "data:application/octet-stream;base64,"}], "accessors": [{"bufferView": 0, "componentType": 5126, "count": 153, "max": [0.46000000834465027, 0.46000000834465027, 0.05999999865889549], "min": [-0.46000000834465027, 0, -0.05999999865889549], "type": "VEC3"}, {"bufferView": 1, "componentType": 5126, "count": 153, "max": [1, 1, 1], "min": [-1, -1, -1], "type": "VEC3"}, {"bufferView": 2, "componentType": 5126, "count": 153, "max": [1, 1], "min": [0, 0], "type": "VEC2"}, {"bufferView": 3, "componentType": 5123, "count": 768, "max": [152], "min": [0], "type": "SCALAR"}, {"bufferView": 4, "componentType": 5126, "count": 153, "max": [0.4099999964237213, 0.4099999964237213, 0.05999999865889549], "min": [-0.4099999964237213, 0, -0.05999999865889549], "type": "VEC3"}, {"bufferView": 5, "componentType": 5126, "count": 153, "max": [1, 1, 1], "min": [-1, -1, -1], "type": "VEC3"}, {"bufferView": 6, "componentType": 5126, "count": 153, "max": [1, 1], "min": [0, 0], "type": "VEC2"}, {"bufferView": 7, "componentType": 5123, "count": 768, "max": [152], "min": [0], "type": "SCALAR"}, {"bufferView": 8, "componentType": 5126, "count": 153, "max": [0.36000001430511475, 0.36000001430511475, 0.05999999865889549], "min": [-0.36000001430511475, 0, -0.05999999865889549], "type": "VEC3"}, {"bufferView": 9, "componentType": 5126, "count": 153, "max": [1, 1, 1], "min": [-1, -1, -1], "type": "VEC3"}, {"bufferView": 10, "componentType": 5126, "count": 153, "max": [1, 1], "min": [0, 0], "type": "VEC2"}, {"bufferView": 11, "componentType": 5123, "count": 768, "max": [152], "min": [0], "type": "SCALAR"}, {"bufferView": 12, "componentType": 5126, "count": 153, "max": [0.3100000023841858, 0.3100000023841858, 0.05999999865889549], "min": [-0.3100000023841858, 0, -0.05999999865889549], "type": "VEC3"}, {"bufferView": 13, "componentType": 5126, "count": 153, "max": [1, 1, 1], "min": [-1, -1, -1], "type": "VEC3"}, {"bufferView": 14, "componentType": 5126, "count": 153, "max": [1, 1], "min": [0, 0], "type": "VEC2"}, {"bufferView": 15, "componentType": 5123, "count": 768, "max": [152], "min": [0], "type": "SCALAR"}, {"bufferView": 16, "componentType": 5126, "count": 153, "max": [0.25999999046325684, 0.25999999046325684, 0.05999999865889549], "min": [-0.25999999046325684, 0, -0.05999999865889549], "type": "VEC3"}, {"bufferView": 17, "componentType": 5126, "count": 153, "max": [1, 1, 1], "min": [-1, -1, -1], "type": "VEC3"}, {"bufferView": 18, "componentType": 5126, "count": 153, "max": [1, 1], "min": [0, 0], "type": "VEC2"}, {"bufferView": 19, "componentType": 5123, "count": 768, "max": [152], "min": [0], "type": "SCALAR"}, {"bufferView": 20, "componentType": 5126, "count": 76, "max": [0.15000000596046448, 0.30000001192092896, 0.15000000596046448], "min": [-0.15000000596046448, -0.30000001192092896, -0.15000000596046448], "type": "VEC3"}, {"bufferView": 21, "componentType": 5126, "count": 76, "max": [0.9932631254196167, 1, 0.9932631254196167], "min": [-0.9932631254196167, -1, -0.9932631254196167], "type": "VEC3"}, {"bufferView": 22, "componentType": 5126, "count": 76, "max": [1, 1], "min": [0, 0], "type": "VEC2"}, {"bufferView": 23, "componentType": 5123, "count": 144, "max": [75], "min": [0], "type": "SCALAR"}, {"bufferView": 24, "componentType": 5126, "count": 24, "max": [0.25, 0.014999999664723873, 0.10999999940395355], "min": [-0.25, -0.014999999664723873, -0.10999999940395355], "type": "VEC3"}, {"bufferView": 25, "componentType": 5126, "count": 24, "max": [1, 1, 1], "min": [-1, -1, -1], "type": "VEC3"}, {"bufferView": 26, "componentType": 5126, "count": 24, "max": [1, 1], "min": [0, 0], "type": "VEC2"}, {"bufferView": 27, "componentType": 5123, "count": 36, "max": [23], "min": [0], "type": "SCALAR"}, {"bufferView": 28, "componentType": 5126, "count": 52, "max": [0.02500000037252903, 0.3499999940395355, 0.02500000037252903], "min": [-0.02500000037252903, -0.3499999940395355, -0.02500000037252903], "type": "VEC3"}, {"bufferView": 29, "componentType": 5126, "count": 52, "max": [0.9999744892120361, 1, 0.9999744892120361], "min": [-0.9999744892120361, -1, -0.9999744892120361], "type": "VEC3"}, {"bufferView": 30, "componentType": 5126, "count": 52, "max": [1, 1], "min": [0, 0], "type": "VEC2"}, {"bufferView": 31, "componentType": 5123, "count": 96, "max": [51], "min": [0], "type": "SCALAR"}, {"bufferView": 32, "componentType": 5126, "count": 24, "max": [0.17499999701976776, 0.20000000298023224, 0.009999999776482582], "min": [-0.17499999701976776, -0.20000000298023224, -0.009999999776482582], "type": "VEC3"}, {"bufferView": 33, "componentType": 5126, "count": 24, "max": [1, 1, 1], "min": [-1, -1, -1], "type": "VEC3"}, {"bufferView": 34, "componentType": 5126, "count": 24, "max": [1, 1], "min": [0, 0], "type": "VEC2"}, {"bufferView": 35, "componentType": 5123, "count": 36, "max": [23], "min": [0], "type": "SCALAR"}, {"bufferView": 36, "componentType": 5126, "count": 35, "max": [0.07999999821186066, 0.10000000149011612, 0.07999999821186066], "min": [-0.07999999821186066, -0.10000000149011612, -0.07999999821186066], "type": "VEC3"}, {"bufferView": 37, "componentType": 5126, "count": 35, "max": [0.9284766912460327, 0.3713906705379486, 0.9284766912460327], "min": [-0.9284766912460327, -1, -0.9284766912460327], "type": "VEC3"}, {"bufferView": 38, "componentType": 5126, "count": 35, "max": [1, 1], "min": [0, 0], "type": "VEC2"}, {"bufferView": 39, "componentType": 5123, "count": 72, "max": [34], "min": [0], "type": "SCALAR"}, {"bufferView": 40, "componentType": 5126, "count": 24, "max": [0.03999999910593033, 0.10000000149011612, 0.07500000298023224], "min": [-0.03999999910593033, -0.10000000149011612, -0.07500000298023224], "type": "VEC3"}, {"bufferView": 41, "componentType": 5126, "count": 24, "max": [1, 1, 1], "min": [-1, -1, -1], "type": "VEC3"}, {"bufferView": 42, "componentType": 5126, "count": 24, "max": [1, 1], "min": [0, 0], "type": "VEC2"}, {"bufferView": 43, "componentType": 5123, "count": 36, "max": [23], "min": [0], "type": "SCALAR"}], "materials": [{"pbrMetallicRoughness": {"baseColorFactor": [0.7843137254901961, 0.7686274509803922, 0.7372549019607844, 1], "metallicFactor": 0, "roughnessFactor": 0.8}}, {"pbrMetallicRoughness": {"baseColorFactor": [0.8156862745098039, 0.8, 0.7686274509803922, 1], "metallicFactor": 0, "roughnessFactor": 0.75}}, {"pbrMetallicRoughness": {"baseColorFactor": [0.8470588235294118, 0.8313725490196079, 0.8, 1], "metallicFactor": 0, "roughnessFactor": 0.7}}], "meshes": [{"primitives": [{"mode": 4, "attributes": {"POSITION": 0, "NORMAL": 1, "TEXCOORD_0": 2}, "indices": 3, "material": 0}]}, {"primitives": [{"mode": 4, "attributes": {"POSITION": 4, "NORMAL": 5, "TEXCOORD_0": 6}, "indices": 7, "material": 0}]}, {"primitives": [{"mode": 4, "attributes": {"POSITION": 8, "NORMAL": 9, "TEXCOORD_0": 10}, "indices": 11, "material": 0}]}, {"primitives": [{"mode": 4, "attributes": {"POSITION": 12, "NORMAL": 13, "TEXCOORD_0": 14}, "indices": 15, "material": 0}]}, {"primitives": [{"mode": 4, "attributes": {"POSITION": 16, "NORMAL": 17, "TEXCOORD_0": 18}, "indices": 19, "material": 0}]}, {"primitives": [{"mode": 4, "attributes": {"POSITION": 20, "NORMAL": 21, "TEXCOORD_0": 22}, "indices": 23, "material": 1}]}, {"primitives": [{"mode": 4, "attributes": {"POSITION": 24, "NORMAL": 25, "TEXCOORD_0": 26}, "indices": 27, "material": 1}]}, {"primitives": [{"mode": 4, "attributes": {"POSITION": 28, "NORMAL": 29, "TEXCOORD_0": 30}, "indices": 31, "material": 1}]}, {"primitives": [{"mode": 4, "attributes": {"POSITION": 32, "NORMAL": 33, "TEXCOORD_0": 34}, "indices": 35, "material": 2}]}, {"primitives": [{"mode": 4, "attributes": {"POSITION": 36, "NORMAL": 37, "TEXCOORD_0": 38}, "indices": 39, "material": 1}]}, {"primitives": [{"mode": 4, "attributes": {"POSITION": 40, "NORMAL": 41, "TEXCOORD_0": 42}, "indices": 43, "material": 1}]}]}