{"asset": {"version": "2.0", "generator": "THREE.GLTFExporter", "extras": {"statueName": "Man and Boy Mapping Stars", "statueDescription": "Astronomical study, the passing of knowledge between generations. They hold a star chart between them.", "statueId": "star_mappers"}}, "scenes": [{"nodes": [16]}], "scene": 0, "nodes": [{"matrix": [1, 0, 0, 0, 0, 1, 0, 0, 0, 0, 1, 0, -0.15, 0.45, 0, 1], "mesh": 0}, {"matrix": [1, 0, 0, 0, 0, 1, 0, 0, 0, 0, 1, 0, -0.15, 0.98, 0, 1], "mesh": 1}, {"matrix": [1, 0, 0, 0, 0, 1, 0, 0, 0, 0, 1, 0, -0.15, 1.22, 0, 1], "mesh": 2}, {"matrix": [1, 0, 0, 0, 0, 1, 0, 0, 0, 0, 1, 0, 0.2, 0.25, 0, 1], "mesh": 3}, {"matrix": [1, 0, 0, 0, 0, 1, 0, 0, 0, 0, 1, 0, 0.2, 0.6, 0, 1], "mesh": 4}, {"matrix": [1, 0, 0, 0, 0, 0.955336489125606, -0.29552020666133955, 0, 0, 0.29552020666133955, 0.955336489125606, 0, 0.05, 0.85, 0.15, 1], "mesh": 5}, {"matrix": [1, 0, 0, 0, 0, 1, 0, 0, 0, 0, 1, 0, 0.1279270386609777, 0.7981705194653002, 0.16, 1], "mesh": 6}, {"matrix": [1, 0, 0, 0, 0, 1, 0, 0, 0, 0, 1, 0, 0.00820182562821388, 0.7986661783262807, 0.16, 1], "mesh": 7}, {"matrix": [1, 0, 0, 0, 0, 1, 0, 0, 0, 0, 1, 0, 0.07871077299037733, 0.8457255330501409, 0.16, 1], "mesh": 8}, {"matrix": [1, 0, 0, 0, 0, 1, 0, 0, 0, 0, 1, 0, -0.019608845270334643, 0.8151118920128659, 0.16, 1], "mesh": 9}, {"matrix": [1, 0, 0, 0, 0, 1, 0, 0, 0, 0, 1, 0, 0.1586677520155828, 0.8207416639749802, 0.16, 1], "mesh": 10}, {"matrix": [1, 0, 0, 0, 0, 1, 0, 0, 0, 0, 1, 0, 0.1445749189318138, 0.8054719384966965, 0.16, 1], "mesh": 11}, {"matrix": [1, 0, 0, 0, 0, 1, 0, 0, 0, 0, 1, 0, 0.10053264024927137, 0.8148229022708275, 0.16, 1], "mesh": 12}, {"matrix": [1, 0, 0, 0, 0, 1, 0, 0, 0, 0, 1, 0, 0.1291363685973287, 0.8119078296951557, 0.16, 1], "mesh": 13}, {"matrix": [0.8253356149096784, -0.4955203883541316, -0.2707040219262241, 0, 0.5646424733950351, 0.7243001433518017, 0.39568697170730355, 0, 0, -0.47942553860420295, 0.8775825618903728, 0, -0.02, 0.95, 0.1, 1], "mesh": 14}, {"matrix": [0.9210609940028851, 0.32140082700641764, 0.21988213598655093, 0, -0.3894183423086505, 0.7601844418546907, 0.5200701578014788, 0, 0, -0.5646424733950353, 0.8253356149096783, 0, 0.12, 0.58, 0.08, 1], "mesh": 15}, {"children": [0, 1, 2, 3, 4, 5, 6, 7, 8, 9, 10, 11, 12, 13, 14, 15]}], "bufferViews": [{"buffer": 0, "byteOffset": 0, "byteLength": 612, "target": 34962, "byteStride": 12}, {"buffer": 0, "byteOffset": 612, "byteLength": 612, "target": 34962, "byteStride": 12}, {"buffer": 0, "byteOffset": 1224, "byteLength": 408, "target": 34962, "byteStride": 8}, {"buffer": 0, "byteOffset": 1632, "byteLength": 216, "target": 34963}, {"buffer": 0, "byteOffset": 1848, "byteLength": 912, "target": 34962, "byteStride": 12}, {"buffer": 0, "byteOffset": 2760, "byteLength": 912, "target": 34962, "byteStride": 12}, {"buffer": 0, "byteOffset": 3672, "byteLength": 608, "target": 34962, "byteStride": 8}, {"buffer": 0, "byteOffset": 4280, "byteLength": 288, "target": 34963}, {"buffer": 0, "byteOffset": 4568, "byteLength": 2028, "target": 34962, "byteStride": 12}, {"buffer": 0, "byteOffset": 6596, "byteLength": 2028, "target": 34962, "byteStride": 12}, {"buffer": 0, "byteOffset": 8624, "byteLength": 1352, "target": 34962, "byteStride": 8}, {"buffer": 0, "byteOffset": 9976, "byteLength": 1584, "target": 34963}, {"buffer": 0, "byteOffset": 11560, "byteLength": 516, "target": 34962, "byteStride": 12}, {"buffer": 0, "byteOffset": 12076, "byteLength": 516, "target": 34962, "byteStride": 12}, {"buffer": 0, "byteOffset": 12592, "byteLength": 344, "target": 34962, "byteStride": 8}, {"buffer": 0, "byteOffset": 12936, "byteLength": 180, "target": 34963}, {"buffer": 0, "byteOffset": 13116, "byteLength": 1452, "target": 34962, "byteStride": 12}, {"buffer": 0, "byteOffset": 14568, "byteLength": 1452, "target": 34962, "byteStride": 12}, {"buffer": 0, "byteOffset": 16020, "byteLength": 968, "target": 34962, "byteStride": 8}, {"buffer": 0, "byteOffset": 16988, "byteLength": 1080, "target": 34963}, {"buffer": 0, "byteOffset": 18068, "byteLength": 288, "target": 34962, "byteStride": 12}, {"buffer": 0, "byteOffset": 18356, "byteLength": 288, "target": 34962, "byteStride": 12}, {"buffer": 0, "byteOffset": 18644, "byteLength": 192, "target": 34962, "byteStride": 8}, {"buffer": 0, "byteOffset": 18836, "byteLength": 72, "target": 34963}, {"buffer": 0, "byteOffset": 18908, "byteLength": 588, "target": 34962, "byteStride": 12}, {"buffer": 0, "byteOffset": 19496, "byteLength": 588, "target": 34962, "byteStride": 12}, {"buffer": 0, "byteOffset": 20084, "byteLength": 392, "target": 34962, "byteStride": 8}, {"buffer": 0, "byteOffset": 20476, "byteLength": 360, "target": 34963}, {"buffer": 0, "byteOffset": 20836, "byteLength": 588, "target": 34962, "byteStride": 12}, {"buffer": 0, "byteOffset": 21424, "byteLength": 588, "target": 34962, "byteStride": 12}, {"buffer": 0, "byteOffset": 22012, "byteLength": 392, "target": 34962, "byteStride": 8}, {"buffer": 0, "byteOffset": 22404, "byteLength": 360, "target": 34963}, {"buffer": 0, "byteOffset": 22764, "byteLength": 588, "target": 34962, "byteStride": 12}, {"buffer": 0, "byteOffset": 23352, "byteLength": 588, "target": 34962, "byteStride": 12}, {"buffer": 0, "byteOffset": 23940, "byteLength": 392, "target": 34962, "byteStride": 8}, {"buffer": 0, "byteOffset": 24332, "byteLength": 360, "target": 34963}, {"buffer": 0, "byteOffset": 24692, "byteLength": 588, "target": 34962, "byteStride": 12}, {"buffer": 0, "byteOffset": 25280, "byteLength": 588, "target": 34962, "byteStride": 12}, {"buffer": 0, "byteOffset": 25868, "byteLength": 392, "target": 34962, "byteStride": 8}, {"buffer": 0, "byteOffset": 26260, "byteLength": 360, "target": 34963}, {"buffer": 0, "byteOffset": 26620, "byteLength": 588, "target": 34962, "byteStride": 12}, {"buffer": 0, "byteOffset": 27208, "byteLength": 588, "target": 34962, "byteStride": 12}, {"buffer": 0, "byteOffset": 27796, "byteLength": 392, "target": 34962, "byteStride": 8}, {"buffer": 0, "byteOffset": 28188, "byteLength": 360, "target": 34963}, {"buffer": 0, "byteOffset": 28548, "byteLength": 588, "target": 34962, "byteStride": 12}, {"buffer": 0, "byteOffset": 29136, "byteLength": 588, "target": 34962, "byteStride": 12}, {"buffer": 0, "byteOffset": 29724, "byteLength": 392, "target": 34962, "byteStride": 8}, {"buffer": 0, "byteOffset": 30116, "byteLength": 360, "target": 34963}, {"buffer": 0, "byteOffset": 30476, "byteLength": 588, "target": 34962, "byteStride": 12}, {"buffer": 0, "byteOffset": 31064, "byteLength": 588, "target": 34962, "byteStride": 12}, {"buffer": 0, "byteOffset": 31652, "byteLength": 392, "target": 34962, "byteStride": 8}, {"buffer": 0, "byteOffset": 32044, "byteLength": 360, "target": 34963}, {"buffer": 0, "byteOffset": 32404, "byteLength": 588, "target": 34962, "byteStride": 12}, {"buffer": 0, "byteOffset": 32992, "byteLength": 588, "target": 34962, "byteStride": 12}, {"buffer": 0, "byteOffset": 33580, "byteLength": 392, "target": 34962, "byteStride": 8}, {"buffer": 0, "byteOffset": 33972, "byteLength": 360, "target": 34963}, {"buffer": 0, "byteOffset": 34332, "byteLength": 624, "target": 34962, "byteStride": 12}, {"buffer": 0, "byteOffset": 34956, "byteLength": 624, "target": 34962, "byteStride": 12}, {"buffer": 0, "byteOffset": 35580, "byteLength": 416, "target": 34962, "byteStride": 8}, {"buffer": 0, "byteOffset": 35996, "byteLength": 192, "target": 34963}, {"buffer": 0, "byteOffset": 36188, "byteLength": 624, "target": 34962, "byteStride": 12}, {"buffer": 0, "byteOffset": 36812, "byteLength": 624, "target": 34962, "byteStride": 12}, {"buffer": 0, "byteOffset": 37436, "byteLength": 416, "target": 34962, "byteStride": 8}, {"buffer": 0, "byteOffset": 37852, "byteLength": 192, "target": 34963}], "buffers": [{"byteLength": 38044, "uri": "data:application/octet-stream;base64,"}], "accessors": [{"bufferView": 0, "componentType": 5126, "count": 51, "max": [0.25, 0.44999998807907104, 0.25], "min": [-0.25, -0.44999998807907104, -0.25], "type": "VEC3"}, {"bufferView": 1, "componentType": 5126, "count": 51, "max": [0.9635179042816162, 0.26764386892318726, 0.9635179042816162], "min": [-0.9635179042816162, -1, -0.9635179042816162], "type": "VEC3"}, {"bufferView": 2, "componentType": 5126, "count": 51, "max": [1, 1], "min": [0, 0], "type": "VEC2"}, {"bufferView": 3, "componentType": 5123, "count": 108, "max": [50], "min": [0], "type": "SCALAR"}, {"bufferView": 4, "componentType": 5126, "count": 76, "max": [0.1599999964237213, 0.17499999701976776, 0.1599999964237213], "min": [-0.1599999964237213, -0.17499999701976776, -0.1599999964237213], "type": "VEC3"}, {"bufferView": 5, "componentType": 5126, "count": 76, "max": [0.993532657623291, 1, 0.993532657623291], "min": [-0.993532657623291, -1, -0.993532657623291], "type": "VEC3"}, {"bufferView": 6, "componentType": 5126, "count": 76, "max": [1, 1], "min": [0, 0], "type": "VEC2"}, {"bufferView": 7, "componentType": 5123, "count": 144, "max": [75], "min": [0], "type": "SCALAR"}, {"bufferView": 8, "componentType": 5126, "count": 169, "max": [0.10000000149011612, 0.10000000149011612, 0.10000000149011612], "min": [-0.10000000149011612, -0.10000000149011612, -0.10000000149011612], "type": "VEC3"}, {"bufferView": 9, "componentType": 5126, "count": 169, "max": [1, 1, 1], "min": [-1, -1, -1], "type": "VEC3"}, {"bufferView": 10, "componentType": 5126, "count": 169, "max": [1.0416666269302368, 1], "min": [-0.0416666679084301, 0], "type": "VEC2"}, {"bufferView": 11, "componentType": 5123, "count": 792, "max": [168], "min": [0], "type": "SCALAR"}, {"bufferView": 12, "componentType": 5126, "count": 43, "max": [0.14265847206115723, 0.25, 0.15000000596046448], "min": [-0.14265847206115723, -0.25, -0.15000000596046448], "type": "VEC3"}, {"bufferView": 13, "componentType": 5126, "count": 43, "max": [0.9109469056129456, 0.2873478829860687, 0.9578262567520142], "min": [-0.9109469056129456, -1, -0.9578262567520142], "type": "VEC3"}, {"bufferView": 14, "componentType": 5126, "count": 43, "max": [1, 1], "min": [0, 0], "type": "VEC2"}, {"bufferView": 15, "componentType": 5123, "count": 90, "max": [42], "min": [0], "type": "SCALAR"}, {"bufferView": 16, "componentType": 5126, "count": 121, "max": [0.07000000029802322, 0.07000000029802322, 0.06657395511865616], "min": [-0.07000000029802322, -0.07000000029802322, -0.06657395511865616], "type": "VEC3"}, {"bufferView": 17, "componentType": 5126, "count": 121, "max": [1, 1, 0.9510565400123596], "min": [-1, -1, -0.9510565400123596], "type": "VEC3"}, {"bufferView": 18, "componentType": 5126, "count": 121, "max": [1.0499999523162842, 1], "min": [-0.05000000074505806, 0], "type": "VEC2"}, {"bufferView": 19, "componentType": 5123, "count": 540, "max": [120], "min": [0], "type": "SCALAR"}, {"bufferView": 20, "componentType": 5126, "count": 24, "max": [0.17499999701976776, 0.125, 0.004999999888241291], "min": [-0.17499999701976776, -0.125, -0.004999999888241291], "type": "VEC3"}, {"bufferView": 21, "componentType": 5126, "count": 24, "max": [1, 1, 1], "min": [-1, -1, -1], "type": "VEC3"}, {"bufferView": 22, "componentType": 5126, "count": 24, "max": [1, 1], "min": [0, 0], "type": "VEC2"}, {"bufferView": 23, "componentType": 5123, "count": 36, "max": [23], "min": [0], "type": "SCALAR"}, {"bufferView": 24, "componentType": 5126, "count": 49, "max": [0.012000000104308128, 0.012000000104308128, 0.010392304509878159], "min": [-0.012000000104308128, -0.012000000104308128, -0.010392304509878159], "type": "VEC3"}, {"bufferView": 25, "componentType": 5126, "count": 49, "max": [1, 1, 0.8660253882408142], "min": [-1, -1, -0.8660253882408142], "type": "VEC3"}, {"bufferView": 26, "componentType": 5126, "count": 49, "max": [1.0833333730697632, 1], "min": [-0.0833333358168602, 0], "type": "VEC2"}, {"bufferView": 27, "componentType": 5123, "count": 180, "max": [48], "min": [0], "type": "SCALAR"}, {"bufferView": 28, "componentType": 5126, "count": 49, "max": [0.012000000104308128, 0.012000000104308128, 0.010392304509878159], "min": [-0.012000000104308128, -0.012000000104308128, -0.010392304509878159], "type": "VEC3"}, {"bufferView": 29, "componentType": 5126, "count": 49, "max": [1, 1, 0.8660253882408142], "min": [-1, -1, -0.8660253882408142], "type": "VEC3"}, {"bufferView": 30, "componentType": 5126, "count": 49, "max": [1.0833333730697632, 1], "min": [-0.0833333358168602, 0], "type": "VEC2"}, {"bufferView": 31, "componentType": 5123, "count": 180, "max": [48], "min": [0], "type": "SCALAR"}, {"bufferView": 32, "componentType": 5126, "count": 49, "max": [0.012000000104308128, 0.012000000104308128, 0.010392304509878159], "min": [-0.012000000104308128, -0.012000000104308128, -0.010392304509878159], "type": "VEC3"}, {"bufferView": 33, "componentType": 5126, "count": 49, "max": [1, 1, 0.8660253882408142], "min": [-1, -1, -0.8660253882408142], "type": "VEC3"}, {"bufferView": 34, "componentType": 5126, "count": 49, "max": [1.0833333730697632, 1], "min": [-0.0833333358168602, 0], "type": "VEC2"}, {"bufferView": 35, "componentType": 5123, "count": 180, "max": [48], "min": [0], "type": "SCALAR"}, {"bufferView": 36, "componentType": 5126, "count": 49, "max": [0.012000000104308128, 0.012000000104308128, 0.010392304509878159], "min": [-0.012000000104308128, -0.012000000104308128, -0.010392304509878159], "type": "VEC3"}, {"bufferView": 37, "componentType": 5126, "count": 49, "max": [1, 1, 0.8660253882408142], "min": [-1, -1, -0.8660253882408142], "type": "VEC3"}, {"bufferView": 38, "componentType": 5126, "count": 49, "max": [1.0833333730697632, 1], "min": [-0.0833333358168602, 0], "type": "VEC2"}, {"bufferView": 39, "componentType": 5123, "count": 180, "max": [48], "min": [0], "type": "SCALAR"}, {"bufferView": 40, "componentType": 5126, "count": 49, "max": [0.012000000104308128, 0.012000000104308128, 0.010392304509878159], "min": [-0.012000000104308128, -0.012000000104308128, -0.010392304509878159], "type": "VEC3"}, {"bufferView": 41, "componentType": 5126, "count": 49, "max": [1, 1, 0.8660253882408142], "min": [-1, -1, -0.8660253882408142], "type": "VEC3"}, {"bufferView": 42, "componentType": 5126, "count": 49, "max": [1.0833333730697632, 1], "min": [-0.0833333358168602, 0], "type": "VEC2"}, {"bufferView": 43, "componentType": 5123, "count": 180, "max": [48], "min": [0], "type": "SCALAR"}, {"bufferView": 44, "componentType": 5126, "count": 49, "max": [0.012000000104308128, 0.012000000104308128, 0.010392304509878159], "min": [-0.012000000104308128, -0.012000000104308128, -0.010392304509878159], "type": "VEC3"}, {"bufferView": 45, "componentType": 5126, "count": 49, "max": [1, 1, 0.8660253882408142], "min": [-1, -1, -0.8660253882408142], "type": "VEC3"}, {"bufferView": 46, "componentType": 5126, "count": 49, "max": [1.0833333730697632, 1], "min": [-0.0833333358168602, 0], "type": "VEC2"}, {"bufferView": 47, "componentType": 5123, "count": 180, "max": [48], "min": [0], "type": "SCALAR"}, {"bufferView": 48, "componentType": 5126, "count": 49, "max": [0.012000000104308128, 0.012000000104308128, 0.010392304509878159], "min": [-0.012000000104308128, -0.012000000104308128, -0.010392304509878159], "type": "VEC3"}, {"bufferView": 49, "componentType": 5126, "count": 49, "max": [1, 1, 0.8660253882408142], "min": [-1, -1, -0.8660253882408142], "type": "VEC3"}, {"bufferView": 50, "componentType": 5126, "count": 49, "max": [1.0833333730697632, 1], "min": [-0.0833333358168602, 0], "type": "VEC2"}, {"bufferView": 51, "componentType": 5123, "count": 180, "max": [48], "min": [0], "type": "SCALAR"}, {"bufferView": 52, "componentType": 5126, "count": 49, "max": [0.012000000104308128, 0.012000000104308128, 0.010392304509878159], "min": [-0.012000000104308128, -0.012000000104308128, -0.010392304509878159], "type": "VEC3"}, {"bufferView": 53, "componentType": 5126, "count": 49, "max": [1, 1, 0.8660253882408142], "min": [-1, -1, -0.8660253882408142], "type": "VEC3"}, {"bufferView": 54, "componentType": 5126, "count": 49, "max": [1.0833333730697632, 1], "min": [-0.0833333358168602, 0], "type": "VEC2"}, {"bufferView": 55, "componentType": 5123, "count": 180, "max": [48], "min": [0], "type": "SCALAR"}, {"bufferView": 56, "componentType": 5126, "count": 52, "max": [0.03999999910593033, 0.15000000596046448, 0.03999999910593033], "min": [-0.03999999910593033, -0.15000000596046448, -0.03999999910593033], "type": "VEC3"}, {"bufferView": 57, "componentType": 5126, "count": 52, "max": [0.9994449019432068, 1, 0.9994449019432068], "min": [-0.9994449019432068, -1, -0.9994449019432068], "type": "VEC3"}, {"bufferView": 58, "componentType": 5126, "count": 52, "max": [1, 1], "min": [0, 0], "type": "VEC2"}, {"bufferView": 59, "componentType": 5123, "count": 96, "max": [51], "min": [0], "type": "SCALAR"}, {"bufferView": 60, "componentType": 5126, "count": 52, "max": [0.029999999329447746, 0.10000000149011612, 0.029999999329447746], "min": [-0.029999999329447746, -0.10000000149011612, -0.029999999329447746], "type": "VEC3"}, {"bufferView": 61, "componentType": 5126, "count": 52, "max": [0.9987523555755615, 1, 0.9987523555755615], "min": [-0.9987523555755615, -1, -0.9987523555755615], "type": "VEC3"}, {"bufferView": 62, "componentType": 5126, "count": 52, "max": [1, 1], "min": [0, 0], "type": "VEC2"}, {"bufferView": 63, "componentType": 5123, "count": 96, "max": [51], "min": [0], "type": "SCALAR"}], "materials": [{"pbrMetallicRoughness": {"baseColorFactor": [0.8156862745098039, 0.8, 0.7686274509803922, 1], "metallicFactor": 0, "roughnessFactor": 0.75}}, {"pbrMetallicRoughness": {"baseColorFactor": [0.8470588235294118, 0.8313725490196079, 0.8, 1], "metallicFactor": 0, "roughnessFactor": 0.7}}, {"pbrMetallicRoughness": {"baseColorFactor": [0.7843137254901961, 0.7686274509803922, 0.7372549019607844, 1], "metallicFactor": 0, "roughnessFactor": 0.8}}], "meshes": [{"primitives": [{"mode": 4, "attributes": {"POSITION": 0, "NORMAL": 1, "TEXCOORD_0": 2}, "indices": 3, "material": 0}]}, {"primitives": [{"mode": 4, "attributes": {"POSITION": 4, "NORMAL": 5, "TEXCOORD_0": 6}, "indices": 7, "material": 0}]}, {"primitives": [{"mode": 4, "attributes": {"POSITION": 8, "NORMAL": 9, "TEXCOORD_0": 10}, "indices": 11, "material": 0}]}, {"primitives": [{"mode": 4, "attributes": {"POSITION": 12, "NORMAL": 13, "TEXCOORD_0": 14}, "indices": 15, "material": 0}]}, {"primitives": [{"mode": 4, "attributes": {"POSITION": 16, "NORMAL": 17, "TEXCOORD_0": 18}, "indices": 19, "material": 0}]}, {"primitives": [{"mode": 4, "attributes": {"POSITION": 20, "NORMAL": 21, "TEXCOORD_0": 22}, "indices": 23, "material": 1}]}, {"primitives": [{"mode": 4, "attributes": {"POSITION": 24, "NORMAL": 25, "TEXCOORD_0": 26}, "indices": 27, "material": 2}]}, {"primitives": [{"mode": 4, "attributes": {"POSITION": 28, "NORMAL": 29, "TEXCOORD_0": 30}, "indices": 31, "material": 2}]}, {"primitives": [{"mode": 4, "attributes": {"POSITION": 32, "NORMAL": 33, "TEXCOORD_0": 34}, "indices": 35, "material": 2}]}, {"primitives": [{"mode": 4, "attributes": {"POSITION": 36, "NORMAL": 37, "TEXCOORD_0": 38}, "indices": 39, "material": 2}]}, {"primitives": [{"mode": 4, "attributes": {"POSITION": 40, "NORMAL": 41, "TEXCOORD_0": 42}, "indices": 43, "material": 2}]}, {"primitives": [{"mode": 4, "attributes": {"POSITION": 44, "NORMAL": 45, "TEXCOORD_0": 46}, "indices": 47, "material": 2}]}, {"primitives": [{"mode": 4, "attributes": {"POSITION": 48, "NORMAL": 49, "TEXCOORD_0": 50}, "indices": 51, "material": 2}]}, {"primitives": [{"mode": 4, "attributes": {"POSITION": 52, "NORMAL": 53, "TEXCOORD_0": 54}, "indices": 55, "material": 2}]}, {"primitives": [{"mode": 4, "attributes": {"POSITION": 56, "NORMAL": 57, "TEXCOORD_0": 58}, "indices": 59, "material": 0}]}, {"primitives": [{"mode": 4, "attributes": {"POSITION": 60, "NORMAL": 61, "TEXCOORD_0": 62}, "indices": 63, "material": 0}]}]}