{"asset":{"version":"2.0","generator":"THREE.GLTFExporter"},"scenes":[{"nodes":[19]}],"scene":0,"nodes":[{"matrix":[1,0,0,0,0,1,0,0,0,0,1,0,0,0.75,-0.15,1],"mesh":0},{"matrix":[1,0,0,0,0,0.9950041652780258,-0.09983341664682815,0,0,0.09983341664682815,0.9950041652780258,0,0,0.5,0,1],"mesh":1},{"matrix":[1,0,0,0,0,1,0,0,0,0,1,0,-0.07,0.18,0.03,1],"mesh":2},{"matrix":[1,0,0,0,0,0.9210609940028851,-0.38941834230865047,0,0,0.38941834230865047,0.9210609940028851,0,0.07,0.25,-0.02,1],"mesh":3},{"matrix":[1,0,0,0,0,0.6967067093471654,0.7173560908995228,0,0,-0.7173560908995228,0.6967067093471654,0,0.07,0.15,-0.12,1],"mesh":4},{"matrix":[1,0,0,0,0,0.955336489125606,0.29552020666133955,0,0,-0.29552020666133955,0.955336489125606,0,0.07,0.2,-0.12,1],"mesh":5},{"matrix":[1,0,0,0,0,0.9950041652780258,-0.09983341664682815,0,0,0.09983341664682815,0.9950041652780258,0,0,0.9,-0.02,1],"mesh":6},{"matrix":[1,0,0,0,0,1,0,0,0,0,1,0,0,0.55,0.12,1],"mesh":7},{"matrix":[1,0,0,0,0,0.955336489125606,0.29552020666133955,0,0,-0.29552020666133955,0.955336489125606,0,0,0.85,0.1,1],"mesh":8},{"matrix":[1,0,0,0,0,0.9210609940028851,0.38941834230865047,0,0,-0.38941834230865047,0.9210609940028851,0,0,1.15,0.02,1],"mesh":9},{"matrix":[1,0,0,0,0,1,0,0,0,0,1,0,0,1.22,-0.06,1],"mesh":10},{"matrix":[0.8253356149096783,0.5394235581444113,0.16686326042747074,0,-0.5646424733950353,0.7884732286981353,0.2439033514830719,0,-1.3877787807814457e-17,-0.29552020666133955,0.955336489125606,0,-0.15,1,0.08,1],"mesh":11},{"matrix":[0.955336489125606,0.29552020666133955,0,0,-0.29552020666133955,0.955336489125606,0,0,0,0,1,0,-0.08,1.08,0.12,1],"mesh":12},{"matrix":[1.2,0,0,0,0,0.8,0,0,0,0,0.6,0,-0.05,1.12,0.15,1],"mesh":13},{"matrix":[1.2,0,0,0,0,0.8,0,0,0,0,0.6,0,-0.02,1.15,0.14,1],"mesh":14},{"matrix":[1.2,0,0,0,0,0.8,0,0,0,0,0.6,0,-0.07,1.18,0.12,1],"mesh":15},{"matrix":[0.955336489125606,-0.2896294776255156,-0.05871080169382653,0,0.2955202066613396,0.9362933635841992,0.18979606097868745,0,0,-0.19866933079506122,0.9800665778412416,0,0.15,0.75,0.1,1],"mesh":16},{"matrix":[1,0,0,0,0,0.6967067093471654,-0.7173560908995228,0,0,0.7173560908995228,0.6967067093471654,0,0.18,0.55,0.15,1],"mesh":17},{"matrix":[1,0,0,0,0,0.6967067093471654,-0.7173560908995228,0,0,0.7173560908995228,0.6967067093471654,0,0.18,0.55,0.156,1],"mesh":18},{"children":[0,1,2,3,4,5,6,7,8,9,10,11,12,13,14,15,16,17,18]}],"bufferViews":[{"buffer":0,"byteOffset":0,"byteLength":288,"target":34962,"byteStride":12},{"buffer":0,"byteOffset":288,"byteLength":288,"target":34962,"byteStride":12},{"buffer":0,"byteOffset":576,"byteLength":192,"target":34962,"byteStride":8},{"buffer":0,"byteOffset":768,"byteLength":72,"target":34963},{"buffer":0,"byteOffset":840,"byteLength":912,"target":34962,"byteStride":12},{"buffer":0,"byteOffset":1752,"byteLength":912,"target":34962,"byteStride":12},{"buffer":0,"byteOffset":2664,"byteLength":608,"target":34962,"byteStride":8},{"buffer":0,"byteOffset":3272,"byteLength":288,"target":34963},{"buffer":0,"byteOffset":3560,"byteLength":768,"target":34962,"byteStride":12},{"buffer":0,"byteOffset":4328,"byteLength":768,"target":34962,"byteStride":12},{"buffer":0,"byteOffset":5096,"byteLength":512,"target":34962,"byteStride":8},{"buffer":0,"byteOffset":5608,"byteLength":240,"target":34963},{"buffer":0,"byteOffset":5848,"byteLength":768,"target":34962,"byteStride":12},{"buffer":0,"byteOffset":6616,"byteLength":768,"target":34962,"byteStride":12},{"buffer":0,"byteOffset":7384,"byteLength":512,"target":34962,"byteStride":8},{"buffer":0,"byteOffset":7896,"byteLength":240,"target":34963},{"buffer":0,"byteOffset":8136,"byteLength":768,"target":34962,"byteStride":12},{"buffer":0,"byteOffset":8904,"byteLength":768,"target":34962,"byteStride":12},{"buffer":0,"byteOffset":9672,"byteLength":512,"target":34962,"byteStride":8},{"buffer":0,"byteOffset":10184,"byteLength":240,"target":34963},{"buffer":0,"byteOffset":10424,"byteLength":288,"target":34962,"byteStride":12},{"buffer":0,"byteOffset":10712,"byteLength":288,"target":34962,"byteStride":12},{"buffer":0,"byteOffset":11000,"byteLength":192,"target":34962,"byteStride":8},{"buffer":0,"byteOffset":11192,"byteLength":72,"target":34963},{"buffer":0,"byteOffset":11264,"byteLength":912,"target":34962,"byteStride":12},{"buffer":0,"byteOffset":12176,"byteLength":912,"target":34962,"byteStride":12},{"buffer":0,"byteOffset":13088,"byteLength":608,"target":34962,"byteStride":8},{"buffer":0,"byteOffset":13696,"byteLength":288,"target":34963},{"buffer":0,"byteOffset":13984,"byteLength":288,"target":34962,"byteStride":12},{"buffer":0,"byteOffset":14272,"byteLength":288,"target":34962,"byteStride":12},{"buffer":0,"byteOffset":14560,"byteLength":192,"target":34962,"byteStride":8},{"buffer":0,"byteOffset":14752,"byteLength":72,"target":34963},{"buffer":0,"byteOffset":14824,"byteLength":480,"target":34962,"byteStride":12},{"buffer":0,"byteOffset":15304,"byteLength":480,"target":34962,"byteStride":12},{"buffer":0,"byteOffset":15784,"byteLength":320,"target":34962,"byteStride":8},{"buffer":0,"byteOffset":16104,"byteLength":144,"target":34963},{"buffer":0,"byteOffset":16248,"byteLength":2028,"target":34962,"byteStride":12},{"buffer":0,"byteOffset":18276,"byteLength":2028,"target":34962,"byteStride":12},{"buffer":0,"byteOffset":20304,"byteLength":1352,"target":34962,"byteStride":8},{"buffer":0,"byteOffset":21656,"byteLength":1584,"target":34963},{"buffer":0,"byteOffset":23240,"byteLength":1452,"target":34962,"byteStride":12},{"buffer":0,"byteOffset":24692,"byteLength":1452,"target":34962,"byteStride":12},{"buffer":0,"byteOffset":26144,"byteLength":968,"target":34962,"byteStride":8},{"buffer":0,"byteOffset":27112,"byteLength":1080,"target":34963},{"buffer":0,"byteOffset":28192,"byteLength":768,"target":34962,"byteStride":12},{"buffer":0,"byteOffset":28960,"byteLength":768,"target":34962,"byteStride":12},{"buffer":0,"byteOffset":29728,"byteLength":512,"target":34962,"byteStride":8},{"buffer":0,"byteOffset":30240,"byteLength":240,"target":34963},{"buffer":0,"byteOffset":30480,"byteLength":624,"target":34962,"byteStride":12},{"buffer":0,"byteOffset":31104,"byteLength":624,"target":34962,"byteStride":12},{"buffer":0,"byteOffset":31728,"byteLength":416,"target":34962,"byteStride":8},{"buffer":0,"byteOffset":32144,"byteLength":192,"target":34963},{"buffer":0,"byteOffset":32336,"byteLength":972,"target":34962,"byteStride":12},{"buffer":0,"byteOffset":33308,"byteLength":972,"target":34962,"byteStride":12},{"buffer":0,"byteOffset":34280,"byteLength":648,"target":34962,"byteStride":8},{"buffer":0,"byteOffset":34928,"byteLength":672,"target":34963},{"buffer":0,"byteOffset":35600,"byteLength":972,"target":34962,"byteStride":12},{"buffer":0,"byteOffset":36572,"byteLength":972,"target":34962,"byteStride":12},{"buffer":0,"byteOffset":37544,"byteLength":648,"target":34962,"byteStride":8},{"buffer":0,"byteOffset":38192,"byteLength":672,"target":34963},{"buffer":0,"byteOffset":38864,"byteLength":972,"target":34962,"byteStride":12},{"buffer":0,"byteOffset":39836,"byteLength":972,"target":34962,"byteStride":12},{"buffer":0,"byteOffset":40808,"byteLength":648,"target":34962,"byteStride":8},{"buffer":0,"byteOffset":41456,"byteLength":672,"target":34963},{"buffer":0,"byteOffset":42128,"byteLength":768,"target":34962,"byteStride":12},{"buffer":0,"byteOffset":42896,"byteLength":768,"target":34962,"byteStride":12},{"buffer":0,"byteOffset":43664,"byteLength":512,"target":34962,"byteStride":8},{"buffer":0,"byteOffset":44176,"byteLength":240,"target":34963},{"buffer":0,"byteOffset":44416,"byteLength":288,"target":34962,"byteStride":12},{"buffer":0,"byteOffset":44704,"byteLength":288,"target":34962,"byteStride":12},{"buffer":0,"byteOffset":44992,"byteLength":192,"target":34962,"byteStride":8},{"buffer":0,"byteOffset":45184,"byteLength":72,"target":34963},{"buffer":0,"byteOffset":45256,"byteLength":288,"target":34962,"byteStride":12},{"buffer":0,"byteOffset":45544,"byteLength":288,"target":34962,"byteStride":12},{"buffer":0,"byteOffset":45832,"byteLength":192,"target":34962,"byteStride":8},{"buffer":0,"byteOffset":46024,"byteLength":72,"target":34963}],"buffers":[{"byteLength":46096,"uri":"data:application/octet-stream;base64,"}],"accessors":[{"bufferView":0,"componentType":5126,"count":24,"max":[0.4000000059604645,0.75,0.03999999910593033],"min":[-0.4000000059604645,-0.75,-0.03999999910593033],"type":"VEC3"},{"bufferView":1,"componentType":5126,"count":24,"max":[1,1,1],"min":[-1,-1,-1],"type":"VEC3"},{"bufferView":2,"componentType":5126,"count":24,"max":[1,1],"min":[0,0],"type":"VEC2"},{"bufferView":3,"componentType":5123,"count":36,"max":[23],"min":[0],"type":"SCALAR"},{"bufferView":4,"componentType":5126,"count":76,"max":[0.1599999964237213,0.32499998807907104,0.1599999964237213],"min":[-0.1599999964237213,-0.32499998807907104,-0.1599999964237213],"type":"VEC3"},{"bufferView":5,"componentType":5126,"count":76,"max":[0.9995269775390625,1,0.9995269775390625],"min":[-0.9995269775390625,-1,-0.9995269775390625],"type":"VEC3"},{"bufferView":6,"componentType":5126,"count":76,"max":[1,1],"min":[0,0],"type":"VEC2"},{"bufferView":7,"componentType":5123,"count":144,"max":[75],"min":[0],"type":"SCALAR"},{"bufferView":8,"componentType":5126,"count":64,"max":[0.05706338956952095,0.2750000059604645,0.05999999865889549],"min":[-0.05706338956952095,-0.2750000059604645,-0.05999999865889549],"type":"VEC3"},{"bufferView":9,"componentType":5126,"count":64,"max":[0.9508993625640869,1,0.9998347759246826],"min":[-0.9508993625640869,-1,-0.9998347759246826],"type":"VEC3"},{"bufferView":10,"componentType":5126,"count":64,"max":[1,1],"min":[0,0],"type":"VEC2"},{"bufferView":11,"componentType":5123,"count":120,"max":[63],"min":[0],"type":"SCALAR"},{"bufferView":12,"componentType":5126,"count":64,"max":[0.052308108657598495,0.14000000059604645,0.054999999701976776],"min":[-0.052308108657598495,-0.14000000059604645,-0.054999999701976776],"type":"VEC3"},{"bufferView":13,"componentType":5126,"count":64,"max":[0.950904905796051,1,0.9998406171798706],"min":[-0.950904905796051,-1,-0.9998406171798706],"type":"VEC3"},{"bufferView":14,"componentType":5126,"count":64,"max":[1,1],"min":[0,0],"type":"VEC2"},{"bufferView":15,"componentType":5123,"count":120,"max":[63],"min":[0],"type":"SCALAR"},{"bufferView":16,"componentType":5126,"count":64,"max":[0.04755282402038574,0.125,0.05000000074505806],"min":[-0.04755282402038574,-0.125,-0.05000000074505806],"type":"VEC3"},{"bufferView":17,"componentType":5126,"count":64,"max":[0.9508663415908813,1,0.9998000860214233],"min":[-0.9508663415908813,-1,-0.9998000860214233],"type":"VEC3"},{"bufferView":18,"componentType":5126,"count":64,"max":[1,1],"min":[0,0],"type":"VEC2"},{"bufferView":19,"componentType":5123,"count":120,"max":[63],"min":[0],"type":"SCALAR"},{"bufferView":20,"componentType":5126,"count":24,"max":[0.029999999329447746,0.05999999865889549,0.019999999552965164],"min":[-0.029999999329447746,-0.05999999865889549,-0.019999999552965164],"type":"VEC3"},{"bufferView":21,"componentType":5126,"count":24,"max":[1,1,1],"min":[-1,-1,-1],"type":"VEC3"},{"bufferView":22,"componentType":5126,"count":24,"max":[1,1],"min":[0,0],"type":"VEC2"},{"bufferView":23,"componentType":5123,"count":36,"max":[23],"min":[0],"type":"SCALAR"},{"bufferView":24,"componentType":5126,"count":76,"max":[0.15000000596046448,0.17499999701976776,0.15000000596046448],"min":[-0.15000000596046448,-0.17499999701976776,-0.15000000596046448],"type":"VEC3"},{"bufferView":25,"componentType":5126,"count":76,"max":[0.9983713626861572,1,0.9983713626861572],"min":[-0.9983713626861572,-1,-0.9983713626861572],"type":"VEC3"},{"bufferView":26,"componentType":5126,"count":76,"max":[1,1],"min":[0,0],"type":"VEC2"},{"bufferView":27,"componentType":5123,"count":144,"max":[75],"min":[0],"type":"SCALAR"},{"bufferView":28,"componentType":5126,"count":24,"max":[0.125,0.20000000298023224,0.009999999776482582],"min":[-0.125,-0.20000000298023224,-0.009999999776482582],"type":"VEC3"},{"bufferView":29,"componentType":5126,"count":24,"max":[1,1,1],"min":[-1,-1,-1],"type":"VEC3"},{"bufferView":30,"componentType":5126,"count":24,"max":[1,1],"min":[0,0],"type":"VEC2"},{"bufferView":31,"componentType":5123,"count":36,"max":[23],"min":[0],"type":"SCALAR"},{"bufferView":32,"componentType":5126,"count":40,"max":[0.008660254068672657,0.125,0.009999999776482582],"min":[-0.008660254068672657,-0.125,-0.009999999776482582],"type":"VEC3"},{"bufferView":33,"componentType":5126,"count":40,"max":[0.8660253882408142,1,1],"min":[-0.8660253882408142,-1,-1],"type":"VEC3"},{"bufferView":34,"componentType":5126,"count":40,"max":[1,1],"min":[0,0],"type":"VEC2"},{"bufferView":35,"componentType":5123,"count":72,"max":[39],"min":[0],"type":"SCALAR"},{"bufferView":36,"componentType":5126,"count":169,"max":[0.10000000149011612,0.10000000149011612,0.10000000149011612],"min":[-0.10000000149011612,-0.10000000149011612,-0.10000000149011612],"type":"VEC3"},{"bufferView":37,"componentType":5126,"count":169,"max":[1,1,1],"min":[-1,-1,-1],"type":"VEC3"},{"bufferView":38,"componentType":5126,"count":169,"max":[1.0416666269302368,1],"min":[-0.0416666679084301,0],"type":"VEC2"},{"bufferView":39,"componentType":5123,"count":792,"max":[168],"min":[0],"type":"SCALAR"},{"bufferView":40,"componentType":5126,"count":121,"max":[0.05000000074505806,0.05000000074505806,0.04755282402038574],"min":[-0.05000000074505806,-0.05000000074505806,-0.04755282402038574],"type":"VEC3"},{"bufferView":41,"componentType":5126,"count":121,"max":[1,1,0.9510565400123596],"min":[-1,-1,-0.9510565400123596],"type":"VEC3"},{"bufferView":42,"componentType":5126,"count":121,"max":[1.0499999523162842,1],"min":[-0.05000000074505806,0],"type":"VEC2"},{"bufferView":43,"componentType":5123,"count":540,"max":[120],"min":[0],"type":"SCALAR"},{"bufferView":44,"componentType":5126,"count":64,"max":[0.03804226219654083,0.15000000596046448,0.03999999910593033],"min":[-0.03804226219654083,-0.15000000596046448,-0.03999999910593033],"type":"VEC3"},{"bufferView":45,"componentType":5126,"count":64,"max":[0.9509244561195374,1,0.9998611211776733],"min":[-0.9509244561195374,-1,-0.9998611211776733],"type":"VEC3"},{"bufferView":46,"componentType":5126,"count":64,"max":[1,1],"min":[0,0],"type":"VEC2"},{"bufferView":47,"componentType":5123,"count":120,"max":[63],"min":[0],"type":"SCALAR"},{"bufferView":48,"componentType":5126,"count":52,"max":[0.014999999664723873,0.05000000074505806,0.014999999664723873],"min":[-0.014999999664723873,-0.05000000074505806,-0.014999999664723873],"type":"VEC3"},{"bufferView":49,"componentType":5126,"count":52,"max":[1,1,1],"min":[-1,-1,-1],"type":"VEC3"},{"bufferView":50,"componentType":5126,"count":52,"max":[1,1],"min":[0,0],"type":"VEC2"},{"bufferView":51,"componentType":5123,"count":96,"max":[51],"min":[0],"type":"SCALAR"},{"bufferView":52,"componentType":5126,"count":81,"max":[0.02500000037252903,0.02500000037252903,0.02500000037252903],"min":[-0.02500000037252903,-0.02500000037252903,-0.02500000037252903],"type":"VEC3"},{"bufferView":53,"componentType":5126,"count":81,"max":[1,1,1],"min":[-1,-1,-1],"type":"VEC3"},{"bufferView":54,"componentType":5126,"count":81,"max":[1.0625,1],"min":[-0.0625,0],"type":"VEC2"},{"bufferView":55,"componentType":5123,"count":336,"max":[80],"min":[0],"type":"SCALAR"},{"bufferView":56,"componentType":5126,"count":81,"max":[0.03500000014901161,0.03500000014901161,0.03500000014901161],"min":[-0.03500000014901161,-0.03500000014901161,-0.03500000014901161],"type":"VEC3"},{"bufferView":57,"componentType":5126,"count":81,"max":[1,1,1],"min":[-1,-1,-1],"type":"VEC3"},{"bufferView":58,"componentType":5126,"count":81,"max":[1.0625,1],"min":[-0.0625,0],"type":"VEC2"},{"bufferView":59,"componentType":5123,"count":336,"max":[80],"min":[0],"type":"SCALAR"},{"bufferView":60,"componentType":5126,"count":81,"max":[0.04500000178813934,0.04500000178813934,0.04500000178813934],"min":[-0.04500000178813934,-0.04500000178813934,-0.04500000178813934],"type":"VEC3"},{"bufferView":61,"componentType":5126,"count":81,"max":[1,1,1],"min":[-1,-1,-1],"type":"VEC3"},{"bufferView":62,"componentType":5126,"count":81,"max":[1.0625,1],"min":[-0.0625,0],"type":"VEC2"},{"bufferView":63,"componentType":5123,"count":336,"max":[80],"min":[0],"type":"SCALAR"},{"bufferView":64,"componentType":5126,"count":64,"max":[0.03804226219654083,0.17499999701976776,0.03999999910593033],"min":[-0.03804226219654083,-0.17499999701976776,-0.03999999910593033],"type":"VEC3"},{"bufferView":65,"componentType":5126,"count":64,"max":[0.9509595036506653,1,0.9998979568481445],"min":[-0.9509595036506653,-1,-0.9998979568481445],"type":"VEC3"},{"bufferView":66,"componentType":5126,"count":64,"max":[1,1],"min":[0,0],"type":"VEC2"},{"bufferView":67,"componentType":5123,"count":120,"max":[63],"min":[0],"type":"SCALAR"},{"bufferView":68,"componentType":5126,"count":24,"max":[0.02500000037252903,0.05000000074505806,0.004999999888241291],"min":[-0.02500000037252903,-0.05000000074505806,-0.004999999888241291],"type":"VEC3"},{"bufferView":69,"componentType":5126,"count":24,"max":[1,1,1],"min":[-1,-1,-1],"type":"VEC3"},{"bufferView":70,"componentType":5126,"count":24,"max":[1,1],"min":[0,0],"type":"VEC2"},{"bufferView":71,"componentType":5123,"count":36,"max":[23],"min":[0],"type":"SCALAR"},{"bufferView":72,"componentType":5126,"count":24,"max":[0.019999999552965164,0.03999999910593033,0.0024999999441206455],"min":[-0.019999999552965164,-0.03999999910593033,-0.0024999999441206455],"type":"VEC3"},{"bufferView":73,"componentType":5126,"count":24,"max":[1,1,1],"min":[-1,-1,-1],"type":"VEC3"},{"bufferView":74,"componentType":5126,"count":24,"max":[1,1],"min":[0,0],"type":"VEC2"},{"bufferView":75,"componentType":5123,"count":36,"max":[23],"min":[0],"type":"SCALAR"}],"materials":[{"pbrMetallicRoughness":{"baseColorFactor":[0.7843137254901961,0.7686274509803922,0.7372549019607844,1],"metallicFactor":0,"roughnessFactor":0.8}},{"pbrMetallicRoughness":{"baseColorFactor":[0.8156862745098039,0.8,0.7686274509803922,1],"metallicFactor":0,"roughnessFactor":0.75}},{"pbrMetallicRoughness":{"baseColorFactor":[0.8470588235294118,0.8313725490196079,0.8,1],"metallicFactor":0,"roughnessFactor":0.7}}],"meshes":[{"primitives":[{"mode":4,"attributes":{"POSITION":0,"NORMAL":1,"TEXCOORD_0":2},"indices":3,"material":0}]},{"primitives":[{"mode":4,"attributes":{"POSITION":4,"NORMAL":5,"TEXCOORD_0":6},"indices":7,"material":1}]},{"primitives":[{"mode":4,"attributes":{"POSITION":8,"NORMAL":9,"TEXCOORD_0":10},"indices":11,"material":1}]},{"primitives":[{"mode":4,"attributes":{"POSITION":12,"NORMAL":13,"TEXCOORD_0":14},"indices":15,"material":1}]},{"primitives":[{"mode":4,"attributes":{"POSITION":16,"NORMAL":17,"TEXCOORD_0":18},"indices":19,"material":1}]},{"primitives":[{"mode":4,"attributes":{"POSITION":20,"NORMAL":21,"TEXCOORD_0":22},"indices":23,"material":0}]},{"primitives":[{"mode":4,"attributes":{"POSITION":24,"NORMAL":25,"TEXCOORD_0":26},"indices":27,"material":1}]},{"primitives":[{"mode":4,"attributes":{"POSITION":28,"NORMAL":29,"TEXCOORD_0":30},"indices":31,"material":2}]},{"primitives":[{"mode":4,"attributes":{"POSITION":32,"NORMAL":33,"TEXCOORD_0":34},"indices":35,"material":2}]},{"primitives":[{"mode":4,"attributes":{"POSITION":36,"NORMAL":37,"TEXCOORD_0":38},"indices":39,"material":1}]},{"primitives":[{"mode":4,"attributes":{"POSITION":40,"NORMAL":41,"TEXCOORD_0":42},"indices":43,"material":0}]},{"primitives":[{"mode":4,"attributes":{"POSITION":44,"NORMAL":45,"TEXCOORD_0":46},"indices":47,"material":1}]},{"primitives":[{"mode":4,"attributes":{"POSITION":48,"NORMAL":49,"TEXCOORD_0":50},"indices":51,"material":0}]},{"primitives":[{"mode":4,"attributes":{"POSITION":52,"NORMAL":53,"TEXCOORD_0":54},"indices":55,"material":2}]},{"primitives":[{"mode":4,"attributes":{"POSITION":56,"NORMAL":57,"TEXCOORD_0":58},"indices":59,"material":2}]},{"primitives":[{"mode":4,"attributes":{"POSITION":60,"NORMAL":61,"TEXCOORD_0":62},"indices":63,"material":2}]},{"primitives":[{"mode":4,"attributes":{"POSITION":64,"NORMAL":65,"TEXCOORD_0":66},"indices":67,"material":1}]},{"primitives":[{"mode":4,"attributes":{"POSITION":68,"NORMAL":69,"TEXCOORD_0":70},"indices":71,"material":0}]},{"primitives":[{"mode":4,"attributes":{"POSITION":72,"NORMAL":73,"TEXCOORD_0":74},"indices":75,"material":2}]}]}